<?xml version="1.0" encoding="utf-8"?>
<!-- Generator: Adobe Illustrator 26.3.1, SVG Export Plug-In . SVG Version: 6.00 Build 0)  -->
<svg version="1.1" xmlns="http://www.w3.org/2000/svg" xmlns:xlink="http://www.w3.org/1999/xlink" x="0px" y="0px"
	 viewBox="0 0 100 100" style="enable-background:new 0 0 100 100;" xml:space="preserve">
	<style type="text/css">
		.fill{fill:#DFE0E4;}
	</style>
	<path class="fill" d="M85.3,48.3c1.9,0,3.9-0.2,5.9-0.5c2-0.3,4.1-0.9,6.4-1.8l1.5,10.4c-1.9,0.9-4.1,1.6-6.7,2.2
		c1.7,1.9,3.4,4.4,5.1,7.5c1.7,3.1,2.5,7,2.5,11.5c0,3.7-0.6,6.9-1.7,9.6c-1.1,2.7-2.8,4.9-4.9,6.7c-2.1,1.8-4.6,3.1-7.5,3.9
		c-2.9,0.8-6.1,1.3-9.6,1.3c-5.7,0-11.2-1-16.6-2.9c-5.4-1.9-10.2-4.7-14.4-8.5C41,84.1,37.6,79.4,35,73.7
		c-2.6-5.7-3.9-12.3-3.9-19.8c0-0.9,0-1.9,0.1-2.8c0.1-0.9,0.2-1.9,0.4-2.9L2,41.1L0,28.8l74.1,17.9c1.9,0.4,3.8,0.8,5.6,1.1
		C81.5,48.2,83.4,48.3,85.3,48.3z M90,75.2c0-3.5-0.7-6.6-2.2-9.1c-1.5-2.5-3.2-4.7-5.1-6.5c-1.4-0.1-2.8-0.2-4.4-0.4
		c-1.6-0.2-3.3-0.5-5.1-1l-31.7-7.6c-0.2,0.8-0.3,1.6-0.3,2.5c0,0.9-0.1,1.8-0.1,2.7c0,4.8,0.9,9.2,2.8,13.1
		c1.9,3.9,4.4,7.2,7.5,9.9c3.1,2.7,6.7,4.9,10.8,6.3c4.1,1.5,8.4,2.2,12.9,2.2c1.9,0,3.8-0.2,5.6-0.6c1.8-0.4,3.4-1.1,4.8-2
		c1.4-0.9,2.5-2.2,3.4-3.7C89.6,79.4,90,77.5,90,75.2z"/>
	<path class="fill" d="M38.8,22.6c-2.7-0.4-5.4-1-8.1-1.9c-2.8-0.9-5.4-2-8.1-3.3c-2.6-1.3-5.2-2.8-7.6-4.4
		c-2.4-1.6-4.6-3.3-6.6-5.1l2.9-7c2,1.5,4.2,2.8,6.6,4.1c2.4,1.2,4.8,2.3,7.2,3.2c2.5,0.9,4.9,1.6,7.2,2.2c2.3,0.6,4.5,1,6.5,1.2
		V22.6z M69.1,25.4c0-2.1,0.6-3.7,1.7-4.9c1.1-1.2,2.8-1.8,4.9-1.8c2.7,0,4.7,0.8,6.2,2.4c1.5,1.6,2.2,3.4,2.2,5.5
		c0,2.1-0.6,3.7-1.7,5c-1.2,1.2-2.8,1.8-5.1,1.8c-1.3,0-2.4-0.2-3.4-0.7c-1-0.5-1.9-1.1-2.6-1.8c-0.7-0.7-1.2-1.6-1.6-2.6
		C69.3,27.3,69.1,26.3,69.1,25.4z"/>
</svg>
