<?xml version="1.0" encoding="utf-8"?>
<!-- Generator: Adobe Illustrator 26.3.1, SVG Export Plug-In . SVG Version: 6.00 Build 0)  -->
<svg version="1.1" id="Camada_1" xmlns="http://www.w3.org/2000/svg" xmlns:xlink="http://www.w3.org/1999/xlink" x="0px" y="0px"
	 viewBox="0 0 100 100" style="enable-background:new 0 0 100 100;" xml:space="preserve">
<style type="text/css">
	.fill{fill:#DFE0E4;}
</style>
<g>
	<path class="fill" d="M4.6,41.2c4.4,4.4,9,8.3,13.8,11.8c4.9,3.5,9.9,6.5,15.1,9s10.6,4.4,16.1,5.7c5.5,1.3,11.1,2,16.8,2
		c5.9,0,11.2-0.4,15.9-1.2c4.7-0.8,9.2-2.2,13.6-4.3l4.1,7.4c-4.1,2.4-9,4.2-14.4,5.5c-5.5,1.3-11.2,2-17.2,2
		c-13.1,0-25.4-2.6-36.7-7.9C20.3,65.9,9.8,58,0,47.7L4.6,41.2z"/>
	<path class="fill" d="M49.2,41.5c-2.2-0.3-4.4-0.8-6.7-1.6c-2.3-0.7-4.5-1.6-6.6-2.7c-2.2-1.1-4.2-2.3-6.2-3.6s-3.8-2.7-5.4-4.2
		l2.4-5.8c1.6,1.2,3.4,2.3,5.4,3.3c1.9,1,3.9,1.9,5.9,2.6s4,1.3,5.9,1.8s3.7,0.8,5.3,1C49.2,32.3,49.2,41.5,49.2,41.5z M74,43.8
		c0-1.7,0.5-3,1.4-4s2.3-1.5,4-1.5c2.2,0,3.9,0.7,5.1,2s1.8,2.8,1.8,4.5s-0.5,3.1-1.4,4.1s-2.3,1.5-4.2,1.5c-1,0-2-0.2-2.8-0.6
		c-0.8-0.4-1.5-0.9-2.1-1.5s-1-1.3-1.3-2.1C74.1,45.4,74,44.6,74,43.8z"/>
</g>
</svg>
