<?xml version="1.0" encoding="utf-8"?>
<!-- Generator: Adobe Illustrator 26.3.1, SVG Export Plug-In . SVG Version: 6.00 Build 0)  -->
<svg version="1.1" xmlns="http://www.w3.org/2000/svg" xmlns:xlink="http://www.w3.org/1999/xlink" x="0px" y="0px"
	 viewBox="0 0 100 100" style="enable-background:new 0 0 100 100;" xml:space="preserve">
<style type="text/css">
	.fill{fill:#DFE0E4;}
</style>
	<path class="fill" d="M29.2,33.4c4.4,0,9.2,0.4,14.4,1.2c5.2,0.8,10.4,2,15.5,3.6c5.2,1.6,10.1,3.6,14.9,6c4.8,2.4,9,5.3,12.7,8.6
		c3.7,3.3,6.6,7,8.8,11.1c2.2,4.1,3.3,8.7,3.3,13.6c0,7.7-2.4,13.3-7.1,16.9c-4.7,3.6-11.7,5.5-21,5.5c-4.4,0-9.2-0.4-14.4-1.2
		c-5.2-0.8-10.3-2-15.5-3.6c-5.2-1.6-10.1-3.6-14.9-6c-4.8-2.4-9-5.3-12.7-8.6c-3.7-3.3-6.6-7-8.8-11.1c-2.2-4.1-3.3-8.7-3.3-13.7
		c0-7.6,2.4-13.3,7.1-16.9C12.9,35.3,19.9,33.4,29.2,33.4z M30.8,46.3c-6.8,0-11.6,0.8-14.4,2.4c-2.9,1.6-4.3,4.5-4.3,8.6
		c0,2.8,0.9,5.5,2.6,8.1c1.7,2.6,4,5,6.9,7.2c2.9,2.2,6.2,4.2,10.1,6c3.8,1.8,7.9,3.3,12.1,4.6c4.2,1.3,8.6,2.2,13,2.9
		c4.4,0.7,8.6,1,12.6,1c6.8,0,11.6-0.8,14.4-2.4c2.9-1.6,4.3-4.5,4.3-8.6c0-2.9-0.9-5.6-2.6-8.2c-1.7-2.6-4-4.9-6.9-7.2
		c-2.9-2.2-6.2-4.2-10.1-6c-3.8-1.8-7.9-3.3-12.1-4.6c-4.2-1.3-8.5-2.2-12.9-2.9C39.1,46.6,34.9,46.3,30.8,46.3z"/>
	<path class="fill" d="M46,8.6c0,2.2-0.6,4-1.8,5.2c-1.2,1.3-2.9,1.9-5.2,1.9c-2.9,0-5-0.8-6.6-2.6c-1.5-1.7-2.3-3.7-2.3-5.9
		c0-2.2,0.6-4,1.8-5.3c1.2-1.3,3-2,5.4-2c1.3,0,2.6,0.3,3.6,0.8c1.1,0.5,2,1.2,2.7,2c0.8,0.8,1.3,1.7,1.7,2.7
		C45.8,6.5,46,7.5,46,8.6z M93.4,19.8c0,2.2-0.6,4-1.8,5.2c-1.2,1.3-2.9,1.9-5.2,1.9c-2.9,0-5-0.9-6.6-2.6
		c-1.5-1.7-2.3-3.7-2.3-5.9c0-2.2,0.6-4,1.8-5.3c1.2-1.3,3-2,5.4-2c1.3,0,2.6,0.3,3.6,0.8c1.1,0.5,2,1.2,2.7,2
		c0.8,0.8,1.3,1.7,1.7,2.7C93.2,17.8,93.4,18.8,93.4,19.8z"/>
</svg>
