<?xml version="1.0" encoding="utf-8"?>
<!-- Generator: Adobe Illustrator 26.3.1, SVG Export Plug-In . SVG Version: 6.00 Build 0)  -->
<svg version="1.1" xmlns="http://www.w3.org/2000/svg" xmlns:xlink="http://www.w3.org/1999/xlink" x="0px" y="0px"
	 viewBox="0 0 100 100" style="enable-background:new 0 0 100 100;" xml:space="preserve">
<style type="text/css">
	.fill{fill:#DFE0E4;}
</style>
	<path class="fill" d="M0,55.4v-8.8l100,24.1v8.8L0,55.4z"/>
	<path class="fill" d="M42,27.1c0,1.7-0.5,3-1.4,4c-0.9,1-2.2,1.5-4,1.5c-2.2,0-3.9-0.7-5-2c-1.2-1.3-1.8-2.8-1.8-4.5
		c0-1.7,0.5-3,1.4-4c0.9-1,2.3-1.5,4.1-1.5c1,0,2,0.2,2.8,0.6c0.8,0.4,1.5,0.9,2.1,1.5c0.6,0.6,1,1.3,1.3,2.1
		C41.9,25.5,42,26.3,42,27.1z M78.3,35.7c0,1.7-0.5,3-1.4,4c-0.9,1-2.2,1.5-4,1.5c-2.2,0-3.9-0.7-5-2c-1.2-1.3-1.8-2.8-1.8-4.5
		c0-1.7,0.5-3,1.4-4c0.9-1,2.3-1.5,4.1-1.5c1,0,2,0.2,2.8,0.6c0.8,0.4,1.5,0.9,2.1,1.5c0.6,0.6,1,1.3,1.3,2.1
		C78.1,34.2,78.3,34.9,78.3,35.7z"/>
</svg>
