<?xml version="1.0" encoding="utf-8"?>
<!-- Generator: Adobe Illustrator 26.3.1, SVG Export Plug-In . SVG Version: 6.00 Build 0)  -->
<svg version="1.1" xmlns="http://www.w3.org/2000/svg" xmlns:xlink="http://www.w3.org/1999/xlink" x="0px" y="0px" viewBox="0 0 100 100" style="enable-background:new 0 0 100 100;" xml:space="preserve">
	<style type="text/css">
		.fill{fill:#DFE0E4;}
	</style>
	<path class="fill" d="M36,31.5L24.4,40l-3.4-4.7l16.8-14.4l11,15.4l-4.6,4.3L36,31.5z"/>
	<path class="fill" d="M75,31.5L63.4,40l-3.4-4.7l16.8-14.4l11,15.4l-4.6,4.3L75,31.5z"/>
	<path class="fill" d="M4.6,41.2c4.4,4.4,9,8.3,13.8,11.8c4.9,3.5,9.9,6.5,15.1,9c5.2,2.5,10.6,4.4,16.1,5.7c5.5,1.3,11.1,2,16.8,2 c5.9,0,11.2-0.4,15.9-1.2c4.7-0.8,9.2-2.2,13.6-4.3l4.1,7.4c-4.1,2.4-9,4.2-14.4,5.5c-5.5,1.3-11.2,2-17.2,2 c-13.1,0-25.4-2.6-36.7-7.9C20.3,65.9,9.8,58,0,47.7L4.6,41.2z"/>
</svg>
