<?xml version="1.0" encoding="utf-8"?>
<!-- Generator: Adobe Illustrator 26.3.1, SVG Export Plug-In . SVG Version: 6.00 Build 0)  -->
<svg version="1.1" id="Camada_1" xmlns="http://www.w3.org/2000/svg" xmlns:xlink="http://www.w3.org/1999/xlink" x="0px" y="0px"
	 viewBox="0 0 250 250" style="enable-background:new 0 0 250 250;" xml:space="preserve">
<style type="text/css">
	.st0{fill:#DFE0E4;}
</style>
<path class="st0" d="M90,78.8L61,100l-8.5-11.8l42-36L122,90.8l-11.5,10.8L90,78.8z"/>
<path class="st0" d="M187.5,78.8l-29,21.2L150,88.2l42-36l27.5,38.5L208,101.5L187.5,78.8z"/>
<path class="st0" d="M11.5,103c11,11,22.5,20.8,34.5,29.5c12.2,8.8,24.8,16.2,37.8,22.5s26.5,11,40.2,14.2c13.8,3.2,27.8,5,42,5
	c14.8,0,28-1,39.8-3c11.8-2,23-5.5,34-10.8L250,179c-10.2,6-22.5,10.5-36,13.8c-13.8,3.2-28,5-43,5c-32.8,0-63.5-6.5-91.8-19.8
	C50.8,164.8,24.5,145,0,119.2L11.5,103z"/>
</svg>
