<?xml version="1.0" encoding="utf-8"?>
<svg version="1.1" xmlns="http://www.w3.org/2000/svg" xmlns:xlink="http://www.w3.org/1999/xlink" x="0px" y="0px" viewBox="0 0 128 50" style="enable-background:new 0 0 128 50;" xml:space="preserve">
<g class="fill-white01">
	<path d="M97.2,17.8v6.1l0,0v10.8c-0.3,0.1-0.9,0.2-1.6,0.2c-0.7,0.1-1.4,0.1-2,0.1c-1.8,0-3-0.5-3.7-1.6c-0.7-1-1.1-2.8-1.1-5.2
		v-4.4l0,0v-4.1l0,0v-5.9l3.8-2.1c0.2-0.1,0.3-0.4,0.2-0.6L86.5,0.2c-0.2-0.3-0.6-0.3-0.8,0l-6.3,10.9c-0.1,0.2,0,0.5,0.2,0.6l4,2.2
		v3.8l0,0v0.9v5.1v5.2c0,1.5,0.2,2.9,0.5,4.2c0.3,1.3,0.8,2.4,1.6,3.3c0.7,0.9,1.7,1.6,2.9,2.2c1.2,0.5,2.7,0.8,4.5,0.8
		c1.9,0,3.7-0.1,5.3-0.4c1.2-0.2,2.2-0.4,3.1-0.6c0.5-0.1,0.9-0.6,0.9-1.1V23.9v-5.1v-0.9C102.4,16.1,97.2,16.1,97.2,17.8z"/>
	<path d="M126.8,22.9c-0.5-1.5-1.3-2.7-2.3-3.7s-2.2-1.8-3.6-2.3s-3-0.8-4.8-0.8c-1.7,0-3.4,0.1-4.9,0.4c-1.2,0.2-2.2,0.4-3.1,0.6
		c-0.5,0.1-0.8,0.6-0.8,1.1v21.5l0,0V47c0,1.7,5.2,1.7,5.2,0v-2.6v-4.7v-1.4c0.6,0.3,1.3,0.6,2.2,0.9c0.9,0.3,1.9,0.4,2.9,0.4
		c1.6,0,3-0.3,4.2-0.9c1.2-0.6,2.3-1.4,3.1-2.4c0.8-1,1.5-2.3,1.9-3.7c0.4-1.4,0.7-3,0.7-4.7C127.6,26,127.3,24.3,126.8,22.9z
		 M120.9,33.1c-0.9,1.3-2.3,1.9-4.2,1.9c-0.9,0-1.7-0.1-2.4-0.4c-0.8-0.3-1.4-0.6-1.8-0.9V20.8c0.5-0.1,1-0.2,1.6-0.3
		c0.5,0,1-0.1,1.5-0.1c2.3,0,4,0.6,5.1,1.9c1,1.3,1.6,3.1,1.6,5.4C122.2,30.1,121.8,31.8,120.9,33.1z"/>
	<path d="M36,17.8v3.7v2.4c0,2.5,0,5.3,0,7.8v5.5v0.6c0,1.7,5.2,1.7,5.2,0v-0.6v-5.5v-7.8v-5.5v-0.6C41.2,16.1,36,16.1,36,17.8z"/>
	<path d="M29.6,18.9c-0.6-0.9-1.5-1.6-2.7-2.1c-1.1-0.5-2.6-0.8-4.3-0.8c-0.7,0-1.4,0.1-2.1,0.2s-1.3,0.3-1.9,0.5
		C18,17,17.5,17.2,17,17.5s-0.9,0.5-1.2,0.7c-0.7-0.7-1.5-1.2-2.5-1.6S11,16,9.5,16c-1.8,0-3.5,0.1-5.1,0.4
		c-1.2,0.2-2.2,0.4-3.1,0.6c-0.5,0.1-0.8,0.6-0.8,1.1c0,2.4,0,8.8,0,13.6v5.5v0.6c0,1.7,5.2,1.7,5.2,0v-0.6v-5.5V20.8
		c0.3-0.1,0.9-0.1,1.6-0.2s1.3-0.1,1.9-0.1c1.6,0,2.7,0.5,3.3,1.6c0.6,1,0.9,2.8,0.9,5.1v4.5v5.5v0.6c0,1.7,5.2,1.7,5.2,0v-0.6v-5.5
		v-5.1c0-0.9,0-1.8-0.1-2.6c-0.1-0.8-0.2-1.6-0.5-2.3c0.4-0.3,0.9-0.5,1.7-0.8c0.7-0.3,1.5-0.4,2.4-0.4c1.6,0,2.7,0.5,3.3,1.6
		c0.6,1,0.9,2.8,0.9,5.1v4.5v5.5v0.6c0,1.7,5.2,1.7,5.2,0v-0.6v-5.5v-5.3c0-1.5-0.1-2.9-0.4-4.2C30.7,20.9,30.3,19.8,29.6,18.9z"/>
	<path d="M58.9,16.5l-0.3-0.1l0,0c-0.3-0.1-0.7-0.1-1-0.2c-0.5-0.1-0.9-0.1-1.4-0.2c-0.5,0-0.9-0.1-1.2-0.1c-1.8,0-3.5,0.2-5,0.5
		c-1.2,0.3-2.2,0.5-3,0.8c-0.5,0.1-0.8,0.6-0.8,1v13.3V37v0.6c0,1.7,5.2,1.7,5.2,0v-6.1l0,0V21c0.3-0.1,0.7-0.2,1.4-0.3
		c0.6-0.1,1.3-0.2,1.8-0.2c1,0,1.9,0.1,2.6,0.2c0.1,0,0.1,0,0.2,0l0.4,0.1C59.3,21.2,60.3,16.9,58.9,16.5z"/>
	<path d="M79.3,37.6V24.9c0-1.3-0.2-2.5-0.5-3.6s-0.8-2-1.5-2.8s-1.6-1.4-2.8-1.8c-1.2-0.4-2.6-0.6-4.4-0.6c-1.4,0-2.8,0.1-4.1,0.3
		c-0.4,0.1-0.8,0.2-1.2,0.2l0,0L64,16.7c-1.4,0.3-0.4,4.5,1,4.1l0.4-0.1l0,0c0.3-0.1,0.6-0.1,0.9-0.2c1-0.2,2.1-0.3,3.3-0.3
		c0.9,0,1.6,0.1,2.2,0.3c0.6,0.2,1.1,0.6,1.4,1c0.4,0.4,0.6,0.9,0.8,1.4c0.1,0.5,0.2,1.1,0.2,1.7v0.9c-0.7-0.2-1.4-0.3-2-0.4
		S71,25,70.4,25c-1.2,0-2.4,0.1-3.6,0.4c-1.1,0.2-2.1,0.6-3,1.2s-1.5,1.3-2,2.2c-0.5,0.9-0.8,2-0.8,3.3c0,1.4,0.2,2.5,0.7,3.4
		c0.4,0.9,1.1,1.7,1.9,2.2c0.8,0.6,1.7,1,2.9,1.2c1.1,0.3,2.4,0.4,3.7,0.4c2,0,3.9-0.1,5.5-0.4c1.1-0.2,2-0.3,2.7-0.4
		C78.9,38.6,79.3,38.1,79.3,37.6z M74,32.8c-1.1,1.3-2.6,2-4.3,2c-1.7,0-3.2-0.8-4.3-2c-0.2-0.3-0.2-0.7,0-1c1.1-1.3,2.6-2,4.3-2
		c1.7,0,3.2,0.8,4.3,2C74.3,32.1,74.3,32.6,74,32.8z"/>
	<path d="M48.8,45.6c0.2-0.1,0.4-0.2,0.6-0.4c0.1-0.2,0.2-0.4,0.2-0.6c0-0.5-0.2-0.8-0.5-1.1c-0.3-0.2-0.7-0.4-1.3-0.4h-1.7v5.3H48
		c0.5,0,1-0.1,1.3-0.4c0.3-0.3,0.5-0.6,0.5-1.1c0-0.3-0.1-0.6-0.3-0.9C49.4,45.8,49.1,45.6,48.8,45.6z M46.8,43.7h1
		c0.3,0,0.6,0.1,0.8,0.2c0.2,0.1,0.3,0.4,0.3,0.6c0,0.3-0.1,0.5-0.2,0.6c-0.2,0.1-0.4,0.2-0.6,0.2h-1.2L46.8,43.7L46.8,43.7z
		 M48.8,47.6c-0.2,0.2-0.4,0.2-0.8,0.2h-1.2v-1.9h1.3c0.3,0,0.5,0.1,0.7,0.3s0.2,0.4,0.2,0.7C49.1,47.2,49,47.4,48.8,47.6z"/>
	<path d="M53,44.4c-0.2,0-0.4,0.1-0.6,0.2c-0.2,0.1-0.3,0.3-0.4,0.5v-0.7h-0.6v3.9H52v-2.8c0.1-0.2,0.2-0.3,0.3-0.4
		c0.1-0.1,0.3-0.1,0.5-0.1h0.4l0.1-0.7h-0.1C53.1,44.4,53.1,44.4,53,44.4z"/>
	<path d="M57.5,47.6v-1.9c0-0.4-0.1-0.8-0.4-1c-0.3-0.2-0.6-0.3-1.1-0.3c-0.4,0-0.8,0.1-1.1,0.4c-0.3,0.2-0.4,0.5-0.4,0.8l0,0h0.7
		c0-0.2,0.1-0.3,0.2-0.4c0.1-0.1,0.3-0.2,0.6-0.2s0.5,0.1,0.6,0.2c0.1,0.1,0.2,0.3,0.2,0.5v0.4H56c-0.5,0-0.9,0.1-1.2,0.3
		s-0.5,0.5-0.5,0.9s0.1,0.7,0.3,0.9s0.5,0.3,0.9,0.3c0.2,0,0.5-0.1,0.7-0.2c0.2-0.1,0.4-0.3,0.5-0.5c0,0.1,0,0.2,0,0.3
		s0,0.2,0.1,0.3h0.7c0-0.1-0.1-0.3-0.1-0.4C57.5,47.9,57.5,47.7,57.5,47.6z M56.8,47.2c-0.1,0.2-0.2,0.3-0.4,0.5
		c-0.2,0.1-0.4,0.2-0.7,0.2c-0.2,0-0.4-0.1-0.5-0.2S55,47.4,55,47.3c0-0.2,0.1-0.4,0.3-0.5s0.4-0.2,0.7-0.2h0.8V47.2z"/>
	<path d="M61,44.4c-0.3,0-0.5,0.1-0.7,0.2c-0.2,0.1-0.4,0.3-0.5,0.5l-0.1-0.6h-0.6v3.9h0.7v-2.9c0.1-0.2,0.2-0.3,0.4-0.4
		c0.2-0.1,0.3-0.1,0.5-0.1c0.3,0,0.5,0.1,0.6,0.2c0.1,0.1,0.2,0.4,0.2,0.7v2.5h0.7v-2.5c0-0.5-0.1-0.9-0.3-1.1
		C61.7,44.5,61.4,44.4,61,44.4z"/>
	<path d="M66.4,44.9c-0.1-0.2-0.3-0.3-0.5-0.4c-0.2-0.1-0.4-0.1-0.6-0.1c-0.5,0-0.9,0.2-1.1,0.6c-0.3,0.4-0.4,0.9-0.4,1.5v0.1
		c0,0.6,0.1,1,0.4,1.4c0.3,0.3,0.6,0.5,1.1,0.5c0.2,0,0.5,0,0.6-0.1c0.2-0.1,0.3-0.2,0.5-0.4l0.1,0.5h0.6v-5.7h-0.7V44.9z
		 M66.4,47.3c-0.1,0.2-0.2,0.3-0.4,0.4c-0.1,0.1-0.3,0.1-0.5,0.1c-0.3,0-0.6-0.1-0.8-0.4c-0.2-0.2-0.2-0.6-0.2-1v-0.1
		c0-0.5,0.1-0.8,0.2-1.1c0.2-0.3,0.4-0.4,0.8-0.4c0.2,0,0.4,0,0.5,0.1s0.3,0.2,0.4,0.4V47.3z"/>
	<path d="M72.7,44.4c-0.5,0-0.8,0.2-1.2,0.6c-0.3,0.4-0.5,0.8-0.5,1.4v0.2c0,0.6,0.2,1.1,0.5,1.4c0.3,0.4,0.8,0.5,1.3,0.5
		c0.3,0,0.6,0,0.8-0.1c0.2-0.1,0.4-0.2,0.6-0.3l-0.3-0.5c-0.1,0.1-0.3,0.2-0.5,0.3S73,48,72.8,48c-0.3,0-0.6-0.1-0.8-0.4
		c-0.2-0.2-0.3-0.6-0.3-0.9l0,0h2.5v-0.4c0-0.5-0.1-1-0.4-1.3C73.6,44.5,73.2,44.4,72.7,44.4z M73.6,46h-1.8l0,0
		c0-0.3,0.1-0.6,0.3-0.8c0.2-0.2,0.4-0.3,0.6-0.3c0.3,0,0.5,0.1,0.7,0.3C73.5,45.4,73.6,45.6,73.6,46L73.6,46z"/>
	<path d="M80.6,44.9c-0.1-0.2-0.3-0.3-0.5-0.4c-0.2-0.1-0.4-0.1-0.6-0.1c-0.5,0-0.9,0.2-1.1,0.6c-0.3,0.4-0.4,0.9-0.4,1.5v0.1
		c0,0.6,0.1,1,0.4,1.4c0.3,0.3,0.6,0.5,1.1,0.5c0.2,0,0.5,0,0.6-0.1s0.3-0.2,0.5-0.4l0.1,0.5h0.6v-5.7h-0.7V44.9z M80.6,47.3
		c-0.1,0.2-0.2,0.3-0.4,0.4c-0.1,0.1-0.3,0.1-0.5,0.1c-0.3,0-0.6-0.1-0.8-0.4c-0.2-0.2-0.2-0.6-0.2-1v-0.1c0-0.5,0.1-0.8,0.2-1.1
		c0.2-0.3,0.4-0.4,0.8-0.4c0.2,0,0.4,0,0.5,0.1s0.3,0.2,0.4,0.4V47.3z"/>
	<path d="M84.5,44.4c-0.5,0-0.8,0.2-1.2,0.6c-0.3,0.4-0.5,0.8-0.5,1.4v0.2c0,0.6,0.2,1.1,0.5,1.4c0.3,0.4,0.8,0.5,1.3,0.5
		c0.3,0,0.6,0,0.8-0.1c0.2-0.1,0.4-0.2,0.6-0.3l-0.3-0.5c-0.1,0.1-0.3,0.2-0.5,0.3S84.8,48,84.6,48c-0.3,0-0.6-0.1-0.8-0.4
		c-0.2-0.2-0.3-0.6-0.3-0.9l0,0H86v-0.4c0-0.5-0.1-1-0.4-1.3C85.4,44.5,85,44.4,84.5,44.4z M85.4,46h-1.8l0,0c0-0.3,0.1-0.6,0.3-0.8
		c0.2-0.2,0.4-0.3,0.6-0.3c0.3,0,0.5,0.1,0.7,0.3C85.3,45.4,85.4,45.6,85.4,46L85.4,46z"/>
	<path d="M89,46.1c-0.3-0.1-0.6-0.1-0.7-0.2s-0.2-0.2-0.2-0.4s0.1-0.3,0.2-0.4c0.1-0.1,0.3-0.2,0.6-0.2c0.2,0,0.4,0.1,0.6,0.2
		c0.1,0.1,0.2,0.3,0.2,0.5h0.7l0,0c0-0.3-0.1-0.6-0.4-0.9c-0.3-0.2-0.6-0.4-1.1-0.4c-0.4,0-0.8,0.1-1.1,0.3
		c-0.3,0.2-0.4,0.5-0.4,0.8s0.1,0.5,0.4,0.7c0.2,0.2,0.6,0.3,1.1,0.4c0.3,0.1,0.6,0.2,0.7,0.3s0.2,0.2,0.2,0.4s-0.1,0.3-0.2,0.4
		c-0.1,0.1-0.3,0.2-0.6,0.2c-0.2,0-0.4-0.1-0.6-0.2c-0.2-0.1-0.3-0.3-0.3-0.6h-0.7l0,0c0,0.3,0.1,0.6,0.4,0.9s0.7,0.4,1.2,0.4
		s0.8-0.1,1.1-0.3c0.3-0.2,0.4-0.5,0.4-0.8s-0.1-0.6-0.4-0.7C89.8,46.4,89.5,46.2,89,46.1z"/>
	<rect x="92" y="42.7" width="0.7" height="0.7"/>
	<rect x="92" y="44.4" width="0.7" height="3.9"/>
	<path d="M101,44.4c-0.3,0-0.5,0.1-0.7,0.2c-0.2,0.1-0.4,0.3-0.5,0.5v-0.7h-0.6v3.9h0.7v-2.9c0.1-0.2,0.2-0.3,0.4-0.4
		c0.1,0,0.3,0,0.5,0c0.3,0,0.5,0.1,0.6,0.2c0.1,0.1,0.2,0.4,0.2,0.7v2.5h0.7v-2.5c0-0.5-0.1-0.9-0.3-1.1
		C101.8,44.5,101.5,44.4,101,44.4z"/>
	<path d="M97.1,45c-0.1-0.2-0.3-0.3-0.5-0.4c-0.2-0.1-0.4-0.2-0.7-0.2c-0.5,0-0.9,0.2-1.1,0.6s-0.4,0.8-0.4,1.5v0.1
		c0,0.6,0.1,1,0.4,1.4c0.3,0.3,0.7,0.5,1.1,0.5c0.2,0,0.4,0,0.6-0.1s0.3-0.2,0.5-0.4v0.4c0,0.3-0.1,0.6-0.2,0.7s-0.4,0.2-0.8,0.2
		c-0.2,0-0.4,0-0.5-0.1c-0.2,0-0.3-0.1-0.5-0.2l-0.2,0.6c0.2,0.1,0.4,0.2,0.6,0.2c0.2,0.1,0.4,0.1,0.6,0.1c0.6,0,1-0.1,1.3-0.4
		c0.3-0.3,0.4-0.7,0.4-1.2v-3.9h-0.6L97.1,45z M97.1,47.3c-0.1,0.2-0.2,0.3-0.4,0.4c-0.1,0.1-0.3,0.1-0.5,0.1
		c-0.3,0-0.6-0.1-0.8-0.4c-0.2-0.2-0.2-0.6-0.2-0.9v-0.1c0-0.4,0.1-0.8,0.3-1.1c0.2-0.3,0.4-0.4,0.8-0.4c0.2,0,0.4,0,0.5,0.1
		s0.3,0.2,0.4,0.4v1.9H97.1z"/>
</g>
</svg>
