<?xml version="1.0" encoding="utf-8"?>
<svg version="1.1" xmlns="http://www.w3.org/2000/svg" xmlns:xlink="http://www.w3.org/1999/xlink" x="0px" y="0px" viewBox="0 0 50 50" style="enable-background:new 0 0 50 50;" xml:space="preserve">
<g>
	<path class="fill-white01" d="M38.6,22.3v7.6h0v13.6c-0.4,0.1-1.1,0.2-2,0.3c-0.9,0.1-1.7,0.1-2.5,0.1c-2.2,0-3.7-0.6-4.6-1.9
		c-0.9-1.3-1.3-3.5-1.3-6.5v-5.5h0v-5.1c0,0,0,0,0,0v-7.4l4.7-2.7c0.3-0.2,0.4-0.5,0.2-0.8L25.2,0.3c-0.2-0.4-0.8-0.4-1,0L16.4,14
		c-0.2,0.3-0.1,0.6,0.2,0.8l5,2.7v3.4c-1.5-0.5-3.2-0.8-5.3-0.8c-1.8,0-3.5,0.1-5.1,0.4c-0.5,0.1-1,0.2-1.5,0.3l0,0L8.7,21
		c-1.7,0.4-0.5,5.6,1.2,5.2l0.5-0.1l0,0c0.4-0.1,0.7-0.1,1.1-0.2c1.3-0.2,2.6-0.3,4.2-0.3c1.1,0,2,0.1,2.8,0.4
		c0.7,0.3,1.3,0.7,1.8,1.2c0.4,0.5,0.8,1.1,0.9,1.8c0.2,0.7,0.3,1.4,0.3,2.2v1.1c-0.9-0.2-1.7-0.4-2.5-0.5c-0.8-0.1-1.5-0.1-2.3-0.1
		c-1.5,0-3,0.2-4.5,0.5c-1.4,0.3-2.7,0.8-3.8,1.5c-1.1,0.7-1.9,1.6-2.6,2.7c-0.6,1.1-0.9,2.5-0.9,4.1c0,1.7,0.3,3.1,0.8,4.3
		c0.6,1.2,1.3,2.1,2.3,2.8c0.9,0.6,1.9,1.1,3.1,1.4l0,0c0.1,0,0.3,0.1,0.4,0.1c0,0,0,0,0,0c0,0,0,0,0,0c0.2,0.1,0.5,0.1,0.8,0.1
		c0.3,0.1,0.6,0.1,0.9,0.1c0.1,0,0.1,0,0.2,0c0.1,0,0.3,0,0.4,0.1c5.7,0.7,16.6,0.8,23.9-0.1c0.8-0.1,1.6-0.2,2.4-0.3
		c1.5-0.3,2.8-0.5,3.8-0.7c0.6-0.1,1.1-0.7,1.1-1.3V29.9v-6.4v-1.2C45.1,20.1,38.6,20.1,38.6,22.3z M10.4,41.2
		c-0.3-0.3-0.3-0.9,0-1.2c1.4-1.6,3.3-2.5,5.4-2.5s4,1,5.4,2.5c0.3,0.3,0.3,0.9,0,1.2c-1.4,1.6-3.3,2.5-5.4,2.5S11.8,42.8,10.4,41.2
		z"/>
</g>
</svg>
