<?xml version="1.0" encoding="utf-8"?>
<!-- Generator: Adobe Illustrator 26.3.1, SVG Export Plug-In . SVG Version: 6.00 Build 0)  -->
<svg version="1.1" id="Camada_1" xmlns="http://www.w3.org/2000/svg" xmlns:xlink="http://www.w3.org/1999/xlink" x="0px" y="0px"
	 viewBox="0 0 180 180" style="enable-background:new 0 0 180 180;" xml:space="preserve">
<style type="text/css">
	.st0{clip-path:url(#SVGID_00000050626147040736735580000007858155723444345519_);}
	.st1{opacity:0.3;fill:#2C3E50;enable-background:new    ;}
</style>
<g>
	<g>
		<g>
			<g>
				<defs>
					<path id="SVGID_1_" d="M138.9,80.3v27.5l0,0v49c-1.6,0.4-3.9,0.7-7.1,1c-3.2,0.3-6.2,0.4-9,0.4c-7.9,0-13.5-2.3-16.6-7
						c-3.2-4.7-4.8-12.4-4.8-23.3v-20l0,0V89.4c0-0.1,0-0.1,0-0.2V62.6l17.1-9.6c1-0.5,1.3-1.8,0.8-2.8L90.7,1
						c-0.8-1.3-2.7-1.3-3.5,0L59,50.2c-0.6,1-0.2,2.2,0.8,2.8l18,9.6v12.3c-5.2-1.8-11.6-2.8-19.2-2.8c-6.5,0-12.6,0.5-18.3,1.6
						c-1.9,0.3-3.7,0.7-5.3,1l0,0l-3.9,0.9c-6.2,1.5-1.7,20.1,4.4,18.6l1.6-0.4l0,0c1.3-0.3,2.6-0.5,4-0.8c4.5-0.8,9.5-1.2,15-1.2
						c4,0,7.4,0.5,10,1.6c2.7,1,4.8,2.5,6.4,4.4s2.8,4.1,3.4,6.5c0.6,2.5,1,5.1,1,7.8v3.9c-3.2-0.8-6.3-1.3-9.1-1.7
						c-2.9-0.3-5.6-0.5-8.2-0.5c-5.6,0-10.9,0.6-16,1.7s-9.6,2.9-13.5,5.4s-7,5.8-9.2,9.8c-2.3,4-3.4,8.9-3.4,14.8
						c0,6.1,1,11.2,3,15.4c2,4.1,4.8,7.5,8.4,10.1c3.2,2.3,7,4,11.3,5.2l0,0c0.5,0.1,1,0.3,1.6,0.4h0.1H42c0.8,0.2,1.7,0.4,2.7,0.5
						c1,0.2,2.1,0.4,3.2,0.5c0.2,0,0.4,0.1,0.6,0.1c0.5,0.1,1,0.1,1.5,0.2c20.6,2.5,59.8,2.7,86-0.3c3-0.3,5.9-0.6,8.6-1.1
						c5.3-0.9,10-1.8,13.8-2.7c2.3-0.5,3.9-2.5,3.9-4.8v-61.4v-23v-4.3C162.4,72.5,138.9,72.5,138.9,80.3z M37.5,148.4
						c-1.1-1.2-1.1-3.1,0-4.3c5.1-5.7,11.9-9.1,19.4-9.1s14.3,3.5,19.4,9.1c1.1,1.2,1.1,3.1,0,4.3c-5.1,5.7-11.9,9.2-19.4,9.2
						S42.6,154.1,37.5,148.4z"/>
				</defs>
				<use xlink:href="#SVGID_1_"  style="overflow:visible;fill:#009EE2;"/>
				<clipPath id="SVGID_00000085213839360124412840000003499467339601747133_">
					<use xlink:href="#SVGID_1_"  style="overflow:visible;"/>
				</clipPath>
				<g style="clip-path:url(#SVGID_00000085213839360124412840000003499467339601747133_);">
					<g>
						<g>
							<defs>
								<rect id="SVGID_00000026875363543646730970000009537593142555621256_" x="12.6" y="-5" width="154.8" height="190"/>
							</defs>
							<clipPath id="SVGID_00000168092618632254001160000016056611262696877729_">
								<use xlink:href="#SVGID_00000026875363543646730970000009537593142555621256_"  style="overflow:visible;"/>
							</clipPath>
						</g>
					</g>
				</g>
			</g>
		</g>
	</g>
	<path class="st1" d="M77.8,78.9V62.6l20.1,10.7c1,0.6,0.5,2.1-0.7,1.9C88.5,73.5,80.8,74.7,77.8,78.9z"/>
</g>
</svg>
