<!-- Generated by IcoMoon.io -->
<svg version="1.1" xmlns="http://www.w3.org/2000/svg" width="32" height="32" viewBox="0 0 32 32">
<title>ae</title>
<path fill="#f0f1f5" d="M24.933 30.667h-17.733c-3.333 0-6.133-2.8-6.133-6.133v-16.933c0-3.333 2.8-6.133 6.133-6.133h17.6c3.333 0 6.267 2.933 6.267 6.267v16.8c0 3.333-2.8 6.133-6.133 6.133zM7.2 4.133c-2 0-3.467 1.467-3.467 3.467v16.933c0 2 1.467 3.467 3.467 3.467h17.733c2 0 3.467-1.467 3.467-3.467v-16.8c0-1.867-1.733-3.6-3.6-3.6 0 0-17.6 0-17.6 0z"></path>
<path fill="#f0f1f5" d="M12.667 9.6h-2.933c-0.133 0-0.133 0.133-0.133 0.133 0 0.267-0.133 0.533-0.133 0.8 0 0.133-0.133 0.267-0.133 0.4l-3.6 10.4c0 0.133 0 0.267 0.133 0.267h2c0.133 0 0.267 0 0.267-0.133l0.933-2.667h4.267l0.933 2.667c0 0.133 0 0.133 0.133 0.133h2.4c0.133 0 0.133 0 0.133-0.267l-4.267-11.733c0.133 0 0.133 0 0 0zM9.733 16.533c0.267-0.533 0.4-1.067 0.533-1.6 0.133-0.667 0.4-1.2 0.533-1.733 0.133-0.4 0.267-0.933 0.4-1.467 0 0.267 0.133 0.667 0.267 0.933 0 0.267 0.133 0.667 0.267 0.933 0 0.4 0.133 0.667 0.267 1.067s0.267 0.8 0.4 1.067 0.133 0.533 0.267 0.8h-2.933z"></path>
<path fill="#f0f1f5" d="M25.6 16.667c0-0.4-0.133-0.933-0.267-1.333-0.133-0.533-0.4-0.933-0.667-1.333s-0.667-0.667-1.2-0.933-1.067-0.4-1.733-0.4-1.333 0.133-1.867 0.4-0.933 0.667-1.333 1.067c-0.267 0.533-0.667 1.067-0.8 1.6-0.133 0.667-0.267 1.2-0.267 1.867 0 0.533 0.133 1.067 0.267 1.6s0.4 1.067 0.8 1.467 0.933 0.8 1.467 1.067 1.2 0.4 2.133 0.4c0.533 0 1.067 0 1.6-0.133 0.4-0.133 0.8-0.267 1.2-0.4 0.133-0.133 0.133-0.133 0.133-0.133v-1.867c0-0.133-0.133-0.133-0.133-0.133-0.4 0.133-0.667 0.267-1.067 0.267-0.4 0.133-0.8 0.133-1.2 0.133-0.533 0-1.067-0.133-1.467-0.267-0.267-0.133-0.533-0.4-0.8-0.667-0.267-0.4-0.4-0.667-0.4-1.067h3.733c0.267 0 0.533 0 0.8 0s0.533 0 0.667 0c0.267 0 0.267 0 0.4 0 0 0 0.133 0 0.133-0.133s0-0.267 0-0.533c0-0.267 0-0.533-0.133-0.533zM23.333 16c-0.133 0.133-0.133 0.133-0.267 0.133s-0.4 0-0.667 0h-2.4c0-0.267 0.133-0.533 0.267-0.8 0.267-0.667 0.8-0.933 1.467-0.933 0.8 0 1.333 0.4 1.467 1.067 0.133 0.133 0.133 0.267 0.133 0.533v0z"></path>
</svg>
