<!-- Generated by IcoMoon.io -->
<svg version="1.1" xmlns="http://www.w3.org/2000/svg" width="32" height="32" viewBox="0 0 32 32">
<title>ai</title>
<path fill="#f0f1f5" d="M24.933 30.667h-17.733c-3.333 0-6.133-2.8-6.133-6.133v-16.933c0-3.333 2.8-6.133 6.133-6.133h17.6c3.333 0 6.267 2.933 6.267 6.267v16.8c0 3.333-2.8 6.133-6.133 6.133zM7.2 4.133c-2 0-3.467 1.467-3.467 3.467v16.933c0 2 1.467 3.467 3.467 3.467h17.733c2 0 3.467-1.467 3.467-3.467v-16.8c0-1.867-1.733-3.6-3.6-3.6 0 0-17.6 0-17.6 0z"></path>
<path fill="#f0f1f5" d="M12.133 18.533l-0.8 3.067h-2.933l3.733-12h3.6l3.733 12h-2.933l-0.933-3.067c0 0-3.467 0-3.467 0zM15.2 16.533l-0.8-2.533c-0.267-0.667-0.4-1.6-0.667-2.267v0c-0.133 0.667-0.4 1.6-0.533 2.267l-0.667 2.533h2.667z"></path>
<path fill="#f0f1f5" d="M23.6 10.4c0 0.8-0.533 1.333-1.467 1.333-0.8 0-1.467-0.667-1.467-1.333 0-0.8 0.533-1.333 1.467-1.333s1.467 0.667 1.467 1.333zM20.8 21.6v-8.667h2.667v8.667h-2.667z"></path>
</svg>
