<!-- Generated by IcoMoon.io -->
<svg version="1.1" xmlns="http://www.w3.org/2000/svg" width="32" height="32" viewBox="0 0 32 32">
<title>airplay</title>
<path fill="#f0f1f5" d="M26.667 4h-21.333c-2.267 0-4 1.733-4 4v13.333c0 2.267 1.733 4 4 4h1.333c0.8 0 1.333-0.533 1.333-1.333s-0.533-1.333-1.333-1.333h-1.333c-0.8 0-1.333-0.533-1.333-1.333v-13.333c0-0.8 0.533-1.333 1.333-1.333h21.333c0.8 0 1.333 0.533 1.333 1.333v13.333c0 0.8-0.533 1.333-1.333 1.333h-1.333c-0.8 0-1.333 0.533-1.333 1.333s0.533 1.333 1.333 1.333h1.333c2.267 0 4-1.733 4-4v-13.333c0-2.267-1.733-4-4-4z"></path>
<path fill="#f0f1f5" d="M17.067 20.133c-0.533-0.8-1.6-0.8-2.133 0l-4.133 5.733c-0.533 0.933 0 2.133 1.067 2.133h8.267c1.067 0 1.733-1.2 1.067-2.133l-4.133-5.733z"></path>
</svg>
