<!-- Generated by IcoMoon.io -->
<svg version="1.1" xmlns="http://www.w3.org/2000/svg" width="32" height="32" viewBox="0 0 32 32">
<title>android</title>
<path fill="#f0f1f5" d="M4 12c-0.8 0-1.333 0.533-1.333 1.333v5.333c0 0.8 0.533 1.333 1.333 1.333s1.333-0.533 1.333-1.333v-5.333c0-0.8-0.533-1.333-1.333-1.333z"></path>
<path fill="#f0f1f5" d="M28 12c-0.8 0-1.333 0.533-1.333 1.333v5.333c0 0.8 0.533 1.333 1.333 1.333s1.333-0.533 1.333-1.333v-5.333c0-0.8-0.533-1.333-1.333-1.333z"></path>
<path fill="#f0f1f5" d="M22.533 4.533c0.267-0.667 0-1.467-0.533-1.733-0.667-0.267-1.467 0-1.733 0.533l-0.667 1.333c-1.2-0.4-2.4-0.667-3.6-0.667s-2.4 0.267-3.467 0.8l-0.667-1.333c-0.4-0.667-1.2-0.933-1.733-0.667-0.667 0.4-0.933 1.2-0.667 1.733l0.933 1.733c-1.467 1.467-2.4 3.467-2.4 5.733v9.333c0 1.733 1.067 3.2 2.667 3.733v2.933c0 0.8 0.533 1.333 1.333 1.333s1.333-0.533 1.333-1.333v-2.667h5.333v2.667c0 0.8 0.533 1.333 1.333 1.333s1.333-0.533 1.333-1.333v-2.933c1.6-0.533 2.667-2 2.667-3.733v-9.333c0-2.267-0.933-4.267-2.4-5.6l0.933-1.867zM21.333 21.333c0 0.8-0.533 1.333-1.333 1.333h-8c-0.8 0-1.333-0.533-1.333-1.333v-6.667h10.667v6.667zM10.667 12c0-1.733 0.8-3.333 2.133-4.267 0 0 0 0 0 0 0.933-0.667 2-1.067 3.2-1.067s2.267 0.4 3.2 1.067c0 0 0 0 0 0 1.333 0.933 2.133 2.533 2.133 4.267h-10.667z"></path>
</svg>
