<!-- Generated by IcoMoon.io -->
<svg version="1.1" xmlns="http://www.w3.org/2000/svg" width="32" height="32" viewBox="0 0 32 32">
<title>apple</title>
<path fill="#f0f1f5" d="M25.067 9.333c0.933-0.8 1.6-2.133 1.6-3.6 0-1.733-1.333-3.067-3.067-3.067h-4c-1.733 0-3.2 0.8-4 2.133-1.333-1.333-3.067-2.133-4.933-2.133h-1.333c-0.8 0-1.333 0.533-1.333 1.333s0.533 1.333 1.333 1.333h1.333c1.733 0 3.2 1.067 3.733 2.667 0 0.133 0.133 0.267 0.133 0.267-0.8-0.133-1.6-0.267-2.533-0.267-5.333 0-9.333 4-9.333 9.333s4 12 9.333 12c1.467 0 2.8-0.533 4-1.333 1.2 0.8 2.533 1.333 4 1.333 5.333 0 9.333-6.667 9.333-12 0-3.467-1.733-6.267-4.267-8zM19.6 5.333h4c0.267 0 0.4 0.133 0.4 0.4 0 1.333-0.933 2.267-2.267 2.267h-4c-0.267 0-0.4-0.133-0.4-0.4 0-1.333 0.933-2.267 2.267-2.267zM24.533 23.733c-1.333 2-3.067 2.933-4.533 2.933-0.8 0-1.6-0.267-2.533-0.8l-0.667-0.533c-0.4-0.267-1.067-0.267-1.467 0l-0.8 0.533c-0.933 0.533-1.733 0.8-2.533 0.8-1.467 0-3.067-0.933-4.533-2.933-1.333-1.867-2.133-4.267-2.133-6.4 0-3.867 2.8-6.667 6.667-6.667 1.067 0 2 0.267 2.933 0.533l0.533 0.267c0.4 0.133 0.8 0.133 1.067 0l0.533-0.267c0.933-0.267 1.867-0.533 2.933-0.533 3.867 0 6.667 2.8 6.667 6.667 0 2.133-0.8 4.533-2.133 6.4z"></path>
<path fill="#f0f1f5" d="M11.333 16c-0.4 0-0.667 0.267-0.667 0.667v1.333c0 1.067 0.933 2 2 2 0.4 0 0.667-0.267 0.667-0.667v-1.333c0-1.067-0.933-2-2-2z"></path>
<path fill="#f0f1f5" d="M20.667 16c-1.067 0-2 0.933-2 2v1.333c0 0.4 0.267 0.667 0.667 0.667 1.067 0 2-0.933 2-2v-1.333c0-0.4-0.267-0.667-0.667-0.667z"></path>
</svg>
