<!-- Generated by IcoMoon.io -->
<svg version="1.1" xmlns="http://www.w3.org/2000/svg" width="32" height="32" viewBox="0 0 32 32">
<title>apple-01</title>
<path fill="#f0f1f5" d="M27.333 21.333c-1.867 0-3.333-1.467-3.333-3.333s1.467-3.333 3.333-3.333c0.133 0 0.4-0.133 0.267-0.4-0.133-0.4-0.133-0.8-0.267-1.2s-0.267-0.667-0.4-1.067v0c-0.933-2.4-2.667-4-5.6-4-1.467 0-2.267 0.4-3.067 0.8-0.667 0.267-1.333 0.533-2.267 0.533s-1.6-0.267-2.267-0.533c-0.8-0.4-1.6-0.8-3.067-0.8-5.333 0-6.667 5.333-6.667 10.667s2.667 12 6.667 12c1.6 0 2.667-0.4 3.6-0.8 0.667-0.267 1.2-0.533 1.733-0.533s1.067 0.267 1.733 0.533c0.933 0.4 2 0.8 3.6 0.8 2.667 0 4.8-3.067 5.867-6.667v0c0-0.133 0.133-0.267 0.133-0.4 0.133-0.533 0.267-1.2 0.4-1.733 0-0.4-0.133-0.533-0.4-0.533zM22.8 26.933c-0.667 0.933-1.2 1.067-1.467 1.067-0.933 0-1.867-0.267-2.667-0.667-0.533-0.267-1.6-0.667-2.667-0.667s-2.133 0.4-2.667 0.667c-0.8 0.4-1.733 0.667-2.667 0.667-0.4 0-1.333-0.4-2.4-2.533-1.067-1.867-1.6-4.533-1.6-6.8 0-2.533 0.267-4.667 1.067-6.133 0.4-0.667 0.667-1.067 1.2-1.333 0.267-0.267 0.8-0.533 1.733-0.533 0.4 0 0.8 0 1.067 0.133s0.533 0.133 0.933 0.4v0c0.8 0.267 1.867 0.8 3.333 0.8s2.533-0.533 3.333-0.8v0c0.4-0.133 0.667-0.267 0.933-0.4s0.667-0.133 1.067-0.133c0.933 0 1.6 0.267 2 0.533 0.4 0.4 0.667 0.8 1.067 1.6-1.867 1.067-3.067 2.933-3.067 5.2 0 2.4 1.333 4.4 3.333 5.333-0.533 1.6-1.2 2.8-1.867 3.6z"></path>
<path fill="#f0f1f5" d="M21.212 1.455c0.364 0.365-0.48 1.8-1.886 3.206s-2.841 2.25-3.206 1.886c-0.364-0.364 0.48-1.8 1.886-3.206s2.841-2.25 3.206-1.886z"></path>
</svg>
