<!-- Generated by IcoMoon.io -->
<svg version="1.1" xmlns="http://www.w3.org/2000/svg" width="32" height="32" viewBox="0 0 32 32">
<title>archive</title>
<path fill="#f0f1f5" d="M25.333 2.667h-18.667c-2.267 0-4 1.733-4 4v2.667c0 1.2 0.533 2.267 1.333 2.933v11.733c0 2.933 2.4 5.333 5.333 5.333h13.333c2.933 0 5.333-2.4 5.333-5.333v-11.733c0.8-0.667 1.333-1.733 1.333-2.933v-2.667c0-2.267-1.733-4-4-4zM25.333 24c0 1.467-1.2 2.667-2.667 2.667h-13.333c-1.467 0-2.667-1.2-2.667-2.667v-10.667h18.667v10.667zM26.667 9.333c0 0.8-0.533 1.333-1.333 1.333h-18.667c-0.8 0-1.333-0.533-1.333-1.333v-2.667c0-0.8 0.533-1.333 1.333-1.333h18.667c0.8 0 1.333 0.533 1.333 1.333v2.667z"></path>
<path fill="#f0f1f5" d="M13.333 18.667h5.333c0.8 0 1.333-0.533 1.333-1.333s-0.533-1.333-1.333-1.333h-5.333c-0.8 0-1.333 0.533-1.333 1.333s0.533 1.333 1.333 1.333z"></path>
</svg>
