<!-- Generated by IcoMoon.io -->
<svg version="1.1" xmlns="http://www.w3.org/2000/svg" width="32" height="32" viewBox="0 0 32 32">
<title>arrow-right-square</title>
<path fill="#f0f1f5" d="M28.8 8.667c-0.4-2.933-2.667-5.2-5.6-5.6-2-0.133-4.4-0.4-7.2-0.4s-5.2 0.267-7.333 0.533c-2.933 0.4-5.2 2.667-5.6 5.6-0.133 2-0.4 4.4-0.4 7.2s0.267 5.2 0.533 7.333c0.4 2.933 2.667 5.2 5.6 5.6 2 0.133 4.4 0.4 7.2 0.4s5.2-0.267 7.333-0.533c2.933-0.4 5.2-2.667 5.6-5.6 0.267-2 0.533-4.533 0.533-7.333s-0.4-5.067-0.667-7.2zM26.133 22.933c-0.267 1.733-1.6 3.067-3.333 3.333-1.733 0.133-4.133 0.4-6.8 0.4s-5.067-0.267-6.933-0.533c-1.733-0.267-3.067-1.6-3.333-3.333-0.133-1.733-0.4-4.133-0.4-6.8s0.267-5.067 0.533-6.933c0.267-1.733 1.6-3.067 3.333-3.333 1.733-0.133 4.133-0.4 6.8-0.4s5.067 0.267 6.933 0.533c1.733 0.267 3.067 1.6 3.333 3.333 0.133 1.733 0.4 4.133 0.4 6.8s-0.267 5.067-0.533 6.933z"></path>
<path fill="#f0f1f5" d="M14.933 10.4c-0.533-0.533-1.333-0.533-1.867 0s-0.533 1.333 0 1.867l3.733 3.733-3.733 3.733c-0.533 0.533-0.533 1.333 0 1.867s1.333 0.533 1.867 0l4.667-4.667c0.533-0.533 0.533-1.333 0-1.867l-4.667-4.667z"></path>
</svg>
