<!-- Generated by IcoMoon.io -->
<svg version="1.1" xmlns="http://www.w3.org/2000/svg" width="32" height="32" viewBox="0 0 32 32">
<title>arrow-up-down</title>
<path fill="#f0f1f5" d="M11.6 13.6l3.733-3.733 3.733 3.733c0.533 0.533 1.333 0.533 1.867 0s0.533-1.333 0-1.867l-4.667-4.667c-0.533-0.533-1.333-0.533-1.867 0l-4.667 4.667c-0.533 0.533-0.533 1.333 0 1.867s1.333 0.533 1.867 0z"></path>
<path fill="#f0f1f5" d="M19.067 18.4l-3.733 3.733-3.733-3.733c-0.533-0.533-1.333-0.533-1.867 0s-0.533 1.333 0 1.867l4.667 4.667c0.533 0.533 1.333 0.533 1.867 0l4.667-4.667c0.533-0.533 0.533-1.333 0-1.867s-1.333-0.533-1.867 0z"></path>
</svg>
