<!-- Generated by IcoMoon.io -->
<svg version="1.1" xmlns="http://www.w3.org/2000/svg" width="32" height="32" viewBox="0 0 32 32">
<title>at</title>
<path fill="#f0f1f5" d="M16 2.667c-7.333 0-13.333 6-13.333 13.333s6 13.333 13.333 13.333c2.133 0 4.133-0.533 5.867-1.333 0.667-0.267 0.933-1.067 0.667-1.733s-1.067-0.933-1.733-0.667c-1.467 0.667-3.067 1.067-4.8 1.067-5.867 0-10.667-4.8-10.667-10.667s4.8-10.667 10.667-10.667 10.667 4.8 10.667 10.667c0 0.267 0 1.467-0.4 2.533-0.133 0.533-0.4 0.933-0.667 1.2s-0.533 0.4-1.067 0.4c-0.533 0-0.8-0.133-0.933-0.267-0.267-0.267-0.4-0.667-0.667-1.467-0.267-1.867-0.267-4.267-0.267-7.733 0-0.8-0.533-1.333-1.333-1.333s-1.333 0.533-1.333 1.333c-1.067-0.8-2.533-1.333-4-1.333-3.733 0-6.667 2.933-6.667 6.667s2.933 6.667 6.667 6.667c2 0 3.733-0.933 5.067-2.267 0.267 0.4 0.4 0.8 0.8 1.067 0.8 0.8 1.733 1.067 2.933 1.067s2.133-0.4 2.8-1.067c0.667-0.667 1.067-1.467 1.333-2.267 0.4-1.333 0.4-2.8 0.4-3.2v0c0-7.333-6-13.333-13.333-13.333zM16 20c-2.267 0-4-1.733-4-4s1.733-4 4-4 4 1.733 4 4-1.733 4-4 4z"></path>
</svg>
