<!-- Generated by IcoMoon.io -->
<svg version="1.1" xmlns="http://www.w3.org/2000/svg" width="32" height="32" viewBox="0 0 32 32">
<title>atm</title>
<path fill="#f0f1f5" d="M26.667 4h-21.333c-2.267 0-4 1.733-4 4v5.333c0 2.267 1.733 4 4 4h1.333v6.667c0 2.267 1.733 4 4 4h10.667c2.267 0 4-1.733 4-4v-6.667h1.333c2.267 0 4-1.733 4-4v-5.333c0-2.267-1.733-4-4-4zM16 25.333h-5.333c-0.8 0-1.333-0.533-1.333-1.333v-10.667h6.667v12zM22.667 24c0 0.8-0.533 1.333-1.333 1.333h-2.667v-12h4v10.667zM28 13.333c0 0.8-0.533 1.333-1.333 1.333h-1.333v-4h-18.667v4h-1.333c-0.8 0-1.333-0.533-1.333-1.333v-5.333c0-0.8 0.533-1.333 1.333-1.333h21.333c0.8 0 1.333 0.533 1.333 1.333v5.333z"></path>
</svg>
