<!-- Generated by IcoMoon.io -->
<svg version="1.1" xmlns="http://www.w3.org/2000/svg" width="32" height="32" viewBox="0 0 32 32">
<title>avocado</title>
<path fill="#f0f1f5" d="M26.133 18.133c-0.133-0.533-0.4-1.2-0.667-1.733-0.533-1.333-0.933-2.667-1.067-4l-0.8-5.733c-0.533-3.867-3.733-6.667-7.6-6.667s-7.067 2.8-7.6 6.533l-0.8 5.867c-0.133 1.333-0.667 2.667-1.067 4-0.267 0.533-0.4 1.2-0.667 1.733-0.4 1.067-0.533 2.133-0.533 3.2 0 5.867 4.8 10.667 10.667 10.667s10.667-4.8 10.667-10.667c0-1.067-0.133-2.133-0.533-3.2zM16 29.333c-4.4 0-8-3.6-8-8 0-0.8 0.133-1.6 0.4-2.4 0.133-0.533 0.4-1.067 0.533-1.6 0.133-0.4 0.267-0.8 0.4-1.2 0.4-1.067 0.667-2.133 0.933-3.333l0.8-5.733c0.267-2.533 2.4-4.4 4.933-4.4s4.667 1.867 4.933 4.267l0.8 5.733c0.133 1.2 0.533 2.4 0.933 3.333 0.133 0.4 0.267 0.8 0.4 1.2 0.133 0.533 0.4 1.067 0.533 1.6 0.267 0.8 0.4 1.6 0.4 2.4 0 4.533-3.6 8.133-8 8.133z"></path>
<path fill="#f0f1f5" d="M16 16c-2.933 0-5.333 2.4-5.333 5.333s2.4 5.333 5.333 5.333c2.933 0 5.333-2.4 5.333-5.333s-2.4-5.333-5.333-5.333zM16 24c-1.467 0-2.667-1.2-2.667-2.667s1.2-2.667 2.667-2.667 2.667 1.2 2.667 2.667-1.2 2.667-2.667 2.667z"></path>
</svg>
