<!-- Generated by IcoMoon.io -->
<svg version="1.1" xmlns="http://www.w3.org/2000/svg" width="32" height="32" viewBox="0 0 32 32">
<title>backward</title>
<path fill="#f0f1f5" d="M25.733 6.667l-8.4 5.467v-2.133c0-3.2-3.467-5.067-6.133-3.333l-9.333 6c-2.4 1.6-2.4 5.2 0 6.667l9.333 6c2.667 1.733 6.133-0.133 6.133-3.333v-2.133l8.533 5.467c2.667 1.733 6.133-0.133 6.133-3.333v-12c0-3.2-3.6-5.067-6.267-3.333zM14.667 22c0 1.067-1.2 1.733-2 1.067l-9.333-6c-0.8-0.533-0.8-1.733 0-2.267l9.333-6c0.933-0.533 2 0 2 1.067v12.133zM29.333 22c0 1.067-1.2 1.733-2 1.067l-9.333-6c-0.8-0.533-0.8-1.733 0-2.267l9.333-6c0.933-0.533 2 0 2 1.067v12.133z"></path>
</svg>
