<!-- Generated by IcoMoon.io -->
<svg version="1.1" xmlns="http://www.w3.org/2000/svg" width="32" height="32" viewBox="0 0 32 32">
<title>balance</title>
<path fill="#f0f1f5" d="M31.2 15.733l-3.733-8.667h3.2c0.667 0 1.067-0.533 1.067-1.067s-0.4-1.2-1.067-1.2h-11.867v-2.533c0-1.067-0.8-1.867-1.867-1.867h-2c-1.067 0-1.867 0.8-1.867 1.867v2.4h-11.733c-0.667 0-1.067 0.533-1.067 1.067s0.533 1.2 1.067 1.2h3.067l-3.6 8.667c-0.133 0-0.4 0.133-0.4 0.4 0 2.933 2.4 5.467 5.467 5.467s5.467-2.4 5.467-5.467c0-0.133-0.133-0.267-0.133-0.267l-3.867-8.8h5.733v18.8h-5.733c-1.067 0-1.867 0.8-1.867 1.867v2c0 1.067 0.8 1.867 1.867 1.867h17.2c1.067 0 1.867-0.8 1.867-1.867v-2c0-1.067-0.8-1.867-1.867-1.867h-5.733v-18.8h5.733l-3.733 8.667c-0.133 0-0.267 0.133-0.267 0.4 0 2.933 2.4 5.467 5.467 5.467s5.467-2.4 5.467-5.467c0-0.133-0.133-0.267-0.267-0.267zM7.6 29.333v-1.333h16.533v1.333h-16.533zM8.4 17.867c-0.533 0.8-1.6 1.333-2.533 1.333-1.067 0-2-0.533-2.533-1.333h5.067zM3.2 15.6l2.667-6.4 2.667 6.4h-5.333zM15.333 25.867v-23.2h1.333v23.2h-1.333zM23.333 15.6l2.667-6.4 2.667 6.4h-5.333zM28.667 17.867c-0.533 0.8-1.6 1.333-2.533 1.333s-2-0.533-2.533-1.333h5.067z"></path>
</svg>
