<!-- Generated by IcoMoon.io -->
<svg version="1.1" xmlns="http://www.w3.org/2000/svg" width="32" height="32" viewBox="0 0 32 32">
<title>bank-note</title>
<path fill="#f0f1f5" d="M26.667 5.333h-21.333c-2.933 0-5.333 2.4-5.333 5.333v10.667c0 2.933 2.4 5.333 5.333 5.333h21.333c2.933 0 5.333-2.4 5.333-5.333v-10.667c0-2.933-2.4-5.333-5.333-5.333zM2.667 10.667c0-1.467 1.2-2.667 2.667-2.667h1.333c0 2.267-1.733 4-4 4v-1.333zM5.333 24c-1.467 0-2.667-1.2-2.667-2.667v-1.333c2.267 0 4 1.733 4 4h-1.333zM29.333 21.333c0 1.467-1.2 2.667-2.667 2.667h-1.333c0-2.267 1.733-4 4-4v1.333zM29.333 17.333c-3.733 0-6.667 2.933-6.667 6.667h-13.333c0-3.733-2.933-6.667-6.667-6.667v-2.667c3.733 0 6.667-2.933 6.667-6.667h13.333c0 3.733 2.933 6.667 6.667 6.667v2.667zM29.333 12c-2.267 0-4-1.733-4-4h1.333c1.467 0 2.667 1.2 2.667 2.667v1.333z"></path>
<path fill="#f0f1f5" d="M16 10.667c-2.933 0-5.333 2.4-5.333 5.333s2.4 5.333 5.333 5.333c2.933 0 5.333-2.4 5.333-5.333s-2.4-5.333-5.333-5.333zM16 18.667c-1.467 0-2.667-1.2-2.667-2.667s1.2-2.667 2.667-2.667 2.667 1.2 2.667 2.667-1.2 2.667-2.667 2.667z"></path>
</svg>
