<!-- Generated by IcoMoon.io -->
<svg version="1.1" xmlns="http://www.w3.org/2000/svg" width="32" height="32" viewBox="0 0 32 32">
<title>bank</title>
<path fill="#f0f1f5" d="M29.333 10.667v-1.067c0-1.733-1.2-3.333-2.8-3.867l-9.333-2.8c-0.8-0.267-1.6-0.267-2.267 0l-9.333 2.8c-1.733 0.533-2.933 2.133-2.933 3.867v1.067c0 2.267 1.733 4 4 4v6.667c-2.267 0-4 1.733-4 4s1.733 4 4 4h18.667c2.267 0 4-1.733 4-4s-1.733-4-4-4v-6.667c2.267 0 4-1.733 4-4zM26.667 25.333c0 0.8-0.533 1.333-1.333 1.333h-18.667c-0.8 0-1.333-0.533-1.333-1.333s0.533-1.333 1.333-1.333h18.667c0.8 0 1.333 0.533 1.333 1.333zM9.333 21.333v-6.667h2.667v6.667h-2.667zM14.667 21.333v-6.667h2.667v6.667h-2.667zM20 21.333v-6.667h2.667v6.667h-2.667zM17.333 12v0h-10.667c-0.8 0-1.333-0.533-1.333-1.333v-1.067c0-0.533 0.4-1.067 0.933-1.333l9.333-2.8c0.267-0.133 0.533-0.133 0.8 0l9.333 2.8c0.533 0.133 0.933 0.667 0.933 1.333v1.067c0 0.8-0.533 1.333-1.333 1.333v0h-8z"></path>
</svg>
