<!-- Generated by IcoMoon.io -->
<svg version="1.1" xmlns="http://www.w3.org/2000/svg" width="32" height="32" viewBox="0 0 32 32">
<title>bar-01-down</title>
<path fill="#f0f1f5" d="M24 22.667h-13.333c-0.8 0-1.333 0.533-1.333 1.333s0.533 1.333 1.333 1.333h13.333c0.8 0 1.333 0.533 1.333 1.333s-0.533 1.333-1.333 1.333h-13.333c-0.8 0-1.333 0.533-1.333 1.333s0.533 1.333 1.333 1.333h13.333c2.267 0 4-1.733 4-4s-1.733-4-4-4z"></path>
<path fill="#f0f1f5" d="M17.333 17.333h-6.667c-0.8 0-1.333 0.533-1.333 1.333s0.533 1.333 1.333 1.333h6.667c2.267 0 4-1.733 4-4s-1.733-4-4-4h-6.667c-0.8 0-1.333 0.533-1.333 1.333s0.533 1.333 1.333 1.333h6.667c0.8 0 1.333 0.533 1.333 1.333s-0.533 1.333-1.333 1.333z"></path>
<path fill="#f0f1f5" d="M12 6.667h-1.333c-0.8 0-1.333 0.533-1.333 1.333s0.533 1.333 1.333 1.333h1.333c2.267 0 4-1.733 4-4s-1.733-4-4-4h-1.333c-0.8 0-1.333 0.533-1.333 1.333s0.533 1.333 1.333 1.333h1.333c0.8 0 1.333 0.533 1.333 1.333s-0.533 1.333-1.333 1.333z"></path>
<path fill="#f0f1f5" d="M5.333 1.333c-0.8 0-1.333 0.533-1.333 1.333v26.667c0 0.8 0.533 1.333 1.333 1.333s1.333-0.533 1.333-1.333v-26.667c0-0.8-0.533-1.333-1.333-1.333z"></path>
</svg>
