<!-- Generated by IcoMoon.io -->
<svg version="1.1" xmlns="http://www.w3.org/2000/svg" width="32" height="32" viewBox="0 0 32 32">
<title>baseball-ball</title>
<path fill="#f0f1f5" d="M29.333 16c0-3.333-1.333-6.4-3.333-8.8 0 0 0 0 0 0-0.133-0.133-0.133-0.133-0.267-0.267s-0.4-0.4-0.533-0.533c-0.133-0.133-0.267-0.267-0.4-0.4s-0.4-0.267-0.533-0.533c-0.133 0-0.133-0.133-0.267-0.133 0 0 0 0 0 0-2.267-1.733-4.933-2.667-8-2.667s-5.733 1.067-8 2.667c0 0 0 0 0 0-0.133 0-0.133 0.133-0.267 0.133-0.133 0.133-0.4 0.4-0.533 0.533s-0.267 0.267-0.4 0.4c-0.133 0.133-0.4 0.4-0.533 0.533s-0.133 0.133-0.267 0.267c0 0 0 0 0 0-2 2.4-3.333 5.467-3.333 8.8s1.333 6.4 3.333 8.8c0 0 0 0 0 0 0.133 0.133 0.133 0.133 0.267 0.267 0.133 0.267 0.4 0.4 0.533 0.533s0.267 0.267 0.4 0.4c0.133 0.133 0.4 0.267 0.533 0.4s0.133 0.267 0.267 0.267c0 0 0 0 0 0 2.267 1.733 4.933 2.667 8 2.667s5.733-1.067 8-2.667c0 0 0 0 0 0 0.133 0 0.133-0.133 0.267-0.133 0.133-0.133 0.4-0.267 0.533-0.4s0.267-0.267 0.533-0.4c0.133-0.133 0.267-0.267 0.533-0.533 0.133-0.133 0.133-0.133 0.267-0.267 0 0 0 0 0 0 1.867-2.533 3.2-5.6 3.2-8.933zM8 23.067c-1.6-1.867-2.667-4.4-2.667-7.067s1.067-5.2 2.667-7.067c1.6 1.867 2.667 4.4 2.667 7.067s-1.067 5.2-2.667 7.067zM16 26.667c-2.267 0-4.267-0.667-6-1.867 2-2.4 3.333-5.467 3.333-8.8s-1.333-6.4-3.333-8.8c1.733-1.2 3.733-1.867 6-1.867s4.267 0.667 6 1.867c-2 2.4-3.333 5.467-3.333 8.8s1.333 6.4 3.333 8.8c-1.733 1.2-3.733 1.867-6 1.867zM24 23.067c-1.6-1.867-2.667-4.4-2.667-7.067s1.067-5.2 2.667-7.067c1.6 1.867 2.667 4.4 2.667 7.067s-1.067 5.2-2.667 7.067z"></path>
</svg>
