<!-- Generated by IcoMoon.io -->
<svg version="1.1" xmlns="http://www.w3.org/2000/svg" width="32" height="32" viewBox="0 0 32 32">
<title>basketball-ball</title>
<path fill="#f0f1f5" d="M29.333 14.667v0c-0.267-2.533-1.2-4.933-2.8-6.8 0 0 0 0 0 0s-0.133-0.133-0.133-0.133-0.267-0.4-0.533-0.533c-0.133-0.133-0.267-0.267-0.4-0.4s-0.4-0.4-0.533-0.533c-0.133-0.133-0.267-0.267-0.4-0.267 0 0 0 0 0 0-1.867-1.867-4.4-2.933-7.2-3.2v0c-0.4 0-0.933 0-1.333 0s-0.933 0-1.333 0v0c-2.8 0.267-5.333 1.333-7.333 3.067 0 0 0 0 0 0-0.133 0.133-0.267 0.267-0.4 0.267-0.133 0.267-0.267 0.4-0.4 0.533-0.267 0.133-0.267 0.267-0.4 0.4-0.267 0.267-0.4 0.4-0.533 0.533 0 0-0.133 0.133-0.133 0.133s0 0 0 0c-1.467 2-2.533 4.4-2.667 6.933v0c0 0.4 0 0.933 0 1.333s0 0.933 0 1.333v0c0.267 2.533 1.2 4.933 2.8 6.8 0 0 0 0 0 0s0.133 0.133 0.133 0.133 0.267 0.4 0.533 0.533c0.133 0.133 0.267 0.267 0.4 0.4s0.4 0.4 0.533 0.533c0.133 0.133 0.267 0.267 0.4 0.267 0 0 0 0 0 0 2 1.733 4.533 2.8 7.333 3.2v0c0.4 0 0.933 0 1.333 0s0.933 0 1.333 0v0c2.8-0.267 5.333-1.467 7.333-3.2 0 0 0 0 0 0 0.133-0.133 0.267-0.267 0.4-0.267 0.133-0.133 0.4-0.267 0.533-0.533 0.133-0.133 0.267-0.267 0.4-0.4s0.267-0.4 0.533-0.533c0 0 0.133-0.133 0.133-0.133s0 0 0 0c1.467-1.867 2.533-4.267 2.8-6.8v0c0-0.4 0-0.933 0-1.333s-0.4-0.933-0.4-1.333zM7.333 9.733c1.067 1.467 1.733 3.067 1.867 4.933h-3.733c0.133-1.867 0.8-3.467 1.867-4.933zM7.333 22.267c-1.067-1.467-1.733-3.067-1.867-4.933h3.867c-0.267 1.867-0.933 3.467-2 4.933zM14.667 26.533c-2.133-0.267-4-1.067-5.467-2.4 1.467-1.867 2.533-4.267 2.8-6.8h2.667v9.2zM14.667 14.667h-2.667c-0.267-2.533-1.333-4.933-2.8-6.8 1.467-1.333 3.333-2.133 5.467-2.4v9.2zM17.333 5.467c2.133 0.267 4 1.067 5.467 2.4-1.467 1.867-2.533 4.267-2.8 6.8h-2.667v-9.2zM17.333 26.533v-9.2h2.667c0.267 2.533 1.2 4.933 2.8 6.8-1.467 1.333-3.333 2.133-5.467 2.4zM24.667 22.267c-1.067-1.467-1.733-3.067-1.867-4.933h3.867c-0.267 1.867-0.933 3.467-2 4.933zM22.8 14.667c0.267-1.867 0.933-3.467 1.867-4.933 1.067 1.467 1.733 3.067 1.867 4.933h-3.733z"></path>
</svg>
