<!-- Generated by IcoMoon.io -->
<svg version="1.1" xmlns="http://www.w3.org/2000/svg" width="32" height="32" viewBox="0 0 32 32">
<title>battery-100</title>
<path fill="#f0f1f5" d="M29.733 10.933l-0.4-0.267c0-2.933-2.4-5.333-5.333-5.333h-18.667c-2.933 0-5.333 2.4-5.333 5.333v10.667c0 2.933 2.4 5.333 5.333 5.333h18.667c2.933 0 5.333-2.4 5.333-5.333l0.4-0.267c1.333-0.667 2.267-2 2.267-3.6v-3.067c0-1.467-0.8-2.8-2.267-3.467zM29.333 17.467c0 0.533-0.267 0.933-0.8 1.2l-1.867 1.067v1.6c0 1.467-1.2 2.667-2.667 2.667h-18.667c-1.467 0-2.667-1.2-2.667-2.667v-10.667c0-1.467 1.2-2.667 2.667-2.667h18.667c1.467 0 2.667 1.2 2.667 2.667v1.6l1.867 0.933c0.4 0.267 0.8 0.667 0.8 1.2v3.067z"></path>
<path fill="#f0f1f5" d="M6.667 10.667c-0.8 0-1.333 0.533-1.333 1.333v8c0 0.8 0.533 1.333 1.333 1.333s1.333-0.533 1.333-1.333v-8c0-0.8-0.533-1.333-1.333-1.333z"></path>
<path fill="#f0f1f5" d="M12 10.667c-0.8 0-1.333 0.533-1.333 1.333v8c0 0.8 0.533 1.333 1.333 1.333s1.333-0.533 1.333-1.333v-8c0-0.8-0.533-1.333-1.333-1.333z"></path>
<path fill="#f0f1f5" d="M17.333 10.667c-0.8 0-1.333 0.533-1.333 1.333v8c0 0.8 0.533 1.333 1.333 1.333s1.333-0.533 1.333-1.333v-8c0-0.8-0.533-1.333-1.333-1.333z"></path>
<path fill="#f0f1f5" d="M22.667 10.667c-0.8 0-1.333 0.533-1.333 1.333v8c0 0.8 0.533 1.333 1.333 1.333s1.333-0.533 1.333-1.333v-8c0-0.8-0.533-1.333-1.333-1.333z"></path>
</svg>
