<!-- Generated by IcoMoon.io -->
<svg version="1.1" xmlns="http://www.w3.org/2000/svg" width="32" height="32" viewBox="0 0 32 32">
<title>beaker</title>
<path fill="#f0f1f5" d="M27.2 24.667l-5.6-9.733c-0.267-0.133-0.267-0.4-0.267-0.667v-4.933c0.8 0 1.333-0.533 1.333-1.333s-0.533-1.333-1.333-1.333h-10.667c-0.8 0-1.333 0.533-1.333 1.333s0.533 1.333 1.333 1.333v4.933c0 0.267 0 0.533-0.133 0.667l-5.6 9.733c-1.6 2.667 0.4 6 3.467 6h15.467c2.933 0 4.8-3.333 3.333-6zM12.8 16.267c0.4-0.667 0.533-1.333 0.533-2v-4.933h5.333v4.933c0 0.667 0.133 1.467 0.533 2l2.933 5.067h-12.267l2.933-5.067zM23.733 28h-15.467c-1.067 0-1.733-1.067-1.2-2l1.2-2h15.333l1.2 2c0.533 0.933-0.133 2-1.067 2z"></path>
<path fill="#f0f1f5" d="M20 2.667c0 0.736-0.597 1.333-1.333 1.333s-1.333-0.597-1.333-1.333c0-0.736 0.597-1.333 1.333-1.333s1.333 0.597 1.333 1.333z"></path>
<path fill="#f0f1f5" d="M14.667 4c0 0.736-0.597 1.333-1.333 1.333s-1.333-0.597-1.333-1.333c0-0.736 0.597-1.333 1.333-1.333s1.333 0.597 1.333 1.333z"></path>
</svg>
