<!-- Generated by IcoMoon.io -->
<svg version="1.1" xmlns="http://www.w3.org/2000/svg" width="32" height="32" viewBox="0 0 32 32">
<title>behance</title>
<path fill="#f0f1f5" d="M22.667 8h5.333c0.8 0 1.333-0.533 1.333-1.333s-0.533-1.333-1.333-1.333h-5.333c-0.8 0-1.333 0.533-1.333 1.333s0.533 1.333 1.333 1.333z"></path>
<path fill="#f0f1f5" d="M25.333 10.667c-3.733 0-6.667 2.933-6.667 6.667v2.667c0 3.733 2.933 6.667 6.667 6.667 1.867 0 3.6-0.8 4.8-2 0.8-0.8 0.133-2-1.067-2-0.4 0-0.933 0.267-1.2 0.533-0.8 0.533-1.6 0.8-2.533 0.8-2.267 0-4-1.733-4-4h9.333c0.8 0 1.333-0.533 1.333-1.333v-1.333c0-3.733-2.933-6.667-6.667-6.667zM21.333 17.333c0-2.267 1.733-4 4-4s4 1.733 4 4h-8z"></path>
<path fill="#f0f1f5" d="M13.067 14.533c0.933-1.067 1.6-2.4 1.6-3.867 0-2.933-2.4-5.333-5.333-5.333h-7.2c-1.2 0-2.133 0.933-2.133 2.133v16.933c0 1.2 1.067 2.267 2.267 2.267h7.067c3.733 0 6.667-2.933 6.667-6.667 0-2.267-1.2-4.267-2.933-5.467zM2.667 8h6.667c1.467 0 2.667 1.2 2.667 2.667s-1.2 2.667-2.667 2.667h-6.667v-5.333zM9.333 24h-6.667v-8h6.667c2.267 0 4 1.733 4 4s-1.733 4-4 4z"></path>
</svg>
