<!-- Generated by IcoMoon.io -->
<svg version="1.1" xmlns="http://www.w3.org/2000/svg" width="32" height="32" viewBox="0 0 32 32">
<title>bell</title>
<path fill="#f0f1f5" d="M26.8 22.8v0-8.267c0-5.867-4.8-10.667-10.8-10.667s-10.8 4.8-10.8 10.667v8.267c-0.667 0-1.2 0.533-1.2 1.2s0.533 1.2 1.2 1.2h21.6c0.667 0 1.2-0.533 1.2-1.2s-0.533-1.2-1.2-1.2zM24.4 22.8h-16.8v-8.133c0-4.533 3.733-8.267 8.4-8.267s8.4 3.733 8.4 8.267v8.133z"></path>
<path fill="#f0f1f5" d="M17.6 26.4h-3.333c-0.8 0-1.333 0.667-1.067 1.333 0.133 0.267 0.4 0.533 0.533 0.8 0.533 0.533 1.333 0.8 2.133 0.8s1.6-0.267 2.133-0.8c0.267-0.267 0.4-0.533 0.533-0.8 0.533-0.667-0.133-1.333-0.933-1.333z"></path>
</svg>
