<!-- Generated by IcoMoon.io -->
<svg version="1.1" xmlns="http://www.w3.org/2000/svg" width="31" height="32" viewBox="0 0 31 32">
<title>blank</title>
<path fill="#f0f1f5" d="M17.98 2.889l10.57 8.023c0.046 0.035 0.090 0.073 0.131 0.114 0.396 0.396 0.759 0.958 0.759 1.673 0 0.63-0.302 1.322-0.962 1.714l-10.498 7.969c-0.69 0.623-1.596 0.601-2.205 0.336-0.379-0.141-0.748-0.388-1.004-0.797-0.256-0.41-0.307-0.84-0.307-1.158v-3.6c-5.177 1.182-9.218 5.255-10.4 10.414-0.133 0.58-0.647 0.992-1.242 0.994s-1.113-0.405-1.251-0.983c-0.691-2.904-0.693-5.982 0.558-9.32 2.067-5.554 6.7-9.694 12.335-10.87v-2.89c0-0.488 0.213-0.899 0.375-1.142 0.171-0.257 0.452-0.575 0.845-0.771 0.607-0.303 1.571-0.361 2.296 0.294zM17.024 5.377v3.098c0 0.64-0.473 1.182-1.107 1.268-5.132 0.7-9.494 4.325-11.389 9.418l-0.001 0.003c-0.321 0.856-0.544 1.689-0.683 2.504 2.584-3.939 6.814-6.704 11.748-7.296 0.363-0.044 0.728 0.070 1.002 0.313s0.43 0.591 0.43 0.957v4.25l9.562-7.258-9.562-7.258z"></path>
</svg>
