<!-- Generated by IcoMoon.io -->
<svg version="1.1" xmlns="http://www.w3.org/2000/svg" width="32" height="32" viewBox="0 0 32 32">
<title>blender</title>
<path fill="#f0f1f5" d="M20.4 28.8c-1.867 0-3.6-0.4-4.933-1.067-1.467-0.533-2.8-1.467-3.733-2.667-0.933-0.933-1.733-2.267-2.133-3.733v-0.133c0 0 0 0 0-0.133l-3.6 2.933c-0.8 0.667-1.733 0.933-2.533 0.933-1.067 0-2-0.4-2.533-1.2-0.533-0.667-0.533-1.467-0.533-2 0-0.133 0-0.267 0-0.267 0.267-0.933 0.8-1.733 1.467-2.267l6.667-4.933h-1.333c-0.933 0-1.867-0.533-2.4-1.2-0.4-0.667-0.667-1.333-0.667-2v-0.133c0.267-1.733 1.867-2.8 3.733-2.533h7.2c-0.133-0.133-0.4-0.267-0.533-0.4l-0.133-0.133c-0.533-0.533-0.8-1.2-0.8-1.867 0-0.8 0.267-1.467 1.067-2 0.533-0.533 1.333-0.667 2-0.667s1.333 0.267 1.867 0.667l8.933 6.933c1.067 0.933 1.867 1.867 2.4 2.667 0.667 1.067 1.2 2.4 1.333 3.867 0 0.267 0.133 0.4 0.133 0.667 0.133 1.2 0.133 2.4-0.133 3.6v0.133c-0.4 1.333-1.067 2.4-2.133 3.733-0.933 0.933-2.267 2-3.867 2.667-1.333 0.267-2.933 0.533-4.8 0.533zM12 20.667c0.4 1.067 0.933 2 1.6 2.667 0.8 0.933 1.733 1.6 2.933 2 1.067 0.533 2.4 0.8 3.867 0.8s2.667-0.267 3.867-0.8c1.333-0.533 2.267-1.333 2.933-2 0.8-0.8 1.333-1.733 1.6-2.667 0.133-0.8 0.133-1.733 0.133-2.667 0-0.133 0-0.4-0.133-0.533v-0.133c-0.133-0.933-0.4-2-0.933-2.8-0.4-0.667-0.933-1.333-1.733-2l-8.933-6.8c-0.133-0.133-0.4-0.133-0.533-0.133 0.533 0.4 1.067 0.8 1.467 1.2 0.667 0.533 1.333 1.067 1.733 1.467s0.533 0.933 0.267 1.467-0.667 0.8-1.2 0.8h-10.933c-0.533 0.133-0.933 0.267-0.933 0.4s0 0.267 0.133 0.4h5.6c0.533 0 1.067 0.4 1.2 0.933s0 1.2-0.533 1.467l-10 7.333c-0.267 0.133-0.4 0.4-0.533 0.667 0 0.133 0 0.267 0 0.4v0c0 0 0.133 0 0.267 0s0.533-0.133 0.933-0.4l5.2-4.4c0.4-0.267 0.933-0.4 1.467-0.133s0.8 0.667 0.8 1.2v0.8c0.133 0.4 0.267 1.067 0.4 1.467zM20.4 22.8c-1.6 0-2.933-0.533-4-1.6-1.467-1.467-1.6-2.8-1.467-3.733 0-1.333 0.667-2.667 1.867-3.6 1.067-0.933 2.4-1.333 3.6-1.333 1.333 0 2.8 0.533 3.733 1.467 1.2 1.2 1.733 2.4 1.733 3.6 0 1.467-0.533 2.667-1.467 3.733-1.067 0.933-2.4 1.467-4 1.467zM20.4 15.2c-0.667 0-1.333 0.267-1.867 0.8-0.267 0.267-0.933 0.8-0.933 1.6v0.133c0 0.4 0 0.933 0.667 1.6 1.067 1.067 3.2 1.067 4.267 0 0.533-0.533 0.667-1.067 0.667-1.867 0-0.4-0.4-1.067-0.933-1.6-0.4-0.4-1.067-0.667-1.867-0.667z"></path>
</svg>
