<!-- Generated by IcoMoon.io -->
<svg version="1.1" xmlns="http://www.w3.org/2000/svg" width="32" height="32" viewBox="0 0 32 32">
<title>bluetooth</title>
<path fill="#f0f1f5" d="M26.267 6.933l-7.067-6.133c-1.867-1.467-4.533-0.133-4.533 2.133v10.267l-7.067-6.267c-0.667-0.4-1.467-0.4-2 0.133-0.4 0.667-0.4 1.467 0.133 2l8.133 6.933-8.133 6.933c-0.533 0.533-0.667 1.333-0.133 1.867s1.333 0.667 1.867 0.133l7.067-6.133v10.267c0 2.267 2.667 3.467 4.4 2l6-5.067c1.2-1.067 1.2-2.933 0-4l-6.933-6 8.133-6.933c0.4-0.267 0.533-0.667 0.533-1.067s-0.133-0.8-0.4-1.067zM23.333 24l-6 5.067v-10.267l6 5.2zM17.333 13.067v-10.133l6 5.067-6 5.067z"></path>
</svg>
