<!-- Generated by IcoMoon.io -->
<svg version="1.1" xmlns="http://www.w3.org/2000/svg" width="32" height="32" viewBox="0 0 32 32">
<title>bookmark</title>
<path fill="#f0f1f5" d="M27.733 6.4c-0.133-2.667-2.133-4.667-4.8-4.933-1.733 0-4-0.133-6.933-0.133s-5.2 0.133-6.933 0.133c-2.667 0.133-4.667 2.267-4.8 4.933-0.133 2.133-0.267 5.333-0.267 9.6 0 6.667 0.267 11.333 0.4 13.733 0.133 1.067 1.2 1.467 2 0.933l8.8-6.133c0.4-0.267 1.067-0.267 1.6 0l8.8 6.133c0.8 0.533 2 0.133 2-0.933 0.133-2.4 0.4-7.067 0.4-13.733 0-4.267-0.133-7.467-0.267-9.6zM25.067 27.067l-6.8-4.8c-1.333-0.933-3.2-0.933-4.667 0l-6.8 4.8c0-2.533-0.133-6.267-0.133-11.067 0-4.267 0.133-7.333 0.267-9.467 0.133-1.333 1.067-2.267 2.4-2.4 1.6 0 3.867-0.133 6.667-0.133s5.067 0.133 6.8 0.133c1.333 0.133 2.267 1.067 2.4 2.4 0 2.133 0.133 5.2 0.133 9.467 0 4.8-0.133 8.533-0.267 11.067z"></path>
</svg>
