<!-- Generated by IcoMoon.io -->
<svg version="1.1" xmlns="http://www.w3.org/2000/svg" width="31" height="32" viewBox="0 0 31 32">
<title>bot</title>
<path fill="#f0f1f5" d="M26.624 26.64h-22.528c-0.768 0-1.28-0.512-1.28-1.28v-16.512c0-0.768 0.512-1.28 1.28-1.28h22.4c0.768 0 1.28 0.512 1.28 1.28v16.512c0.128 0.64-0.512 1.28-1.152 1.28zM5.376 24.080h19.84v-13.952h-19.84v13.952z"></path>
<path fill="#f0f1f5" d="M24.32 10.128h-17.92c-0.768 0-1.28-0.512-1.28-1.28v-3.456c0-0.768 0.512-1.28 1.28-1.28h17.92c0.768 0 1.28 0.512 1.28 1.28v3.328c0 0.768-0.512 1.408-1.28 1.408zM7.68 7.568h15.36v-0.896h-15.36v0.896z"></path>
<path fill="#f0f1f5" d="M4.096 22.288c-1.92 0-3.584-1.536-3.584-3.584v-3.456c0-1.92 1.536-3.584 3.584-3.584 0.768 0 1.28 0.512 1.28 1.28v7.936c0 0.896-0.512 1.408-1.28 1.408z"></path>
<path fill="#f0f1f5" d="M26.624 22.288c-0.768 0-1.28-0.512-1.28-1.28v-7.936c0-0.768 0.512-1.28 1.28-1.28 1.92 0 3.584 1.536 3.584 3.584v3.456c-0.128 1.92-1.664 3.456-3.584 3.456z"></path>
<path fill="#f0f1f5" d="M10.88 18.576c-1.792 0-3.2-1.408-3.2-3.2s1.408-3.2 3.2-3.2c1.792 0 3.2 1.408 3.2 3.2-0.128 1.792-1.536 3.2-3.2 3.2zM10.88 14.736c-0.384 0-0.64 0.256-0.64 0.64s0.256 0.64 0.64 0.64c0.384 0 0.64-0.256 0.64-0.64s-0.384-0.64-0.64-0.64z"></path>
<path fill="#f0f1f5" d="M19.712 18.576c-1.792 0-3.2-1.408-3.2-3.2s1.408-3.2 3.2-3.2c1.792 0 3.2 1.408 3.2 3.2-0.128 1.792-1.536 3.2-3.2 3.2zM19.712 14.736c-0.384 0-0.64 0.256-0.64 0.64s0.256 0.64 0.64 0.64c0.384 0 0.64-0.256 0.64-0.64s-0.384-0.64-0.64-0.64z"></path>
<path fill="#f0f1f5" d="M21.12 22.16h-11.52c-0.768 0-1.28-0.512-1.28-1.28s0.512-1.28 1.28-1.28h11.392c0.768 0 1.28 0.512 1.28 1.28s-0.512 1.28-1.152 1.28z"></path>
</svg>
