<!-- Generated by IcoMoon.io -->
<svg version="1.1" xmlns="http://www.w3.org/2000/svg" width="32" height="32" viewBox="0 0 32 32">
<title>boxes</title>
<path fill="#f0f1f5" d="M26.667 14.667h-2.667v-9.333c0-2.267-1.733-4-4-4h-8c-2.267 0-4 1.733-4 4v9.333h-2.667c-2.267 0-4 1.733-4 4v8c0 2.267 1.733 4 4 4h21.333c2.267 0 4-1.733 4-4v-8c0-2.267-1.733-4-4-4zM14.667 27.333c0 0.4-0.267 0.667-0.667 0.667h-8.667c-0.8 0-1.333-0.533-1.333-1.333v-8c0-0.8 0.533-1.333 1.333-1.333h2.667v1.333c0 0.8 0.533 1.333 1.333 1.333s1.333-0.533 1.333-1.333v-1.333h3.333c0.4 0 0.667 0.267 0.667 0.667v9.333zM14.667 14.667h-4v-9.333c0-0.8 0.533-1.333 1.333-1.333h2.667v1.333c0 0.8 0.533 1.333 1.333 1.333s1.333-0.533 1.333-1.333v-1.333h2.667c0.8 0 1.333 0.533 1.333 1.333v9.333h-6.667zM28 26.667c0 0.8-0.533 1.333-1.333 1.333h-8.667c-0.4 0-0.667-0.267-0.667-0.667v-9.333c0-0.4 0.267-0.667 0.667-0.667h3.333v1.333c0 0.8 0.533 1.333 1.333 1.333s1.333-0.533 1.333-1.333v-1.333h2.667c0.8 0 1.333 0.533 1.333 1.333v8z"></path>
</svg>
