<!-- Generated by IcoMoon.io -->
<svg version="1.1" xmlns="http://www.w3.org/2000/svg" width="32" height="32" viewBox="0 0 32 32">
<title>briefcase</title>
<path fill="#f0f1f5" d="M24 9.333v-2.667c0-2.267-1.733-4-4-4h-8c-2.267 0-4 1.733-4 4v2.667c-2.933 0-5.333 2.4-5.333 5.333v9.333c0 2.933 2.4 5.333 5.333 5.333h16c2.933 0 5.333-2.4 5.333-5.333v-9.333c0-2.933-2.4-5.333-5.333-5.333zM10.667 6.667c0-0.8 0.533-1.333 1.333-1.333h8c0.8 0 1.333 0.533 1.333 1.333v2.667h-10.667v-2.667zM26.667 24c0 1.467-1.2 2.667-2.667 2.667h-16c-1.467 0-2.667-1.2-2.667-2.667v-9.333c0-1.467 1.2-2.667 2.667-2.667h16c1.467 0 2.667 1.2 2.667 2.667v9.333z"></path>
</svg>
