<!-- Generated by IcoMoon.io -->
<svg version="1.1" xmlns="http://www.w3.org/2000/svg" width="32" height="32" viewBox="0 0 32 32">
<title>brightness-up</title>
<path fill="#f0f1f5" d="M16 8c0.8 0 1.333-0.533 1.333-1.333v-2.667c0-0.8-0.533-1.333-1.333-1.333s-1.333 0.533-1.333 1.333v2.667c0 0.8 0.533 1.333 1.333 1.333z"></path>
<path fill="#f0f1f5" d="M16 24c-0.8 0-1.333 0.533-1.333 1.333v2.667c0 0.8 0.533 1.333 1.333 1.333s1.333-0.533 1.333-1.333v-2.667c0-0.8-0.533-1.333-1.333-1.333z"></path>
<path fill="#f0f1f5" d="M28 14.667h-2.667c-0.8 0-1.333 0.533-1.333 1.333s0.533 1.333 1.333 1.333h2.667c0.8 0 1.333-0.533 1.333-1.333s-0.533-1.333-1.333-1.333z"></path>
<path fill="#f0f1f5" d="M8 16c0-0.8-0.533-1.333-1.333-1.333h-2.667c-0.8 0-1.333 0.533-1.333 1.333s0.533 1.333 1.333 1.333h2.667c0.8 0 1.333-0.533 1.333-1.333z"></path>
<path fill="#f0f1f5" d="M23.6 10.4l1.867-1.867c0.533-0.533 0.533-1.333 0-1.867s-1.333-0.533-1.867 0l-1.867 1.867c-0.533 0.533-0.533 1.333 0 1.867s1.333 0.4 1.867 0z"></path>
<path fill="#f0f1f5" d="M8.4 21.6l-1.867 1.867c-0.533 0.533-0.533 1.333 0 1.867s1.333 0.533 1.867 0l1.867-1.867c0.533-0.533 0.533-1.333 0-1.867-0.4-0.4-1.333-0.4-1.867 0z"></path>
<path fill="#f0f1f5" d="M23.6 21.6c-0.533-0.533-1.333-0.533-1.867 0s-0.533 1.333 0 1.867l1.867 1.867c0.533 0.533 1.333 0.533 1.867 0s0.533-1.333 0-1.867l-1.867-1.867z"></path>
<path fill="#f0f1f5" d="M8.4 10.4c0.533 0.533 1.333 0.533 1.867 0s0.533-1.333 0-1.867l-1.867-2c-0.533-0.533-1.333-0.533-1.867 0s-0.533 1.333 0 1.867l1.867 2z"></path>
<path fill="#f0f1f5" d="M16 10.667c-2.933 0-5.333 2.4-5.333 5.333s2.4 5.333 5.333 5.333c2.933 0 5.333-2.4 5.333-5.333s-2.4-5.333-5.333-5.333zM16 18.667c-1.467 0-2.667-1.2-2.667-2.667s1.2-2.667 2.667-2.667 2.667 1.2 2.667 2.667-1.2 2.667-2.667 2.667z"></path>
</svg>
