<!-- Generated by IcoMoon.io -->
<svg version="1.1" xmlns="http://www.w3.org/2000/svg" width="32" height="32" viewBox="0 0 32 32">
<title>brush</title>
<path fill="#f0f1f5" d="M27.867 11.867l-7.733-7.733c-1.6-1.6-4.133-1.6-5.6 0l-6.4 6.4c-1.6 1.6-1.6 4.133 0 5.6l0.667 0.667c0.267 0.267 0.267 0.8 0 0.933l-4 3.067c-2.133 1.733-2.4 4.933-0.4 6.8 2 2 5.2 1.733 6.8-0.4l3.067-4c0.267-0.267 0.667-0.4 0.933 0l0.667 0.667c1.6 1.6 4.133 1.6 5.6 0l6.4-6.4c1.6-1.6 1.6-4.133 0-5.6zM19.6 22c-0.533 0.533-1.333 0.533-1.867 0l-0.667-0.667c-1.467-1.467-3.733-1.333-4.933 0.267l-3.067 4c-0.667 0.933-2 0.933-2.8 0.133s-0.667-2.133 0.133-2.8l4-3.067c1.6-1.2 1.733-3.467 0.267-4.933l-0.667-0.667c-0.533-0.533-0.533-1.333 0-1.867l0.533-0.533 9.6 9.6-0.533 0.533zM26 15.6l-3.867 3.867-9.6-9.6 3.867-3.867c0.533-0.533 1.333-0.533 1.867 0l7.733 7.733c0.533 0.533 0.533 1.333 0 1.867z"></path>
</svg>
