<!-- Generated by IcoMoon.io -->
<svg version="1.1" xmlns="http://www.w3.org/2000/svg" width="32" height="32" viewBox="0 0 32 32">
<title>bubble-race</title>
<path fill="#f0f1f5" d="M23.333 4c-4 0-7.333 3.333-7.333 7.333s3.333 7.333 7.333 7.333 7.333-3.333 7.333-7.333-3.333-7.333-7.333-7.333zM23.333 16c-2.533 0-4.667-2.133-4.667-4.667s2.133-4.667 4.667-4.667 4.667 2.133 4.667 4.667-2.133 4.667-4.667 4.667z"></path>
<path fill="#f0f1f5" d="M10.667 11.333c0-2.533-2.133-4.667-4.667-4.667s-4.667 2.133-4.667 4.667 2.133 4.667 4.667 4.667 4.667-2.133 4.667-4.667zM6 13.333c-1.067 0-2-0.933-2-2s0.933-2 2-2 2 0.933 2 2-0.933 2-2 2z"></path>
<path fill="#f0f1f5" d="M12 17.333c-2.933 0-5.333 2.4-5.333 5.333s2.4 5.333 5.333 5.333c2.933 0 5.333-2.4 5.333-5.333s-2.4-5.333-5.333-5.333zM12 25.333c-1.467 0-2.667-1.2-2.667-2.667s1.2-2.667 2.667-2.667c1.467 0 2.667 1.2 2.667 2.667s-1.2 2.667-2.667 2.667z"></path>
</svg>
