<?xml version="1.0" encoding="utf-8"?>
<!-- Generator: Adobe Illustrator 26.0.1, SVG Export Plug-In . SVG Version: 6.00 Build 0)  -->
<svg version="1.1" id="Camada_1" xmlns="http://www.w3.org/2000/svg" xmlns:xlink="http://www.w3.org/1999/xlink" x="0px" y="0px"
	 viewBox="0 0 24 24" style="enable-background:new 0 0 24 24;" xml:space="preserve">
<style type="text/css">
	.st0{fill-rule:evenodd;clip-rule:evenodd;fill:#9291A4;}
</style>
<path class="st0" d="M19.7,5.2l-5.3-4.6C13-0.5,11,0.5,11,2.2v7.7L5.7,5.2C5.2,4.9,4.6,4.9,4.2,5.3C3.9,5.8,3.9,6.4,4.3,6.8l6.1,5.2
	l-6.1,5.2c-0.4,0.4-0.5,1-0.1,1.4c0.4,0.4,1,0.5,1.4,0.1l5.3-4.6v7.7c0,1.7,2,2.6,3.3,1.5l4.5-3.8c0.9-0.8,0.9-2.2,0-3L13.5,12
	l6.1-5.2C19.9,6.6,20,6.3,20,6S19.9,5.4,19.7,5.2z M17.5,18L13,21.8v-7.7L17.5,18z M13,9.8V2.2L17.5,6L13,9.8z"/>
</svg>
