<!-- Generated by IcoMoon.io -->
<svg version="1.1" xmlns="http://www.w3.org/2000/svg" width="32" height="32" viewBox="0 0 32 32">
<title>building</title>
<path fill="#f0f1f5" d="M25.333 13.333h-6.667v-6.667c0-2.267-1.733-4-4-4h-8c-2.267 0-4 1.733-4 4v18.667c0 2.267 1.733 4 4 4h18.667c2.267 0 4-1.733 4-4v-8c0-2.267-1.733-4-4-4zM16 13.333v13.333h-2.667v-1.333c0-0.8-0.533-1.333-1.333-1.333h-2.667c-0.8 0-1.333 0.533-1.333 1.333v1.333h-1.333c-0.8 0-1.333-0.533-1.333-1.333v-18.667c0-0.8 0.533-1.333 1.333-1.333h8c0.8 0 1.333 0.533 1.333 1.333v6.667zM26.667 25.333c0 0.8-0.533 1.333-1.333 1.333h-6.667v-10.667h6.667c0.8 0 1.333 0.533 1.333 1.333v8z"></path>
<path fill="#f0f1f5" d="M24 20c0 0.736-0.597 1.333-1.333 1.333s-1.333-0.597-1.333-1.333c0-0.736 0.597-1.333 1.333-1.333s1.333 0.597 1.333 1.333z"></path>
<path fill="#f0f1f5" d="M24 24c0 0.736-0.597 1.333-1.333 1.333s-1.333-0.597-1.333-1.333c0-0.736 0.597-1.333 1.333-1.333s1.333 0.597 1.333 1.333z"></path>
<path fill="#f0f1f5" d="M12 8h-2.667c-0.8 0-1.333 0.533-1.333 1.333s0.533 1.333 1.333 1.333h2.667c0.8 0 1.333-0.533 1.333-1.333s-0.533-1.333-1.333-1.333z"></path>
<path fill="#f0f1f5" d="M12 13.333h-2.667c-0.8 0-1.333 0.533-1.333 1.333s0.533 1.333 1.333 1.333h2.667c0.8 0 1.333-0.533 1.333-1.333s-0.533-1.333-1.333-1.333z"></path>
<path fill="#f0f1f5" d="M12 18.667h-2.667c-0.8 0-1.333 0.533-1.333 1.333s0.533 1.333 1.333 1.333h2.667c0.8 0 1.333-0.533 1.333-1.333s-0.533-1.333-1.333-1.333z"></path>
</svg>
