<!-- Generated by IcoMoon.io -->
<svg version="1.1" xmlns="http://www.w3.org/2000/svg" width="32" height="32" viewBox="0 0 32 32">
<title>burger-01</title>
<path fill="#f0f1f5" d="M30.667 18.667c0-1.467-0.8-2.667-1.867-3.333 0.267-0.667 0.533-1.333 0.533-2 0-5.2-4.133-9.333-9.333-9.333h-8c-5.2 0-9.333 4.133-9.333 9.333 0 0.667 0.267 1.333 0.533 2-1.067 0.667-1.867 1.867-1.867 3.333s0.8 2.667 1.867 3.333c-0.267 0.667-0.533 1.333-0.533 2 0 2.267 1.733 4 4 4h18.667c2.267 0 4-1.733 4-4 0-0.667-0.267-1.333-0.533-2 1.067-0.667 1.867-1.867 1.867-3.333zM12 6.667h8c3.733 0 6.667 2.933 6.667 6.667 0 0.8-0.533 1.333-1.333 1.333h-18.667c-0.8 0-1.333-0.533-1.333-1.333 0-3.733 2.933-6.667 6.667-6.667zM25.333 25.333h-18.667c-0.8 0-1.333-0.533-1.333-1.333s0.533-1.333 1.333-1.333h18.667c0.8 0 1.333 0.533 1.333 1.333s-0.533 1.333-1.333 1.333zM26.667 20h-21.333c-0.8 0-1.333-0.533-1.333-1.333s0.533-1.333 1.333-1.333h21.333c0.8 0 1.333 0.533 1.333 1.333s-0.533 1.333-1.333 1.333z"></path>
<path fill="#f0f1f5" d="M12 10.667c0 0.736-0.597 1.333-1.333 1.333s-1.333-0.597-1.333-1.333c0-0.736 0.597-1.333 1.333-1.333s1.333 0.597 1.333 1.333z"></path>
<path fill="#f0f1f5" d="M17.333 10.667c0 0.736-0.597 1.333-1.333 1.333s-1.333-0.597-1.333-1.333c0-0.736 0.597-1.333 1.333-1.333s1.333 0.597 1.333 1.333z"></path>
<path fill="#f0f1f5" d="M22.667 10.667c0 0.736-0.597 1.333-1.333 1.333s-1.333-0.597-1.333-1.333c0-0.736 0.597-1.333 1.333-1.333s1.333 0.597 1.333 1.333z"></path>
</svg>
