<!-- Generated by IcoMoon.io -->
<svg version="1.1" xmlns="http://www.w3.org/2000/svg" width="32" height="32" viewBox="0 0 32 32">
<title>cabinet-files</title>
<path fill="#f0f1f5" d="M24 2.667h-16c-2.933 0-5.333 2.4-5.333 5.333v16c0 2.933 2.4 5.333 5.333 5.333h16c2.933 0 5.333-2.4 5.333-5.333v-16c0-2.933-2.4-5.333-5.333-5.333zM26.667 24c0 1.467-1.2 2.667-2.667 2.667h-16c-1.467 0-2.667-1.2-2.667-2.667v-6.667h21.333v6.667zM26.667 14.667h-21.333v-6.667c0-1.467 1.2-2.667 2.667-2.667h16c1.467 0 2.667 1.2 2.667 2.667v6.667z"></path>
<path fill="#f0f1f5" d="M18.667 8h-5.333c-0.8 0-1.333 0.533-1.333 1.333s0.533 1.333 1.333 1.333h5.333c0.8 0 1.333-0.533 1.333-1.333s-0.533-1.333-1.333-1.333z"></path>
<path fill="#f0f1f5" d="M13.333 22.667h5.333c0.8 0 1.333-0.533 1.333-1.333s-0.533-1.333-1.333-1.333h-5.333c-0.8 0-1.333 0.533-1.333 1.333s0.533 1.333 1.333 1.333z"></path>
</svg>
