<!-- Generated by IcoMoon.io -->
<svg version="1.1" xmlns="http://www.w3.org/2000/svg" width="32" height="32" viewBox="0 0 32 32">
<title>calculator-01</title>
<path fill="#f0f1f5" d="M28 20h-8c-0.8 0-1.333 0.533-1.333 1.333s0.533 1.333 1.333 1.333h8c0.8 0 1.333-0.533 1.333-1.333s-0.533-1.333-1.333-1.333z"></path>
<path fill="#f0f1f5" d="M28 25.333h-8c-0.8 0-1.333 0.533-1.333 1.333s0.533 1.333 1.333 1.333h8c0.8 0 1.333-0.533 1.333-1.333s-0.533-1.333-1.333-1.333z"></path>
<path fill="#f0f1f5" d="M12.267 19.733c-0.533-0.533-1.333-0.533-1.867 0l-2.4 2.4-2.4-2.4c-0.533-0.533-1.333-0.533-1.867 0s-0.533 1.333 0 1.867l2.4 2.4-2.4 2.4c-0.533 0.533-0.533 1.333 0 1.867s1.333 0.533 1.867 0l2.4-2.4 2.4 2.4c0.533 0.533 1.333 0.533 1.867 0s0.533-1.333 0-1.867l-2.4-2.4 2.4-2.4c0.533-0.533 0.533-1.333 0-1.867z"></path>
<path fill="#f0f1f5" d="M20 9.333h2.667v2.667c0 0.8 0.533 1.333 1.333 1.333s1.333-0.533 1.333-1.333v-2.667h2.667c0.8 0 1.333-0.533 1.333-1.333s-0.533-1.333-1.333-1.333h-2.667v-2.667c0-0.8-0.533-1.333-1.333-1.333s-1.333 0.533-1.333 1.333v2.667h-2.667c-0.8 0-1.333 0.533-1.333 1.333s0.533 1.333 1.333 1.333z"></path>
<path fill="#f0f1f5" d="M12 6.667h-8c-0.8 0-1.333 0.533-1.333 1.333s0.533 1.333 1.333 1.333h8c0.8 0 1.333-0.533 1.333-1.333s-0.533-1.333-1.333-1.333z"></path>
</svg>
