<!-- Generated by IcoMoon.io -->
<svg version="1.1" xmlns="http://www.w3.org/2000/svg" width="32" height="32" viewBox="0 0 32 32">
<title>calendar</title>
<path fill="#f0f1f5" d="M25.333 5.333h-1.333v-1.333c0-0.8-0.533-1.333-1.333-1.333s-1.333 0.533-1.333 1.333v1.333h-10.667v-1.333c0-0.8-0.533-1.333-1.333-1.333s-1.333 0.533-1.333 1.333v1.333h-1.333c-2.267 0-4 1.733-4 4v16c0 2.267 1.733 4 4 4h18.667c2.267 0 4-1.733 4-4v-16c0-2.267-1.733-4-4-4zM26.667 25.333c0 0.8-0.533 1.333-1.333 1.333h-18.667c-0.8 0-1.333-0.533-1.333-1.333v-16c0-0.8 0.533-1.333 1.333-1.333h1.333v1.333c0 0.8 0.533 1.333 1.333 1.333s1.333-0.533 1.333-1.333v-1.333h10.667v1.333c0 0.8 0.533 1.333 1.333 1.333s1.333-0.533 1.333-1.333v-1.333h1.333c0.8 0 1.333 0.533 1.333 1.333v16z"></path>
<path fill="#f0f1f5" d="M17.333 21.333h-8c-0.8 0-1.333 0.533-1.333 1.333s0.533 1.333 1.333 1.333h8c0.8 0 1.333-0.533 1.333-1.333s-0.533-1.333-1.333-1.333z"></path>
<path fill="#f0f1f5" d="M22.667 16h-9.333c-0.8 0-1.333 0.533-1.333 1.333s0.533 1.333 1.333 1.333h9.333c0.8 0 1.333-0.533 1.333-1.333s-0.533-1.333-1.333-1.333z"></path>
</svg>
