<!-- Generated by IcoMoon.io -->
<svg version="1.1" xmlns="http://www.w3.org/2000/svg" width="32" height="32" viewBox="0 0 32 32">
<title>camera</title>
<path fill="#f0f1f5" d="M25.333 6.933l-1.333-0.267-1.467-2.267c-0.8-1.067-2-1.733-3.333-1.733h-6.4c-1.333 0-2.533 0.667-3.333 1.733l-1.467 2.267-1.333 0.267c-2.4 0.533-4 2.667-4 5.2v11.867c0 2.933 2.4 5.333 5.333 5.333h16c2.933 0 5.333-2.4 5.333-5.333v-11.867c0-2.4-1.6-4.533-4-5.2zM26.667 24c0 1.467-1.2 2.667-2.667 2.667h-16c-1.467 0-2.667-1.2-2.667-2.667v-11.867c0-1.2 0.8-2.267 2-2.533l2.267-0.533 2-3.067c0.4-0.4 0.8-0.667 1.2-0.667h6.4c0.4 0 0.8 0.267 1.067 0.533l2 3.067 2.267 0.533c1.2 0.267 2 1.333 2 2.533l0.133 12z"></path>
<path fill="#f0f1f5" d="M16 12c-2.933 0-5.333 2.4-5.333 5.333s2.4 5.333 5.333 5.333 5.333-2.4 5.333-5.333-2.4-5.333-5.333-5.333zM16 20c-1.467 0-2.667-1.2-2.667-2.667s1.2-2.667 2.667-2.667 2.667 1.2 2.667 2.667-1.2 2.667-2.667 2.667z"></path>
<path fill="#f0f1f5" d="M24 13.333c0 0.736-0.597 1.333-1.333 1.333s-1.333-0.597-1.333-1.333c0-0.736 0.597-1.333 1.333-1.333s1.333 0.597 1.333 1.333z"></path>
</svg>
