<!-- Generated by IcoMoon.io -->
<svg version="1.1" xmlns="http://www.w3.org/2000/svg" width="32" height="32" viewBox="0 0 32 32">
<title>candlesticks-up</title>
<path fill="#f0f1f5" d="M24 2.933v-1.6c0-0.8-0.533-1.333-1.333-1.333s-1.333 0.533-1.333 1.333v1.6c-1.6 0.533-2.667 2-2.667 3.733v8c0 1.733 1.067 3.2 2.667 3.733v6.933c0 0.8 0.533 1.333 1.333 1.333s1.333-0.533 1.333-1.333v-6.933c1.6-0.533 2.667-2 2.667-3.733v-8c0-1.733-1.067-3.2-2.667-3.733zM24 14.667c0 0.8-0.533 1.333-1.333 1.333s-1.333-0.533-1.333-1.333v-8c0-0.8 0.533-1.333 1.333-1.333s1.333 0.533 1.333 1.333v8z"></path>
<path fill="#f0f1f5" d="M10.667 16.267v-9.6c0-0.8-0.533-1.333-1.333-1.333s-1.333 0.533-1.333 1.333v9.6c-1.6 0.533-2.667 2-2.667 3.733v2.667c0 1.733 1.067 3.2 2.667 3.733v4.267c0 0.8 0.533 1.333 1.333 1.333s1.333-0.533 1.333-1.333v-4.267c1.6-0.533 2.667-2 2.667-3.733v-2.667c0-1.733-1.067-3.2-2.667-3.733zM10.667 22.667c0 0.8-0.533 1.333-1.333 1.333s-1.333-0.533-1.333-1.333v-2.667c0-0.8 0.533-1.333 1.333-1.333s1.333 0.533 1.333 1.333v2.667z"></path>
</svg>
