<!-- Generated by IcoMoon.io -->
<svg version="1.1" xmlns="http://www.w3.org/2000/svg" width="32" height="32" viewBox="0 0 32 32">
<title>candlesticks</title>
<path fill="#f0f1f5" d="M6.667 5.333c0-0.8-0.533-1.333-1.333-1.333s-1.333 0.533-1.333 1.333v2.667c0 0.8 0.533 1.333 1.333 1.333s1.333-0.533 1.333-1.333v-2.667z"></path>
<path fill="#f0f1f5" d="M6.667 16c0-0.8-0.533-1.333-1.333-1.333s-1.333 0.533-1.333 1.333v8c0 0.8 0.533 1.333 1.333 1.333s1.333-0.533 1.333-1.333v-8z"></path>
<path fill="#f0f1f5" d="M6.667 13.333c0 0.8-0.533 1.333-1.333 1.333s-1.333-0.533-1.333-1.333v-2.667c0-0.8 0.533-1.333 1.333-1.333s1.333 0.533 1.333 1.333v2.667zM5.333 6.667c-2.267 0-4 1.733-4 4v2.667c0 2.267 1.733 4 4 4s4-1.733 4-4v-2.667c0-2.267-1.733-4-4-4z"></path>
<path fill="#f0f1f5" d="M17.333 10.667c0-0.8-0.533-1.333-1.333-1.333s-1.333 0.533-1.333 1.333v4c0 0.8 0.533 1.333 1.333 1.333s1.333-0.533 1.333-1.333v-4z"></path>
<path fill="#f0f1f5" d="M17.333 24c0-0.8-0.533-1.333-1.333-1.333s-1.333 0.533-1.333 1.333v2.667c0 0.8 0.533 1.333 1.333 1.333s1.333-0.533 1.333-1.333v-2.667z"></path>
<path fill="#f0f1f5" d="M17.333 21.333c0 0.8-0.533 1.333-1.333 1.333s-1.333-0.533-1.333-1.333v-4c0-0.8 0.533-1.333 1.333-1.333s1.333 0.533 1.333 1.333v4zM16 13.333c-2.267 0-4 1.733-4 4v4c0 2.267 1.733 4 4 4s4-1.733 4-4v-4c0-2.267-1.733-4-4-4z"></path>
<path fill="#f0f1f5" d="M28 5.333c0-0.8-0.533-1.333-1.333-1.333s-1.333 0.533-1.333 1.333v2.667c0 0.8 0.533 1.333 1.333 1.333s1.333-0.533 1.333-1.333v-2.667z"></path>
<path fill="#f0f1f5" d="M28 20c0-0.8-0.533-1.333-1.333-1.333s-1.333 0.533-1.333 1.333v4c0 0.8 0.533 1.333 1.333 1.333s1.333-0.533 1.333-1.333v-4z"></path>
<path fill="#f0f1f5" d="M28 17.333c0 0.8-0.533 1.333-1.333 1.333s-1.333-0.533-1.333-1.333v-6.667c0-0.8 0.533-1.333 1.333-1.333s1.333 0.533 1.333 1.333v6.667zM26.667 6.667c-2.267 0-4 1.733-4 4v6.667c0 2.267 1.733 4 4 4s4-1.733 4-4v-6.667c0-2.267-1.733-4-4-4z"></path>
</svg>
