<!-- Generated by IcoMoon.io -->
<svg version="1.1" xmlns="http://www.w3.org/2000/svg" width="32" height="32" viewBox="0 0 32 32">
<title>carrot</title>
<path fill="#f0f1f5" d="M28 9.333h-3.467l3.067-3.067c0.533-0.533 0.533-1.333 0-1.867s-1.333-0.533-1.867 0l-3.067 3.067v-3.467c0-0.8-0.533-1.333-1.333-1.333s-1.333 0.533-1.333 1.333v4.4c-0.8-0.267-1.733-0.4-2.667-0.4-7.733 0-14.133 14.8-14.667 20.667 0 0.4 0.267 0.667 0.667 0.667 5.867-0.533 20.667-6.933 20.667-14.667 0-0.933-0.133-1.867-0.4-2.667h4.4c0.8 0 1.333-0.533 1.333-1.333s-0.533-1.333-1.333-1.333zM19.6 18.4c-0.533 0.533-1.067 1.067-1.733 1.6l-2.267-2.267c-0.533-0.533-1.333-0.533-1.867 0s-0.533 1.333 0 1.867l2 2c-0.4 0.267-0.8 0.533-1.2 0.8-2.933 1.733-6.133 3.067-8.667 3.733 0.4-1.333 0.933-2.933 1.733-4.667l0.8 0.8c0.533 0.533 1.333 0.533 1.867 0s0.533-1.333 0-1.867l-1.467-1.467c0.267-0.533 0.533-0.933 0.8-1.467 1.2-2 2.533-3.6 3.867-4.933l1.6 1.6c0.533 0.533 1.333 0.533 1.867 0s0.533-1.333 0-1.867l-1.333-1.333c0.667-0.133 1.2-0.267 1.733-0.267 1.333 0 2.4 0.4 2.933 1.067 0.667 0.533 1.067 1.6 1.067 2.933 0 1.067-0.533 2.267-1.733 3.733z"></path>
</svg>
