<!-- Generated by IcoMoon.io -->
<svg version="1.1" xmlns="http://www.w3.org/2000/svg" width="32" height="32" viewBox="0 0 32 32">
<title>chart-bar</title>
<path fill="#f0f1f5" d="M2.667 4c0.8 0 1.333 0.533 1.333 1.333v18.667c0 0.8 0.533 1.333 1.333 1.333h24c0.8 0 1.333 0.533 1.333 1.333s-0.533 1.333-1.333 1.333h-24c-2.267 0-4-1.733-4-4v-18.667c0-0.8 0.533-1.333 1.333-1.333z"></path>
<path fill="#f0f1f5" d="M24 6.667c-0.8 0-1.333 0.533-1.333 1.333v13.333c0 0.8 0.533 1.333 1.333 1.333s1.333-0.533 1.333-1.333v-13.333c0-0.8-0.533-1.333-1.333-1.333z"></path>
<path fill="#f0f1f5" d="M13.333 9.333c-0.8 0-1.333 0.533-1.333 1.333v10.667c0 0.8 0.533 1.333 1.333 1.333s1.333-0.533 1.333-1.333v-10.667c0-0.8-0.533-1.333-1.333-1.333z"></path>
<path fill="#f0f1f5" d="M8 17.333c-0.8 0-1.333 0.533-1.333 1.333v2.667c0 0.8 0.533 1.333 1.333 1.333s1.333-0.533 1.333-1.333v-2.667c0-0.8-0.533-1.333-1.333-1.333z"></path>
<path fill="#f0f1f5" d="M17.333 13.333c0-0.8 0.533-1.333 1.333-1.333s1.333 0.533 1.333 1.333v8c0 0.8-0.533 1.333-1.333 1.333s-1.333-0.533-1.333-1.333v-8z"></path>
</svg>
