<!-- Generated by IcoMoon.io -->
<svg version="1.1" xmlns="http://www.w3.org/2000/svg" width="32" height="32" viewBox="0 0 32 32">
<title>cinema4d</title>
<path fill="#f0f1f5" d="M16 31.6c-8.533 0-15.6-7.067-15.6-15.6s7.067-15.6 15.6-15.6c1.6 0 3.333 0.267 4.8 0.667l0.267 0.133c0.533 0.267 1.6 0.8 2 2 2.4 1.067 4.267 2.933 5.467 5.333 0.933 0.133 1.6 0.8 2 1.733 0 0 0 0.267 0.133 0.4 0.667 1.867 0.933 3.733 0.933 5.333 0 8.533-7.067 15.6-15.6 15.6zM27.867 11.2c-0.133 0.133-0.267 0.267-0.4 0.4-0.533 1.333-0.667 2.133-0.8 3.2 0 0.533-0.133 1.067-0.267 1.6-0.4 2.133-1.6 6.4-3.6 8.8-1.467 1.6-2.933 2.8-4.533 3.467 6-1.067 10.667-6.4 10.667-12.667 0-1.467-0.267-2.8-0.8-4.533-0.133-0.133-0.133-0.133-0.267-0.267zM7.733 12.4c-0.8 0.8-1.467 1.733-1.733 2.667-0.8 2.4-0.8 4.4 0 6.4 0.933 2 3.6 5.067 6.933 5.467 3.067 0.267 5.333-0.533 7.467-2.8-0.533 0.133-1.2 0.133-1.733 0.133-6 0-10.933-4.933-10.933-10.933-0.133-0.4-0.133-0.667 0-0.933zM11.067 9.867c-0.533 1.067-0.8 2.133-0.8 3.333 0 4.533 3.733 8.267 8.267 8.267 1.333 0 2.667-0.4 3.867-0.933 0.667-1.6 1.2-3.333 1.333-4.533 0.133-0.533 0.133-1.067 0.267-1.467 0.133-1.2 0.267-2.133 1.067-3.867 0.133-0.4 0.4-0.8 0.8-1.2-0.8-1.467-2-2.8-3.467-3.6-0.533 0.533-1.333 1.067-2.8 1.467-0.667 0.267-1.467 0.4-2.267 0.533-1.333 0.267-2.933 0.533-4.8 1.2-0.4 0.267-0.933 0.533-1.467 0.8zM16 3.067c-6.667 0-12.133 5.067-12.8 11.6 0-0.133 0.133-0.4 0.133-0.533 1.333-3.733 5.2-6.267 8.267-7.467 2-0.8 3.733-1.067 5.2-1.333 0.8-0.133 1.467-0.267 2-0.4 0.933-0.267 1.333-0.533 1.6-0.8-0.133-0.133-0.267-0.267-0.533-0.4-1.2-0.4-2.533-0.667-3.867-0.667zM20.533 4.133c0 0 0 0.133 0 0 0 0.133 0 0 0 0z"></path>
</svg>
