<!-- Generated by IcoMoon.io -->
<svg version="1.1" xmlns="http://www.w3.org/2000/svg" width="32" height="32" viewBox="0 0 32 32">
<title>circular-01</title>
<path fill="#f0f1f5" d="M14.667 4c0-0.8 0.533-1.333 1.333-1.333 7.333 0 13.333 6 13.333 13.333s-6 13.333-13.333 13.333c-7.333 0-13.333-6-13.333-13.333 0-3.733 1.467-7.067 4-9.467 0.533-0.533 1.333-0.533 1.867 0s0.533 1.333 0 1.867c-2 2-3.2 4.667-3.2 7.6 0 5.867 4.8 10.667 10.667 10.667s10.667-4.8 10.667-10.667c0-5.867-4.8-10.667-10.667-10.667-0.8 0-1.333-0.533-1.333-1.333z"></path>
<path fill="#f0f1f5" d="M14.667 10.667c0-0.8 0.533-1.333 1.333-1.333 3.733 0 6.667 2.933 6.667 6.667 0 0.8-0.533 1.333-1.333 1.333s-1.333-0.533-1.333-1.333c0-2.267-1.733-4-4-4-0.8 0-1.333-0.533-1.333-1.333z"></path>
</svg>
