<!-- Generated by IcoMoon.io -->
<svg version="1.1" xmlns="http://www.w3.org/2000/svg" width="32" height="32" viewBox="0 0 32 32">
<title>circular-02</title>
<path fill="#f0f1f5" d="M14.667 4c0-0.8 0.533-1.333 1.333-1.333 7.333 0 13.333 6 13.333 13.333s-6 13.333-13.333 13.333c-7.333 0-13.333-6-13.333-13.333 0-0.8 0.533-1.333 1.333-1.333s1.333 0.533 1.333 1.333c0 5.867 4.8 10.667 10.667 10.667s10.667-4.8 10.667-10.667c0-5.867-4.8-10.667-10.667-10.667-0.8 0-1.333-0.533-1.333-1.333z"></path>
<path fill="#f0f1f5" d="M14.667 10.667c0-0.8 0.533-1.333 1.333-1.333 3.733 0 6.667 2.933 6.667 6.667s-2.933 6.667-6.667 6.667c-0.8 0-1.333-0.533-1.333-1.333s0.533-1.333 1.333-1.333c2.267 0 4-1.733 4-4s-1.733-4-4-4c-0.8 0-1.333-0.533-1.333-1.333z"></path>
</svg>
