<!-- Generated by IcoMoon.io -->
<svg version="1.1" xmlns="http://www.w3.org/2000/svg" width="32" height="32" viewBox="0 0 32 32">
<title>circle-square</title>
<path fill="#f0f1f5" d="M25.333 10.667c-0.8 0-1.333 0.533-1.333 1.333s0.533 1.333 1.333 1.333 1.333 0.533 1.333 1.333v10.667c0 0.8-0.533 1.333-1.333 1.333h-10.667c-0.8 0-1.333-0.533-1.333-1.333s-0.533-1.333-1.333-1.333-1.333 0.533-1.333 1.333c0 2.267 1.733 4 4 4h10.667c2.267 0 4-1.733 4-4v-10.667c0-2.267-1.733-4-4-4z"></path>
<path fill="#f0f1f5" d="M21.333 12c0-5.2-4.133-9.333-9.333-9.333s-9.333 4.133-9.333 9.333 4.133 9.333 9.333 9.333 9.333-4.133 9.333-9.333zM5.333 12c0-3.733 2.933-6.667 6.667-6.667s6.667 2.933 6.667 6.667-2.933 6.667-6.667 6.667-6.667-2.933-6.667-6.667z"></path>
</svg>
