<!-- Generated by IcoMoon.io -->
<svg version="1.1" xmlns="http://www.w3.org/2000/svg" width="32" height="32" viewBox="0 0 32 32">
<title>clock</title>
<path fill="#f0f1f5" d="M16 2.667c-7.333 0-13.333 6-13.333 13.333s6 13.333 13.333 13.333 13.333-6 13.333-13.333-6-13.333-13.333-13.333zM16 26.667c-5.867 0-10.667-4.8-10.667-10.667s4.8-10.667 10.667-10.667 10.667 4.8 10.667 10.667-4.8 10.667-10.667 10.667z"></path>
<path fill="#f0f1f5" d="M17.333 15.467v-6.133c0-0.8-0.533-1.333-1.333-1.333s-1.333 0.533-1.333 1.333v6.667c0 0.4 0.133 0.667 0.4 0.933l3.333 3.333c0.533 0.533 1.333 0.533 1.867 0s0.533-1.333 0-1.867l-2.933-2.933z"></path>
</svg>
