<!-- Generated by IcoMoon.io -->
<svg version="1.1" xmlns="http://www.w3.org/2000/svg" width="32" height="32" viewBox="0 0 32 32">
<title>close</title>
<path fill="#f0f1f5" d="M7.067 7.067c0.533-0.533 1.333-0.533 1.867 0l7.067 7.067 7.067-7.067c0.533-0.533 1.333-0.533 1.867 0s0.533 1.333 0 1.867l-7.067 7.067 7.067 7.067c0.533 0.533 0.533 1.333 0 1.867s-1.333 0.533-1.867 0l-7.067-7.067-7.067 7.067c-0.533 0.533-1.333 0.533-1.867 0s-0.533-1.333 0-1.867l7.067-7.067-7.067-7.067c-0.533-0.533-0.533-1.333 0-1.867z"></path>
</svg>
