<!-- Generated by IcoMoon.io -->
<svg version="1.1" xmlns="http://www.w3.org/2000/svg" width="32" height="32" viewBox="0 0 32 32">
<title>close-circle</title>
<path fill="#f0f1f5" d="M16 2.667c-7.333 0-13.333 6-13.333 13.333s6 13.333 13.333 13.333 13.333-6 13.333-13.333-6-13.333-13.333-13.333zM16 26.667c-5.867 0-10.667-4.8-10.667-10.667s4.8-10.667 10.667-10.667 10.667 4.8 10.667 10.667-4.8 10.667-10.667 10.667z"></path>
<path fill="#f0f1f5" d="M20.933 11.067c-0.533-0.533-1.333-0.533-1.867 0l-3.067 3.067-3.067-3.067c-0.533-0.533-1.333-0.533-1.867 0s-0.533 1.333 0 1.867l3.067 3.067-3.067 3.067c-0.533 0.533-0.533 1.333 0 1.867s1.333 0.533 1.867 0l3.067-3.067 3.067 3.067c0.533 0.533 1.333 0.533 1.867 0s0.533-1.333 0-1.867l-3.067-3.067 3.067-3.067c0.533-0.533 0.533-1.333 0-1.867z"></path>
</svg>
