<!-- Generated by IcoMoon.io -->
<svg version="1.1" xmlns="http://www.w3.org/2000/svg" width="32" height="32" viewBox="0 0 32 32">
<title>coin</title>
<path fill="#f0f1f5" d="M16 2.667c-7.333 0-13.333 6-13.333 13.333s6 13.333 13.333 13.333 13.333-6 13.333-13.333-6-13.333-13.333-13.333zM16 26.667c-5.867 0-10.667-4.8-10.667-10.667s4.8-10.667 10.667-10.667 10.667 4.8 10.667 10.667-4.8 10.667-10.667 10.667z"></path>
<path fill="#f0f1f5" d="M14.267 12h3.067c0.8 0 1.333 0.533 1.333 1.333s0.533 1.333 1.333 1.333 1.333-0.533 1.333-1.333c0-2.267-1.733-4-4-4 0-0.8-0.533-1.333-1.333-1.333s-1.333 0.533-1.333 1.333h-0.4c-2 0-3.6 1.6-3.6 3.6 0 1.6 1.067 2.933 2.533 3.467l4.8 1.6c0.4 0.133 0.667 0.533 0.667 0.933 0 0.533-0.4 0.933-0.933 0.933h-3.067c-0.8 0-1.333-0.533-1.333-1.333s-0.533-1.333-1.333-1.333-1.333 0.533-1.333 1.333c0 2.267 1.733 4 4 4 0 0.8 0.533 1.333 1.333 1.333s1.333-0.533 1.333-1.333h0.4c2 0 3.6-1.6 3.6-3.6 0-1.6-1.067-2.933-2.533-3.467l-4.8-1.6c-0.4-0.133-0.667-0.533-0.667-0.933 0-0.533 0.4-0.933 0.933-0.933z"></path>
</svg>
