<!-- Generated by IcoMoon.io -->
<svg version="1.1" xmlns="http://www.w3.org/2000/svg" width="32" height="32" viewBox="0 0 32 32">
<title>coins</title>
<path fill="#f0f1f5" d="M12 10.667c-5.2 0-9.333 4.133-9.333 9.333s4.133 9.333 9.333 9.333 9.333-4.133 9.333-9.333-4.133-9.333-9.333-9.333zM12 26.667c-3.733 0-6.667-2.933-6.667-6.667s2.933-6.667 6.667-6.667 6.667 2.933 6.667 6.667-2.933 6.667-6.667 6.667z"></path>
<path fill="#f0f1f5" d="M20 2.667c-2.8 0-5.2 1.2-6.933 3.067-0.533 0.533-0.4 1.333 0.133 1.867s1.333 0.4 1.867-0.133c1.2-1.333 2.933-2.133 4.933-2.133 3.733 0 6.667 2.933 6.667 6.667 0 2-0.8 3.733-2.267 4.933-0.533 0.533-0.533 1.333-0.133 1.867 0.533 0.533 1.333 0.533 1.867 0.133 2-1.733 3.2-4.133 3.2-6.933 0-5.2-4.133-9.333-9.333-9.333z"></path>
</svg>
