<!-- Generated by IcoMoon.io -->
<svg version="1.1" xmlns="http://www.w3.org/2000/svg" width="32" height="32" viewBox="0 0 32 32">
<title>column-01-up</title>
<path fill="#f0f1f5" d="M26.667 4c-2.267 0-4 1.733-4 4v16c0 2.267 1.733 4 4 4s4-1.733 4-4v-16c0-2.267-1.733-4-4-4zM28 24c0 0.8-0.533 1.333-1.333 1.333s-1.333-0.533-1.333-1.333v-16c0-0.8 0.533-1.333 1.333-1.333s1.333 0.533 1.333 1.333v16z"></path>
<path fill="#f0f1f5" d="M16 10.667c-2.267 0-4 1.733-4 4v9.333c0 2.267 1.733 4 4 4s4-1.733 4-4v-9.333c0-2.267-1.733-4-4-4zM17.333 24c0 0.8-0.533 1.333-1.333 1.333s-1.333-0.533-1.333-1.333v-9.333c0-0.8 0.533-1.333 1.333-1.333s1.333 0.533 1.333 1.333v9.333z"></path>
<path fill="#f0f1f5" d="M5.333 16c-2.267 0-4 1.733-4 4v4c0 2.267 1.733 4 4 4s4-1.733 4-4v-4c0-2.267-1.733-4-4-4zM6.667 24c0 0.8-0.533 1.333-1.333 1.333s-1.333-0.533-1.333-1.333v-4c0-0.8 0.533-1.333 1.333-1.333s1.333 0.533 1.333 1.333v4z"></path>
</svg>
