<!-- Generated by IcoMoon.io -->
<svg version="1.1" xmlns="http://www.w3.org/2000/svg" width="32" height="32" viewBox="0 0 32 32">
<title>column-line-up</title>
<path fill="#f0f1f5" d="M29.333 9.333c-0.8 0-1.333 0.533-1.333 1.333v16c0 0.8 0.533 1.333 1.333 1.333s1.333-0.533 1.333-1.333v-16c0-0.8-0.533-1.333-1.333-1.333z"></path>
<path fill="#f0f1f5" d="M22.667 14.667c-0.8 0-1.333 0.533-1.333 1.333v10.667c0 0.8 0.533 1.333 1.333 1.333s1.333-0.533 1.333-1.333v-10.667c0-0.8-0.533-1.333-1.333-1.333z"></path>
<path fill="#f0f1f5" d="M9.333 16c-0.8 0-1.333 0.533-1.333 1.333v9.333c0 0.8 0.533 1.333 1.333 1.333s1.333-0.533 1.333-1.333v-9.333c0-0.8-0.533-1.333-1.333-1.333z"></path>
<path fill="#f0f1f5" d="M2.667 18.667c-0.8 0-1.333 0.533-1.333 1.333v6.667c0 0.8 0.533 1.333 1.333 1.333s1.333-0.533 1.333-1.333v-6.667c0-0.8-0.533-1.333-1.333-1.333z"></path>
<path fill="#f0f1f5" d="M16 17.333c-0.8 0-1.333 0.533-1.333 1.333v8c0 0.8 0.533 1.333 1.333 1.333s1.333-0.533 1.333-1.333v-8c0-0.8-0.533-1.333-1.333-1.333z"></path>
<path fill="#f0f1f5" d="M3.2 15.867l5.867-2.4c0.267-0.133 0.533-0.133 0.8-0.133l5.067 1.067c0.8 0.133 1.6 0.133 2.267-0.267l5.6-2.133c0.4-0.133 0.667-0.4 1.067-0.533l6.4-5.067c0.533-0.4 0.667-1.333 0.267-1.867s-1.333-0.667-1.867-0.267l-6.533 5.067c-0.133 0.133-0.267 0.133-0.4 0.133l-5.6 2.267c-0.267 0.133-0.533 0.133-0.8 0.133l-4.933-1.067c-0.8-0.133-1.6 0-2.267 0.267l-5.867 2.4c-0.667 0.267-1.067 1.067-0.8 1.733s1.067 0.933 1.733 0.667z"></path>
</svg>
