<!-- Generated by IcoMoon.io -->
<svg version="1.1" xmlns="http://www.w3.org/2000/svg" width="32" height="32" viewBox="0 0 32 32">
<title>column-line-down</title>
<path fill="#f0f1f5" d="M2.667 9.333c0.8 0 1.333 0.533 1.333 1.333v16c0 0.8-0.533 1.333-1.333 1.333s-1.333-0.533-1.333-1.333v-16c0-0.8 0.533-1.333 1.333-1.333z"></path>
<path fill="#f0f1f5" d="M10.667 16c0-0.8-0.533-1.333-1.333-1.333s-1.333 0.533-1.333 1.333v10.667c0 0.8 0.533 1.333 1.333 1.333s1.333-0.533 1.333-1.333v-10.667z"></path>
<path fill="#f0f1f5" d="M24 17.333c0-0.8-0.533-1.333-1.333-1.333s-1.333 0.533-1.333 1.333v9.333c0 0.8 0.533 1.333 1.333 1.333s1.333-0.533 1.333-1.333v-9.333z"></path>
<path fill="#f0f1f5" d="M30.667 20c0-0.8-0.533-1.333-1.333-1.333s-1.333 0.533-1.333 1.333v6.667c0 0.8 0.533 1.333 1.333 1.333s1.333-0.533 1.333-1.333v-6.667z"></path>
<path fill="#f0f1f5" d="M16 17.333c0.8 0 1.333 0.533 1.333 1.333v8c0 0.8-0.533 1.333-1.333 1.333s-1.333-0.533-1.333-1.333v-8c0-0.8 0.533-1.333 1.333-1.333z"></path>
<path fill="#f0f1f5" d="M1.6 4.533c-0.4 0.533-0.4 1.333 0.267 1.867l6.4 5.067c0.267 0.267 0.533 0.4 0.933 0.533l5.6 2.267c0.667 0.267 1.467 0.4 2.267 0.267l5.067-1.067c0.267 0 0.533 0 0.8 0.133l5.867 2.4c0.667 0.267 1.467 0 1.733-0.8 0.267-0.667 0-1.467-0.8-1.733l-5.867-2.4c-0.667-0.267-1.467-0.4-2.267-0.267l-5.067 1.067c-0.267 0-0.533 0-0.8-0.133l-5.6-2.133c0-0.133-0.133-0.133-0.267-0.267l-6.4-5.067c-0.533-0.4-1.333-0.4-1.867 0.267z"></path>
</svg>
