<!-- Generated by IcoMoon.io -->
<svg version="1.1" xmlns="http://www.w3.org/2000/svg" width="32" height="32" viewBox="0 0 32 32">
<title>comment</title>
<path fill="#f0f1f5" d="M28.8 7.6c-0.4-2.267-2.133-4-4.4-4.267-2.133-0.4-5.067-0.667-8.4-0.667s-6.267 0.267-8.4 0.667c-2.267 0.267-4 2-4.4 4.267-0.267 1.467-0.533 3.467-0.533 5.733s0.267 4.267 0.533 5.733c0.267 1.867 1.733 3.467 3.467 4v4.533c0 1.067 1.067 1.733 2 1.2l8.133-4.8c2.933 0 5.6-0.4 7.6-0.667 2.267-0.4 4-2 4.4-4.267 0.267-1.6 0.533-3.6 0.533-5.733 0-2.267-0.267-4.267-0.533-5.733zM26.267 18.667c-0.133 1.067-1.067 1.867-2.133 2-1.867 0.267-4.4 0.533-7.2 0.667h-0.667l-6.933 4v-4.133l-1.867-0.667c-0.933-0.267-1.6-1.067-1.733-2-0.133-1.333-0.4-3.2-0.4-5.2s0.267-3.867 0.4-5.333c0.267-1.067 1.067-1.867 2.267-2 2-0.4 4.933-0.667 8-0.667s6 0.267 8 0.667c1.2 0.133 2 1.067 2.133 2 0.267 1.467 0.4 3.333 0.4 5.333 0.133 2-0.133 3.867-0.267 5.333z"></path>
<path fill="#f0f1f5" d="M14.667 14.667h-5.333c-0.8 0-1.333 0.533-1.333 1.333s0.533 1.333 1.333 1.333h5.333c0.8 0 1.333-0.533 1.333-1.333s-0.533-1.333-1.333-1.333z"></path>
<path fill="#f0f1f5" d="M22.667 9.333h-13.333c-0.8 0-1.333 0.533-1.333 1.333s0.533 1.333 1.333 1.333h13.333c0.8 0 1.333-0.533 1.333-1.333s-0.533-1.333-1.333-1.333z"></path>
</svg>
