<!-- Generated by IcoMoon.io -->
<svg version="1.1" xmlns="http://www.w3.org/2000/svg" width="32" height="32" viewBox="0 0 32 32">
<title>computer-mouse</title>
<path fill="#f0f1f5" d="M26 6c-4-4-10.667-4-14.667 0l-5.333 5.333c-4 4-4 10.667 0 14.667s10.667 4 14.667 0l5.333-5.333c4-4 4-10.667 0-14.667zM24.133 18.8l-5.333 5.333c-3.067 3.067-7.867 3.067-10.933 0s-3.067-7.867 0-10.933l5.333-5.333c3.067-3.067 7.867-3.067 10.933 0 2.933 3.067 2.933 7.867 0 10.933z"></path>
<path fill="#f0f1f5" d="M20.4 9.733l-2.667 2.667c-0.533 0.533-0.533 1.333 0 1.867s1.333 0.533 1.867 0l2.667-2.667c0.533-0.533 0.533-1.333 0-1.867s-1.333-0.533-1.867 0z"></path>
</svg>
