<!-- Generated by IcoMoon.io -->
<svg version="1.1" xmlns="http://www.w3.org/2000/svg" width="32" height="32" viewBox="0 0 32 32">
<title>config</title>
<path fill="#f0f1f5" d="M28.133 13.2c-0.4-0.4-0.933-0.667-1.467-0.933-0.133-0.133-0.4-0.133-0.667-0.133-0.133 0-0.133-0.133-0.133-0.133s0-0.133 0-0.267c0.133-0.133 0.267-0.4 0.267-0.533 0.267-0.533 0.4-1.067 0.4-1.733 0-1.067-0.4-2.133-1.2-2.933s-1.867-1.2-2.933-1.2c-0.533 0-1.2 0.133-1.733 0.4-0.133 0.133-0.4 0.133-0.533 0.267-0.133 0-0.133 0-0.267 0 0.133 0.133 0.133 0 0.133 0 0-0.267-0.133-0.4-0.133-0.667-0.133-0.533-0.533-1.067-0.933-1.467-0.8-0.8-1.867-1.2-2.933-1.2s-2.133 0.4-2.8 1.2c-0.533 0.4-0.8 0.933-0.933 1.467-0.133 0.267-0.133 0.4-0.267 0.667 0 0 0 0.133-0.133 0.133s-0.133 0-0.267 0c-0.133-0.133-0.267-0.267-0.4-0.4-0.533-0.133-1.2-0.267-1.733-0.267-1.067-0.133-2.133 0.267-2.933 1.067s-1.2 1.867-1.067 2.933c0 0.533 0.133 1.2 0.4 1.733 0.133 0.133 0.133 0.4 0.267 0.533 0 0.133 0 0.133 0 0.267 0 0-0.133 0-0.133 0-0.267 0.133-0.4 0.133-0.667 0.267-0.533 0.133-1.067 0.4-1.467 0.8-0.8 0.8-1.2 1.867-1.2 2.933s0.4 2.133 1.2 2.8c0.4 0.4 0.933 0.667 1.467 0.933 0.133 0.133 0.4 0.133 0.667 0.133 0.133 0 0.133 0.133 0.133 0.133 0 0.133 0 0.133 0 0.267-0.133 0.133-0.267 0.4-0.267 0.533-0.267 0.533-0.4 1.067-0.4 1.733 0 1.067 0.4 2.133 1.2 2.933s1.867 1.2 2.933 1.2c0.533 0 1.2-0.133 1.733-0.4 0.133-0.133 0.4-0.133 0.533-0.267 0.133 0 0.133 0 0.267 0s-0.133 0-0.133 0c0 0.267 0.133 0.4 0.133 0.667 0.133 0.533 0.533 1.067 0.933 1.467 0.667 0.8 1.733 1.2 2.933 1.2s2.133-0.4 2.8-1.2c0.4-0.4 0.667-0.933 0.933-1.467 0.133-0.133 0.133-0.4 0.133-0.667 0-0.133 0.133-0.133 0.133-0.133 0.133 0 0.133 0 0.267 0 0.133 0.133 0.4 0.267 0.533 0.267 0.533 0.267 1.067 0.4 1.733 0.4 1.067 0 2.133-0.4 2.933-1.2s1.2-1.867 1.2-2.933c0-0.533-0.133-1.2-0.4-1.733-0.133-0.133-0.133-0.4-0.267-0.533 0-0.133 0-0.133 0-0.267s0.133-0.133 0.133-0.133c0.267 0 0.4-0.133 0.667-0.133 0.533-0.133 1.067-0.533 1.467-0.933 0.8-0.667 1.2-1.733 1.2-2.933s-0.533-1.867-1.333-2.533zM25.6 17.333c-0.933 0.133-1.733 0.8-2.133 1.733s-0.267 2 0.267 2.8c0.4 0.533 0.267 1.2-0.133 1.733-0.4 0.4-1.2 0.533-1.733 0.133-0.8-0.533-1.867-0.667-2.8-0.267s-1.6 1.2-1.733 2.133c-0.133 0.667-0.667 1.067-1.333 1.067s-1.2-0.533-1.333-1.067c-0.133-0.933-0.8-1.733-1.733-2.133s-2-0.267-2.8 0.267c-0.533 0.267-1.2 0.267-1.733-0.133-0.4-0.533-0.4-1.2-0.133-1.733 0.533-0.8 0.667-1.867 0.267-2.8s-1.2-1.6-2.133-1.733c-0.533-0.133-1.067-0.667-1.067-1.333s0.533-1.2 1.067-1.333c0.933-0.133 1.733-0.8 2.133-1.733s0.267-2-0.267-2.8c-0.267-0.533-0.267-1.2 0.133-1.733s1.2-0.4 1.733-0.133c0.8 0.533 1.867 0.667 2.8 0.4 0.933-0.4 1.6-1.2 1.733-2.133 0.133-0.667 0.667-1.2 1.333-1.2s1.2 0.533 1.333 1.067c0.133 0.933 0.8 1.733 1.733 2.133s2 0.267 2.8-0.267c0.533-0.267 1.2-0.267 1.733 0.133 0.4 0.533 0.4 1.2 0.133 1.733-0.533 0.8-0.667 1.867-0.267 2.8s1.2 1.6 2.133 1.733c0.667 0.133 1.067 0.667 1.067 1.333s-0.533 1.2-1.067 1.333z"></path>
<path fill="#f0f1f5" d="M16 10.667c-2.933 0-5.333 2.4-5.333 5.333s2.4 5.333 5.333 5.333 5.333-2.4 5.333-5.333-2.4-5.333-5.333-5.333zM16 18.667c-1.467 0-2.667-1.2-2.667-2.667s1.2-2.667 2.667-2.667 2.667 1.2 2.667 2.667-1.2 2.667-2.667 2.667z"></path>
</svg>
