<!-- Generated by IcoMoon.io -->
<svg version="1.1" xmlns="http://www.w3.org/2000/svg" width="32" height="32" viewBox="0 0 32 32">
<title>controller</title>
<path fill="#f0f1f5" d="M31.067 19.467l-1.067-8.267c-0.4-3.333-3.2-5.867-6.667-5.867h-14.8c-3.333 0-6.133 2.533-6.667 5.867l-1.067 8.267c-0.4 3.867 2.667 7.2 6.533 7.2 2.133 0 4-1.067 5.2-2.667h6.933c1.2 1.6 3.067 2.667 5.2 2.667 3.867 0 6.933-3.333 6.4-7.2zM24.667 24c-1.2 0-2.4-0.667-3.067-1.6l-0.8-1.067h-9.6l-0.8 1.067c-0.8 0.933-1.867 1.6-3.067 1.6-2.267 0-4-2-3.733-4.267l1.067-8.267c0.133-2 1.867-3.467 3.867-3.467h14.933c2 0 3.733 1.467 4 3.467l1.067 8.267c0.133 2.267-1.6 4.267-3.867 4.267z"></path>
<path fill="#f0f1f5" d="M13.333 13.333h-1.333v-1.333c0-0.8-0.533-1.333-1.333-1.333s-1.333 0.533-1.333 1.333v1.333h-1.333c-0.8 0-1.333 0.533-1.333 1.333s0.533 1.333 1.333 1.333h1.333v1.333c0 0.8 0.533 1.333 1.333 1.333s1.333-0.533 1.333-1.333v-1.333h1.333c0.8 0 1.333-0.533 1.333-1.333s-0.533-1.333-1.333-1.333z"></path>
<path fill="#f0f1f5" d="M25.333 12c0 0.736-0.597 1.333-1.333 1.333s-1.333-0.597-1.333-1.333c0-0.736 0.597-1.333 1.333-1.333s1.333 0.597 1.333 1.333z"></path>
<path fill="#f0f1f5" d="M22.667 17.333c0 0.736-0.597 1.333-1.333 1.333s-1.333-0.597-1.333-1.333c0-0.736 0.597-1.333 1.333-1.333s1.333 0.597 1.333 1.333z"></path>
</svg>
