<!-- Generated by IcoMoon.io -->
<svg version="1.1" xmlns="http://www.w3.org/2000/svg" width="32" height="32" viewBox="0 0 32 32">
<title>coupon-discount</title>
<path fill="#f0f1f5" d="M32 10.4v-1.067c0-2.267-1.733-4-4-4h-24c-2.267 0-4 1.733-4 4v1.067c0 1.6 0.933 2.8 1.733 3.6 0.533 0.4 0.933 1.2 0.933 2s-0.4 1.6-0.933 2.133c-0.8 0.8-1.733 2-1.733 3.467v1.067c0 2.267 1.733 4 4 4h24c2.267 0 4-1.733 4-4v-1.067c0-1.6-0.933-2.8-1.733-3.6-0.533-0.4-0.933-1.2-0.933-2s0.4-1.6 0.933-2.133c0.8-0.8 1.733-2 1.733-3.467zM29.333 10.4c0 0.533-0.267 1.067-0.933 1.733-0.8 0.8-1.733 2.133-1.733 4s0.933 3.2 1.733 4c0.667 0.667 0.933 1.2 0.933 1.733v0.8c0 0.8-0.533 1.333-1.333 1.333h-24c-0.8 0-1.333-0.533-1.333-1.333v-1.067c0-0.533 0.267-1.067 0.933-1.733 0.8-0.667 1.733-2 1.733-3.867s-0.933-3.2-1.733-4c-0.667-0.533-0.933-1.2-0.933-1.6v-1.067c0-0.8 0.533-1.333 1.333-1.333h24c0.8 0 1.333 0.533 1.333 1.333v1.067z"></path>
<path fill="#f0f1f5" d="M17.733 12.4l-5.333 5.333c-0.533 0.533-0.533 1.333 0 1.867s1.333 0.533 1.867 0l5.333-5.333c0.533-0.533 0.533-1.333 0-1.867s-1.333-0.533-1.867 0z"></path>
<path fill="#f0f1f5" d="M14.667 13.333c0 0.736-0.597 1.333-1.333 1.333s-1.333-0.597-1.333-1.333c0-0.736 0.597-1.333 1.333-1.333s1.333 0.597 1.333 1.333z"></path>
<path fill="#f0f1f5" d="M20 18.667c0 0.736-0.597 1.333-1.333 1.333s-1.333-0.597-1.333-1.333c0-0.736 0.597-1.333 1.333-1.333s1.333 0.597 1.333 1.333z"></path>
</svg>
