<!-- Generated by IcoMoon.io -->
<svg version="1.1" xmlns="http://www.w3.org/2000/svg" width="32" height="32" viewBox="0 0 32 32">
<title>credit-card</title>
<path fill="#f0f1f5" d="M26.667 4h-21.333c-2.267 0-4 1.733-4 4v16c0 2.267 1.733 4 4 4h21.333c2.267 0 4-1.733 4-4v-16c0-2.267-1.733-4-4-4zM28 24c0 0.8-0.533 1.333-1.333 1.333h-21.333c-0.8 0-1.333-0.533-1.333-1.333v-10.667h24v10.667zM28 10.667h-24v-2.667c0-0.8 0.533-1.333 1.333-1.333h21.333c0.8 0 1.333 0.533 1.333 1.333v2.667z"></path>
<path fill="#f0f1f5" d="M10.667 20.667c0 1.105-0.895 2-2 2s-2-0.895-2-2c0-1.105 0.895-2 2-2s2 0.895 2 2z"></path>
<path fill="#f0f1f5" d="M17.333 20.667c0 1.105-0.895 2-2 2s-2-0.895-2-2c0-1.105 0.895-2 2-2s2 0.895 2 2z"></path>
</svg>
