<!-- Generated by IcoMoon.io -->
<svg version="1.1" xmlns="http://www.w3.org/2000/svg" width="32" height="32" viewBox="0 0 32 32">
<title>css3</title>
<path fill="#f0f1f5" d="M16 30.667c-0.267 0-0.533 0-0.933-0.133l-8-2.267c-1.333-0.4-2.267-1.467-2.4-2.8l-1.733-20.533c0-0.8 0.267-1.733 0.933-2.4 0.533-0.667 1.467-1.067 2.4-1.067h19.733c0.933 0 1.733 0.4 2.4 1.067s0.933 1.6 0.8 2.533l-1.867 20.4c-0.133 1.333-1.067 2.533-2.4 2.8l-8 2.4c-0.4 0-0.667 0-0.933 0zM6.267 4.133c-0.267 0-0.4 0.133-0.4 0.133 0 0.133-0.133 0.267-0.133 0.4l1.733 20.4c0 0.267 0.133 0.4 0.4 0.533l8 2.267c0.133 0 0.267 0 0.267 0l8.133-2.267c0.267-0.133 0.4-0.267 0.4-0.533l1.867-20.4c0-0.267-0.133-0.4-0.133-0.4 0-0.133-0.267-0.133-0.4-0.133 0 0-19.733 0-19.733 0z"></path>
<path fill="#f0f1f5" d="M10.267 18.267h2.8v1.733l2.933 0.933 2.933-0.933 0.267-3.2h-6.267l-0.133-2.8h6.4l0.267-2.8h-9.733l-0.133-2.8h12.8l-0.4 5.6-0.533 8.133-5.467 1.867-5.6-1.867z"></path>
</svg>
