<!-- Generated by IcoMoon.io -->
<svg version="1.1" xmlns="http://www.w3.org/2000/svg" width="32" height="32" viewBox="0 0 32 32">
<title>cup-top-go</title>
<path fill="#f0f1f5" d="M25.067 6.133l-0.4-2.8c-0.267-1.867-2-3.333-4-3.333h-9.333c-2 0-3.6 1.467-4 3.333l-0.4 2.8c-0.933 0.667-1.6 1.867-1.6 3.2v1.333c0 1.2 0.533 2.267 1.467 3.067l0.933 14.533c0.133 2.133 1.867 3.733 4 3.733h8.533c2.133 0 3.867-1.6 4-3.733l0.933-14.533c0.933-0.8 1.467-1.867 1.467-3.067v-1.333c0-1.333-0.667-2.533-1.6-3.2zM10.133 3.733c0-0.533 0.667-1.067 1.2-1.067h9.2c0.667 0 1.2 0.533 1.333 1.067l0.267 1.6h-12.267l0.267-1.6zM21.6 28.133c0 0.667-0.667 1.2-1.333 1.2h-8.533c-0.667 0-1.333-0.533-1.333-1.2l-0.933-13.467h12.933l-0.8 13.467zM24 10.667c0 0.8-0.533 1.333-1.333 1.333h-13.333c-0.8 0-1.333-0.533-1.333-1.333v-1.333c0-0.8 0.533-1.333 1.333-1.333h13.333c0.8 0 1.333 0.533 1.333 1.333v1.333z"></path>
<path fill="#f0f1f5" d="M18.667 21.333c0 1.473-1.194 2.667-2.667 2.667s-2.667-1.194-2.667-2.667c0-1.473 1.194-2.667 2.667-2.667s2.667 1.194 2.667 2.667z"></path>
</svg>
