<!-- Generated by IcoMoon.io -->
<svg version="1.1" xmlns="http://www.w3.org/2000/svg" width="32" height="32" viewBox="0 0 32 32">
<title>cup-02</title>
<path fill="#f0f1f5" d="M25.333 6.667h-1.333c0-2.267-1.733-4-4-4h-13.333c-2.267 0-4 1.733-4 4v16c0 3.733 2.933 6.667 6.667 6.667h8c3.733 0 6.667-2.933 6.667-6.667v-1.333h1.333c2.267 0 4-1.733 4-4v-6.667c0-2.267-1.733-4-4-4zM21.333 22.667c0 2.267-1.733 4-4 4h-8c-2.267 0-4-1.733-4-4v-16c0-0.8 0.533-1.333 1.333-1.333h4v2.667c-0.8 0-1.333 0.533-1.333 1.333v2.667c0 0.8 0.533 1.333 1.333 1.333h2.667c0.8 0 1.333-0.533 1.333-1.333v-2.667c0-0.8-0.533-1.333-1.333-1.333v-2.667h6.667c0.8 0 1.333 0.533 1.333 1.333v16zM26.667 17.333c0 0.8-0.533 1.333-1.333 1.333h-1.333v-9.333h1.333c0.8 0 1.333 0.533 1.333 1.333v6.667z"></path>
</svg>
