<!-- Generated by IcoMoon.io -->
<svg version="1.1" xmlns="http://www.w3.org/2000/svg" width="32" height="32" viewBox="0 0 32 32">
<title>cup-01</title>
<path fill="#f0f1f5" d="M22.667 25.333h-20c-0.8 0-1.333 0.533-1.333 1.333s0.533 1.333 1.333 1.333h20c0.8 0 1.333-0.533 1.333-1.333s-0.533-1.333-1.333-1.333z"></path>
<path fill="#f0f1f5" d="M25.333 6.667h-1.6c-0.533-1.6-2-2.667-3.733-2.667h-14.667c-2.267 0-4 1.733-4 4v5.333c0 5.2 4.133 9.333 9.333 9.333h4c3.733 0 6.933-2.133 8.4-5.333h2.267c2.933 0 5.333-2.4 5.333-5.333s-2.4-5.333-5.333-5.333zM21.333 13.333c0 3.733-2.933 6.667-6.667 6.667h-4c-3.733 0-6.667-2.933-6.667-6.667v-5.333c0-0.8 0.533-1.333 1.333-1.333h14.667c0.8 0 1.333 0.533 1.333 1.333v5.333zM25.333 14.667h-1.467c0-0.4 0.133-0.933 0.133-1.333v-4h1.333c1.467 0 2.667 1.2 2.667 2.667s-1.2 2.667-2.667 2.667z"></path>
</svg>
