<!-- Generated by IcoMoon.io -->
<svg version="1.1" xmlns="http://www.w3.org/2000/svg" width="32" height="32" viewBox="0 0 32 32">
<title>cup</title>
<path fill="#f0f1f5" d="M26.667 6.667h-1.6c-0.533-1.6-2-2.667-3.733-2.667h-10.667c-1.733 0-3.2 1.067-3.733 2.667h-1.6c-2.267 0-4 1.733-4 4v1.333c0 2.933 2.4 5.333 5.333 5.333h0.933c1.333 2.8 4 4.8 7.067 5.2v2.8h-2.667c-0.8 0-1.333 0.533-1.333 1.333s0.533 1.333 1.333 1.333h8c0.8 0 1.333-0.533 1.333-1.333s-0.533-1.333-1.333-1.333h-2.667v-2.8c3.2-0.4 5.733-2.4 7.067-5.2h0.933c2.933 0 5.333-2.4 5.333-5.333v-1.333c0-2.267-1.733-4-4-4zM6.667 13.333v1.333c-1.467 0-2.667-1.2-2.667-2.667v-1.333c0-0.8 0.533-1.333 1.333-1.333h1.333v4zM22.667 13.333c0 3.733-2.933 6.667-6.667 6.667s-6.667-2.933-6.667-6.667v-5.333c0-0.8 0.533-1.333 1.333-1.333h10.667c0.8 0 1.333 0.533 1.333 1.333v5.333zM28 12c0 1.467-1.2 2.667-2.667 2.667v-5.333h1.333c0.8 0 1.333 0.533 1.333 1.333v1.333z"></path>
</svg>
