<!-- Generated by IcoMoon.io -->
<svg version="1.1" xmlns="http://www.w3.org/2000/svg" width="32" height="32" viewBox="0 0 32 32">
<title>darts</title>
<path fill="#f0f1f5" d="M28.933 4.933c0.533-0.533 0.533-1.333 0-1.867s-1.333-0.533-1.867 0l-2.8 2.8c-1.467-0.533-3.067-0.4-4.267 0.8l-2.667 2.667c-1.2 1.2-1.333 2.8-0.8 4.267v0l-3.467 3.467-4.4-0.667c-1.333-0.267-2.533 0.267-3.467 1.067l-1.067 1.067c-1.6 1.6-1.6 4.133 0 5.6l3.733 3.733c1.6 1.6 4.133 1.6 5.6 0l1.067-1.067c0.933-0.933 1.333-2.267 1.067-3.467l-0.667-4.4 3.467-3.467c1.333 0.667 3.067 0.4 4.267-0.8l2.667-2.667c1.2-1.2 1.333-2.8 0.8-4.267v0 0l2.8-2.8zM12.667 24.933l-1.067 1.067c-0.533 0.533-1.333 0.533-1.867 0l-3.733-3.733c-0.533-0.533-0.533-1.333 0-1.867l1.067-1.067c0.267-0.267 0.8-0.4 1.2-0.4l3.2 0.533c0.533 0.133 0.933 0.533 1.067 1.067l0.533 3.2c0 0.4-0.133 0.8-0.4 1.2zM23.467 10.133l-2.667 2.667c-0.4 0.4-1.067 0.4-1.6 0-0.4-0.4-0.4-1.067 0-1.6l2.667-2.667c0.4-0.4 1.067-0.4 1.6 0 0.4 0.4 0.4 1.2 0 1.6z"></path>
</svg>
