<!-- Generated by IcoMoon.io -->
<svg version="1.1" xmlns="http://www.w3.org/2000/svg" width="32" height="32" viewBox="0 0 32 32">
<title>delivery-truck</title>
<path fill="#f0f1f5" d="M30.667 13.733l-3.733-3.333c-0.667-0.667-1.6-1.067-2.667-1.067h-5.6c0-2.267-1.733-4-4-4h-10.667c-2.267 0-4 1.733-4 4v10.667c0 2.267 1.733 4 4 4h0.267c0.533 1.6 2 2.667 3.733 2.667s3.2-1.067 3.733-2.667h8.533c0.533 1.6 2 2.667 3.733 2.667s3.2-1.067 3.733-2.667h0.267c2.267 0 4-1.733 4-4v-3.333c0-1.067-0.533-2.133-1.333-2.933zM8 24c-0.8 0-1.333-0.533-1.333-1.333s0.533-1.333 1.333-1.333 1.333 0.533 1.333 1.333-0.533 1.333-1.333 1.333zM16 20.667c0 0.4-0.267 0.667-0.667 0.667h-3.6c-0.533-1.6-2-2.667-3.733-2.667s-3.2 1.067-3.733 2.667h-0.267c-0.8 0-1.333-0.533-1.333-1.333v-10.667c0-0.8 0.533-1.333 1.333-1.333h10.667c0.8 0 1.333 0.533 1.333 1.333v11.333zM24 24c-0.8 0-1.333-0.533-1.333-1.333s0.533-1.333 1.333-1.333 1.333 0.533 1.333 1.333-0.533 1.333-1.333 1.333zM29.333 20c0 0.8-0.533 1.333-1.333 1.333h-0.267c-0.533-1.6-2-2.667-3.733-2.667s-3.2 1.067-3.733 2.667h-0.933c-0.4 0-0.667-0.267-0.667-0.667v-7.333c0-0.8 0.533-1.333 1.333-1.333h4.267c0.267 0 0.667 0.133 0.933 0.4l3.733 3.333c0.267 0.267 0.4 0.667 0.4 0.933v3.333z"></path>
</svg>
