<!-- Generated by IcoMoon.io -->
<svg version="1.1" xmlns="http://www.w3.org/2000/svg" width="32" height="32" viewBox="0 0 32 32">
<title>design-grid</title>
<path fill="#f0f1f5" d="M25.333 2.667h-18.667c-2.267 0-4 1.733-4 4v18.667c0 2.267 1.733 4 4 4h18.667c2.267 0 4-1.733 4-4v-18.667c0-2.267-1.733-4-4-4zM9.333 26.667h-2.667c-0.8 0-1.333-0.533-1.333-1.333v-2.667h4v4zM9.333 20h-4v-8h4v8zM9.333 9.333h-4v-2.667c0-0.8 0.533-1.333 1.333-1.333h2.667v4zM20 26.667h-8v-4h8v4zM20 20h-8v-8h8v8zM20 9.333h-8v-4h8v4zM26.667 25.333c0 0.8-0.533 1.333-1.333 1.333h-2.667v-4h4v2.667zM26.667 20h-4v-8h4v8zM26.667 9.333h-4v-4h2.667c0.8 0 1.333 0.533 1.333 1.333v2.667z"></path>
</svg>
