<!-- Generated by IcoMoon.io -->
<svg version="1.1" xmlns="http://www.w3.org/2000/svg" width="32" height="32" viewBox="0 0 32 32">
<title>discount</title>
<path fill="#f0f1f5" d="M13.333 8c0-2.933-2.4-5.333-5.333-5.333s-5.333 2.4-5.333 5.333 2.4 5.333 5.333 5.333 5.333-2.4 5.333-5.333zM5.333 8c0-1.467 1.2-2.667 2.667-2.667s2.667 1.2 2.667 2.667-1.2 2.667-2.667 2.667-2.667-1.2-2.667-2.667z"></path>
<path fill="#f0f1f5" d="M24 18.667c-2.933 0-5.333 2.4-5.333 5.333s2.4 5.333 5.333 5.333 5.333-2.4 5.333-5.333-2.4-5.333-5.333-5.333zM24 26.667c-1.467 0-2.667-1.2-2.667-2.667s1.2-2.667 2.667-2.667 2.667 1.2 2.667 2.667-1.2 2.667-2.667 2.667z"></path>
<path fill="#f0f1f5" d="M26.133 2.933c-0.533-0.4-1.467-0.4-1.867 0.267l-18.667 24c-0.4 0.533-0.4 1.467 0.267 1.867 0.533 0.4 1.467 0.4 1.867-0.267l18.667-24c0.4-0.533 0.267-1.467-0.267-1.867z"></path>
</svg>
