<!-- Generated by IcoMoon.io -->
<svg version="1.1" xmlns="http://www.w3.org/2000/svg" width="32" height="32" viewBox="0 0 32 32">
<title>doc</title>
<path fill="#f0f1f5" d="M16.533 0.8c-0.267 0-0.4 0-0.667 0l-11.733 2.267c-1.6 0.4-2.8 1.733-2.8 3.467v19.067c0 1.6 1.2 3.067 2.8 3.333l11.733 2.267c1.467 0.267 2.933-0.8 3.067-2.267h7.467c2.267 0 4.267-1.867 4.267-4.267v-16.667c0-2.267-1.867-4.267-4.267-4.267h-7.333v-0.267c0-1.467-1.2-2.667-2.533-2.667zM16.267 3.067c0.267 0 0.4 0.133 0.4 0.4v25.2c0 0.267-0.133 0.4-0.4 0.4 0 0 0 0 0 0l-11.6-2.4c0 0 0 0 0 0-0.533-0.133-0.933-0.533-0.933-1.067v-19.067c0-0.533 0.4-1.067 0.933-1.067l11.6-2.4zM19.067 6h7.333c1.067 0 1.867 0.8 1.867 1.867v16.8c0 1.067-0.8 1.867-1.867 1.867h-7.333v-3.067h5.733c0.133 0 0.267 0 0.4-0.133 0.133 0 0.267-0.133 0.4-0.267s0.133-0.267 0.267-0.4c0-0.133 0.133-0.267 0.133-0.4s0-0.267-0.133-0.4c0-0.133-0.133-0.267-0.267-0.4s-0.267-0.133-0.4-0.267c-0.133 0-0.267-0.133-0.4-0.133h-5.733v-3.867h5.733c0.133 0 0.267 0 0.4-0.133 0.133 0 0.267-0.133 0.4-0.267s0.133-0.267 0.267-0.4c0-0.133 0.133-0.267 0.133-0.4s0-0.267-0.133-0.4c0-0.133-0.133-0.267-0.267-0.4s-0.267-0.133-0.4-0.267c-0.133 0-0.267-0.133-0.4-0.133h-5.733v-3.333h5.733c0.133 0 0.267 0 0.4-0.133 0.133 0 0.267-0.133 0.4-0.267s0.133-0.267 0.267-0.4c0-0.133 0.133-0.267 0.133-0.4s0-0.267-0.133-0.4-0.133-0.267-0.267-0.4c0-0.133-0.133-0.267-0.267-0.267s-0.267-0.133-0.4-0.133h-5.733v-3.067zM6.4 10.667c-0.133 0-0.4 0-0.533 0.133-0.133 0-0.267 0.133-0.4 0.267s-0.133 0.267-0.267 0.4c0 0.133 0 0.4 0 0.533l1.6 9.2c0 0.267 0.133 0.533 0.4 0.667 0.133 0.133 0.4 0.267 0.667 0.267s0.533 0 0.667-0.133c0.267-0.133 0.4-0.4 0.533-0.533l1.2-3.2 1.2 3.067c0.133 0.267 0.267 0.4 0.533 0.533s0.533 0.133 0.667 0.133c0.267 0 0.533-0.133 0.667-0.267s0.267-0.4 0.4-0.667l1.467-9.067c0-0.133 0-0.267 0-0.4s-0.133-0.267-0.133-0.4c-0.133-0.133-0.133-0.267-0.267-0.267-0.267-0.133-0.4-0.267-0.533-0.267s-0.267 0-0.4 0c-0.133 0-0.267 0.133-0.4 0.133-0.133 0.133-0.267 0.267-0.4 0.4 0 0.133-0.133 0.267-0.133 0.4l-0.8 4.933-0.8-2.133c-0.133-0.267-0.267-0.4-0.4-0.533s-0.4-0.267-0.667-0.267c-0.267 0-0.4 0.133-0.667 0.267-0.133 0.133-0.4 0.267-0.4 0.533l-0.8 2.133-0.933-4.933c0-0.267-0.133-0.533-0.4-0.667-0.133-0.133-0.4-0.267-0.667-0.267v0z"></path>
</svg>
