<!-- Generated by IcoMoon.io -->
<svg version="1.1" xmlns="http://www.w3.org/2000/svg" width="32" height="32" viewBox="0 0 32 32">
<title>donut</title>
<path fill="#f0f1f5" d="M29.333 15.867c0 0 0 0 0 0 0-7.333-6-13.2-13.333-13.2s-13.333 6-13.333 13.333 6 13.333 13.333 13.333 13.333-6 13.333-13.467c0 0.133 0 0.133 0 0zM24.133 17.867c0.267 0.667 1.067 0.933 1.733 0.533l0.533-0.267c-0.933 4.133-4.133 7.333-8.267 8.133l0.133-0.133c0.533-0.533 0.533-1.333 0-1.867s-1.333-0.533-1.867 0l-2 2c0 0 0 0.133-0.133 0.133-1.867-0.267-3.6-1.067-4.933-2.267l1.2-2.4c0.267-0.667 0-1.467-0.533-1.733-0.667-0.267-1.467 0-1.733 0.533l-0.8 1.467c-1.333-1.467-2.133-3.6-2.133-6 0-3.2 1.467-6.133 3.733-8l3.867 1.333c0.667 0.267 1.467-0.133 1.733-0.8s-0.133-1.467-0.8-1.733l-1.867-0.667c1.2-0.533 2.667-0.8 4-0.8 5.6 0 10.267 4.4 10.667 9.867l-1.867 0.933c-0.667 0.4-0.933 1.2-0.667 1.733z"></path>
<path fill="#f0f1f5" d="M20.533 18.667c0.533-0.8 0.8-1.733 0.8-2.667 0-1.067-0.267-2-0.8-2.8 0 0 0-0.133 0.133-0.133l0.667-2c0.267-0.667-0.133-1.467-0.8-1.733s-1.467 0.133-1.733 0.8l-0.4 1.067c-0.667-0.267-1.467-0.533-2.4-0.533-2.267 0-4.133 1.333-4.933 3.333l-1.067-0.533c-0.667-0.267-1.467 0-1.733 0.533-0.267 0.667 0 1.467 0.533 1.733l2 1.067c0.4 2.533 2.533 4.533 5.2 4.533 0.933 0 1.867-0.267 2.667-0.8l0.4 0.4c0.533 0.533 1.333 0.533 1.867 0s0.533-1.333 0-1.867l-0.4-0.4zM16 18.667c-1.467 0-2.667-1.2-2.667-2.667s1.2-2.667 2.667-2.667 2.667 1.2 2.667 2.667-1.2 2.667-2.667 2.667z"></path>
</svg>
