<!-- Generated by IcoMoon.io -->
<svg version="1.1" xmlns="http://www.w3.org/2000/svg" width="32" height="32" viewBox="0 0 32 32">
<title>doughnut</title>
<path fill="#f0f1f5" d="M16 2.667c-7.333 0-13.333 6-13.333 13.333s6 13.333 13.333 13.333 13.333-6 13.333-13.333-6-13.333-13.333-13.333zM18.667 16c0 1.467-1.2 2.667-2.667 2.667s-2.667-1.2-2.667-2.667 1.2-2.667 2.667-2.667 2.667 1.2 2.667 2.667zM5.333 16c0-5.467 4.133-9.867 9.333-10.533v5.467c-2.267 0.533-4 2.667-4 5.2 0 0.933 0.267 1.867 0.8 2.667l-3.867 3.867c-1.467-1.867-2.267-4.267-2.267-6.667zM16 26.667c-2.4 0-4.8-0.8-6.533-2.267l3.867-3.867c0.8 0.533 1.733 0.8 2.667 0.8s1.867-0.267 2.667-0.8l3.867 3.867c-1.733 1.467-4.133 2.267-6.533 2.267zM24.4 22.533l-3.867-3.867c0.533-0.8 0.8-1.733 0.8-2.667 0-2.533-1.733-4.533-4-5.2v-5.333c5.2 0.667 9.333 5.2 9.333 10.533 0 2.4-0.8 4.8-2.267 6.533z"></path>
</svg>
