<!-- Generated by IcoMoon.io -->
<svg version="1.1" xmlns="http://www.w3.org/2000/svg" width="32" height="32" viewBox="0 0 32 32">
<title>download</title>
<path fill="#f0f1f5" d="M26.667 20h-21.333c-2.267 0-4 1.733-4 4s1.733 4 4 4h21.333c2.267 0 4-1.733 4-4s-1.733-4-4-4zM26.667 25.333h-21.333c-0.8 0-1.333-0.533-1.333-1.333s0.533-1.333 1.333-1.333h21.333c0.8 0 1.333 0.533 1.333 1.333s-0.533 1.333-1.333 1.333z"></path>
<path fill="#f0f1f5" d="M15.067 16.933c0.533 0.533 1.333 0.533 1.867 0l4-4c0.533-0.533 0.533-1.333 0-1.867s-1.333-0.533-1.867 0l-1.733 1.733v-7.467c0-0.8-0.533-1.333-1.333-1.333s-1.333 0.533-1.333 1.333v7.467l-1.733-1.733c-0.533-0.533-1.333-0.533-1.867 0s-0.533 1.333 0 1.867l4 4z"></path>
</svg>
