<!-- Generated by IcoMoon.io -->
<svg version="1.1" xmlns="http://www.w3.org/2000/svg" width="32" height="32" viewBox="0 0 32 32">
<title>dribbble</title>
<path fill="#f0f1f5" d="M29.333 16c0-0.4 0-0.933 0-1.333 0 0 0 0 0 0-0.267-2.4-1.067-4.533-2.4-6.4 0 0 0 0 0 0-0.133-0.133-0.267-0.267-0.4-0.4s-0.267-0.4-0.4-0.533c-0.133-0.133-0.267-0.267-0.4-0.4s-0.267-0.4-0.533-0.533c0 0-0.133-0.133-0.133-0.133s0 0 0 0c-2.4-2.267-5.6-3.6-9.067-3.6-1.467 0-2.933 0.267-4.267 0.667 0 0 0 0 0 0-0.133 0-0.267 0.133-0.4 0.133-0.267 0.133-0.533 0.267-0.667 0.4-0.267 0-0.4 0.133-0.533 0.133-0.267 0.133-0.533 0.267-0.667 0.4 0 0-0.133 0-0.133 0.133 0 0 0 0 0 0-3.333 1.867-5.6 5.067-6.4 8.8 0 0 0 0 0 0-0.133 0.4-0.133 0.933-0.267 1.333 0 0.133 0 0.267 0 0.4 0 0.4 0 0.667 0 1.067 0 0 0 0 0 0s0 0 0 0c0 3.6 1.333 6.8 3.6 9.2 0 0 0 0 0 0s0.133 0.133 0.133 0.133 0.4 0.267 0.533 0.533c0.133 0.133 0.267 0.267 0.4 0.4 0.267-0.133 0.4 0.133 0.667 0.267 0.133 0.133 0.267 0.133 0.4 0.267 0 0 0 0 0 0 2.133 1.467 4.8 2.4 7.6 2.4 1.6 0 3.2-0.267 4.667-0.8 0 0 0 0 0 0 0.133 0 0.133-0.133 0.267-0.133 0.267-0.133 0.4-0.133 0.667-0.267 0.133-0.133 0.4-0.133 0.533-0.267 0.267-0.133 0.4-0.267 0.667-0.4 0.133-0.133 0.267-0.133 0.4-0.267 0 0 0 0 0 0 3.333-2.133 5.733-5.733 6.133-9.867 0 0 0 0 0 0 0-0.4 0-0.933 0-1.333 0 0 0 0 0 0s0 0 0 0 0 0 0 0zM16 5.333c2.667 0 4.933 0.933 6.8 2.533-1.867 1.2-3.733 2.267-5.733 3.067-1.067-1.733-2.267-3.467-3.6-5.2 0.8-0.267 1.733-0.4 2.533-0.4zM10.933 6.667c1.333 1.733 2.533 3.467 3.6 5.067-2.533 0.8-5.467 1.2-8.8 1.467 0.8-2.8 2.667-5.2 5.2-6.533zM8.267 23.333c-1.867-2-2.933-4.533-2.933-7.333 0 0 0-0.133 0-0.133 4-0.267 7.467-0.8 10.533-1.733 0.533 0.8 0.933 1.733 1.333 2.667-2.667 1.2-5.467 3.333-8.933 6.533zM16 26.667c-2.133 0-4-0.667-5.733-1.6 3.2-2.933 5.733-4.8 8-5.867 0.8 2.133 1.467 4.267 1.867 6.667-1.2 0.533-2.667 0.8-4.133 0.8zM22.533 24.4c-0.533-2.133-1.067-4.267-1.867-6.133 1.867-0.533 3.6-0.8 5.867-0.8-0.267 2.8-1.867 5.2-4 6.933zM19.733 15.733c-0.4-0.8-0.8-1.733-1.2-2.533 2.267-0.933 4.267-2 6.267-3.333 1.067 1.467 1.733 3.067 1.867 4.933-2.533 0-4.667 0.267-6.933 0.933z"></path>
</svg>
