<!-- Generated by IcoMoon.io -->
<svg version="1.1" xmlns="http://www.w3.org/2000/svg" width="32" height="32" viewBox="0 0 32 32">
<title>earphones</title>
<path fill="#f0f1f5" d="M24 4c-3.733 0-6.667 2.933-6.667 6.667 0 3.2 2.267 5.867 5.333 6.533v6.8c0 2.267 1.733 4 4 4s4-1.733 4-4v-13.333c0-3.733-2.933-6.667-6.667-6.667zM28 24c0 0.8-0.533 1.333-1.333 1.333s-1.333-0.533-1.333-1.333v-1.333h2.667v1.333zM28 20h-2.667v-4.933l-2.133-0.4c-1.867-0.4-3.2-2.133-3.2-4 0-2.267 1.733-4 4-4s4 1.733 4 4v9.333z"></path>
<path fill="#f0f1f5" d="M8 4c-3.733 0-6.667 2.933-6.667 6.667v13.333c0 2.267 1.733 4 4 4s4-1.733 4-4v-6.8c3.067-0.667 5.333-3.333 5.333-6.533 0-3.733-2.933-6.667-6.667-6.667zM6.667 24c0 0.8-0.533 1.333-1.333 1.333s-1.333-0.533-1.333-1.333v-1.333h2.667v1.333zM8.8 14.533l-2.133 0.533v4.933h-2.667v-9.333c0-2.267 1.733-4 4-4s4 1.733 4 4c0 1.867-1.333 3.6-3.2 3.867z"></path>
</svg>
