<!-- Generated by IcoMoon.io -->
<svg version="1.1" xmlns="http://www.w3.org/2000/svg" width="32" height="32" viewBox="0 0 32 32">
<title>edit</title>
<path fill="#f0f1f5" d="M26.667 28h-21.333c-0.8 0-1.333 0.533-1.333 1.333s0.533 1.333 1.333 1.333h21.333c0.8 0 1.333-0.533 1.333-1.333s-0.533-1.333-1.333-1.333z"></path>
<path fill="#f0f1f5" d="M6.667 25.333h4.8c0.667 0 1.333-0.267 1.867-0.8l13.733-13.733c1.6-1.6 1.6-4.133 0-5.6l-2.933-2.933c-1.6-1.6-4.133-1.6-5.6 0l-13.733 13.733c-0.533 0.533-0.8 1.2-0.8 1.867v4.8c0 1.467 1.2 2.667 2.667 2.667zM20.4 4.133c0.533-0.533 1.333-0.533 1.867 0l2.933 2.933c0.533 0.533 0.533 1.333 0 1.867l-1.2 1.2-4.8-4.8 1.2-1.2zM17.333 7.2l4.8 4.8-8.133 8.133-4.8-4.8 8.133-8.133zM6.667 17.867l0.667-0.667 4.8 4.8-0.667 0.667h-4.8v-4.8z"></path>
</svg>
