<!-- Generated by IcoMoon.io -->
<svg version="1.1" xmlns="http://www.w3.org/2000/svg" width="32" height="32" viewBox="0 0 32 32">
<title>eject</title>
<path fill="#f0f1f5" d="M24 22.667h-16c-2.267 0-4 1.733-4 4s1.733 4 4 4h16c2.267 0 4-1.733 4-4s-1.733-4-4-4zM24 28h-16c-0.8 0-1.333-0.533-1.333-1.333s0.533-1.333 1.333-1.333h16c0.8 0 1.333 0.533 1.333 1.333s-0.533 1.333-1.333 1.333z"></path>
<path fill="#f0f1f5" d="M8 20h16c3.333 0 5.2-3.733 3.2-6.4l-8-10.667c-1.6-2.133-4.8-2.133-6.4 0l-8 10.667c-2 2.667-0.133 6.4 3.2 6.4zM6.933 15.2l8-10.667c0.533-0.667 1.6-0.667 2.133 0l8 10.667c0.667 0.933 0 2.133-1.067 2.133h-16c-1.067 0-1.733-1.2-1.067-2.133z"></path>
</svg>
