<!-- Generated by IcoMoon.io -->
<svg version="1.1" xmlns="http://www.w3.org/2000/svg" width="32" height="32" viewBox="0 0 32 32">
<title>electrical-plug</title>
<path fill="#f0f1f5" d="M10 10.667h2c0 2.933 2.4 5.333 5.333 5.333h6.667c0.8 0 1.333-0.533 1.333-1.333v-1.333h2.667c0.8 0 1.333-0.533 1.333-1.333s-0.533-1.333-1.333-1.333h-2.667v-2.667h2.667c0.8 0 1.333-0.533 1.333-1.333s-0.533-1.333-1.333-1.333h-2.667v-1.333c0-0.8-0.533-1.333-1.333-1.333h-6.667c-2.933 0-5.333 2.4-5.333 5.333h-2c-4 0-7.333 3.333-7.333 7.333s3.333 7.333 7.333 7.333h14.667c1.067 0 2 0.933 2 2s-0.933 2-2 2h-20.667c-0.8 0-1.333 0.533-1.333 1.333s0.533 1.333 1.333 1.333h20.667c2.533 0 4.667-2.133 4.667-4.667s-2.133-4.667-4.667-4.667h-14.667c-2.533 0-4.667-2.133-4.667-4.667s2.133-4.667 4.667-4.667zM14.667 8c0-1.467 1.2-2.667 2.667-2.667h5.333v8h-5.333c-1.467 0-2.667-1.2-2.667-2.667v-2.667z"></path>
</svg>
