<!-- Generated by IcoMoon.io -->
<svg version="1.1" xmlns="http://www.w3.org/2000/svg" width="32" height="32" viewBox="0 0 32 32">
<title>email</title>
<path fill="#f0f1f5" d="M26.667 4h-21.333c-2.267 0-4 1.733-4 4v16c0 2.267 1.733 4 4 4h21.333c2.267 0 4-1.733 4-4v-16c0-2.267-1.733-4-4-4zM28 24c0 0.8-0.533 1.333-1.333 1.333h-21.333c-0.8 0-1.333-0.533-1.333-1.333v-16c0-0.8 0.533-1.333 1.333-1.333h21.333c0.8 0 1.333 0.533 1.333 1.333v16z"></path>
<path fill="#f0f1f5" d="M23.2 9.6l-6.267 5.2c-0.533 0.4-1.2 0.4-1.733 0l-6.4-5.2c-0.533-0.4-1.333-0.4-1.867 0.267-0.4 0.533-0.4 1.333 0.267 1.867l6.267 5.2c1.467 1.2 3.6 1.2 5.067 0l6.267-5.2c0.533-0.533 0.667-1.333 0.133-1.867-0.4-0.667-1.2-0.667-1.733-0.267z"></path>
</svg>
