<!-- Generated by IcoMoon.io -->
<svg version="1.1" xmlns="http://www.w3.org/2000/svg" width="32" height="32" viewBox="0 0 32 32">
<title>eraser</title>
<path fill="#f0f1f5" d="M28 25.333h-10.667l10.533-10.533c1.6-1.6 1.6-4.133 0-5.6l-5.067-5.067c-1.6-1.6-4.133-1.6-5.6 0l-14.4 14.4c-1.6 1.6-1.6 4.133 0 5.6l2.267 2.267c1.067 1.067 2.4 1.6 3.867 1.6h0.4c0 0 0 0 0 0h18.667c0.8 0 1.333-0.533 1.333-1.333s-0.533-1.333-1.333-1.333zM19.067 6c0.533-0.533 1.333-0.533 1.867 0l5.067 5.067c0.533 0.533 0.533 1.333 0 1.867l-5.867 5.867-6.933-6.933 5.867-5.867zM12.4 25.333h-3.467c-0.667 0-1.333-0.267-1.867-0.8l-2.267-2.267c-0.533-0.533-0.533-1.333 0-1.867l6.533-6.533 6.933 6.933-3.733 3.733c-0.667 0.533-1.333 0.8-2.133 0.8z"></path>
</svg>
