<!-- Generated by IcoMoon.io -->
<svg version="1.1" xmlns="http://www.w3.org/2000/svg" width="32" height="32" viewBox="0 0 32 32">
<title>exit-full-screen</title>
<path fill="#f0f1f5" d="M10.667 2.667c-0.736 0-1.333 0.597-1.333 1.333v4c0 0.736-0.597 1.333-1.333 1.333h-4c-0.736 0-1.333 0.597-1.333 1.333s0.597 1.333 1.333 1.333h4c2.209 0 4-1.791 4-4v-4c0-0.736-0.597-1.333-1.333-1.333z"></path>
<path fill="#f0f1f5" d="M9.333 28c0 0.736 0.597 1.333 1.333 1.333s1.333-0.597 1.333-1.333v-4c0-2.209-1.791-4-4-4h-4c-0.736 0-1.333 0.597-1.333 1.333s0.597 1.333 1.333 1.333h4c0.736 0 1.333 0.597 1.333 1.333v4z"></path>
<path fill="#f0f1f5" d="M22.667 28c0 0.736-0.597 1.333-1.333 1.333s-1.333-0.597-1.333-1.333v-4c0-2.209 1.791-4 4-4h4c0.736 0 1.333 0.597 1.333 1.333s-0.597 1.333-1.333 1.333h-4c-0.736 0-1.333 0.597-1.333 1.333v4z"></path>
<path fill="#f0f1f5" d="M22.667 4c0-0.736-0.597-1.333-1.333-1.333s-1.333 0.597-1.333 1.333v4c0 2.209 1.791 4 4 4h4c0.736 0 1.333-0.597 1.333-1.333s-0.597-1.333-1.333-1.333h-4c-0.736 0-1.333-0.597-1.333-1.333v-4z"></path>
</svg>
