<!-- Generated by IcoMoon.io -->
<svg version="1.1" xmlns="http://www.w3.org/2000/svg" width="32" height="32" viewBox="0 0 32 32">
<title>eye-close</title>
<path fill="#f0f1f5" d="M30 21.867l-1.867-0.667c0.267-0.267 0.533-0.533 0.8-0.8 0.533-0.533 0.4-1.333-0.133-1.867s-1.333-0.4-1.867 0.133c-2.4 2.667-6.133 5.333-10.933 5.333s-8.533-2.667-10.933-5.333c-0.533-0.533-1.333-0.533-1.867-0.133-0.533 0.533-0.667 1.333-0.133 1.867 0.267 0.267 0.533 0.533 0.8 0.8l-1.733 0.667c-0.667 0.267-1.067 1.067-0.8 1.733 0.267 0.533 0.667 0.8 1.2 0.8 0.133 0 0.267 0 0.533-0.133l3.067-1.2c0.4 0.267 0.8 0.533 1.2 0.8l-1.733 2c-0.533 0.533-0.4 1.333 0.133 1.867 0.267 0.267 0.533 0.4 0.933 0.4s0.8-0.133 0.933-0.4l2.133-2.4c0.8 0.4 1.6 0.667 2.4 0.8l-0.667 2.8c-0.133 0.667 0.267 1.467 0.933 1.6 0.133 0 0.267 0 0.267 0 0.533 0 1.2-0.4 1.333-1.067l0.8-2.933c0.4 0 0.8 0 1.2 0s0.8 0 1.2 0l0.8 2.933c0.133 0.667 0.667 1.067 1.333 1.067 0.133 0 0.267 0 0.267 0 0.667-0.133 1.2-0.933 0.933-1.6l-0.667-2.8c0.8-0.267 1.6-0.533 2.4-0.8l2.133 2.4c0.267 0.267 0.667 0.4 0.933 0.4s0.667-0.133 0.933-0.4c0.533-0.533 0.667-1.333 0.133-1.867l-1.733-2c0.4-0.267 0.8-0.533 1.2-0.933l3.067 1.2c0.133 0 0.267 0.133 0.533 0.133 0.533 0 1.067-0.267 1.2-0.8 0.267-0.533 0-1.333-0.667-1.6z"></path>
</svg>
