<!-- Generated by IcoMoon.io -->
<svg version="1.1" xmlns="http://www.w3.org/2000/svg" width="32" height="32" viewBox="0 0 32 32">
<title>eye</title>
<path fill="#f0f1f5" d="M29.733 12.667c-2.4-3.067-7.067-7.333-13.733-7.333s-11.333 4.267-13.733 7.333c-1.6 2-1.6 4.667 0 6.667 2.4 3.067 7.067 7.333 13.733 7.333s11.333-4.267 13.733-7.333c1.6-2 1.6-4.667 0-6.667zM27.733 17.6c-2.267 2.933-6.267 6.4-11.733 6.4s-9.467-3.467-11.733-6.4c-0.8-0.933-0.8-2.267 0-3.333 2.267-2.8 6.267-6.267 11.733-6.267s9.467 3.467 11.733 6.4c0.8 0.933 0.8 2.267 0 3.2z"></path>
<path fill="#f0f1f5" d="M16 10.667c-2.933 0-5.333 2.4-5.333 5.333s2.4 5.333 5.333 5.333c2.933 0 5.333-2.4 5.333-5.333s-2.4-5.333-5.333-5.333zM16 18.667c-1.467 0-2.667-1.2-2.667-2.667 0 0 0-0.133 0-0.133 0.267 0.133 0.4 0.133 0.667 0.133 1.067 0 2-0.933 2-2 0-0.267 0-0.4-0.133-0.667 0 0 0.133 0 0.133 0 1.467 0 2.667 1.2 2.667 2.667s-1.2 2.667-2.667 2.667z"></path>
</svg>
