<!-- Generated by IcoMoon.io -->
<svg version="1.1" xmlns="http://www.w3.org/2000/svg" width="32" height="32" viewBox="0 0 32 32">
<title>facebook</title>
<path fill="#f0f1f5" d="M16 2.667c-7.333 0-13.333 6-13.333 13.333s6 13.333 13.333 13.333 13.333-6 13.333-13.333-6-13.333-13.333-13.333zM16 26.667v-8h2.667c0.8 0 1.333-0.533 1.333-1.333s-0.533-1.333-1.333-1.333h-2.667v-2.667c0-0.8 0.533-1.333 1.333-1.333h1.333c0.8 0 1.333-0.533 1.333-1.333s-0.533-1.333-1.333-1.333h-1.333c-2.267 0-4 1.733-4 4v2.667h-1.333c-0.8 0-1.333 0.533-1.333 1.333s0.533 1.333 1.333 1.333h1.333v7.6c-4.533-1.2-8-5.333-8-10.267 0-5.867 4.8-10.667 10.667-10.667s10.667 4.8 10.667 10.667-4.8 10.667-10.667 10.667z"></path>
</svg>
