<!-- Generated by IcoMoon.io -->
<svg version="1.1" xmlns="http://www.w3.org/2000/svg" width="32" height="32" viewBox="0 0 32 32">
<title>fencing</title>
<path fill="#f0f1f5" d="M27.6 25.733l0.533-0.533c0.8-0.8 1.2-1.733 0.933-2.8-0.667-2.133-2.667-3.733-5.067-3.733-0.933 0-1.867 0.267-2.667 0.8l-3.467-3.467 11.067-11.067c0.533-0.533 0.533-1.333 0-1.867s-1.333-0.533-1.867 0l-11.067 11.067-11.067-11.067c-0.533-0.533-1.333-0.533-1.867 0s-0.533 1.333 0 1.867l11.067 11.067-3.467 3.467c-0.8-0.533-1.733-0.8-2.667-0.8-2.4 0-4.4 1.6-5.067 3.733-0.267 1.067 0.133 2 0.933 2.8l0.533 0.533-1.333 1.333c-0.533 0.533-0.533 1.333 0 1.867s1.333 0.533 1.867 0l1.333-1.333 0.533 0.533c0.8 0.8 1.733 1.2 2.8 0.933 2.133-0.667 3.733-2.667 3.733-5.067 0-0.933-0.267-1.867-0.8-2.667l3.467-3.467 3.467 3.467c-0.533 0.8-0.8 1.733-0.8 2.667 0 2.4 1.6 4.4 3.733 5.067 1.067 0.267 2-0.133 2.8-0.933l0.533-0.533 1.333 1.333c0.533 0.533 1.333 0.533 1.867 0s0.533-1.333 0-1.867l-1.333-1.333zM9.733 26.133c-0.4 0.267-0.933 0.133-1.333-0.133l-2.267-2.267c-0.4-0.4-0.533-0.933-0.133-1.333 0.4-0.667 1.2-1.067 2-1.067 1.467 0 2.667 1.2 2.667 2.667 0 0.8-0.4 1.6-0.933 2.133zM25.867 23.733l-2.267 2.267c-0.4 0.4-0.933 0.533-1.333 0.133-0.533-0.533-0.933-1.333-0.933-2.133 0-1.467 1.2-2.667 2.667-2.667 0.8 0 1.6 0.4 2.133 0.933 0.267 0.4 0.133 1.067-0.267 1.467z"></path>
</svg>
