<!-- Generated by IcoMoon.io -->
<svg version="1.1" xmlns="http://www.w3.org/2000/svg" width="32" height="32" viewBox="0 0 32 32">
<title>figma</title>
<path fill="#f0f1f5" d="M23.733 11.333c1.467-0.933 2.533-2.667 2.533-4.667 0-3.067-2.533-5.6-5.6-5.6h-9.467c-3.067 0-5.6 2.533-5.6 5.6 0 2 0.933 3.6 2.533 4.667-1.467 1.067-2.4 2.667-2.4 4.667s0.933 3.6 2.533 4.667c-1.467 0.933-2.533 2.667-2.533 4.667 0 3.067 2.533 5.6 5.6 5.6s5.6-2.533 5.6-5.6v-5.067c0.933 0.933 2.267 1.467 3.733 1.467h0.133c3.067 0 5.6-2.533 5.6-5.6-0.133-2.133-1.067-3.733-2.667-4.8zM16.933 3.067h3.867c2 0 3.733 1.733 3.733 3.733s-1.733 3.733-3.733 3.733h-3.867v-7.467zM11.2 3.067h3.867v7.467h-3.867c-2 0-3.733-1.733-3.733-3.733 0-2.133 1.733-3.733 3.733-3.733zM7.467 16c0-2 1.733-3.733 3.733-3.733h3.867v7.467h-3.867c0 0 0 0 0 0-2 0-3.733-1.733-3.733-3.733zM15.067 25.2c0 2.133-1.733 3.733-3.867 3.733s-3.733-1.733-3.733-3.733c0-2 1.733-3.733 3.733-3.733 0 0 0 0 0 0h3.867v3.733zM20.8 19.733v0c-2.133 0-3.867-1.733-3.867-3.733s1.733-3.733 3.733-3.733h0.133c2 0 3.733 1.733 3.733 3.733s-1.733 3.733-3.733 3.733z"></path>
</svg>
