<!-- Generated by IcoMoon.io -->
<svg version="1.1" xmlns="http://www.w3.org/2000/svg" width="32" height="32" viewBox="0 0 32 32">
<title>file-cross</title>
<path fill="#f0f1f5" d="M26.4 5.067l-2.267-2.267c-0.933-0.933-2.267-1.467-3.733-1.467h-11.067c-2.933 0-5.333 2.4-5.333 5.333v18.667c0 2.933 2.4 5.333 5.333 5.333h13.333c2.933 0 5.333-2.4 5.333-5.333v-16.4c0-1.467-0.533-2.8-1.6-3.867zM21.333 4.133c0.4 0.133 0.667 0.4 1.067 0.667l2.267 2.267c0.267 0.267 0.533 0.667 0.667 1.067h-2.667c-0.8 0-1.333-0.533-1.333-1.333v-2.667zM25.333 25.333c0 1.467-1.2 2.667-2.667 2.667h-13.333c-1.467 0-2.667-1.2-2.667-2.667v-18.667c0-1.467 1.2-2.667 2.667-2.667h9.333v2.667c0 2.267 1.733 4 4 4h2.667v14.667z"></path>
<path fill="#f0f1f5" d="M20.933 13.733c-0.533-0.533-1.333-0.533-1.867 0l-3.067 3.067-3.067-3.067c-0.533-0.533-1.333-0.533-1.867 0s-0.533 1.333 0 1.867l3.067 3.067-3.067 3.067c-0.533 0.533-0.533 1.333 0 1.867s1.333 0.533 1.867 0l3.067-3.067 3.067 3.067c0.533 0.533 1.333 0.533 1.867 0s0.533-1.333 0-1.867l-3.067-3.067 3.067-3.067c0.533-0.533 0.533-1.333 0-1.867z"></path>
</svg>
