<!-- Generated by IcoMoon.io -->
<svg version="1.1" xmlns="http://www.w3.org/2000/svg" width="32" height="32" viewBox="0 0 32 32">
<title>file-erase</title>
<path fill="#f0f1f5" d="M6.667 24c0 0.736-0.597 1.333-1.333 1.333s-1.333-0.597-1.333-1.333c0-0.736 0.597-1.333 1.333-1.333s1.333 0.597 1.333 1.333z"></path>
<path fill="#f0f1f5" d="M12 29.333c0 0.736-0.597 1.333-1.333 1.333s-1.333-0.597-1.333-1.333c0-0.736 0.597-1.333 1.333-1.333s1.333 0.597 1.333 1.333z"></path>
<path fill="#f0f1f5" d="M6.667 29.333c0 0.736-0.597 1.333-1.333 1.333s-1.333-0.597-1.333-1.333c0-0.736 0.597-1.333 1.333-1.333s1.333 0.597 1.333 1.333z"></path>
<path fill="#f0f1f5" d="M17.333 29.333c0 0.736-0.597 1.333-1.333 1.333s-1.333-0.597-1.333-1.333c0-0.736 0.597-1.333 1.333-1.333s1.333 0.597 1.333 1.333z"></path>
<path fill="#f0f1f5" d="M28 29.333c0 0.736-0.597 1.333-1.333 1.333s-1.333-0.597-1.333-1.333c0-0.736 0.597-1.333 1.333-1.333s1.333 0.597 1.333 1.333z"></path>
<path fill="#f0f1f5" d="M22.667 29.333c0 0.736-0.597 1.333-1.333 1.333s-1.333-0.597-1.333-1.333c0-0.736 0.597-1.333 1.333-1.333s1.333 0.597 1.333 1.333z"></path>
<path fill="#f0f1f5" d="M28 24c0 0.736-0.597 1.333-1.333 1.333s-1.333-0.597-1.333-1.333c0-0.736 0.597-1.333 1.333-1.333s1.333 0.597 1.333 1.333z"></path>
<path fill="#f0f1f5" d="M26.4 5.2l-2.267-2.267c-1.067-1.067-2.4-1.6-3.733-1.6h-11.067c-2.933 0-5.333 2.4-5.333 5.333v12c0 0.8 0.533 1.333 1.333 1.333s1.333-0.533 1.333-1.333v-12c0-1.467 1.2-2.667 2.667-2.667h9.333v2.667c0 2.267 1.733 4 4 4h2.667v8c0 0.8 0.533 1.333 1.333 1.333s1.333-0.533 1.333-1.333v-9.733c0-1.333-0.533-2.667-1.6-3.733zM22.667 7.867v0c-0.8 0.133-1.333-0.4-1.333-1.2v-2.533c0.267 0.133 0.667 0.267 0.933 0.533l2.267 2.267c0.267 0.267 0.4 0.533 0.533 0.933h-2.4z"></path>
</svg>
