<!-- Generated by IcoMoon.io -->
<svg version="1.1" xmlns="http://www.w3.org/2000/svg" width="32" height="32" viewBox="0 0 32 32">
<title>filter</title>
<path fill="#f0f1f5" d="M24.533 2.667h-17.067c-3.2 0-5.067 3.6-3.333 6.267l6.267 9.467c0.133 0.133 0.267 0.4 0.267 0.667v7.067c0 3.2 3.467 5.067 6.133 3.333l2.667-1.6c1.2-0.667 1.867-2 1.867-3.333v-5.333c0-0.267 0.133-0.533 0.267-0.8l6.267-9.467c1.733-2.667-0.133-6.267-3.333-6.267zM25.6 7.467l-6.8 10.133c-0.133 0.267-0.267 0.533-0.267 0.8v6.133c0 0.4-0.267 0.933-0.667 1.067l-2.667 1.6c-0.933 0.533-2-0.133-2-1.067v-7.867c0-0.267-0.133-0.533-0.267-0.8l-6.533-10c-0.667-0.933 0-2.133 1.067-2.133h17.067c1.067 0 1.733 1.2 1.067 2.133z"></path>
</svg>
