<!-- Generated by IcoMoon.io -->
<svg version="1.1" xmlns="http://www.w3.org/2000/svg" width="32" height="32" viewBox="0 0 32 32">
<title>flash-drive</title>
<path fill="#f0f1f5" d="M27.867 13.467c1.6-1.6 1.6-4.133 0-5.6l-3.733-3.733c-1.6-1.6-4.133-1.6-5.6 0l-3.333 3.333c0.133 0 0.133 0.133 0.267 0.133-1.6-0.933-3.6-0.8-4.933 0.533l-6.133 6.133c-3.067 3.067-3.067 8.133 0 11.333l2 2c3.067 3.067 8.133 3.067 11.333 0l6.133-6.133c1.333-1.333 1.467-3.333 0.533-4.933 0 0.133 0.133 0.133 0.133 0.267l3.333-3.333zM22 19.6l-6.133 6.133c-2.133 2.133-5.467 2.133-7.6 0l-2-2c-2.133-2.133-2.133-5.467 0-7.6l6.133-6.133c0.533-0.533 1.333-0.533 1.867 0l7.733 7.733c0.533 0.533 0.533 1.333 0 1.867zM23.867 15.867c0.133 0.133 0.267 0.4 0.4 0.533-0.133-0.133-0.267-0.4-0.4-0.533l-7.733-7.733c-0.133-0.133-0.4-0.267-0.533-0.4 0.133 0.133 0.4 0.267 0.533 0.4l1.067 1.067 3.2-3.2c0.533-0.533 1.333-0.533 1.867 0l3.733 3.733c0.533 0.533 0.533 1.333 0 1.867l-3.2 3.2 1.067 1.067z"></path>
<path fill="#f0f1f5" d="M12 21.333c0 0.736-0.597 1.333-1.333 1.333s-1.333-0.597-1.333-1.333c0-0.736 0.597-1.333 1.333-1.333s1.333 0.597 1.333 1.333z"></path>
</svg>
