<!-- Generated by IcoMoon.io -->
<svg version="1.1" xmlns="http://www.w3.org/2000/svg" width="32" height="32" viewBox="0 0 32 32">
<title>flip-chart</title>
<path fill="#f0f1f5" d="M24 5.333h-6.667v-1.333c0-0.8-0.533-1.333-1.333-1.333s-1.333 0.533-1.333 1.333v1.333h-6.667c-2.933 0-5.333 2.4-5.333 5.333v10.667c0 2.933 2.4 5.333 5.333 5.333h0.533l-0.4 0.8c-0.267 0.667 0 1.467 0.533 1.733 0.667 0.267 1.467 0 1.733-0.533l1.067-2h9.067l0.933 1.867c0.267 0.667 1.067 0.933 1.733 0.533 0.667-0.267 0.933-1.067 0.533-1.733l-0.267-0.667h0.533c2.933 0 5.333-2.4 5.333-5.333v-10.667c0-2.933-2.4-5.333-5.333-5.333zM26.667 21.333c0 1.467-1.2 2.667-2.667 2.667h-2.667c0 0 0 0 0 0h-10.667c0 0 0 0 0 0h-2.667c-1.467 0-2.667-1.2-2.667-2.667v-10.667c0-1.467 1.2-2.667 2.667-2.667h16c1.467 0 2.667 1.2 2.667 2.667v10.667z"></path>
<path fill="#f0f1f5" d="M21.6 11.2l-4.533 5.733-2.933-2c-0.533-0.4-1.2-0.267-1.733 0.133l-4 4c-0.533 0.533-0.533 1.333 0 1.867s1.333 0.533 1.867 0l3.2-3.2 3.067 2c0.533 0.4 1.333 0.267 1.733-0.267l5.333-6.667c0.4-0.533 0.4-1.467-0.267-1.867-0.4-0.4-1.2-0.4-1.733 0.267z"></path>
</svg>
