<!-- Generated by IcoMoon.io -->
<svg version="1.1" xmlns="http://www.w3.org/2000/svg" width="32" height="32" viewBox="0 0 32 32">
<title>flutter</title>
<path fill="#f0f1f5" d="M17.733 1.867l-12.8 13.067c-0.533 0.533-0.533 1.333 0 1.867l3.067 3.2c0.533 0.533 1.467 0.533 2 0l16-16.4c0.667-0.933 0.133-2.267-1.067-2.267h-5.867c-0.533 0-1.067 0.267-1.333 0.533zM19.2 3.6h3.467l-13.867 14.133-1.733-1.733 12.133-12.4zM17.733 15.467l-6.267 6.267c-0.533 0.533-0.533 1.333 0 1.867l6.267 6.267c0.4 0.4 0.933 0.533 1.333 0.533h5.867c1.067 0 1.733-1.333 0.933-2.133l-5.6-5.733 5.6-5.733c0.8-0.8 0.267-2.133-0.933-2.133h-5.867c-0.533 0.267-1.067 0.533-1.333 0.8zM19.2 17.067h3.467l-7.2 7.467-1.733-1.733 5.467-5.733zM18.8 24.4l4 4h-3.467l-2.133-2.267 1.6-1.733z"></path>
</svg>
