<!-- Generated by IcoMoon.io -->
<svg version="1.1" xmlns="http://www.w3.org/2000/svg" width="32" height="32" viewBox="0 0 32 32">
<title>folder</title>
<path fill="#f0f1f5" d="M30.533 12.133c-0.267-2.133-1.867-3.867-4-4-1.2 0-2.533-0.133-3.867-0.133h-5.333l-0.8-1.333c-0.8-1.333-2-2.133-3.6-2.4-1.2-0.133-2.667-0.267-4.267-0.267-1.067 0-2.133 0.133-3.2 0.133-2.133 0.267-3.733 1.867-3.867 4-0.133 1.867-0.267 4.4-0.267 7.867 0 2.4 0.133 4.533 0.267 6.4 0.133 2.933 2.4 5.2 5.333 5.333 2.267 0.133 5.333 0.267 9.067 0.267s6.8-0.133 9.067-0.267c2.933-0.133 5.2-2.4 5.467-5.467 0.133-1.733 0.267-3.867 0.267-6.4-0.133-1.2-0.267-2.533-0.267-3.733zM27.867 22.133c-0.133 1.6-1.333 2.8-2.933 2.933-2.267 0.133-5.2 0.267-8.933 0.267s-6.667-0.133-8.933-0.267c-1.6-0.133-2.8-1.333-2.933-2.933 0-1.6-0.133-3.733-0.133-6.133 0-3.333 0.133-5.867 0.267-7.6 0.133-0.933 0.667-1.467 1.467-1.6 0.933-0.133 2-0.133 2.933-0.133 1.467 0 2.8 0.133 4 0.267 0.533 0.133 1.2 0.4 1.6 1.067l1.6 2.667h6.8c1.333 0 2.533 0.133 3.6 0.133 0.933 0.133 1.467 0.667 1.6 1.6 0 1.067 0.133 2.267 0.133 3.6 0 2.4-0.133 4.533-0.133 6.133z"></path>
</svg>
