<!-- Generated by IcoMoon.io -->
<svg version="1.1" xmlns="http://www.w3.org/2000/svg" width="32" height="32" viewBox="0 0 32 32">
<title>font</title>
<path fill="#f0f1f5" d="M26.533 13.2l-1.2-1.733c-0.267-0.4-0.667-0.533-1.067-0.533h-8.8v-5.6h3.867l0.8 1.2c0.4 0.533 1.333 0.8 1.867 0.267 0.667-0.4 0.8-1.333 0.267-1.867l-1.2-1.733c-0.133-0.4-0.667-0.533-1.067-0.533h-12.133c-0.4 0-0.8 0.133-1.067 0.533l-1.2 1.6c-0.267 0.267-0.267 0.667-0.267 0.933 0 0.4 0.267 0.667 0.533 0.933s0.667 0.267 1.067 0.267c0.4 0 0.667-0.267 0.933-0.533l0.667-1.067h4v5.6h-0.533c-0.4 0-0.8 0.267-1.067 0.533l-1.2 1.6c-0.267 0.267-0.267 0.667-0.267 1.067s0.267 0.667 0.533 0.933c0.267 0.267 0.667 0.267 1.067 0.267s0.667-0.267 0.933-0.533l0.667-0.933v4.4h-0.8c-0.8 0-1.333 0.667-1.333 1.333s0.667 1.333 1.333 1.333h4.133c0.267 0 0.533-0.133 0.667-0.133v5.733h-0.667c-0.8 0-1.333 0.667-1.333 1.333s0.667 1.333 1.333 1.333h4.133c0.8 0 1.333-0.667 1.333-1.333s-0.667-1.333-1.333-1.333h-0.667v-12.8h3.867l0.8 1.2c0.4 0.533 1.333 0.8 1.867 0.267 0.8-0.533 0.933-1.333 0.533-2zM15.333 13.733h1.467v4.8c-0.267-0.133-0.4-0.133-0.667-0.133h-0.667l-0.133-4.667z"></path>
</svg>
