<!-- Generated by IcoMoon.io -->
<svg version="1.1" xmlns="http://www.w3.org/2000/svg" width="32" height="32" viewBox="0 0 32 32">
<title>fork-knife</title>
<path fill="#f0f1f5" d="M22.667 2.667c-0.8 0-1.333 0.533-1.333 1.333v24c0 0.8 0.533 1.333 1.333 1.333s1.333-0.533 1.333-1.333v-6.933l4.267-1.067c0.533-0.133 1.067-0.667 1.067-1.333v-9.333c0-3.733-2.933-6.667-6.667-6.667zM26.667 17.6l-2.667 0.667v-12.667c1.6 0.533 2.667 2 2.667 3.733v8.267z"></path>
<path fill="#f0f1f5" d="M14.667 2.667c-0.8 0-1.333 0.533-1.333 1.333v5.333c0 1.733-1.067 3.2-2.667 3.733v-9.067c0-0.8-0.533-1.333-1.333-1.333s-1.333 0.533-1.333 1.333v9.067c-1.6-0.533-2.667-2-2.667-3.733v-5.333c0-0.8-0.533-1.333-1.333-1.333s-1.333 0.533-1.333 1.333v5.333c0 3.2 2.267 5.867 5.333 6.533v12.133c0 0.8 0.533 1.333 1.333 1.333s1.333-0.533 1.333-1.333v-12.133c3.067-0.667 5.333-3.333 5.333-6.533v-5.333c0-0.8-0.533-1.333-1.333-1.333z"></path>
</svg>
