<!-- Generated by IcoMoon.io -->
<svg version="1.1" xmlns="http://www.w3.org/2000/svg" width="32" height="32" viewBox="0 0 32 32">
<title>forward</title>
<path fill="#f0f1f5" d="M30.133 12.667l-9.333-6c-2.667-1.733-6.133 0.133-6.133 3.333v2.133l-8.533-5.467c-2.667-1.733-6.133 0.133-6.133 3.333v12c0 3.2 3.467 5.067 6.133 3.333l8.533-5.467v2.133c0 3.2 3.467 5.067 6.133 3.333l9.333-6c2.4-1.6 2.4-5.067 0-6.667zM14 17.067l-9.333 6c-0.933 0.533-2 0-2-1.067v-12c0-1.067 1.2-1.733 2-1.067l9.333 6c0.8 0.533 0.8 1.6 0 2.133zM28.667 17.067l-9.333 6c-0.933 0.533-2 0-2-1.067v-12c0-1.067 1.2-1.733 2-1.067l9.333 6c0.8 0.533 0.8 1.6 0 2.133z"></path>
</svg>
