<!-- Generated by IcoMoon.io -->
<svg version="1.1" xmlns="http://www.w3.org/2000/svg" width="32" height="32" viewBox="0 0 32 32">
<title>forward-15-sec</title>
<path fill="#f0f1f5" d="M30.267 4.4l-2.667-2.667c-0.533-0.533-1.333-0.533-1.867 0s-0.533 1.333 0 1.867l0.4 0.4h-12.8c-6.8 0-12 5.2-12 12s5.2 12 12 12 12-5.2 12-12c0-0.8-0.533-1.333-1.333-1.333s-1.333 0.533-1.333 1.333c0 5.2-4.133 9.333-9.333 9.333s-9.333-4.133-9.333-9.333 4.133-9.333 9.333-9.333h12.8l-0.4 0.4c-0.533 0.533-0.533 1.333 0 1.867s1.333 0.533 1.867 0l2.667-2.667c0.533-0.533 0.533-1.333 0-1.867z"></path>
<path fill="#f0f1f5" d="M8 12v8c0 0.8 0.533 1.333 1.333 1.333s1.333-0.533 1.333-1.333v-8c0-0.8-0.533-1.333-1.333-1.333s-1.333 0.533-1.333 1.333z"></path>
<path fill="#f0f1f5" d="M17.333 13.333c0.8 0 1.333-0.533 1.333-1.333s-0.533-1.333-1.333-1.333h-3.333c-1.067 0-2 0.933-2 2v2.667c0 1.067 0.933 2 2 2h2v1.333h-2.667c-0.8 0-1.333 0.533-1.333 1.333s0.533 1.333 1.333 1.333h3.333c1.067 0 2-0.933 2-2v-2.667c0-1.067-0.933-2-2-2h-2v-1.333h2.667z"></path>
</svg>
