<!-- Generated by IcoMoon.io -->
<svg version="1.1" xmlns="http://www.w3.org/2000/svg" width="32" height="32" viewBox="0 0 32 32">
<title>fottball-ball</title>
<path fill="#f0f1f5" d="M26.667 8.533v0c0 0-0.133-0.133-0.133-0.133-0.267-0.133-0.4-0.267-0.667-0.4-0.267 0-0.4-0.133-0.533-0.267-0.267-0.133-0.533-0.267-0.8-0.4-0.133-0.133-0.267-0.133-0.533-0.267v0c-2.267-1.067-5.067-1.733-8-1.733s-5.733 0.667-8 1.733v0c-0.133 0.133-0.4 0.133-0.533 0.267-0.267 0.133-0.533 0.267-0.8 0.4-0.133 0.133-0.267 0.267-0.533 0.267-0.267 0.133-0.4 0.267-0.667 0.533 0 0-0.133 0-0.133 0.133v0c-3.333 2.133-5.333 5.2-5.333 7.333s2 5.2 5.333 7.467v0c0 0 0.133 0 0.133 0.133 0.267 0.133 0.533 0.267 0.8 0.533 0.133 0.133 0.267 0.133 0.533 0.267s0.533 0.267 0.933 0.4c0.133 0.133 0.267 0.133 0.4 0.267v0c2.267 1.067 5.067 1.733 8 1.733s5.733-0.667 8-1.733v0c0.133 0 0.267-0.133 0.4-0.267 0.267-0.133 0.533-0.267 0.933-0.4 0.133-0.133 0.267-0.133 0.533-0.267s0.533-0.267 0.8-0.533c0 0 0.133 0 0.133-0.133v0c3.333-2.267 5.333-5.2 5.333-7.467s-2.267-5.2-5.6-7.467zM5.333 20c-0.8-0.667-1.467-1.467-1.867-2.133-0.667-0.933-0.8-1.6-0.8-1.867s0.133-0.933 0.8-1.867c0.4-0.667 1.067-1.467 1.867-2.133v8zM24 22c-2.133 1.2-4.933 2-8 2s-5.867-0.8-8-2v-12c2.133-1.2 4.933-2 8-2s5.867 0.8 8 2v12zM28.533 17.867c-0.4 0.667-1.067 1.467-1.867 2.133v-8c0.8 0.667 1.467 1.467 1.867 2.133 0.667 0.933 0.8 1.6 0.8 1.867s-0.133 0.933-0.8 1.867z"></path>
<path fill="#f0f1f5" d="M14.667 13.333c0-0.8-0.533-1.333-1.333-1.333s-1.333 0.533-1.333 1.333v1.333c-0.8 0-1.333 0.533-1.333 1.333s0.533 1.333 1.333 1.333v1.333c0 0.8 0.533 1.333 1.333 1.333s1.333-0.533 1.333-1.333v-1.333h2.667v1.333c0 0.8 0.533 1.333 1.333 1.333s1.333-0.533 1.333-1.333v-1.333c0.8 0 1.333-0.533 1.333-1.333s-0.533-1.333-1.333-1.333v-1.333c0-0.8-0.533-1.333-1.333-1.333s-1.333 0.533-1.333 1.333v1.333h-2.667v-1.333z"></path>
</svg>
