<!-- Generated by IcoMoon.io -->
<svg version="1.1" xmlns="http://www.w3.org/2000/svg" width="32" height="32" viewBox="0 0 32 32">
<title>foursquare</title>
<path fill="#f0f1f5" d="M23.333 0h-14c-2.267 0-4 1.733-4 4v26.667c0 0.533 0.4 1.067 0.8 1.2 0.533 0.133 1.067 0 1.467-0.4l8.533-9.733c0.267-0.267 0.667-0.4 1.067-0.4h3.333c1.867 0 3.467-1.333 3.867-3.2l2.8-13.333c0.667-2.4-1.333-4.8-3.867-4.8zM24.667 4.267l-1.067 5.067h-7.6c-0.8 0-1.333 0.533-1.333 1.333s0.533 1.333 1.333 1.333h7.067l-1.2 5.6c-0.133 0.667-0.667 1.067-1.333 1.067h-3.333c-1.2 0-2.267 0.533-3.067 1.333l-6.133 7.067v-23.067c0-0.8 0.533-1.333 1.333-1.333h14c0.933 0 1.467 0.8 1.333 1.6z"></path>
</svg>
