<!-- Generated by IcoMoon.io -->
<svg version="1.1" xmlns="http://www.w3.org/2000/svg" width="32" height="32" viewBox="0 0 32 32">
<title>french-fries</title>
<path fill="#f0f1f5" d="M25.333 10.667v-2.667c0-2.267-1.733-4-4-4-0.533 0-1.067 0.133-1.467 0.267-0.533-1.733-2-2.933-3.867-2.933-2.267 0-4 1.733-4 4v0.267c-0.4-0.133-0.8-0.267-1.333-0.267-2.267 0-4 1.733-4 4v1.333c-2.133 0.267-3.6 2.267-3.333 4.533l1.467 10.667c0.267 2 2 3.467 4 3.467h14.4c2 0 3.733-1.467 4-3.467l1.467-10.667c0.267-2.133-1.2-4.133-3.333-4.533zM20 8c0-0.8 0.533-1.333 1.333-1.333s1.333 0.533 1.333 1.333v3.6c0 0.133-0.133 0.267-0.133 0.4-0.267 1.6-1.2 3.067-2.533 4v-8zM14.667 5.333c0-0.8 0.533-1.333 1.333-1.333s1.333 0.533 1.333 1.333v11.867c-0.4 0.133-0.933 0.133-1.333 0.133s-0.933 0-1.333-0.133v-11.867zM9.333 9.333c0-0.8 0.533-1.333 1.333-1.333s1.333 0.533 1.333 1.333v6.667c-1.333-0.933-2.267-2.4-2.533-4 0-0.133-0.133-0.267-0.133-0.4v-2.267zM24.533 25.467c-0.133 0.667-0.667 1.2-1.333 1.2h-14.4c-0.667 0-1.2-0.533-1.333-1.2l-1.467-10.667c-0.133-0.667 0.4-1.333 1.067-1.467 1.2 3.867 4.667 6.667 8.933 6.667s7.733-2.8 8.933-6.667c0.667 0.133 1.2 0.8 1.067 1.467l-1.467 10.667z"></path>
</svg>
