<!-- Generated by IcoMoon.io -->
<svg version="1.1" xmlns="http://www.w3.org/2000/svg" width="32" height="32" viewBox="0 0 32 32">
<title>full-screen</title>
<path fill="#f0f1f5" d="M4 12c0.736 0 1.333-0.597 1.333-1.333v-4c0-0.736 0.597-1.333 1.333-1.333h4c0.736 0 1.333-0.597 1.333-1.333s-0.597-1.333-1.333-1.333h-4c-2.209 0-4 1.791-4 4v4c0 0.736 0.597 1.333 1.333 1.333z"></path>
<path fill="#f0f1f5" d="M5.333 21.333c0-0.736-0.597-1.333-1.333-1.333s-1.333 0.597-1.333 1.333v4c0 2.209 1.791 4 4 4h4c0.736 0 1.333-0.597 1.333-1.333s-0.597-1.333-1.333-1.333h-4c-0.736 0-1.333-0.597-1.333-1.333v-4z"></path>
<path fill="#f0f1f5" d="M26.667 21.333c0-0.736 0.597-1.333 1.333-1.333s1.333 0.597 1.333 1.333v4c0 2.209-1.791 4-4 4h-4c-0.736 0-1.333-0.597-1.333-1.333s0.597-1.333 1.333-1.333h4c0.736 0 1.333-0.597 1.333-1.333v-4z"></path>
<path fill="#f0f1f5" d="M26.667 10.667c0 0.736 0.597 1.333 1.333 1.333s1.333-0.597 1.333-1.333v-4c0-2.209-1.791-4-4-4h-4c-0.736 0-1.333 0.597-1.333 1.333s0.597 1.333 1.333 1.333h4c0.736 0 1.333 0.597 1.333 1.333v4z"></path>
</svg>
