<!-- Generated by IcoMoon.io -->
<svg version="1.1" xmlns="http://www.w3.org/2000/svg" width="32" height="32" viewBox="0 0 32 32">
<title>gift</title>
<path fill="#f0f1f5" d="M25.333 8h-2.933c0.133-0.4 0.267-0.8 0.267-1.333 0-2.267-1.733-4-4-4-1.067 0-2 0.4-2.667 1.067-0.667-0.667-1.6-1.067-2.667-1.067-2.267 0-4 1.733-4 4 0 0.533 0.133 0.933 0.267 1.333h-2.933c-2.267 0-4 1.733-4 4v1.333c0 1.2 0.533 2.267 1.333 2.933v6.4c0 2.933 2.4 5.333 5.333 5.333h13.333c2.933 0 5.333-2.4 5.333-5.333v-6.4c0.8-0.667 1.333-1.733 1.333-2.933v-1.333c0-2.267-1.733-4-4-4zM14.667 25.333h-5.333c-1.467 0-2.667-1.2-2.667-2.667v-4.667c0-0.4 0.267-0.667 0.667-0.667h7.333v8zM14.667 14.667h-8c-0.8 0-1.333-0.533-1.333-1.333v-1.333c0-0.8 0.533-1.333 1.333-1.333h8v4zM14.667 8h-1.333c-0.8 0-1.333-0.533-1.333-1.333s0.533-1.333 1.333-1.333 1.333 0.533 1.333 1.333v1.333zM17.333 6.667c0-0.8 0.533-1.333 1.333-1.333s1.333 0.533 1.333 1.333-0.533 1.333-1.333 1.333h-1.333v-1.333zM25.333 22.667c0 1.467-1.2 2.667-2.667 2.667h-5.333v-8h7.333c0.4 0 0.667 0.267 0.667 0.667v4.667zM26.667 13.333c0 0.8-0.533 1.333-1.333 1.333h-8v-4h8c0.8 0 1.333 0.533 1.333 1.333v1.333z"></path>
</svg>
