<!-- Generated by IcoMoon.io -->
<svg version="1.1" xmlns="http://www.w3.org/2000/svg" width="32" height="32" viewBox="0 0 32 32">
<title>glass</title>
<path fill="#f0f1f5" d="M22.267 0h-12.533c-2.4 0-4.133 2-4 4.267l2 24c0.133 2.133 1.867 3.733 4 3.733h8.667c2.133 0 3.867-1.6 4-3.733l2-24c0.133-2.267-1.733-4.267-4.133-4.267zM21.6 28.133c0 0.667-0.667 1.2-1.333 1.2h-8.533c-0.667 0-1.333-0.533-1.333-1.2l-2-24c0-0.8 0.533-1.467 1.333-1.467h12.667c0.8 0 1.333 0.667 1.333 1.467l-2.133 24z"></path>
<path fill="#f0f1f5" d="M14.667 17.333c0 0.736-0.597 1.333-1.333 1.333s-1.333-0.597-1.333-1.333c0-0.736 0.597-1.333 1.333-1.333s1.333 0.597 1.333 1.333z"></path>
<path fill="#f0f1f5" d="M20 24c0 0.736-0.597 1.333-1.333 1.333s-1.333-0.597-1.333-1.333c0-0.736 0.597-1.333 1.333-1.333s1.333 0.597 1.333 1.333z"></path>
<path fill="#f0f1f5" d="M16.4 9.467c-2-0.667-4-1.333-7.733-1.333l0.267 2.667c3.2 0.133 4.933 0.667 6.667 1.2v0c1.867 0.667 3.867 1.333 7.333 1.333l0.267-2.667c-3.333-0.133-4.933-0.667-6.8-1.2v0z"></path>
</svg>
