<!-- Generated by IcoMoon.io -->
<svg version="1.1" xmlns="http://www.w3.org/2000/svg" width="32" height="32" viewBox="0 0 32 32">
<title>globe</title>
<path fill="#f0f1f5" d="M29.333 14.667v0c-0.667-6.8-6.4-12-13.333-12s-12.533 5.2-13.2 12v0c0 0.4 0 0.933 0 1.333s0 0.933 0 1.333v0c0.667 6.8 6.4 12 13.2 12s12.533-5.2 13.2-12v0c0-0.4 0-0.933 0-1.333s0.133-0.933 0.133-1.333zM5.467 17.333h4c0.133 3.2 0.933 6.133 2 8.267-3.333-1.6-5.6-4.667-6-8.267zM9.333 14.667h-4c0.4-3.6 2.8-6.667 6-8.267-1.067 2.133-1.867 5.067-2 8.267zM18.267 24.267c-1.067 2.133-2 2.4-2.267 2.4s-1.2-0.267-2.267-2.4c-0.933-1.733-1.6-4.133-1.733-6.933h8c-0.133 2.8-0.8 5.2-1.733 6.933zM12 14.667c0.133-2.8 0.8-5.2 1.6-6.933 1.2-2.133 2.133-2.4 2.4-2.4s1.2 0.267 2.267 2.4c0.8 1.733 1.467 4.133 1.6 6.933h-7.867zM20.667 25.6c1.067-2.133 1.867-5.067 2-8.267h4c-0.533 3.6-2.8 6.667-6 8.267zM22.667 14.667c-0.133-3.2-0.933-6.133-2-8.267 3.2 1.6 5.467 4.667 6 8.267h-4z"></path>
</svg>
