<!-- Generated by IcoMoon.io -->
<svg version="1.1" xmlns="http://www.w3.org/2000/svg" width="32" height="32" viewBox="0 0 32 32">
<title>gold</title>
<path fill="#f0f1f5" d="M30.267 23.467l-0.667-5.333c-0.267-2-2-3.467-4-3.467h-2.267c0.267-0.533 0.267-1.2 0.267-1.867l-0.667-5.333c-0.267-2-2-3.467-4-3.467h-5.867c-2 0-3.733 1.467-4 3.467l-0.667 5.333c-0.133 0.667 0 1.2 0.267 1.867h-2.267c-2 0-3.733 1.467-4 3.467l-0.667 5.333c-0.267 2.4 1.6 4.533 4 4.533h7.333c1.2 0 2.267-0.533 3.067-1.333 0.667 0.8 1.867 1.333 3.067 1.333h7.333c2.133 0 4-2.133 3.733-4.533zM12.933 25.333h-7.2c-0.8 0-1.467-0.667-1.333-1.467l0.667-5.333c0.133-0.667 0.667-1.2 1.333-1.2h6c0.667 0 1.2 0.533 1.333 1.2l0.667 5.333c0 0.8-0.667 1.467-1.467 1.467zM12.4 14.667c-0.8 0-1.467-0.667-1.333-1.467l0.667-5.333c0-0.667 0.667-1.2 1.333-1.2h6c0.667 0 1.2 0.533 1.333 1.2l0.667 5.333c0.133 0.8-0.533 1.467-1.333 1.467h-7.333zM26.267 25.333h-7.333c-0.8 0-1.467-0.667-1.333-1.467l0.667-5.333c0.133-0.667 0.667-1.2 1.333-1.2h6c0.667 0 1.2 0.533 1.333 1.2l0.667 5.333c0.133 0.8-0.533 1.467-1.333 1.467z"></path>
</svg>
