<!-- Generated by IcoMoon.io -->
<svg version="1.1" xmlns="http://www.w3.org/2000/svg" width="32" height="32" viewBox="0 0 32 32">
<title>google-logo</title>
<path fill="#3e82f1" d="M31.68 16.356c-0.003-1.096-0.098-2.191-0.284-3.271h-15.076v6.204h8.604c-0.176 0.977-0.549 1.908-1.096 2.736s-1.257 1.537-2.086 2.082v4.018h5.244c1.574-1.518 2.812-3.351 3.633-5.378s1.206-4.205 1.132-6.391h-0.071z"></path>
<path fill="#32a753" d="M16.32 32c3.921 0.121 7.738-1.266 10.667-3.876l-5.173-4.018c-1.59 1.020-3.444 1.552-5.333 1.529-1.983-0.040-3.905-0.696-5.498-1.878s-2.778-2.831-3.391-4.718h-5.333v4.142c1.316 2.652 3.342 4.888 5.853 6.457s5.408 2.411 8.369 2.432l-0.16-0.071z"></path>
<path fill="#f9bb00" d="M7.432 19.040c-0.664-1.972-0.664-4.108 0-6.080v-4.142h-5.333c-1.12 2.229-1.703 4.688-1.703 7.182s0.583 4.953 1.703 7.182l5.333-4.142z"></path>
<path fill="#e74235" d="M16.32 6.364c2.276-0.042 4.476 0.821 6.116 2.4l4.587-4.604c-2.888-2.708-6.708-4.198-10.667-4.16-2.961 0.021-5.858 0.862-8.369 2.432s-4.537 3.805-5.853 6.457l5.333 4.142c0.613-1.887 1.798-3.535 3.391-4.717s3.515-1.838 5.498-1.878l-0.036-0.071z"></path>
</svg>
