<!-- Generated by IcoMoon.io -->
<svg version="1.1" xmlns="http://www.w3.org/2000/svg" width="32" height="32" viewBox="0 0 32 32">
<title>google</title>
<path fill="#f0f1f5" d="M28.797 13.575h-12.727v5.455h7.213c-1.153 3.637-4.002 4.848-7.272 4.848-1.267 0.002-2.516-0.302-3.641-0.886s-2.092-1.431-2.819-2.468c-0.728-1.037-1.194-2.235-1.36-3.491s-0.027-2.534 0.406-3.725c0.433-1.191 1.147-2.26 2.081-3.116s2.061-1.474 3.285-1.802c1.224-0.328 2.509-0.355 3.746-0.081s2.389 0.844 3.36 1.659l3.963-3.775c-1.596-1.47-3.527-2.529-5.625-3.084s-4.3-0.589-6.414-0.1-4.077 1.487-5.718 2.907c-1.641 1.42-2.911 3.219-3.699 5.24s-1.071 4.206-0.824 6.361c0.247 2.156 1.017 4.219 2.242 6.010s2.869 3.256 4.789 4.268c1.92 1.012 4.058 1.539 6.228 1.537 7.352 0 14-4.848 12.785-15.758z"></path>
</svg>
