<!-- Generated by IcoMoon.io -->
<svg version="1.1" xmlns="http://www.w3.org/2000/svg" width="32" height="32" viewBox="0 0 32 32">
<title>grid-vetical</title>
<path fill="#f0f1f5" d="M28.933 6c-0.133-1.6-1.333-2.8-2.933-3.067-0.933-0.133-1.867-0.267-2.667-0.267s-1.733 0.133-2.667 0.267c-1.6 0.267-2.8 1.467-2.933 3.067-0.267 2-0.4 5.2-0.4 10s0.133 8 0.4 10c0.133 1.6 1.333 2.8 2.933 3.067 0.933 0.133 1.867 0.267 2.667 0.267s1.733-0.133 2.667-0.267c1.6-0.267 2.8-1.467 2.933-3.067 0.267-2 0.4-5.2 0.4-10s-0.133-8-0.4-10zM26.267 25.733c0 0.4-0.267 0.667-0.667 0.667-0.8 0.133-1.6 0.267-2.267 0.267s-1.467-0.133-2.4-0.267c-0.4 0-0.667-0.267-0.667-0.667-0.133-1.867-0.267-4.933-0.267-9.733s0.133-7.867 0.4-9.733c0-0.4 0.267-0.667 0.667-0.667 0.8-0.133 1.6-0.267 2.267-0.267s1.467 0.133 2.4 0.267c0.4 0 0.667 0.267 0.667 0.667 0.133 1.867 0.267 4.933 0.267 9.733s-0.133 7.867-0.4 9.733z"></path>
<path fill="#f0f1f5" d="M11.333 2.933c-0.933-0.133-1.867-0.267-2.667-0.267s-1.733 0.133-2.667 0.267c-1.6 0.133-2.8 1.467-2.933 3.067-0.267 2-0.4 5.2-0.4 10s0.133 8 0.4 10c0.133 1.6 1.333 2.8 2.933 3.067 0.933 0.133 1.867 0.267 2.667 0.267s1.733-0.133 2.667-0.267c1.6-0.267 2.8-1.467 2.933-3.067 0.267-2 0.4-5.2 0.4-10s-0.133-8-0.4-10c-0.133-1.6-1.333-2.933-2.933-3.067zM11.6 25.733c0 0.4-0.267 0.667-0.667 0.667-0.8 0.133-1.6 0.267-2.267 0.267s-1.467-0.133-2.4-0.267c-0.4 0-0.667-0.267-0.667-0.667-0.133-1.867-0.267-4.933-0.267-9.733s0.133-7.867 0.4-9.733c0-0.4 0.267-0.667 0.667-0.667 0.8-0.133 1.6-0.267 2.267-0.267s1.467 0.133 2.4 0.267c0.4 0 0.667 0.267 0.667 0.667 0.133 1.867 0.267 4.933 0.267 9.733s-0.133 7.867-0.4 9.733z"></path>
</svg>
