<!-- Generated by IcoMoon.io -->
<svg version="1.1" xmlns="http://www.w3.org/2000/svg" width="32" height="32" viewBox="0 0 32 32">
<title>grid-horizontal</title>
<path fill="#f0f1f5" d="M26 17.733c-2-0.267-5.2-0.4-10-0.4s-8 0.133-10 0.4c-1.6 0.133-2.8 1.333-3.067 2.933-0.133 0.933-0.267 1.867-0.267 2.667s0.133 1.733 0.267 2.667c0.267 1.6 1.467 2.8 3.067 2.933 2 0.267 5.2 0.4 10 0.4s8-0.133 10-0.4c1.6-0.133 2.8-1.333 3.067-2.933 0.133-0.933 0.267-1.867 0.267-2.667s-0.133-1.733-0.267-2.667c-0.133-1.6-1.467-2.8-3.067-2.933zM26.4 25.733c0 0.4-0.267 0.667-0.667 0.667-1.867 0.133-4.933 0.267-9.733 0.267s-7.867-0.133-9.733-0.4c-0.4 0-0.667-0.267-0.667-0.667-0.133-0.8-0.267-1.6-0.267-2.267s0.133-1.467 0.267-2.4c0-0.4 0.267-0.667 0.667-0.667 1.867-0.133 4.933-0.267 9.733-0.267s7.867 0.133 9.733 0.4c0.4 0 0.667 0.267 0.667 0.667 0.133 0.933 0.267 1.733 0.267 2.4s-0.133 1.333-0.267 2.267z"></path>
<path fill="#f0f1f5" d="M6 14.267c2 0.267 5.2 0.4 10 0.4s8-0.133 10-0.4c1.6-0.133 2.8-1.333 3.067-2.933 0.133-0.933 0.267-1.867 0.267-2.667s-0.133-1.733-0.267-2.667c-0.267-1.6-1.467-2.8-3.067-2.933-2-0.267-5.2-0.4-10-0.4s-8 0.133-10 0.4c-1.6 0.133-2.8 1.333-3.067 2.933-0.133 0.933-0.267 1.867-0.267 2.667s0.133 1.733 0.267 2.667c0.133 1.6 1.467 2.8 3.067 2.933zM5.6 6.267c0-0.4 0.267-0.667 0.667-0.667 1.867-0.133 4.933-0.267 9.733-0.267s7.867 0.133 9.733 0.4c0.4 0 0.667 0.267 0.667 0.667 0.133 0.8 0.267 1.6 0.267 2.267s-0.133 1.467-0.267 2.4c0 0.4-0.267 0.667-0.667 0.667-1.867 0.133-4.933 0.267-9.733 0.267s-7.867-0.133-9.733-0.4c-0.4 0-0.667-0.267-0.667-0.667-0.133-0.8-0.267-1.6-0.267-2.267s0.133-1.467 0.267-2.4z"></path>
</svg>
