<!-- Generated by IcoMoon.io -->
<svg version="1.1" xmlns="http://www.w3.org/2000/svg" width="32" height="32" viewBox="0 0 32 32">
<title>grid</title>
<path fill="#f0f1f5" d="M26 17.6c-0.933-0.133-1.867-0.267-2.667-0.267s-1.733 0.133-2.667 0.267c-1.6 0.267-2.8 1.467-3.067 3.067-0.133 0.933-0.267 1.867-0.267 2.667s0.133 1.733 0.267 2.667c0.267 1.6 1.467 2.8 3.067 3.067 0.933 0.133 1.867 0.267 2.667 0.267s1.733-0.133 2.667-0.267c1.6-0.267 2.8-1.467 3.067-3.067 0.133-0.933 0.267-1.867 0.267-2.667s-0.133-1.733-0.267-2.667c-0.133-1.6-1.467-2.933-3.067-3.067zM26.4 25.733c0 0.4-0.4 0.667-0.8 0.8-0.8 0-1.6 0.133-2.267 0.133s-1.467-0.133-2.4-0.267c-0.4 0-0.667-0.4-0.8-0.8 0-0.8-0.133-1.6-0.133-2.267s0.133-1.467 0.267-2.4c0-0.4 0.4-0.667 0.8-0.8 0.933-0.133 1.733-0.267 2.4-0.267s1.467 0.133 2.4 0.267c0.4 0 0.667 0.4 0.8 0.8 0.133 0.933 0.267 1.733 0.267 2.4s-0.4 1.467-0.533 2.4z"></path>
<path fill="#f0f1f5" d="M11.333 17.6c-0.933-0.133-1.867-0.267-2.667-0.267s-1.733 0.133-2.667 0.267c-1.6 0.267-2.8 1.467-3.067 3.067-0.133 0.933-0.267 1.867-0.267 2.667s0.133 1.733 0.267 2.667c0.267 1.6 1.467 2.8 3.067 3.067 0.933 0.133 1.867 0.267 2.667 0.267s1.733-0.133 2.667-0.267c1.6-0.267 2.8-1.467 3.067-3.067 0.133-0.933 0.267-1.867 0.267-2.667s-0.133-1.733-0.267-2.667c-0.133-1.6-1.467-2.933-3.067-3.067zM11.733 25.733c0 0.4-0.4 0.667-0.8 0.8-0.8 0-1.6 0.133-2.267 0.133s-1.467-0.133-2.4-0.267c-0.4 0-0.667-0.4-0.8-0.8 0-0.8-0.133-1.6-0.133-2.267s0.133-1.467 0.267-2.4c0-0.4 0.4-0.667 0.8-0.8 0.8 0 1.6-0.133 2.267-0.133s1.467 0.133 2.4 0.267c0.4 0 0.667 0.4 0.8 0.8 0 0.8 0.133 1.6 0.133 2.267s-0.133 1.467-0.267 2.4z"></path>
<path fill="#f0f1f5" d="M20.667 14.4c0.933 0.133 1.867 0.267 2.667 0.267s1.733-0.133 2.667-0.267c1.6-0.267 2.8-1.467 3.067-3.067 0.133-0.933 0.267-1.867 0.267-2.667s-0.133-1.733-0.267-2.667c-0.267-1.6-1.467-2.8-3.067-3.067-0.933-0.133-1.867-0.267-2.667-0.267s-1.733 0.133-2.667 0.267c-1.6 0.267-2.8 1.467-3.067 3.067-0.133 0.933-0.267 1.867-0.267 2.667s0.133 1.733 0.267 2.667c0.133 1.6 1.467 2.933 3.067 3.067zM20.267 6.267c0-0.4 0.4-0.667 0.8-0.8 0.8 0 1.6-0.133 2.267-0.133s1.467 0.133 2.4 0.267c0.4 0 0.667 0.4 0.8 0.8 0 0.8 0.133 1.6 0.133 2.267s-0.133 1.467-0.267 2.4c0 0.4-0.4 0.667-0.8 0.8-0.8 0-1.6 0.133-2.267 0.133s-1.467-0.133-2.4-0.267c-0.4 0-0.667-0.4-0.8-0.8 0-0.8-0.133-1.6-0.133-2.267s0.133-1.467 0.267-2.4z"></path>
<path fill="#f0f1f5" d="M11.333 2.933c-0.933-0.133-1.867-0.267-2.667-0.267s-1.733 0.133-2.667 0.267c-1.6 0.133-2.933 1.467-3.067 3.067-0.133 0.933-0.267 1.867-0.267 2.667s0.133 1.733 0.267 2.667c0.267 1.6 1.467 2.8 3.067 3.067 0.933 0.133 1.867 0.267 2.667 0.267s1.733-0.133 2.667-0.267c1.6-0.267 2.8-1.467 3.067-3.067 0.133-0.933 0.267-1.867 0.267-2.667s-0.133-1.733-0.267-2.667c-0.133-1.6-1.467-2.933-3.067-3.067zM11.733 11.067c0 0.4-0.4 0.667-0.8 0.8-0.8 0-1.6 0.133-2.267 0.133s-1.467-0.133-2.4-0.267c-0.4 0-0.667-0.4-0.8-0.8 0-0.8-0.133-1.6-0.133-2.267s0.133-1.467 0.267-2.4c0-0.4 0.4-0.667 0.8-0.8 0.8 0 1.6-0.133 2.267-0.133s1.467 0.133 2.4 0.267c0.4 0 0.667 0.4 0.8 0.8 0 0.8 0.133 1.6 0.133 2.267s-0.133 1.467-0.267 2.4z"></path>
</svg>
