<!-- Generated by IcoMoon.io -->
<svg version="1.1" xmlns="http://www.w3.org/2000/svg" width="32" height="32" viewBox="0 0 32 32">
<title>hand-sanitizer</title>
<path fill="#f0f1f5" d="M21.333 11.067v-1.733c0-2.267-1.733-4-4-4v-2.667h2.667c0.8 0 1.333-0.533 1.333-1.333s-0.533-1.333-1.333-1.333h-6.933c-1.067 0-2 0.4-2.8 1.2l-0.533 0.533c-0.533 0.533-0.533 1.333 0 1.867s1.333 0.533 1.867 0l0.533-0.533c0.267-0.267 0.667-0.4 0.933-0.4h1.6v2.667c-2.267 0-4 1.733-4 4v1.733c-3.067 1.067-5.333 4-5.333 7.6v9.333c0 2.267 1.733 4 4 4h13.333c2.267 0 4-1.733 4-4v-9.333c0-3.467-2.267-6.4-5.333-7.6zM13.333 9.333c0-0.8 0.533-1.333 1.333-1.333h2.667c0.8 0 1.333 0.533 1.333 1.333v1.333h-5.333v-1.333zM24 28c0 0.8-0.533 1.333-1.333 1.333h-13.333c-0.8 0-1.333-0.533-1.333-1.333v-9.333c0-2.933 2.4-5.333 5.333-5.333h5.333c2.933 0 5.333 2.4 5.333 5.333v9.333z"></path>
</svg>
