<!-- Generated by IcoMoon.io -->
<svg version="1.1" xmlns="http://www.w3.org/2000/svg" width="32" height="32" viewBox="0 0 32 32">
<title>hand-cart</title>
<path fill="#f0f1f5" d="M7.867 17.2c1.6 1.6 4.133 1.6 5.6 0l5.067-5.067c1.6-1.6 1.6-4.133 0-5.6l-2.4-2.4c-1.6-1.6-4.133-1.6-5.6 0l-5.067 5.067c-1.6 1.6-1.6 4.133 0 5.6l2.4 2.4zM7.333 11.067l5.067-5.067c0.533-0.533 1.333-0.533 1.867 0l2.4 2.4c0.533 0.533 0.533 1.333 0 1.867l-5.067 5.067c-0.533 0.533-1.333 0.533-1.867 0l-2.4-2.4c-0.533-0.533-0.533-1.333 0-1.867z"></path>
<path fill="#f0f1f5" d="M28.933 7.6c0.533-0.533 0.4-1.333-0.133-1.867s-1.333-0.4-1.867 0.133l-14.533 15.867h-0.133c-0.4-0.267-1.067-0.4-1.6-0.4-0.667 0-1.2 0.133-1.733 0.4l-4-4c-0.533-0.533-1.333-0.533-1.867 0s-0.533 1.333 0 1.867l4 4c-0.267 0.533-0.4 1.067-0.4 1.733 0 2.267 1.733 4 4 4s4-1.733 4-4c0-0.667-0.133-1.2-0.4-1.733v0l8.667-9.467c0.267-0.267 0.667-0.267 0.933 0l1.733 1.733c0.533 0.533 1.333 0.533 1.867 0s0.533-1.333 0-1.867l-1.6-2c-0.267-0.267-0.267-0.667 0-0.933l3.067-3.467zM10.667 26.667c-0.8 0-1.333-0.533-1.333-1.333s0.533-1.333 1.333-1.333 1.333 0.533 1.333 1.333-0.533 1.333-1.333 1.333z"></path>
</svg>
