<!-- Generated by IcoMoon.io -->
<svg version="1.1" xmlns="http://www.w3.org/2000/svg" width="32" height="32" viewBox="0 0 32 32">
<title>hat-chef</title>
<path fill="#f0f1f5" d="M22.667 5.333c-0.4 0-0.8 0-1.2 0.133-1.2-1.733-3.2-2.8-5.467-2.8s-4.267 1.067-5.467 2.8c-0.4-0.133-0.8-0.133-1.2-0.133-3.733 0-6.667 2.933-6.667 6.667 0 2.8 1.6 5.067 4 6.133v7.2c0 2.267 1.733 4 4 4h10.667c2.267 0 4-1.733 4-4v-7.2c2.4-1.067 4-3.333 4-6.133 0-3.733-2.933-6.667-6.667-6.667zM22.667 25.333c0 0.8-0.533 1.333-1.333 1.333h-10.667c-0.8 0-1.333-0.533-1.333-1.333v-1.333h13.333v1.333zM24.267 15.733l-1.6 0.667v4.933h-13.333v-4.933l-1.6-0.667c-1.467-0.667-2.4-2.133-2.4-3.733 0-2.267 1.733-4 4-4 0.267 0 0.533 0 0.8 0.133l1.733 0.267 0.933-1.333c0.667-1.067 1.867-1.733 3.2-1.733s2.533 0.667 3.2 1.733l0.933 1.333 1.733-0.267c0.267-0.133 0.533-0.133 0.8-0.133 2.267 0 4 1.733 4 4 0 1.6-0.933 3.067-2.4 3.733z"></path>
</svg>
