<!-- Generated by IcoMoon.io -->
<svg version="1.1" xmlns="http://www.w3.org/2000/svg" width="32" height="32" viewBox="0 0 32 32">
<title>heart-rate</title>
<path fill="#f0f1f5" d="M29.333 14.667h-0.267c0.133-0.8 0.267-1.733 0.267-2.667 0-4.4-3.6-8-8-8-2 0-3.867 0.8-5.333 2-1.467-1.2-3.333-2-5.333-2-4.4 0-8 3.6-8 8 0 0.933 0.133 1.867 0.267 2.667h-0.267c-0.8 0-1.333 0.533-1.333 1.333s0.533 1.333 1.333 1.333h1.2c2.667 5.733 8.8 9.067 11.2 10.267 0.667 0.267 1.333 0.267 2 0 2.4-1.2 8.533-4.533 11.2-10.267h1.067c0.8 0 1.333-0.533 1.333-1.333s-0.533-1.333-1.333-1.333zM21.067 21.867c-1.467 1.2-3.067 2.133-4.133 2.667-0.533 0.267-1.2 0.267-1.6 0-1.2-0.667-2.667-1.467-4.133-2.667-1.6-1.333-3.067-2.8-4.133-4.533h0.933c0.533 0 0.933-0.267 1.2-0.8l1.333-2.667c0.133-0.133 0.4-0.133 0.533 0l3.867 6.8c0.267 0.4 0.667 0.667 1.067 0.667s0.933-0.133 1.2-0.533l4.267-5.333c0.133-0.133 0.267-0.133 0.4 0l1.467 1.467c0.267 0.267 0.533 0.4 0.933 0.4h1.067c-1.2 1.733-2.667 3.333-4.267 4.533zM26.267 14.667h-1.467c-0.133 0-0.4-0.133-0.533-0.133l-2.133-2.133c-0.133-0.267-0.533-0.4-0.933-0.4s-0.667 0.267-0.933 0.533l-3.867 4.8c-0.133 0.133-0.4 0.133-0.4 0l-4.133-7.333c-0.267-0.4-0.8-0.667-1.2-0.667-0.533 0-0.933 0.267-1.2 0.8l-2.133 4.267c-0.133 0.133-0.267 0.267-0.533 0.267h-1.067c-0.267-0.8-0.4-1.733-0.4-2.667 0-2.933 2.4-5.333 5.333-5.333 1.333 0 2.667 0.533 3.6 1.333l0.933 0.8c0.533 0.4 1.333 0.4 1.733 0l0.8-0.8c0.933-0.8 2.267-1.333 3.6-1.333 2.933 0 5.333 2.4 5.333 5.333 0 0.933-0.133 1.867-0.4 2.667z"></path>
</svg>
