<!-- Generated by IcoMoon.io -->
<svg version="1.1" xmlns="http://www.w3.org/2000/svg" width="32" height="32" viewBox="0 0 32 32">
<title>heart</title>
<path fill="#f0f1f5" d="M22 4c-2.267 0-4.4 0.933-6 2.4-1.6-1.467-3.733-2.4-6-2.4-4.8 0-8.667 3.867-8.667 8.667 0 8.533 9.333 13.2 13.067 14.8 1.067 0.4 2.133 0.4 3.2 0 3.733-1.6 13.067-6.267 13.067-14.8 0-4.8-3.867-8.667-8.667-8.667zM23.733 20.667c-2.533 2.133-5.467 3.6-7.2 4.267-0.4 0.133-0.8 0.133-1.2 0-1.733-0.667-4.8-2.133-7.2-4.267s-4.133-4.8-4.133-8c0-3.333 2.667-6 6-6 1.6 0 3.067 0.667 4.133 1.733l0.933 0.933c0.533 0.533 1.333 0.533 1.867 0l0.933-0.933c1.067-1.067 2.533-1.733 4.133-1.733 3.333 0 6 2.667 6 6 0 3.2-1.733 5.733-4.267 8z"></path>
</svg>
