<!-- Generated by IcoMoon.io -->
<svg version="1.1" xmlns="http://www.w3.org/2000/svg" width="32" height="32" viewBox="0 0 32 32">
<title>hockey</title>
<path fill="#f0f1f5" d="M27.6 3.467c-2-1.2-4.4-0.4-5.467 1.6l-6.4 12.667c-0.667 1.333-2 2.267-3.6 2.267h-5.467c-2.667 0-4.533 2.533-3.867 5.067l0.4 1.333c0.4 1.733 2 2.933 3.867 2.933h6.667c3.067 0 5.867-1.733 7.2-4.4l2.933-5.867 5.2-10.533c0.933-1.867 0.267-4-1.467-5.067zM18.533 23.733c-0.933 1.867-2.8 2.933-4.8 2.933h-6.667c-0.533 0-1.067-0.4-1.333-0.933l-0.4-1.333c-0.267-0.933 0.4-1.733 1.333-1.733h5.6c2.4 0 4.667-1.333 5.867-3.467l2.133 1.067-1.733 3.467zM26.667 7.333l-5.2 10.533-2.133-1.067 5.2-10.533c0.267-0.667 1.067-0.8 1.733-0.533 0.533 0.4 0.667 1.067 0.4 1.6z"></path>
<path fill="#f0f1f5" d="M4 16h2.667c0.8 0 1.333-0.533 1.333-1.333s-0.533-1.333-1.333-1.333h-2.667c-0.8 0-1.333 0.533-1.333 1.333s0.533 1.333 1.333 1.333z"></path>
</svg>
