<!-- Generated by IcoMoon.io -->
<svg version="1.1" xmlns="http://www.w3.org/2000/svg" width="32" height="32" viewBox="0 0 32 32">
<title>home</title>
<path fill="#f0f1f5" d="M30 10.8l-6.667-4-5.067-3.067c-0.4-0.267-0.667-0.4-0.933-0.533 0 0-0.133 0-0.133-0.133-0.267-0.133-0.4-0.133-0.533-0.267-0.4-0.133-0.8-0.133-1.2 0-0.133 0-0.4 0.133-0.533 0.267 0 0-0.133 0-0.133 0.133-0.267 0.133-0.533 0.267-0.933 0.533l-5.2 3.067-6.667 4c-0.667 0.4-0.8 1.2-0.533 1.867 0.4 0.667 1.2 0.8 1.867 0.533l2-1.2v13.067c0 1.467 0 2.267 0.267 2.8s0.667 0.933 1.2 1.2c0.533 0.267 1.333 0.267 2.8 0.267h12.8c1.467 0 2.267 0 2.8-0.267s0.933-0.667 1.2-1.2c0.267-0.533 0.267-1.333 0.267-2.8v-13.067l2 1.2c0.667 0.4 1.467 0.133 1.867-0.4 0.267-0.8 0.133-1.6-0.533-2zM17.333 26.667h-2.667v-5.333c0-0.8 0.533-1.333 1.333-1.333s1.333 0.533 1.333 1.333v5.333zM24 25.067c0 0.8 0 1.2 0 1.6v0 0c-0.267 0-0.8 0-1.6 0h-2.4v-5.333c0-2.267-1.733-4-4-4s-4 1.733-4 4v5.333h-2.4c-0.8 0-1.2 0-1.6 0v0 0c0-0.267 0-0.8 0-1.6v-14.667l8-4.8 8 4.8v14.667z"></path>
</svg>
