<!-- Generated by IcoMoon.io -->
<svg version="1.1" xmlns="http://www.w3.org/2000/svg" width="32" height="32" viewBox="0 0 32 32">
<title>hourglass</title>
<path fill="#f0f1f5" d="M25.333 29.333h-1.333v-4.667c0-1.2-0.133-2.667-0.4-3.867-0.133-1.2-0.667-2.133-1.333-3.067-0.667-0.8-1.467-1.333-2.4-1.733 0.933-0.4 1.733-1.067 2.4-1.733 0.667-0.8 1.2-1.867 1.333-3.067 0.267-1.333 0.4-2.667 0.4-3.867v-4.667h1.333c0.8 0 1.333-0.533 1.333-1.333s-0.533-1.333-1.333-1.333h-18.667c-0.8 0-1.333 0.533-1.333 1.333s0.533 1.333 1.333 1.333h1.333v4.667c0 1.2 0.133 2.667 0.4 3.867 0.133 1.2 0.667 2.133 1.333 3.067 0.667 0.8 1.467 1.333 2.4 1.733-0.933 0.4-1.733 1.067-2.4 1.733-0.667 0.8-1.2 1.867-1.333 3.067-0.267 1.333-0.4 2.667-0.4 3.867v4.667h-1.333c-0.8 0-1.333 0.533-1.333 1.333s0.533 1.333 1.333 1.333h18.667c0.8 0 1.333-0.533 1.333-1.333s-0.533-1.333-1.333-1.333zM11.067 10.8c-0.267-1.2-0.4-2.533-0.4-3.467v-4.667h10.667v4.667c0 0.933-0.133 2.267-0.4 3.467-0.267 1.333-1.067 2.267-2.133 2.8l-2.8 1.2-2.8-1.2c-1.067-0.533-2-1.6-2.133-2.8zM21.333 29.333v0c0-0.8-0.4-1.6-1.2-1.867l-2.933-1.467c-0.8-0.4-1.6-0.4-2.4 0l-2.933 1.467c-0.8 0.267-1.2 1.067-1.2 1.867v0-4.667c0-0.933 0.133-2.267 0.4-3.467 0.267-1.333 1.067-2.267 2.133-2.8l2.8-1.2 2.8 1.2c1.067 0.4 1.867 1.467 2.133 2.8 0.267 1.2 0.4 2.4 0.4 3.467v4.667z"></path>
</svg>
