<!-- Generated by IcoMoon.io -->
<svg version="1.1" xmlns="http://www.w3.org/2000/svg" width="32" height="32" viewBox="0 0 32 32">
<title>html5</title>
<path fill="#f0f1f5" d="M16.267 30.933h-0.8l-9.6-2.8c-0.933-0.533-1.2-1.2-1.2-1.733l-1.867-22.8c0-0.4 0-0.933 0.533-1.467l0.4-0.4h0.267c0.133 0 0.4-0.133 0.667-0.133h22.667c0.267 0 0.8 0 1.333 0.533 0.667 0.667 0.667 1.2 0.533 1.733l-2 22.667c0 0.4-0.133 1.2-1.067 1.6l-0.267 0.133-9.6 2.667zM7.467 25.867l8.533 2.4 8.533-2.4 1.867-21.467h-20.8l1.867 21.467zM24.533 26.267c0 0 0 0.133 0 0v0zM7.467 26.267v0c0 0 0 0 0 0zM26.8 4c0 0 0 0 0 0v0c0 0 0 0 0 0z"></path>
<path fill="#f0f1f5" d="M22.933 10.933h-10.933l0.267 2.933h10.4l-0.8 8.667-5.867 1.867-5.733-1.733-0.267-3.6h2.8l0.133 1.333 3.2 0.667 3.2-0.667 0.4-3.733h-10.133l-0.667-8.533h14.267z"></path>
</svg>
