<!-- Generated by IcoMoon.io -->
<svg version="1.1" xmlns="http://www.w3.org/2000/svg" width="32" height="32" viewBox="0 0 32 32">
<title>icon-cream</title>
<path fill="#f0f1f5" d="M24 7.067c-0.4-4-3.867-7.067-8-7.067s-7.467 3.067-8 7.067c-1.6 0.8-2.667 2.4-2.667 4.267 0 1.6 0.8 2.933 2 3.867l5.067 14.4c0.533 1.333 2 2.4 3.6 2.4s3.067-1.067 3.6-2.533l5.067-14.4c1.2-0.8 2-2.267 2-3.867 0-1.733-1.067-3.333-2.667-4.133zM17.067 28.533c-0.133 0.533-0.533 0.8-1.067 0.8s-0.933-0.267-1.067-0.8l-4.533-12.533h11.067l-4.4 12.533zM22 13.333h-12c-1.067 0-2-0.933-2-2 0-0.8 0.533-1.467 1.2-1.867l1.333-0.667 0.133-1.467c0.4-2.533 2.533-4.667 5.333-4.667s4.933 2.133 5.333 4.667l0.133 1.467 1.333 0.667c0.667 0.4 1.2 1.067 1.2 1.867 0 1.067-0.933 2-2 2z"></path>
</svg>
