<!-- Generated by IcoMoon.io -->
<svg version="1.1" xmlns="http://www.w3.org/2000/svg" width="32" height="32" viewBox="0 0 32 32">
<title>image</title>
<path fill="#f0f1f5" d="M28.8 8.667c-0.4-2.933-2.667-5.2-5.6-5.6-2-0.133-4.4-0.4-7.2-0.4s-5.2 0.267-7.333 0.533c-2.933 0.4-5.2 2.667-5.6 5.6-0.133 2-0.4 4.4-0.4 7.2s0.267 5.2 0.533 7.333c0.4 2.933 2.667 5.2 5.6 5.6 2 0.133 4.4 0.4 7.2 0.4s5.2-0.267 7.333-0.533c2.933-0.4 5.2-2.667 5.6-5.6 0.267-2 0.533-4.533 0.533-7.333s-0.4-5.067-0.667-7.2zM26.133 22.933c-0.267 1.733-1.6 3.067-3.333 3.333-1.733 0.133-4.133 0.4-6.8 0.4s-5.067-0.267-6.933-0.533c-1.067-0.133-2-0.667-2.533-1.467l3.2-3.2c0.533-0.533 1.333-0.533 1.867 0l0.267 0.267c1.6 1.6 4.133 1.6 5.6 0l2.933-2.933c0.533-0.533 1.333-0.533 1.867 0l3.867 4.133c0.133-0.133 0.133 0 0 0zM26.533 19.333l-2.4-2.4c-1.6-1.6-4.133-1.6-5.6 0l-2.933 2.933c-0.533 0.533-1.333 0.533-1.867 0l-0.267-0.267c-1.6-1.6-4.133-1.6-5.6 0l-2.133 2.133c-0.267-1.6-0.4-3.6-0.4-5.733 0-2.667 0.267-5.067 0.533-6.933 0.267-1.733 1.6-3.067 3.333-3.333 1.733-0.133 4.133-0.4 6.8-0.4s5.067 0.267 6.933 0.533c1.733 0.267 3.067 1.6 3.333 3.333 0.133 1.733 0.4 4.133 0.4 6.8 0 1.2 0 2.267-0.133 3.333z"></path>
<path fill="#f0f1f5" d="M14.667 12c0 1.473-1.194 2.667-2.667 2.667s-2.667-1.194-2.667-2.667c0-1.473 1.194-2.667 2.667-2.667s2.667 1.194 2.667 2.667z"></path>
</svg>
