<!-- Generated by IcoMoon.io -->
<svg version="1.1" xmlns="http://www.w3.org/2000/svg" width="32" height="32" viewBox="0 0 32 32">
<title>insert</title>
<path fill="#f0f1f5" d="M28 2.667h-24c-0.8 0-1.333 0.533-1.333 1.333s0.533 1.333 1.333 1.333h1.333v18.667c0 2.933 2.4 5.333 5.333 5.333h10.667c2.933 0 5.333-2.4 5.333-5.333v-18.667h1.333c0.8 0 1.333-0.533 1.333-1.333s-0.533-1.333-1.333-1.333zM24 24c0 1.467-1.2 2.667-2.667 2.667h-10.667c-1.467 0-2.667-1.2-2.667-2.667v-18.667h16v18.667z"></path>
<path fill="#f0f1f5" d="M12.933 15.6l1.733-1.733v7.467c0 0.8 0.533 1.333 1.333 1.333s1.333-0.533 1.333-1.333v-7.467l1.733 1.733c0.533 0.533 1.333 0.533 1.867 0s0.533-1.333 0-1.867l-4-4c-0.533-0.533-1.333-0.533-1.867 0l-4 4c-0.533 0.533-0.533 1.333 0 1.867s1.333 0.533 1.867 0z"></path>
</svg>
