<!-- Generated by IcoMoon.io -->
<svg version="1.1" xmlns="http://www.w3.org/2000/svg" width="32" height="32" viewBox="0 0 32 32">
<title>instagram</title>
<path fill="#f0f1f5" d="M21.333 2.667h-10.667c-4.4 0-8 3.6-8 8v10.667c0 4.4 3.6 8 8 8h10.667c4.4 0 8-3.6 8-8v-10.667c0-4.4-3.6-8-8-8zM26.667 21.333c0 2.933-2.4 5.333-5.333 5.333h-10.667c-2.933 0-5.333-2.4-5.333-5.333v-10.667c0-2.933 2.4-5.333 5.333-5.333h10.667c2.933 0 5.333 2.4 5.333 5.333v10.667z"></path>
<path fill="#f0f1f5" d="M24 9.333c0 0.736-0.597 1.333-1.333 1.333s-1.333-0.597-1.333-1.333c0-0.736 0.597-1.333 1.333-1.333s1.333 0.597 1.333 1.333z"></path>
<path fill="#f0f1f5" d="M16 9.333c-3.733 0-6.667 2.933-6.667 6.667s2.933 6.667 6.667 6.667 6.667-2.933 6.667-6.667-2.933-6.667-6.667-6.667zM16 20c-2.267 0-4-1.733-4-4s1.733-4 4-4 4 1.733 4 4-1.733 4-4 4z"></path>
</svg>
