<!-- Generated by IcoMoon.io -->
<svg version="1.1" xmlns="http://www.w3.org/2000/svg" width="32" height="32" viewBox="0 0 32 32">
<title>intravenous-therapy</title>
<path fill="#f0f1f5" d="M26.667 28h-6.667c-0.8 0-1.333-0.533-1.333-1.333v-1.333h1.333c2.933 0 5.333-2.4 5.333-5.333v-10.667c0-2.933-2.4-5.333-5.333-5.333h-1.6c-0.533-1.6-2-2.667-3.733-2.667s-3.2 1.067-3.733 2.667h-1.6c-2.933 0-5.333 2.4-5.333 5.333v10.667c0 2.933 2.4 5.333 5.333 5.333h1.333v1.333c0 0.8 0.533 1.333 1.333 1.333s1.333-0.533 1.333-1.333v-1.333h2.667v1.333c0 2.267 1.733 4 4 4h6.667c0.8 0 1.333-0.533 1.333-1.333s-0.533-1.333-1.333-1.333zM9.333 22.667c-1.467 0-2.667-1.2-2.667-2.667v-10.667c0-1.467 1.2-2.667 2.667-2.667h3.467l0.667-1.733c0.133-0.533 0.667-0.933 1.2-0.933s1.067 0.4 1.2 0.933l0.667 1.733h3.467c1.467 0 2.667 1.2 2.667 2.667v1.333h-2.667c-0.8 0-1.333 0.533-1.333 1.333s0.533 1.333 1.333 1.333h2.667v2.667h-2.667c-0.8 0-1.333 0.533-1.333 1.333s0.533 1.333 1.333 1.333h2.667v1.333c0 1.467-1.2 2.667-2.667 2.667h-10.667z"></path>
</svg>
