<!-- Generated by IcoMoon.io -->
<svg version="1.1" xmlns="http://www.w3.org/2000/svg" width="32" height="32" viewBox="0 0 32 32">
<title>keyboard</title>
<path fill="#f0f1f5" d="M26.667 5.333h-21.333c-2.933 0-5.333 2.4-5.333 5.333v10.667c0 2.933 2.4 5.333 5.333 5.333h21.333c2.933 0 5.333-2.4 5.333-5.333v-10.667c0-2.933-2.4-5.333-5.333-5.333zM29.333 21.333c0 1.467-1.2 2.667-2.667 2.667h-21.333c-1.467 0-2.667-1.2-2.667-2.667v-10.667c0-1.467 1.2-2.667 2.667-2.667h21.333c1.467 0 2.667 1.2 2.667 2.667v10.667z"></path>
<path fill="#f0f1f5" d="M25.333 12h-2.667c-0.8 0-1.333 0.533-1.333 1.333s0.533 1.333 1.333 1.333h2.667c0.8 0 1.333-0.533 1.333-1.333s-0.533-1.333-1.333-1.333z"></path>
<path fill="#f0f1f5" d="M8 18.667c0 0.736-0.597 1.333-1.333 1.333s-1.333-0.597-1.333-1.333c0-0.736 0.597-1.333 1.333-1.333s1.333 0.597 1.333 1.333z"></path>
<path fill="#f0f1f5" d="M20 17.333h-8c-0.8 0-1.333 0.533-1.333 1.333s0.533 1.333 1.333 1.333h8c0.8 0 1.333-0.533 1.333-1.333s-0.533-1.333-1.333-1.333z"></path>
<path fill="#f0f1f5" d="M26.667 18.667c0 0.736-0.597 1.333-1.333 1.333s-1.333-0.597-1.333-1.333c0-0.736 0.597-1.333 1.333-1.333s1.333 0.597 1.333 1.333z"></path>
<path fill="#f0f1f5" d="M18.667 13.333c0 0.736-0.597 1.333-1.333 1.333s-1.333-0.597-1.333-1.333c0-0.736 0.597-1.333 1.333-1.333s1.333 0.597 1.333 1.333z"></path>
<path fill="#f0f1f5" d="M13.333 13.333c0 0.736-0.597 1.333-1.333 1.333s-1.333-0.597-1.333-1.333c0-0.736 0.597-1.333 1.333-1.333s1.333 0.597 1.333 1.333z"></path>
<path fill="#f0f1f5" d="M8 13.333c0 0.736-0.597 1.333-1.333 1.333s-1.333-0.597-1.333-1.333c0-0.736 0.597-1.333 1.333-1.333s1.333 0.597 1.333 1.333z"></path>
</svg>
