<!-- Generated by IcoMoon.io -->
<svg version="1.1" xmlns="http://www.w3.org/2000/svg" width="32" height="32" viewBox="0 0 32 32">
<title>laptop</title>
<path fill="#f0f1f5" d="M29.333 20h-1.333v-12c0-2.267-1.733-4-4-4h-16c-2.267 0-4 1.733-4 4v12h-1.333c-0.8 0-1.333 0.533-1.333 1.333v2.667c0 2.267 1.733 4 4 4h21.333c2.267 0 4-1.733 4-4v-2.667c0-0.8-0.533-1.333-1.333-1.333zM6.667 8c0-0.8 0.533-1.333 1.333-1.333h16c0.8 0 1.333 0.533 1.333 1.333v12h-18.667v-12zM28 24c0 0.8-0.533 1.333-1.333 1.333h-21.333c-0.8 0-1.333-0.533-1.333-1.333v-1.333h24v1.333z"></path>
</svg>
