<!-- Generated by IcoMoon.io -->
<svg version="1.1" xmlns="http://www.w3.org/2000/svg" width="32" height="32" viewBox="0 0 32 32">
<title>library-video</title>
<path fill="#f0f1f5" d="M24 6.667h-16c-2.267 0-4 1.733-4 4v16c0 2.267 1.733 4 4 4h16c2.267 0 4-1.733 4-4v-16c0-2.267-1.733-4-4-4zM25.333 26.667c0 0.8-0.533 1.333-1.333 1.333h-16c-0.8 0-1.333-0.533-1.333-1.333v-16c0-0.8 0.533-1.333 1.333-1.333h16c0.8 0 1.333 0.533 1.333 1.333v16z"></path>
<path fill="#f0f1f5" d="M9.333 4h13.333c0.8 0 1.333-0.533 1.333-1.333s-0.533-1.333-1.333-1.333h-13.333c-0.8 0-1.333 0.533-1.333 1.333s0.533 1.333 1.333 1.333z"></path>
<path fill="#f0f1f5" d="M15.467 14.667c-0.933-0.533-2.133 0-2.133 1.067v5.733c0 1.067 1.2 1.733 2.133 1.067l4.267-2.8c0.8-0.533 0.8-1.733 0-2.267l-4.267-2.8z"></path>
</svg>
