<!-- Generated by IcoMoon.io -->
<svg version="1.1" xmlns="http://www.w3.org/2000/svg" width="32" height="32" viewBox="0 0 32 32">
<title>library-album</title>
<path fill="#f0f1f5" d="M24 6.667h-16c-2.267 0-4 1.733-4 4v16c0 2.267 1.733 4 4 4h16c2.267 0 4-1.733 4-4v-16c0-2.267-1.733-4-4-4zM25.333 26.667c0 0.8-0.533 1.333-1.333 1.333h-16c-0.8 0-1.333-0.533-1.333-1.333v-16c0-0.8 0.533-1.333 1.333-1.333h16c0.8 0 1.333 0.533 1.333 1.333v16z"></path>
<path fill="#f0f1f5" d="M9.333 4h13.333c0.8 0 1.333-0.533 1.333-1.333s-0.533-1.333-1.333-1.333h-13.333c-0.8 0-1.333 0.533-1.333 1.333s0.533 1.333 1.333 1.333z"></path>
<path fill="#f0f1f5" d="M16 12c-3.733 0-6.667 2.933-6.667 6.667s2.933 6.667 6.667 6.667 6.667-2.933 6.667-6.667-2.933-6.667-6.667-6.667zM16 22.667c-2.267 0-4-1.733-4-4s1.733-4 4-4 4 1.733 4 4-1.733 4-4 4z"></path>
</svg>
