<!-- Generated by IcoMoon.io -->
<svg version="1.1" xmlns="http://www.w3.org/2000/svg" width="32" height="32" viewBox="0 0 32 32">
<title>light-bulb</title>
<path fill="#f0f1f5" d="M16 0c-5.867 0-10.667 4.8-10.667 10.667 0 3.333 1.6 6.4 4 8.267v2.4c0 1.2 0.533 2.267 1.333 2.933v3.733c0 2.267 1.733 4 4 4h2.667c2.267 0 4-1.733 4-4v-3.733c0.8-0.667 1.333-1.733 1.333-2.933v-2.4c2.4-2 4-4.933 4-8.267 0-5.867-4.8-10.667-10.667-10.667zM18.667 28c0 0.8-0.533 1.333-1.333 1.333h-2.667c-0.8 0-1.333-0.533-1.333-1.333v-2.667h5.333v2.667zM20.933 16.933l-0.933 0.8v3.6c0 0.8-0.533 1.333-1.333 1.333h-1.333v-7.467l2.267-2.267c0.533-0.533 0.533-1.333 0-1.867s-1.333-0.533-1.867 0l-1.733 1.733-1.733-1.733c-0.533-0.533-1.333-0.533-1.867 0s-0.533 1.333 0 1.867l2.267 2.267v7.467h-1.333c-0.8 0-1.333-0.533-1.333-1.333v-3.6l-0.933-0.8c-1.867-1.467-3.067-3.733-3.067-6.267 0-4.4 3.6-8 8-8s8 3.6 8 8c0 2.533-1.2 4.8-3.067 6.267z"></path>
</svg>
