<!-- Generated by IcoMoon.io -->
<svg version="1.1" xmlns="http://www.w3.org/2000/svg" width="32" height="32" viewBox="0 0 32 32">
<title>line-01-down</title>
<path fill="#f0f1f5" d="M28 18.667c-0.533 0-0.933 0.133-1.333 0.267 0.133 0 0.133-0.133 0.267-0.133l-2.267-3.2c-0.133 0.133-0.267 0.4-0.4 0.533 0.667-0.667 1.2-1.733 1.2-2.8 0-2.267-1.733-4-4-4s-4 1.733-4 4c0 0.267 0 0.4 0.133 0.667 0 0 0-0.133 0-0.133l-3.867 2c0 0 0 0 0 0-0.933-0.8-2-1.2-3.067-1.2-0.533 0-0.933 0.133-1.333 0.267 0.133 0 0.133-0.133 0.267-0.133l-2.267-3.2c-0.133 0.267-0.4 0.4-0.533 0.533 0.8-0.667 1.2-1.733 1.2-2.8 0-2.267-1.733-4-4-4s-4 1.733-4 4 1.733 4 4 4c0.533 0 0.933-0.133 1.333-0.267 0 0-0.133 0.133-0.267 0.133l2.267 3.2c0.133-0.133 0.267-0.4 0.4-0.533-0.667 0.667-1.067 1.733-1.067 2.8 0 2.267 1.733 4 4 4s4-1.733 4-4c0-0.267 0-0.4-0.133-0.667 0 0 0 0.133 0 0.133l3.867-2c0 0 0 0 0 0 0.667 0.667 1.733 1.2 2.8 1.2 0.533 0 0.933-0.133 1.333-0.267-0.133 0-0.133 0.133-0.267 0.133l2.267 3.2c0.133-0.133 0.267-0.4 0.4-0.533-0.533 0.667-0.933 1.733-0.933 2.8 0 2.267 1.733 4 4 4s4-1.733 4-4-1.733-4-4-4zM4 10.667c-0.8 0-1.333-0.533-1.333-1.333s0.533-1.333 1.333-1.333 1.333 0.533 1.333 1.333-0.533 1.333-1.333 1.333zM10.667 20c-0.8 0-1.333-0.533-1.333-1.333s0.533-1.333 1.333-1.333 1.333 0.533 1.333 1.333-0.533 1.333-1.333 1.333zM21.333 14.667c-0.8 0-1.333-0.533-1.333-1.333s0.533-1.333 1.333-1.333 1.333 0.533 1.333 1.333-0.533 1.333-1.333 1.333zM28 24c-0.8 0-1.333-0.533-1.333-1.333s0.533-1.333 1.333-1.333 1.333 0.533 1.333 1.333-0.533 1.333-1.333 1.333z"></path>
</svg>
