<!-- Generated by IcoMoon.io -->
<svg version="1.1" xmlns="http://www.w3.org/2000/svg" width="32" height="32" viewBox="0 0 32 32">
<title>line-02-down</title>
<path fill="#f0f1f5" d="M29.333 25.333h-24c-0.8 0-1.333-0.533-1.333-1.333v-18.667c0-0.8-0.533-1.333-1.333-1.333s-1.333 0.533-1.333 1.333v18.667c0 2.267 1.733 4 4 4h24c0.8 0 1.333-0.533 1.333-1.333s-0.533-1.333-1.333-1.333z"></path>
<path fill="#f0f1f5" d="M8 8h5.333c5.733 0 10.4 4.533 10.667 10.133l-0.4-0.4c-0.533-0.533-1.333-0.533-1.867 0s-0.533 1.333 0 1.867l2.667 2.667c0 0 0 0 0 0 0.267 0.267 0.533 0.4 0.933 0.4v0 0c0.133 0 0.4 0 0.533-0.133 0.133 0 0.267-0.133 0.4-0.267 0 0 0 0 0 0l2.667-2.667c0.533-0.533 0.533-1.333 0-1.867s-1.333-0.533-1.867 0l-0.4 0.4c-0.267-7.067-6.133-12.8-13.333-12.8h-5.333c-0.8 0-1.333 0.533-1.333 1.333s0.533 1.333 1.333 1.333z"></path>
</svg>
