<!-- Generated by IcoMoon.io -->
<svg version="1.1" xmlns="http://www.w3.org/2000/svg" width="32" height="32" viewBox="0 0 32 32">
<title>line-01-up</title>
<path fill="#f0f1f5" d="M28 5.333c-2.267 0-4 1.733-4 4 0 1.067 0.4 2.133 1.2 2.8-0.133-0.133-0.267-0.4-0.4-0.533l-2.267 3.2c0.133 0 0.133 0.133 0.267 0.133-0.4-0.133-0.933-0.267-1.333-0.267-1.067 0-2.133 0.4-2.8 1.2 0 0 0 0 0 0l-4-2c0 0 0 0.133 0 0.133 0-0.267 0.133-0.4 0.133-0.667 0-2.267-1.733-4-4-4s-4 1.733-4 4c0 1.067 0.4 2.133 1.2 2.8-0.133-0.133-0.267-0.4-0.4-0.533l-2.267 3.2c0.133 0 0.133 0.133 0.267 0.133-0.667-0.133-1.067-0.267-1.6-0.267-2.267 0-4 1.733-4 4s1.733 4 4 4 4-1.733 4-4c0-1.067-0.4-2.133-1.2-2.8 0.133 0.133 0.267 0.4 0.4 0.533l2.267-3.2c-0.133 0-0.133-0.133-0.267-0.133 0.533 0.133 0.933 0.267 1.467 0.267 1.067 0 2.133-0.4 2.8-1.2 0 0 0 0 0 0l3.867 2c0 0 0-0.133 0-0.133 0 0.267-0.133 0.4-0.133 0.667 0 2.267 1.733 4 4 4s4-1.733 4-4c0-1.067-0.4-2.133-1.2-2.8 0.133 0.133 0.267 0.4 0.4 0.533l2.267-3.2c-0.133 0-0.133-0.133-0.267-0.133 0.4 0.133 0.933 0.267 1.333 0.267 2.267 0 4-1.733 4-4s-1.467-4-3.733-4zM4 24c-0.8 0-1.333-0.533-1.333-1.333s0.533-1.333 1.333-1.333 1.333 0.533 1.333 1.333-0.533 1.333-1.333 1.333zM10.667 14.667c-0.8 0-1.333-0.533-1.333-1.333s0.533-1.333 1.333-1.333 1.333 0.533 1.333 1.333-0.533 1.333-1.333 1.333zM21.333 20c-0.8 0-1.333-0.533-1.333-1.333s0.533-1.333 1.333-1.333 1.333 0.533 1.333 1.333-0.533 1.333-1.333 1.333zM28 10.667c-0.8 0-1.333-0.533-1.333-1.333s0.533-1.333 1.333-1.333 1.333 0.533 1.333 1.333-0.533 1.333-1.333 1.333z"></path>
</svg>
