<!-- Generated by IcoMoon.io -->
<svg version="1.1" xmlns="http://www.w3.org/2000/svg" width="32" height="32" viewBox="0 0 32 32">
<title>line-02-up</title>
<path fill="#f0f1f5" d="M29.333 25.333h-24c-0.8 0-1.333-0.533-1.333-1.333v-18.667c0-0.8-0.533-1.333-1.333-1.333s-1.333 0.533-1.333 1.333v18.667c0 2.267 1.733 4 4 4h24c0.8 0 1.333-0.533 1.333-1.333s-0.533-1.333-1.333-1.333z"></path>
<path fill="#f0f1f5" d="M8 22.667h5.333c7.2 0 13.067-5.733 13.333-12.8l0.4 0.4c0.533 0.533 1.333 0.533 1.867 0s0.533-1.333 0-1.867l-2.667-2.667c0 0 0 0 0 0-0.133-0.133-0.267-0.267-0.4-0.267-0.133-0.133-0.4-0.133-0.533-0.133v0 0c-0.4 0-0.667 0.133-0.933 0.4 0 0 0 0 0 0l-2.667 2.667c-0.533 0.533-0.533 1.333 0 1.867s1.333 0.533 1.867 0l0.4-0.4c-0.267 5.6-4.933 10.133-10.667 10.133h-5.333c-0.8 0-1.333 0.533-1.333 1.333s0.533 1.333 1.333 1.333z"></path>
</svg>
