<!-- Generated by IcoMoon.io -->
<svg version="1.1" xmlns="http://www.w3.org/2000/svg" width="32" height="32" viewBox="0 0 32 32">
<title>line-03-up</title>
<path fill="#f0f1f5" d="M2.667 4c0.736 0 1.333 0.597 1.333 1.333v18.667c0 0.736 0.597 1.333 1.333 1.333h24c0.736 0 1.333 0.597 1.333 1.333s-0.597 1.333-1.333 1.333h-24c-2.209 0-4-1.791-4-4v-18.667c0-0.736 0.597-1.333 1.333-1.333z"></path>
<path fill="#f0f1f5" d="M27.328 6.843c0.639 0.365 0.861 1.18 0.496 1.819l-4.249 7.435c-0.946 1.656-2.929 2.413-4.738 1.81l-4.162-1.387c-0.53-0.177-1.114-0.004-1.463 0.432l-4.172 5.215c-0.46 0.575-1.299 0.668-1.874 0.208s-0.668-1.299-0.208-1.874l4.172-5.215c1.047-1.309 2.799-1.826 4.388-1.296l4.162 1.387c0.603 0.201 1.264-0.052 1.579-0.603l4.249-7.435c0.365-0.639 1.18-0.861 1.819-0.496z"></path>
</svg>
