<!-- Generated by IcoMoon.io -->
<svg version="1.1" xmlns="http://www.w3.org/2000/svg" width="32" height="32" viewBox="0 0 32 32">
<title>list</title>
<path fill="#f0f1f5" d="M23.733 4.133c-0.4-1.6-2-2.8-3.733-2.8h-8c-1.733 0-3.333 1.2-3.733 2.8-2.4 0.533-4.267 2.667-4.267 5.2v16c0 2.933 2.4 5.333 5.333 5.333h13.333c2.933 0 5.333-2.4 5.333-5.333v-16c0-2.533-1.867-4.667-4.267-5.2zM12 4h8c0.8 0 1.333 0.533 1.333 1.333s-0.533 1.333-1.333 1.333h-8c-0.8 0-1.333-0.533-1.333-1.333s0.533-1.333 1.333-1.333zM25.333 25.333c0 1.467-1.2 2.667-2.667 2.667h-13.333c-1.467 0-2.667-1.2-2.667-2.667v-16c0-1.067 0.667-2 1.6-2.4 0.667 1.333 2.133 2.4 3.733 2.4h8c1.6 0 3.067-1.067 3.733-2.4 0.933 0.4 1.6 1.333 1.6 2.4v16z"></path>
<path fill="#f0f1f5" d="M12 13.333c0 0.736-0.597 1.333-1.333 1.333s-1.333-0.597-1.333-1.333c0-0.736 0.597-1.333 1.333-1.333s1.333 0.597 1.333 1.333z"></path>
<path fill="#f0f1f5" d="M21.333 12h-5.333c-0.8 0-1.333 0.533-1.333 1.333s0.533 1.333 1.333 1.333h5.333c0.8 0 1.333-0.533 1.333-1.333s-0.533-1.333-1.333-1.333z"></path>
<path fill="#f0f1f5" d="M21.333 17.333h-5.333c-0.8 0-1.333 0.533-1.333 1.333s0.533 1.333 1.333 1.333h5.333c0.8 0 1.333-0.533 1.333-1.333s-0.533-1.333-1.333-1.333z"></path>
<path fill="#f0f1f5" d="M18.667 22.667h-2.667c-0.8 0-1.333 0.533-1.333 1.333s0.533 1.333 1.333 1.333h2.667c0.8 0 1.333-0.533 1.333-1.333s-0.533-1.333-1.333-1.333z"></path>
<path fill="#f0f1f5" d="M12 18.667c0 0.736-0.597 1.333-1.333 1.333s-1.333-0.597-1.333-1.333c0-0.736 0.597-1.333 1.333-1.333s1.333 0.597 1.333 1.333z"></path>
<path fill="#f0f1f5" d="M12 24c0 0.736-0.597 1.333-1.333 1.333s-1.333-0.597-1.333-1.333c0-0.736 0.597-1.333 1.333-1.333s1.333 0.597 1.333 1.333z"></path>
</svg>
