<!-- Generated by IcoMoon.io -->
<svg version="1.1" xmlns="http://www.w3.org/2000/svg" width="32" height="32" viewBox="0 0 32 32">
<title>loading</title>
<path fill="#f0f1f5" d="M16 2.667c-0.736 0-1.333 0.597-1.333 1.333v4c0 0.736 0.597 1.333 1.333 1.333s1.333-0.597 1.333-1.333v-4c0-0.736-0.597-1.333-1.333-1.333z"></path>
<path fill="#f0f1f5" d="M16 22.667c-0.736 0-1.333 0.597-1.333 1.333v4c0 0.736 0.597 1.333 1.333 1.333s1.333-0.597 1.333-1.333v-4c0-0.736-0.597-1.333-1.333-1.333z"></path>
<path fill="#f0f1f5" d="M28 14.667c0.736 0 1.333 0.597 1.333 1.333s-0.597 1.333-1.333 1.333h-4c-0.736 0-1.333-0.597-1.333-1.333s0.597-1.333 1.333-1.333h4z"></path>
<path fill="#f0f1f5" d="M9.333 16c0-0.736-0.597-1.333-1.333-1.333h-4c-0.736 0-1.333 0.597-1.333 1.333s0.597 1.333 1.333 1.333h4c0.736 0 1.333-0.597 1.333-1.333z"></path>
<path fill="#f0f1f5" d="M23.543 6.572c0.521-0.521 1.365-0.521 1.886 0s0.521 1.365 0 1.886l-2.828 2.828c-0.521 0.521-1.365 0.521-1.886 0s-0.521-1.365 0-1.886l2.828-2.828z"></path>
<path fill="#f0f1f5" d="M11.286 20.714c-0.521-0.521-1.365-0.521-1.886 0l-2.828 2.828c-0.521 0.521-0.521 1.365 0 1.886s1.365 0.521 1.886 0l2.828-2.828c0.521-0.521 0.521-1.365 0-1.886z"></path>
<path fill="#f0f1f5" d="M25.428 23.543c0.521 0.521 0.521 1.365 0 1.886s-1.365 0.521-1.886 0l-2.828-2.828c-0.521-0.521-0.521-1.365 0-1.886s1.365-0.521 1.886 0l2.828 2.828z"></path>
<path fill="#f0f1f5" d="M11.286 11.286c0.521-0.521 0.521-1.365 0-1.886l-2.828-2.828c-0.521-0.521-1.365-0.521-1.886 0s-0.521 1.365 0 1.886l2.828 2.828c0.521 0.521 1.365 0.521 1.886 0z"></path>
</svg>
