<!-- Generated by IcoMoon.io -->
<svg version="1.1" xmlns="http://www.w3.org/2000/svg" width="32" height="32" viewBox="0 0 32 32">
<title>location</title>
<path fill="#f0f1f5" d="M24.4 3.333l-19.067 7.867c-3.733 1.6-3.067 6.933 0.933 7.6l5.867 0.933 0.933 5.867c0.667 4 6.133 4.533 7.6 0.933l7.867-18.933c1.333-2.667-1.467-5.467-4.133-4.267zM26.267 6.667l-7.867 18.933c-0.533 1.2-2.4 1.067-2.667-0.267l-0.933-5.867c-0.133-1.067-1.067-2-2.133-2.133l-6-1.067c-1.333-0.267-1.467-2-0.267-2.533l18.933-8c0.533-0.133 1.067 0.4 0.933 0.933z"></path>
</svg>
