<!-- Generated by IcoMoon.io -->
<svg version="1.1" xmlns="http://www.w3.org/2000/svg" width="32" height="32" viewBox="0 0 32 32">
<title>lock</title>
<path fill="#f0f1f5" d="M27.867 17.6c-0.267-2.8-2.4-5.067-5.2-5.333v-4.267c0-3.733-2.933-6.667-6.667-6.667s-6.667 2.933-6.667 6.667v4.267c-2.8 0.267-4.933 2.533-5.2 5.333-0.133 1.2-0.133 2.533-0.133 3.733s0 2.533 0.133 3.733c0.267 2.933 2.533 5.2 5.467 5.333 1.867 0.133 4 0.267 6.4 0.267s4.533-0.133 6.4-0.267c2.933-0.133 5.333-2.533 5.467-5.467 0.133-1.067 0.133-2.4 0.133-3.6s0-2.533-0.133-3.733zM12 8c0-2.267 1.733-4 4-4s4 1.733 4 4v4.133c-1.2-0.133-2.533-0.133-4-0.133s-2.8 0-4 0.133v-4.133zM25.2 24.8c-0.133 1.6-1.333 2.8-3.067 2.933-1.6 0.133-3.733 0.267-6.133 0.267s-4.533-0.133-6.133-0.133c-1.6-0.133-2.933-1.333-3.067-2.933-0.133-1.2-0.133-2.4-0.133-3.6s0-2.4 0.133-3.467c0.133-1.6 1.333-2.8 3.067-2.933 1.6-0.133 3.733-0.267 6.133-0.267s4.533 0.133 6.133 0.133c1.6 0.133 2.933 1.333 3.067 2.933 0.133 1.2 0.133 2.4 0.133 3.6s0 2.4-0.133 3.467z"></path>
<path fill="#f0f1f5" d="M16 17.333c-1.467 0-2.667 1.2-2.667 2.667 0 0.933 0.533 1.867 1.333 2.267v1.733c0 0.8 0.533 1.333 1.333 1.333s1.333-0.533 1.333-1.333v-1.733c0.8-0.4 1.333-1.333 1.333-2.267 0-1.467-1.2-2.667-2.667-2.667z"></path>
</svg>
