<!-- Generated by IcoMoon.io -->
<svg version="1.1" xmlns="http://www.w3.org/2000/svg" width="32" height="32" viewBox="0 0 32 32">
<title>lollipop</title>
<path fill="#f0f1f5" d="M21.333 2.667c-4.4 0-8 3.6-8 8 0 0.533 0 1.067 0.133 1.6l-1.067 0.267c-2.533 0.667-3.333 3.733-1.6 5.6l0.667 0.533-8.4 8.4c-0.533 0.533-0.533 1.333 0 1.867s1.333 0.533 1.867 0l8.4-8.4 0.533 0.533c1.867 1.867 4.933 0.933 5.6-1.6l0.267-1.067c0.533 0.267 1.067 0.267 1.6 0.267 4.4 0 8-3.6 8-8s-3.6-8-8-8zM16.933 18.933c-0.133 0.533-0.8 0.667-1.067 0.267l-3.067-3.067c-0.4-0.4-0.133-0.933 0.267-1.067l1.333-0.4c0.667 1.2 1.6 2.133 2.8 2.8l-0.267 1.467zM21.333 16c-2.933 0-5.333-2.4-5.333-5.333s2.4-5.333 5.333-5.333c2.933 0 5.333 2.4 5.333 5.333s-2.4 5.333-5.333 5.333z"></path>
</svg>
