<!-- Generated by IcoMoon.io -->
<svg version="1.1" xmlns="http://www.w3.org/2000/svg" width="32" height="32" viewBox="0 0 32 32">
<title>map-marker</title>
<path fill="#f0f1f5" d="M16 1.333c-6.667 0-12 5.333-12 12 0 7.333 6.4 13.6 9.867 16.4 1.2 1.067 2.933 1.067 4.267 0 3.467-2.8 9.867-9.067 9.867-16.4 0-6.667-5.333-12-12-12zM16.4 27.6c-0.267 0.267-0.533 0.267-0.8 0-1.6-1.333-3.867-3.467-5.733-6s-3.2-5.333-3.2-8.267c0-5.2 4.133-9.333 9.333-9.333s9.333 4.133 9.333 9.333c0 2.933-1.333 5.733-3.2 8.267-1.733 2.667-4.133 4.8-5.733 6z"></path>
<path fill="#f0f1f5" d="M16 8c-2.933 0-5.333 2.4-5.333 5.333s2.4 5.333 5.333 5.333c2.933 0 5.333-2.4 5.333-5.333s-2.4-5.333-5.333-5.333zM16 16c-1.467 0-2.667-1.2-2.667-2.667s1.2-2.667 2.667-2.667 2.667 1.2 2.667 2.667c0 1.467-1.2 2.667-2.667 2.667z"></path>
</svg>
