<!-- Generated by IcoMoon.io -->
<svg version="1.1" xmlns="http://www.w3.org/2000/svg" width="32" height="32" viewBox="0 0 32 32">
<title>map</title>
<path fill="#f0f1f5" d="M24.8 4.667l-4.8 0.667-8-2.667-5.867 0.8c-2 0.267-3.467 2-3.467 4v15.867c0 2.4 2.133 4.267 4.533 4l4.8-0.667 8 2.667 5.867-0.8c2-0.267 3.467-2 3.467-4v-15.867c0-2.533-2.133-4.4-4.533-4zM10.667 24.133l-3.867 0.533c-0.8 0.133-1.467-0.533-1.467-1.333v-15.867c0-0.667 0.533-1.2 1.2-1.333l4.133-0.533v18.533zM18.667 26.133l-5.333-1.733v-18.533l5.333 1.733v18.533zM26.667 24.533c0 0.667-0.533 1.2-1.2 1.333l-4.133 0.533v-18.667l3.867-0.533c0.8-0.133 1.467 0.533 1.467 1.333v16z"></path>
</svg>
