<!-- Generated by IcoMoon.io -->
<svg version="1.1" xmlns="http://www.w3.org/2000/svg" width="32" height="32" viewBox="0 0 32 32">
<title>medal</title>
<path fill="#f0f1f5" d="M22.267 12.667c0 0 0.133 0.133 0.133 0.133l3.467-7.067c1.333-2.667-0.667-5.733-3.6-5.733h-2c-1.467 0-2.933 0.8-3.6 2.267l-0.667 1.467-0.8-1.467c-0.667-1.467-2-2.267-3.467-2.267h-2.133c-2.933 0-4.8 3.067-3.467 5.733l3.467 7.067c0 0 0.133-0.133 0.133-0.133-2.667 2-4.4 5.067-4.4 8.667 0 5.867 4.8 10.667 10.667 10.667s10.667-4.8 10.667-10.667c0-3.6-1.733-6.667-4.4-8.667zM19.067 3.467c0.267-0.533 0.8-0.8 1.2-0.8h2c0.933 0 1.6 1.067 1.2 1.867l-3.467 6.933c0 0 0 0 0 0-0.133 0-0.267-0.133-0.4-0.133 0 0 0.133 0 0.133 0l-2.267-4.667 1.6-3.2zM8.4 4.533c-0.4-0.8 0.267-1.867 1.2-1.867h2c0.533 0 0.933 0.267 1.2 0.8l3.733 7.2c0 0 0.133 0 0.133 0-0.267 0-0.4 0-0.667 0-1.467 0-2.8 0.267-4.133 0.8 0 0 0 0 0 0l-3.467-6.933zM16 29.333c-4.4 0-8-3.6-8-8s3.6-8 8-8 8 3.6 8 8-3.6 8-8 8z"></path>
<path fill="#f0f1f5" d="M16 16c-2.933 0-5.333 2.4-5.333 5.333s2.4 5.333 5.333 5.333c2.933 0 5.333-2.4 5.333-5.333s-2.4-5.333-5.333-5.333zM16 24c-1.467 0-2.667-1.2-2.667-2.667s1.2-2.667 2.667-2.667 2.667 1.2 2.667 2.667-1.2 2.667-2.667 2.667z"></path>
</svg>
