<!-- Generated by IcoMoon.io -->
<svg version="1.1" xmlns="http://www.w3.org/2000/svg" width="32" height="32" viewBox="0 0 32 32">
<title>medical-mask</title>
<path fill="#f0f1f5" d="M30.667 17.333h-2.667c0-0.133 0-0.267 0-0.4v-3.6h2.667c0.8 0 1.333-0.533 1.333-1.333s-0.533-1.333-1.333-1.333h-2.667v-0.4c0-2-1.467-3.733-3.6-4l-1.067-0.133c-4.933-0.533-9.867-0.533-14.667 0l-1.067 0.133c-2.133 0.267-3.6 2-3.6 4v0.4h-2.667c-0.8 0-1.333 0.533-1.333 1.333s0.533 1.333 1.333 1.333h2.667v3.6c0 0.133 0 0.267 0 0.4h-2.667c-0.8 0-1.333 0.533-1.333 1.333s0.533 1.333 1.333 1.333h3.2c0.8 2.133 2.533 4 4.667 5.067 4.267 1.867 9.2 1.867 13.467 0 2.267-0.933 3.867-2.8 4.667-5.067h3.333c0.8 0 1.333-0.533 1.333-1.333s-0.533-1.333-1.333-1.333zM25.333 16.933c0 2.4-1.467 4.667-3.733 5.733-3.6 1.6-7.733 1.6-11.2 0-2.267-1.067-3.733-3.333-3.733-5.733v-6.667c0-0.667 0.533-1.2 1.2-1.333l1.067-0.133c4.667-0.533 9.467-0.533 14.133 0l1.067 0.133c0.667 0.133 1.2 0.667 1.2 1.333v6.667z"></path>
</svg>
