<!-- Generated by IcoMoon.io -->
<svg version="1.1" xmlns="http://www.w3.org/2000/svg" width="32" height="32" viewBox="0 0 32 32">
<title>medical-chart</title>
<path fill="#f0f1f5" d="M22.667 4h-2.933c-0.533-1.6-2-2.667-3.733-2.667s-3.2 1.067-3.733 2.667h-2.933c-2.933 0-5.333 2.4-5.333 5.333v16c0 2.933 2.4 5.333 5.333 5.333h13.333c2.933 0 5.333-2.4 5.333-5.333v-16c0-2.933-2.4-5.333-5.333-5.333zM16 4c0.8 0 1.333 0.533 1.333 1.333s-0.533 1.333-1.333 1.333-1.333-0.533-1.333-1.333 0.533-1.333 1.333-1.333zM25.333 25.333c0 1.467-1.2 2.667-2.667 2.667h-13.333c-1.467 0-2.667-1.2-2.667-2.667v-16c0-1.467 1.2-2.667 2.667-2.667h2.933c0.533 1.6 2 2.667 3.733 2.667s3.2-1.067 3.733-2.667h2.933c1.467 0 2.667 1.2 2.667 2.667v16z"></path>
<path fill="#f0f1f5" d="M21.333 12h-10.667c-0.8 0-1.333 0.533-1.333 1.333s0.533 1.333 1.333 1.333h10.667c0.8 0 1.333-0.533 1.333-1.333s-0.533-1.333-1.333-1.333z"></path>
<path fill="#f0f1f5" d="M21.333 17.333h-10.667c-0.8 0-1.333 0.533-1.333 1.333s0.533 1.333 1.333 1.333h10.667c0.8 0 1.333-0.533 1.333-1.333s-0.533-1.333-1.333-1.333z"></path>
<path fill="#f0f1f5" d="M16 22.667h-5.333c-0.8 0-1.333 0.533-1.333 1.333s0.533 1.333 1.333 1.333h5.333c0.8 0 1.333-0.533 1.333-1.333s-0.533-1.333-1.333-1.333z"></path>
</svg>
