<!-- Generated by IcoMoon.io -->
<svg version="1.1" xmlns="http://www.w3.org/2000/svg" width="32" height="32" viewBox="0 0 32 32">
<title>medical-case</title>
<path fill="#f0f1f5" d="M24 8h-1.333v-1.333c0-2.267-1.733-4-4-4h-5.333c-2.267 0-4 1.733-4 4v1.333h-1.333c-2.933 0-5.333 2.4-5.333 5.333v10.667c0 2.933 2.4 5.333 5.333 5.333h16c2.933 0 5.333-2.4 5.333-5.333v-10.667c0-2.933-2.4-5.333-5.333-5.333zM12 6.667c0-0.8 0.533-1.333 1.333-1.333h5.333c0.8 0 1.333 0.533 1.333 1.333v1.333h-8v-1.333zM26.667 24c0 1.467-1.2 2.667-2.667 2.667h-16c-1.467 0-2.667-1.2-2.667-2.667v-10.667c0-1.467 1.2-2.667 2.667-2.667h16c1.467 0 2.667 1.2 2.667 2.667v10.667z"></path>
<path fill="#f0f1f5" d="M20 17.333h-2.667v-2.667c0-0.8-0.533-1.333-1.333-1.333s-1.333 0.533-1.333 1.333v2.667h-2.667c-0.8 0-1.333 0.533-1.333 1.333s0.533 1.333 1.333 1.333h2.667v2.667c0 0.8 0.533 1.333 1.333 1.333s1.333-0.533 1.333-1.333v-2.667h2.667c0.8 0 1.333-0.533 1.333-1.333s-0.533-1.333-1.333-1.333z"></path>
</svg>
