<!-- Generated by IcoMoon.io -->
<svg version="1.1" xmlns="http://www.w3.org/2000/svg" width="32" height="32" viewBox="0 0 32 32">
<title>medicine-bottle</title>
<path fill="#f0f1f5" d="M24 1.333h-16c-2.267 0-4 1.733-4 4v2.667c0 1.2 0.533 2.267 1.333 2.933v14.4c0 2.933 2.4 5.333 5.333 5.333h10.667c2.933 0 5.333-2.4 5.333-5.333v-14.4c0.8-0.667 1.333-1.733 1.333-2.933v-2.667c0-2.267-1.733-4-4-4zM24 25.333c0 1.467-1.2 2.667-2.667 2.667h-10.667c-1.467 0-2.667-1.2-2.667-2.667v-13.333h16v13.333zM25.333 8c0 0.8-0.533 1.333-1.333 1.333h-1.333v-1.333c0-0.8-0.533-1.333-1.333-1.333s-1.333 0.533-1.333 1.333v1.333h-2.667v-1.333c0-0.8-0.533-1.333-1.333-1.333s-1.333 0.533-1.333 1.333v1.333h-2.667v-1.333c0-0.8-0.533-1.333-1.333-1.333s-1.333 0.533-1.333 1.333v1.333h-1.333c-0.8 0-1.333-0.533-1.333-1.333v-2.667c0-0.8 0.533-1.333 1.333-1.333h16c0.8 0 1.333 0.533 1.333 1.333v2.667z"></path>
<path fill="#f0f1f5" d="M13.333 21.333h1.333v1.333c0 0.8 0.533 1.333 1.333 1.333s1.333-0.533 1.333-1.333v-1.333h1.333c0.8 0 1.333-0.533 1.333-1.333s-0.533-1.333-1.333-1.333h-1.333v-1.333c0-0.8-0.533-1.333-1.333-1.333s-1.333 0.533-1.333 1.333v1.333h-1.333c-0.8 0-1.333 0.533-1.333 1.333s0.533 1.333 1.333 1.333z"></path>
</svg>
