<!-- Generated by IcoMoon.io -->
<svg version="1.1" xmlns="http://www.w3.org/2000/svg" width="32" height="32" viewBox="0 0 32 32">
<title>megaphone</title>
<path fill="#f0f1f5" d="M29.333 12.133v-4.267c0-2.933-3.067-4.933-5.733-3.6l-7.333 3.733c-0.933 0.4-1.867 0.8-2.8 1.067-0.133 0-0.267 0-0.4 0.133-1.067 0-2 0.133-2.933 0.133h-3.467c-2.933 0-5.333 2.4-5.333 5.333s2.4 5.333 5.333 5.333h3.467c0.133 0 0.267 0 0.533 0v4.4c0 0.533-0.4 0.933-0.933 0.933-0.4 0-0.8-0.267-0.933-0.8l-0.4-4.533c-0.533 0-1.2 0-1.733 0-0.4 0-0.667 0-0.933-0.133 0 0.133 0 0.267 0 0.4l0.533 4.533c0.267 1.867 1.733 3.2 3.467 3.2 2 0 3.6-1.6 3.6-3.6v-4.133c0.933 0.267 1.867 0.533 2.8 1.067l7.333 3.733c2.667 1.333 5.733-0.667 5.733-3.6v-4.267c0.8-0.267 1.333-1.067 1.333-1.867v-1.333c0.133-0.933-0.4-1.6-1.2-1.867zM12 17.467c-0.667-0.133-1.2-0.133-1.867-0.133h-3.467c-1.467 0-2.667-1.2-2.667-2.667s1.2-2.667 2.667-2.667h3.467c0.667 0 1.2 0 1.867-0.133v5.6zM12.8 20.267c0 0 0 0 0 0 0.133 0 0.267 0 0.4 0.133 0 0 0 0 0 0s-0.267-0.133-0.4-0.133zM26.667 21.467c0 0.933-1.067 1.6-1.867 1.2l-7.467-3.6c-0.8-0.4-1.733-0.8-2.667-1.067v-6.667c0.933-0.267 1.867-0.533 2.667-1.067l7.467-3.6c0.8-0.533 1.867 0.133 1.867 1.2v13.6z"></path>
</svg>
