<!-- Generated by IcoMoon.io -->
<svg version="1.1" xmlns="http://www.w3.org/2000/svg" width="32" height="32" viewBox="0 0 32 32">
<title>messenger</title>
<path fill="#f0f1f5" d="M16 2.667c-7.333 0-13.333 6-13.333 13.333 0 3.067 0.933 5.733 2.667 8v3.733c0 0.8 0.8 1.467 1.6 1.333l3.733-0.8c1.6 0.667 3.467 1.067 5.333 1.067 7.333 0 13.333-6 13.333-13.333s-6-13.333-13.333-13.333zM16 26.667c-1.467 0-2.933-0.267-4.267-0.933l-0.4-0.133c-0.267-0.133-0.533-0.133-0.8-0.133l-1.733 0.4c-0.4 0.133-0.8-0.267-0.8-0.667v-1.733c0-0.267-0.133-0.533-0.267-0.8l-0.267-0.4c-1.333-1.733-2.133-4-2.133-6.4 0-5.867 4.8-10.667 10.667-10.667s10.667 4.8 10.667 10.667-4.8 10.8-10.667 10.8z"></path>
<path fill="#f0f1f5" d="M22.267 12.933l-2.933 1.867c-0.4 0.267-1.067 0.267-1.467 0l-3.467-2.267c-0.667-0.4-1.333-0.267-1.733 0.4l-3.733 5.2c-0.133 0.267-0.133 0.533 0 0.667s0.533 0.267 0.667 0.133l2.933-1.867c0.4-0.267 1.067-0.267 1.467 0l3.467 2.267c0.667 0.4 1.333 0.267 1.733-0.4l3.733-5.2c0.133-0.267 0.133-0.533 0-0.667-0.133-0.267-0.4-0.267-0.667-0.133z"></path>
</svg>
