<!-- Generated by IcoMoon.io -->
<svg version="1.1" xmlns="http://www.w3.org/2000/svg" width="32" height="32" viewBox="0 0 32 32">
<title>microchip</title>
<path fill="#f0f1f5" d="M28 18.667h-2.667v-5.333h2.667c0.8 0 1.333-0.533 1.333-1.333s-0.533-1.333-1.333-1.333h-2.667c0-2.267-1.733-4-4-4v-2.667c0-0.8-0.533-1.333-1.333-1.333s-1.333 0.533-1.333 1.333v2.667h-5.333v-2.667c0-0.8-0.533-1.333-1.333-1.333s-1.333 0.533-1.333 1.333v2.667c-2.267 0-4 1.733-4 4h-2.667c-0.8 0-1.333 0.533-1.333 1.333s0.533 1.333 1.333 1.333h2.667v5.333h-2.667c-0.8 0-1.333 0.533-1.333 1.333s0.533 1.333 1.333 1.333h2.667c0 2.267 1.733 4 4 4v2.667c0 0.8 0.533 1.333 1.333 1.333s1.333-0.533 1.333-1.333v-2.667h5.333v2.667c0 0.8 0.533 1.333 1.333 1.333s1.333-0.533 1.333-1.333v-2.667c2.267 0 4-1.733 4-4h2.667c0.8 0 1.333-0.533 1.333-1.333s-0.533-1.333-1.333-1.333zM22.667 21.333c0 0.8-0.533 1.333-1.333 1.333h-10.667c-0.8 0-1.333-0.533-1.333-1.333v-10.667c0-0.8 0.533-1.333 1.333-1.333h10.667c0.8 0 1.333 0.533 1.333 1.333v10.667z"></path>
<path fill="#f0f1f5" d="M18.667 12h-5.333c-0.8 0-1.333 0.533-1.333 1.333v5.333c0 0.8 0.533 1.333 1.333 1.333h5.333c0.8 0 1.333-0.533 1.333-1.333v-5.333c0-0.8-0.533-1.333-1.333-1.333zM17.333 17.333h-2.667v-2.667h2.667v2.667z"></path>
</svg>
