<!-- Generated by IcoMoon.io -->
<svg version="1.1" xmlns="http://www.w3.org/2000/svg" width="32" height="32" viewBox="0 0 32 32">
<title>microphone</title>
<path fill="#f0f1f5" d="M25.333 12c-0.8 0-1.333 0.533-1.333 1.333v1.333c0 4.4-3.6 8-8 8s-8-3.6-8-8v-1.333c0-0.8-0.533-1.333-1.333-1.333s-1.333 0.533-1.333 1.333v1.333c0 5.467 4.133 9.867 9.333 10.533v4.133h-4c-0.8 0-1.333 0.533-1.333 1.333s0.533 1.333 1.333 1.333h10.667c0.8 0 1.333-0.533 1.333-1.333s-0.533-1.333-1.333-1.333h-4v-4.133c5.2-0.667 9.333-5.2 9.333-10.533v-1.333c0-0.8-0.533-1.333-1.333-1.333z"></path>
<path fill="#f0f1f5" d="M16 20c2.933 0 5.333-2.4 5.333-5.333v-9.333c0-2.933-2.4-5.333-5.333-5.333s-5.333 2.4-5.333 5.333v9.333c0 2.933 2.4 5.333 5.333 5.333zM13.333 5.333c0-1.467 1.2-2.667 2.667-2.667s2.667 1.2 2.667 2.667v9.333c0 1.467-1.2 2.667-2.667 2.667s-2.667-1.2-2.667-2.667v-9.333z"></path>
</svg>
