<!-- Generated by IcoMoon.io -->
<svg version="1.1" xmlns="http://www.w3.org/2000/svg" width="32" height="32" viewBox="0 0 32 32">
<title>mobile</title>
<path fill="#f0f1f5" d="M22.667 0h-13.333c-2.267 0-4 1.733-4 4v24c0 2.267 1.733 4 4 4h13.333c2.267 0 4-1.733 4-4v-24c0-2.267-1.733-4-4-4zM24 28c0 0.8-0.533 1.333-1.333 1.333h-13.333c-0.8 0-1.333-0.533-1.333-1.333v-24c0-0.8 0.533-1.333 1.333-1.333h13.333c0.8 0 1.333 0.533 1.333 1.333v24z"></path>
<path fill="#f0f1f5" d="M17.333 25.333c0 0.736-0.597 1.333-1.333 1.333s-1.333-0.597-1.333-1.333c0-0.736 0.597-1.333 1.333-1.333s1.333 0.597 1.333 1.333z"></path>
</svg>
