<!-- Generated by IcoMoon.io -->
<svg version="1.1" xmlns="http://www.w3.org/2000/svg" width="32" height="32" viewBox="0 0 32 32">
<title>modem</title>
<path fill="#f0f1f5" d="M25.333 14.667h-1.333v-10.667c0-0.8-0.533-1.333-1.333-1.333s-1.333 0.533-1.333 1.333v10.667h-10.667v-5.333c0-0.8-0.533-1.333-1.333-1.333s-1.333 0.533-1.333 1.333v5.333h-1.333c-2.267 0-4 1.733-4 4v5.333c0 2.267 1.733 4 4 4 0 0.8 0.533 1.333 1.333 1.333s1.333-0.533 1.333-1.333h13.333c0 0.8 0.533 1.333 1.333 1.333s1.333-0.533 1.333-1.333c2.267 0 4-1.733 4-4v-5.333c0-2.267-1.733-4-4-4zM26.667 24c0 0.8-0.533 1.333-1.333 1.333h-18.667c-0.8 0-1.333-0.533-1.333-1.333v-5.333c0-0.8 0.533-1.333 1.333-1.333h18.667c0.8 0 1.333 0.533 1.333 1.333v5.333z"></path>
<path fill="#f0f1f5" d="M10.667 21.333c0 0.736-0.597 1.333-1.333 1.333s-1.333-0.597-1.333-1.333c0-0.736 0.597-1.333 1.333-1.333s1.333 0.597 1.333 1.333z"></path>
<path fill="#f0f1f5" d="M22.667 20h-8c-0.8 0-1.333 0.533-1.333 1.333s0.533 1.333 1.333 1.333h8c0.8 0 1.333-0.533 1.333-1.333s-0.533-1.333-1.333-1.333z"></path>
</svg>
