<!-- Generated by IcoMoon.io -->
<svg version="1.1" xmlns="http://www.w3.org/2000/svg" width="32" height="32" viewBox="0 0 32 32">
<title>more-v</title>
<path fill="#f0f1f5" d="M13.44 24.434c0 1.408 1.152 2.56 2.56 2.56s2.56-1.152 2.56-2.56c0-1.408-1.152-2.56-2.56-2.56s-2.56 1.152-2.56 2.56zM13.44 6.514c0 1.408 1.152 2.56 2.56 2.56s2.56-1.152 2.56-2.56c0-1.408-1.152-2.56-2.56-2.56s-2.56 1.152-2.56 2.56zM13.44 15.474c0 1.408 1.152 2.56 2.56 2.56s2.56-1.152 2.56-2.56c0-1.408-1.152-2.56-2.56-2.56s-2.56 1.152-2.56 2.56z"></path>
</svg>
