<!-- Generated by IcoMoon.io -->
<svg version="1.1" xmlns="http://www.w3.org/2000/svg" width="32" height="32" viewBox="0 0 32 32">
<title>music-01</title>
<path fill="#f0f1f5" d="M23.333 1.867l-9.333 1.733c-2 0.4-3.333 2-3.333 4v14.133c-0.667-0.267-1.333-0.4-2-0.4-2.533 0-4.667 2.133-4.667 4.667s2.133 4.667 4.667 4.667 4.667-2.133 4.667-4.667v-12.933l12-2.133v8.133c-0.667-0.267-1.333-0.4-2-0.4-2.533 0-4.667 2.133-4.667 4.667s2.133 4.667 4.667 4.667 4.667-2.133 4.667-4.667v-17.467c0-2.533-2.267-4.4-4.667-4zM8.667 28c-1.067 0-2-0.933-2-2s0.933-2 2-2 2 0.933 2 2-0.933 2-2 2zM23.333 25.333c-1.067 0-2-0.933-2-2s0.933-2 2-2 2 0.933 2 2-0.933 2-2 2zM13.333 10.4v-2.8c0-0.667 0.4-1.2 1.067-1.333l9.333-1.733c0.8-0.133 1.6 0.533 1.6 1.333v2.4l-12 2.133z"></path>
</svg>
