<!-- Generated by IcoMoon.io -->
<svg version="1.1" xmlns="http://www.w3.org/2000/svg" width="32" height="32" viewBox="0 0 32 32">
<title>music-02</title>
<path fill="#f0f1f5" d="M24.933 3.6l-5.333-1.333c-2.533-0.667-4.933 1.333-4.933 3.867v12.533c-1.067-0.8-2.533-1.333-4-1.333-3.733 0-6.667 2.933-6.667 6.667s2.933 6.667 6.667 6.667c3.733 0 6.667-2.933 6.667-6.667v0-12.933l5.733 1.467c2.533 0.667 4.933-1.333 4.933-3.867v-1.2c0-1.867-1.2-3.467-3.067-3.867zM10.667 28c-2.267 0-4-1.733-4-4s1.733-4 4-4 4 1.733 4 4-1.733 4-4 4zM25.333 8.533c0 0.933-0.8 1.467-1.6 1.333l-6.4-1.6v-2.133c0-0.933 0.8-1.467 1.6-1.333l5.333 1.333c0.533 0.133 1.067 0.667 1.067 1.333v1.067z"></path>
</svg>
