<!-- Generated by IcoMoon.io -->
<svg version="1.1" xmlns="http://www.w3.org/2000/svg" width="32" height="32" viewBox="0 0 32 32">
<title>netflix</title>
<path fill="#f0f1f5" d="M22.667 0c-2.267 0-4 1.733-4 4v8.933l-6-10.933c-0.667-1.2-2-2-3.333-2v0c0 0 0 0 0 0s0 0 0 0c-0.267 0-0.533 0-0.8 0.133 0 0-0.133 0-0.133 0-0.133 0-0.4 0.133-0.667 0.133 0 0 0 0 0 0-0.133 0.133-0.267 0.267-0.533 0.267-1.067 0.8-1.867 2-1.867 3.467v24c0 2.267 1.733 4 4 4s4-1.733 4-4v-8.933l6 10.933c0.667 1.2 2 2 3.333 2v0c0 0 0 0 0 0s0 0 0 0c0.267 0 0.533 0 0.667-0.133 0 0 0.133 0 0.133 0 0.267 0 0.533-0.133 0.667-0.267 0 0 0 0 0 0 0.133-0.133 0.4-0.133 0.533-0.267 1.2-0.667 2-1.867 2-3.333v-24c0-2.267-1.733-4-4-4zM10.667 28c0 0.8-0.533 1.333-1.333 1.333s-1.333-0.533-1.333-1.333v-18.533l2.667 4.8v13.733zM23.333 29.2c0 0-0.133 0-0.133 0.133 0 0-0.133 0-0.133 0-0.133 0-0.267 0-0.4 0-0.4 0-0.8-0.267-1.067-0.667l-8.267-15.067-2.667-4.933-2.4-4.267c-0.267-0.533-0.133-1.2 0.4-1.6 0 0 0.133 0 0.133-0.133 0 0 0.133 0 0.133 0 0.133 0 0.267 0 0.4 0 0.4 0 0.8 0.267 1.067 0.667l13.333 24.267c0.267 0.533 0.133 1.2-0.4 1.6zM24 22.533l-2.667-4.8v-13.733c0-0.8 0.533-1.333 1.333-1.333s1.333 0.533 1.333 1.333v18.533z"></path>
</svg>
