<!-- Generated by IcoMoon.io -->
<svg version="1.1" xmlns="http://www.w3.org/2000/svg" width="32" height="32" viewBox="0 0 32 32">
<title>next</title>
<path fill="#f0f1f5" d="M18.4 12.8l-10.667-8c-2.667-2-6.4-0.133-6.4 3.2v16c0 3.333 3.733 5.2 6.4 3.2l10.667-8c2.133-1.6 2.133-4.8 0-6.4zM16.8 17.067l-10.667 8c-0.933 0.667-2.133 0-2.133-1.067v-16c0-1.067 1.2-1.733 2.133-1.067l10.667 8c0.667 0.533 0.667 1.6 0 2.133z"></path>
<path fill="#f0f1f5" d="M26.667 4c-2.267 0-4 1.733-4 4v16c0 2.267 1.733 4 4 4s4-1.733 4-4v-16c0-2.267-1.733-4-4-4zM28 24c0 0.8-0.533 1.333-1.333 1.333s-1.333-0.533-1.333-1.333v-16c0-0.8 0.533-1.333 1.333-1.333s1.333 0.533 1.333 1.333v16z"></path>
</svg>
