<!-- Generated by IcoMoon.io -->
<svg version="1.1" xmlns="http://www.w3.org/2000/svg" width="32" height="32" viewBox="0 0 32 32">
<title>out</title>
<path fill="#f0f1f5" d="M13.386 20.002c0.735-0.039 1.363 0.525 1.402 1.26 0.053 1.004 0.119 1.798 0.184 2.42 0.088 0.834 0.6 1.341 1.337 1.425 1.058 0.121 2.66 0.226 5.023 0.226s3.964-0.105 5.023-0.226c0.738-0.084 1.249-0.59 1.337-1.423 0.154-1.459 0.307-3.87 0.307-7.684s-0.153-6.226-0.307-7.684c-0.088-0.833-0.599-1.338-1.337-1.423-1.058-0.121-2.66-0.226-5.023-0.226s-3.964 0.105-5.023 0.226c-0.737 0.084-1.249 0.591-1.337 1.425-0.066 0.621-0.131 1.416-0.184 2.42-0.039 0.735-0.667 1.3-1.402 1.26s-1.3-0.667-1.26-1.402c0.056-1.044 0.124-1.885 0.195-2.557 0.209-1.979 1.613-3.558 3.686-3.795 1.182-0.135 2.888-0.243 5.326-0.243s4.144 0.108 5.325 0.243c2.072 0.237 3.477 1.812 3.686 3.792 0.166 1.575 0.322 4.083 0.322 7.964s-0.156 6.389-0.322 7.964c-0.209 1.98-1.614 3.556-3.686 3.792-1.182 0.135-2.888 0.243-5.325 0.243s-4.144-0.108-5.326-0.243c-2.074-0.237-3.478-1.816-3.686-3.795-0.071-0.672-0.14-1.513-0.195-2.557-0.039-0.735 0.525-1.363 1.26-1.402z"></path>
<path fill="#f0f1f5" d="M8.276 19.724c0.521 0.521 0.521 1.365 0 1.886s-1.365 0.521-1.886 0l-4.667-4.667c-0.521-0.521-0.521-1.365 0-1.886l4.667-4.667c0.521-0.521 1.365-0.521 1.886 0s0.521 1.365 0 1.886l-2.391 2.391h12.781c0.736 0 1.333 0.597 1.333 1.333s-0.597 1.333-1.333 1.333h-12.781l2.391 2.391z"></path>
</svg>
