<!-- Generated by IcoMoon.io -->
<svg version="1.1" xmlns="http://www.w3.org/2000/svg" width="32" height="32" viewBox="0 0 32 32">
<title>paint-bucket</title>
<path fill="#f0f1f5" d="M28.267 19.2c1.067-0.267 1.467-1.467 0.667-2.267l-11.6-11.6c0 0-0.133-0.133-0.133-0.133-0.267-0.267-0.667-0.667-1.067-0.933-2.533-2-6.4-1.867-8.8 0.533-2.4 2.267-2.533 5.867-0.667 8.533l-2.533 2.533c-1.6 1.6-1.6 4.133 0 5.6l6.4 6.4c1.6 1.6 4.133 1.6 5.6 0l7.6-7.6c0.133-0.133 0.4-0.267 0.667-0.4l3.867-0.667zM9.2 6.533c1.333-1.333 3.333-1.467 4.8-0.533l-5.333 5.333c-0.933-1.467-0.8-3.467 0.533-4.8zM14.267 26c-0.533 0.533-1.333 0.533-1.867 0l-3.333-3.333h8.4l-3.2 3.333zM21.867 18.4l-1.6 1.6h-13.867l-0.4-0.4c-0.533-0.533-0.533-1.333 0-1.867l10-10 9.2 9.2-1.333 0.267c-0.8 0.267-1.467 0.667-2 1.2z"></path>
<path fill="#f0f1f5" d="M27.067 22.933c-0.267-0.133-0.533-0.133-0.8 0-0.667 0.667-2.267 2.267-2.267 3.733s1.2 2.667 2.667 2.667 2.667-1.2 2.667-2.667c0-1.467-1.6-3.067-2.267-3.733z"></path>
</svg>
