<!-- Generated by IcoMoon.io -->
<svg version="1.1" xmlns="http://www.w3.org/2000/svg" width="32" height="32" viewBox="0 0 32 32">
<title>paint-roller</title>
<path fill="#f0f1f5" d="M25.333 5.6v-0.267c0-2.267-1.733-4-4-4h-13.333c-2.267 0-4 1.733-4 4v2.667c0 2.267 1.733 4 4 4h13.333c1.867 0 3.467-1.333 3.867-3.2 0.133 0.267 0.133 0.4 0.133 0.533v2.933c0 0.667-0.533 1.2-1.2 1.333l-7.2 0.8c-2 0.267-3.6 2-3.6 4v0.533c-1.6 0.533-2.667 2-2.667 3.733v4c0 2.267 1.733 4 4 4s4-1.733 4-4v-4c0-1.733-1.067-3.2-2.667-3.733v-0.533c0-0.667 0.533-1.2 1.2-1.333l7.2-0.8c2-0.267 3.6-2 3.6-4v-2.933c0-1.733-1.067-3.2-2.667-3.733zM22.667 8c0 0.8-0.533 1.333-1.333 1.333h-13.333c-0.8 0-1.333-0.533-1.333-1.333v-2.667c0-0.8 0.533-1.333 1.333-1.333h13.333c0.8 0 1.333 0.533 1.333 1.333v2.667zM16 26.667c0 0.8-0.533 1.333-1.333 1.333s-1.333-0.533-1.333-1.333v-4c0-0.8 0.533-1.333 1.333-1.333s1.333 0.533 1.333 1.333v4z"></path>
</svg>
