<!-- Generated by IcoMoon.io -->
<svg version="1.1" xmlns="http://www.w3.org/2000/svg" width="32" height="32" viewBox="0 0 32 32">
<title>palette</title>
<path fill="#f0f1f5" d="M25.333 16l1.2-1.2c1.467-1.6 1.467-4.133 0-5.6l-3.733-3.733c-1.6-1.6-4.133-1.6-5.6 0l-1.2 1.2c0-2.267-1.733-4-4-4h-5.333c-2.267 0-4 1.733-4 4v18.667c0 2.267 1.733 4 4 4h5.333c0 0 0 0 0 0h13.333c2.267 0 4-1.733 4-4v-5.333c0-2.267-1.733-4-4-4zM13.333 25.333c0 0.8-0.533 1.333-1.333 1.333h-5.333c-0.8 0-1.333-0.533-1.333-1.333v-18.667c0-0.8 0.533-1.333 1.333-1.333h5.333c0.8 0 1.333 0.533 1.333 1.333v18.667zM16 10.4l3.067-3.067c0.533-0.533 1.333-0.533 1.867 0l3.733 3.733c0.533 0.533 0.533 1.333 0 1.867l-8.667 8.667v-11.2zM26.667 25.333c0 0.8-0.533 1.333-1.333 1.333h-9.6c0 0 0 0.133 0 0.133 0.133-0.4 0.267-0.933 0.267-1.467v0l6.667-6.667h2.667c0.8 0 1.333 0.533 1.333 1.333v5.333z"></path>
<path fill="#f0f1f5" d="M10.667 22.667c0 0.736-0.597 1.333-1.333 1.333s-1.333-0.597-1.333-1.333c0-0.736 0.597-1.333 1.333-1.333s1.333 0.597 1.333 1.333z"></path>
</svg>
