<!-- Generated by IcoMoon.io -->
<svg version="1.1" xmlns="http://www.w3.org/2000/svg" width="32" height="32" viewBox="0 0 32 32">
<title>pause</title>
<path fill="#f0f1f5" d="M9.333 2.667h-2.667c-2.267 0-4 1.733-4 4v18.667c0 2.267 1.733 4 4 4h2.667c2.267 0 4-1.733 4-4v-18.667c0-2.267-1.733-4-4-4zM10.667 25.333c0 0.8-0.533 1.333-1.333 1.333h-2.667c-0.8 0-1.333-0.533-1.333-1.333v-18.667c0-0.8 0.533-1.333 1.333-1.333h2.667c0.8 0 1.333 0.533 1.333 1.333v18.667z"></path>
<path fill="#f0f1f5" d="M25.333 2.667h-2.667c-2.267 0-4 1.733-4 4v18.667c0 2.267 1.733 4 4 4h2.667c2.267 0 4-1.733 4-4v-18.667c0-2.267-1.733-4-4-4zM26.667 25.333c0 0.8-0.533 1.333-1.333 1.333h-2.667c-0.8 0-1.333-0.533-1.333-1.333v-18.667c0-0.8 0.533-1.333 1.333-1.333h2.667c0.8 0 1.333 0.533 1.333 1.333v18.667z"></path>
</svg>
