<!-- Generated by IcoMoon.io -->
<svg version="1.1" xmlns="http://www.w3.org/2000/svg" width="32" height="32" viewBox="0 0 32 32">
<title>pear</title>
<path fill="#f0f1f5" d="M25.333 0h-3.333c-2.133 0-4 0.933-5.2 2.533-0.933-1.467-2.533-2.533-4.4-2.533h-4c-1.733 0-3.067 1.333-3.067 3.067 0 2.8 2.133 4.933 4.933 4.933h0.4c-0.8 1.067-1.333 2.533-1.333 4v1.067c0 1.867-0.8 3.733-1.733 5.467 0 0.133-0.133 0.133-0.133 0.267-0.533 1.067-0.8 2.4-0.8 3.867 0 5.2 4.133 9.333 9.333 9.333s9.333-4.133 9.333-9.333c0-1.467-0.267-2.8-0.933-4 0-0.133-0.133-0.133-0.133-0.267-0.8-1.733-1.733-3.467-1.733-5.467v-0.933c0-2.933-2-5.467-4.667-6.267l0.4-0.8c0.667-1.333 2-2.267 3.6-2.267h3.467c0.8 0 1.333-0.533 1.333-1.333s-0.533-1.333-1.333-1.333zM10.267 5.333c-1.333 0-2.267-0.933-2.267-2.267 0-0.267 0.133-0.4 0.4-0.4h4c1.333 0 2.267 0.933 2.267 2.267 0 0.267-0.133 0.4-0.4 0.4h-4zM20 12v1.067c0 2.533 1.067 4.8 1.867 6.533 0 0.133 0.133 0.267 0.133 0.4 0.4 0.8 0.667 1.867 0.667 2.8 0 3.733-2.933 6.667-6.667 6.667s-6.667-2.933-6.667-6.667c0-1.067 0.267-2 0.667-2.8 0-0.133 0.133-0.267 0.133-0.4 0.8-1.6 1.867-4 1.867-6.533v-1.067c0-2.267 1.733-4 4-4s4 1.733 4 4z"></path>
</svg>
