<!-- Generated by IcoMoon.io -->
<svg version="1.1" xmlns="http://www.w3.org/2000/svg" width="32" height="32" viewBox="0 0 32 32">
<title>pen</title>
<path fill="#f0f1f5" d="M28.4 18.533l-2-2-2.133-6.4c-0.933-2.933-3.467-4.933-6.533-5.333l-11.6-1.733c-0.4 0-0.667 0-1.067 0.133v0c0 0 0 0-0.133 0s-0.267 0.133-0.4 0.133c-0.133 0-0.133 0-0.267 0.133 0 0.133-0.133 0.267-0.267 0.4 0 0 0 0-0.133 0.133s-0.267 0.267-0.4 0.4c0 0 0 0.133-0.133 0.267 0 0.133-0.133 0.267-0.133 0.4 0 0 0 0 0 0.133v0c-0.133 0.267-0.133 0.533-0.133 0.933l1.6 11.6c0.4 3.067 2.533 5.6 5.333 6.533l6.4 2.133 2 2c1.6 1.6 4.133 1.6 5.6 0l4.267-4.267c1.733-1.467 1.733-4 0.133-5.6zM16.667 23.6l-5.733-1.867c-2-0.667-3.333-2.4-3.6-4.4l-1.333-9.333 6 6c0 0.133 0 0.4 0 0.667 0 1.467 1.2 2.667 2.667 2.667s2.667-1.2 2.667-2.667c0-1.467-1.2-2.667-2.667-2.667-0.267 0-0.533 0-0.667 0.133l-6-6.133 9.333 1.333c2 0.267 3.733 1.6 4.4 3.6l1.867 5.733-6.933 6.933zM26.533 22.267l-4.267 4.267c-0.533 0.533-1.333 0.533-1.867 0l-1.467-1.467 6.133-6.133 1.467 1.467c0.533 0.533 0.533 1.333 0 1.867z"></path>
</svg>
