<!-- Generated by IcoMoon.io -->
<svg version="1.1" xmlns="http://www.w3.org/2000/svg" width="32" height="32" viewBox="0 0 32 32">
<title>pencil</title>
<path fill="#f0f1f5" d="M27.6 6.267l-1.733-1.733c-2.133-2.133-5.467-2.133-7.6 0l-13.067 13.067c-0.667 0.667-1.2 1.6-1.467 2.667l-1.067 4.267c-0.667 2.8 1.867 5.467 4.8 4.8l4.4-0.933c0.933-0.267 1.867-0.667 2.667-1.467l13.067-13.067c2-2.133 2-5.6 0-7.6zM11.2 25.733l-4.267 0.933c-0.933 0.267-1.867-0.667-1.6-1.6l0.933-4.4c0.133-0.533 0.4-0.933 0.667-1.2l5.6 5.6c-0.4 0.267-0.8 0.533-1.333 0.667zM14.4 23.2l-5.6-5.6 7.467-7.467 5.6 5.6-7.467 7.467zM25.733 11.867l-2 2-5.6-5.6 2-2c1.067-1.067 2.667-1.067 3.733 0l1.733 1.733c1.067 1.2 1.067 2.8 0.133 3.867z"></path>
</svg>
