<!-- Generated by IcoMoon.io -->
<svg version="1.1" xmlns="http://www.w3.org/2000/svg" width="32" height="32" viewBox="0 0 32 32">
<title>perspective</title>
<path fill="#f0f1f5" d="M24.933 6l-16-3.6c-2.533-0.533-4.933 1.333-4.933 3.867v19.333c0 2.533 2.4 4.4 4.933 3.867l16-3.6c1.733-0.267 3.067-1.867 3.067-3.733v-12.267c0-1.867-1.333-3.467-3.067-3.867zM13.333 25.867l-5.067 1.067c-0.8 0.133-1.6-0.4-1.6-1.333v-8.267h6.667v8.533zM13.333 14.667h-6.667v-8.4c0-0.8 0.8-1.467 1.6-1.333l5.067 1.2v8.533zM20 24.4l-4 0.933v-8h4v7.067zM20 14.667h-4v-8l4 0.933v7.067zM25.333 22.133c0 0.667-0.4 1.2-1.067 1.333l-1.6 0.267v-6.4h2.667v4.8zM25.333 14.667h-2.667v-6.4l1.6 0.4c0.667 0.133 1.067 0.667 1.067 1.333v4.667z"></path>
</svg>
