<!-- Generated by IcoMoon.io -->
<svg version="1.1" xmlns="http://www.w3.org/2000/svg" width="32" height="32" viewBox="0 0 32 32">
<title>petri-dish</title>
<path fill="#f0f1f5" d="M16 2.667c-7.333 0-13.333 6-13.333 13.333s6 13.333 13.333 13.333 13.333-6 13.333-13.333-6-13.333-13.333-13.333zM16 26.667c-5.867 0-10.667-4.8-10.667-10.667s4.8-10.667 10.667-10.667 10.667 4.8 10.667 10.667-4.8 10.667-10.667 10.667z"></path>
<path fill="#f0f1f5" d="M16.933 15.6l4-4c0.533-0.533 0.533-1.333 0-1.867s-1.333-0.533-1.867 0l-4 4c-0.533 0.533-0.533 1.333 0 1.867s1.333 0.533 1.867 0z"></path>
<path fill="#f0f1f5" d="M11.6 16.933c0.533-0.533 0.533-1.333 0-1.867l-1.333-1.333c-0.533-0.533-1.333-0.533-1.867 0s-0.533 1.333 0 1.867l1.333 1.333c0.533 0.533 1.333 0.533 1.867 0z"></path>
<path fill="#f0f1f5" d="M14.667 10.667c0 0.736-0.597 1.333-1.333 1.333s-1.333-0.597-1.333-1.333c0-0.736 0.597-1.333 1.333-1.333s1.333 0.597 1.333 1.333z"></path>
<path fill="#f0f1f5" d="M13.333 21.333c0 0.736-0.597 1.333-1.333 1.333s-1.333-0.597-1.333-1.333c0-0.736 0.597-1.333 1.333-1.333s1.333 0.597 1.333 1.333z"></path>
<path fill="#f0f1f5" d="M22.667 14c-0.8 0-1.333 0.533-1.333 1.333v0.667c0 0.8-0.533 1.333-1.333 1.333-2.267 0-4 1.733-4 4v0.667c0 0.8 0.533 1.333 1.333 1.333s1.333-0.533 1.333-1.333v-0.667c0-0.8 0.533-1.333 1.333-1.333 2.267 0 4-1.733 4-4v-0.667c0-0.8-0.533-1.333-1.333-1.333z"></path>
</svg>
