<!-- Generated by IcoMoon.io -->
<svg version="1.1" xmlns="http://www.w3.org/2000/svg" width="32" height="32" viewBox="0 0 32 32">
<title>phone</title>
<path fill="#f0f1f5" d="M28.4 19.733l-3.2-2.4c-1.6-1.2-3.867-1.067-5.2 0.4l-1.733 1.733c-0.4-0.133-1.467-0.8-3.2-2.533s-2.267-2.667-2.533-3.2l1.733-1.733c1.467-1.333 1.6-3.6 0.4-5.2l-2.4-3.2c-1.467-2-4.4-2.133-6.133-0.4-0.533 0.533-0.533 0.533-1.467 1.467-1.333 1.333-1.867 3.333-2 5.067-0.133 3.2 1.333 7.6 6.667 12.933s9.733 6.8 12.933 6.667c2-0.133 4.133-0.933 5.067-1.867s1.067-1.067 1.6-1.6c1.6-1.867 1.467-4.667-0.533-6.133zM26.933 23.867l-1.6 1.6c0 0-1.2 1.067-3.2 1.2-2.267 0.133-5.867-0.8-10.933-5.867s-6-8.667-5.867-10.933c0-1.2 0.267-2.267 1.2-3.2 0.4-0.4 1.067-1.067 1.6-1.6s1.467-0.533 2 0.133l2.4 3.2c0.4 0.533 0.4 1.333-0.133 1.733-1.6 1.6-2.133 2.133-2.133 2.133-1.867 2 1.6 5.467 2.8 6.533 1.333 1.333 4.667 4.8 6.667 2.8 0.933-0.933 1.467-1.467 2.133-2.133 0.533-0.533 1.2-0.533 1.733-0.133l3.2 2.4c0.667 0.667 0.667 1.6 0.133 2.133z"></path>
</svg>
