<!-- Generated by IcoMoon.io -->
<svg version="1.1" xmlns="http://www.w3.org/2000/svg" width="32" height="32" viewBox="0 0 32 32">
<title>picker</title>
<path fill="#f0f1f5" d="M27.333 4.667c-2.267-2.267-5.733-2.267-8 0l-3.333 3.333-0.933-0.933c-0.533-0.533-1.467-0.533-2 0s-0.533 1.467 0 2l0.933 0.933-6.133 6.133c-0.8 0.8-1.467 1.6-1.867 2.533l-2.533 4.8c-0.933 1.467-0.667 3.333 0.533 4.533s3.067 1.467 4.533 0.667l4.8-2.533c0.933-0.533 1.867-1.2 2.533-1.867l6.133-6.133 1.067 1.067c0.533 0.533 1.467 0.533 2 0s0.533-1.467 0-2l-1.067-1.2 3.333-3.333c2.267-2.267 2.267-5.733 0-8zM13.867 22.267c-0.533 0.667-1.2 1.067-1.867 1.467l-4.8 2.533c-0.4 0.267-0.933 0.133-1.333-0.133-0.4-0.4-0.4-0.933-0.133-1.333l2.533-4.8c0.4-0.667 0.933-1.333 1.467-2l6.133-6.133 4.267 4.267-6.267 6.133zM25.467 10.8l-3.333 3.333-4.267-4.267 3.333-3.333c1.2-1.2 3.067-1.2 4.267 0s1.2 3.067 0 4.267z"></path>
</svg>
