<!-- Generated by IcoMoon.io -->
<svg version="1.1" xmlns="http://www.w3.org/2000/svg" width="32" height="32" viewBox="0 0 32 32">
<title>picture-in-picture</title>
<path fill="#f0f1f5" d="M14.667 22.667h-9.333c-0.8 0-1.333-0.533-1.333-1.333v-13.333c0-0.8 0.533-1.333 1.333-1.333h18.667c0.8 0 1.333 0.533 1.333 1.333v6.667c0 0.8 0.533 1.333 1.333 1.333s1.333-0.533 1.333-1.333v-6.667c0-2.267-1.733-4-4-4h-18.667c-2.267 0-4 1.733-4 4v13.333c0 2.267 1.733 4 4 4h9.333c0.8 0 1.333-0.533 1.333-1.333s-0.533-1.333-1.333-1.333z"></path>
<path fill="#f0f1f5" d="M29.333 18.667h-9.333c-0.8 0-1.333 0.533-1.333 1.333v6.667c0 0.8 0.533 1.333 1.333 1.333h9.333c0.8 0 1.333-0.533 1.333-1.333v-6.667c0-0.8-0.533-1.333-1.333-1.333z"></path>
</svg>
