<!-- Generated by IcoMoon.io -->
<svg version="1.1" xmlns="http://www.w3.org/2000/svg" width="32" height="32" viewBox="0 0 32 32">
<title>pie-01</title>
<path fill="#f0f1f5" d="M25.333 17.333h-10c-0.4 0-0.667-0.267-0.667-0.667v-10c0-0.8-0.533-1.333-1.333-1.2-1.867 0.133-3.733 0.8-5.333 1.867-2 1.333-3.467 3.2-4.4 5.333-0.933 2.267-1.2 4.667-0.667 7.067 0.4 2.267 1.6 4.4 3.333 6.133s3.867 2.8 6.133 3.333c2.267 0.4 4.8 0.267 6.933-0.667s4.133-2.4 5.333-4.4c1.067-1.6 1.733-3.467 2-5.333 0-0.933-0.533-1.467-1.333-1.467zM22.4 22.533c-1.067 1.6-2.533 2.667-4.133 3.467-1.733 0.667-3.6 0.933-5.333 0.533-1.867-0.4-3.6-1.333-4.8-2.533-1.333-1.333-2.133-2.933-2.533-4.8s-0.133-3.733 0.533-5.333c0.667-1.867 1.867-3.333 3.333-4.267 0.8-0.533 1.6-0.933 2.533-1.2v8.267c0 1.867 1.467 3.333 3.333 3.333h8.267c-0.267 0.933-0.667 1.733-1.2 2.533z"></path>
<path fill="#f0f1f5" d="M28.4 10.133c-0.667-1.467-1.467-2.8-2.667-3.867-1.067-1.067-2.4-2-3.867-2.667-1.067-0.4-2.133-0.667-3.2-0.8-0.8-0.133-1.333 0.4-1.333 1.2v10c0 0.4 0.267 0.667 0.667 0.667h10c0.8 0 1.333-0.533 1.2-1.333 0-1.067-0.4-2.267-0.8-3.2zM20 12v-6.267c0.267 0.133 0.667 0.133 0.933 0.267 1.067 0.533 2.133 1.2 3.067 2 0.933 0.933 1.6 1.867 2 3.067 0.133 0.267 0.267 0.533 0.267 0.933h-6.267z"></path>
</svg>
