<!-- Generated by IcoMoon.io -->
<svg version="1.1" xmlns="http://www.w3.org/2000/svg" width="32" height="32" viewBox="0 0 32 32">
<title>pie-02</title>
<path fill="#f0f1f5" d="M28.4 10.133c-0.667-1.467-1.467-2.8-2.667-3.867-1.067-1.067-2.4-2-3.867-2.667-1.067-0.4-2.133-0.667-3.2-0.8-0.8-0.133-1.333 0.4-1.333 1.2v21.333c0 0.8 0.533 1.333 1.333 1.2 1.067-0.133 2.267-0.4 3.2-0.8 1.467-0.667 2.8-1.467 3.867-2.667 1.067-1.067 2-2.4 2.667-3.867s0.933-3.067 0.933-4.533c0-1.6-0.267-3.2-0.933-4.533zM26 18.267c-0.533 1.067-1.2 2.133-2 3.067-0.933 0.8-1.867 1.6-3.067 2-0.267 0.133-0.533 0.267-0.933 0.267v-17.867c0.267 0.133 0.667 0.133 0.933 0.267 1.067 0.533 2.133 1.2 3.067 2 0.933 0.933 1.6 1.867 2 3.067s0.667 2.4 0.667 3.6c0 1.2-0.267 2.4-0.667 3.6z"></path>
<path fill="#f0f1f5" d="M13.333 5.467c-1.067 0-2.267 0.4-3.2 0.8-1.467 0.667-2.8 1.467-3.867 2.667-1.067 1.067-2 2.4-2.667 3.867-0.667 1.333-0.933 2.933-0.933 4.533s0.267 3.2 0.933 4.533c0.667 1.467 1.467 2.8 2.667 3.867 1.067 1.067 2.4 2 3.867 2.667 1.067 0.4 2.133 0.667 3.2 0.8 0.667 0.133 1.333-0.533 1.333-1.2v-21.333c0-0.8-0.533-1.333-1.333-1.2zM12 26.267c-0.267-0.133-0.667-0.133-0.933-0.267-1.067-0.533-2.133-1.2-3.067-2-0.8-0.933-1.6-1.867-2-3.067s-0.667-2.4-0.667-3.6c0-1.2 0.267-2.4 0.667-3.6s1.2-2.133 2.133-3.067c0.933-0.933 1.867-1.6 3.067-2 0.133-0.133 0.533-0.133 0.8-0.267v17.867z"></path>
</svg>
