<!-- Generated by IcoMoon.io -->
<svg version="1.1" xmlns="http://www.w3.org/2000/svg" width="32" height="32" viewBox="0 0 32 32">
<title>pie-04</title>
<path fill="#f0f1f5" d="M28 17.333h-9.333c-0.8 0-1.333 0.533-1.333 1.333v9.333c0 0.8 0.533 1.333 1.333 1.2 1.067-0.133 2.267-0.4 3.2-0.8 1.467-0.667 2.8-1.467 3.867-2.667 1.067-1.067 2-2.4 2.667-3.867 0.4-1.067 0.667-2.133 0.8-3.2 0.133-0.8-0.4-1.333-1.2-1.333zM26 20.933c-0.533 1.067-1.2 2.133-2 3.067s-1.867 1.6-3.067 2c-0.267 0.133-0.533 0.267-0.933 0.267v-6.267h6.267c-0.133 0.267-0.133 0.667-0.267 0.933z"></path>
<path fill="#f0f1f5" d="M18.667 14.667h9.333c0.8 0 1.333-0.533 1.2-1.333-0.133-1.067-0.4-2.267-0.8-3.2-0.667-1.467-1.467-2.8-2.667-3.867-1.067-1.067-2.4-2-3.867-2.667-1.067-0.4-2.133-0.667-3.2-0.8-0.8-0.133-1.333 0.4-1.333 1.2v9.333c0 0.8 0.533 1.333 1.333 1.333zM20 5.733c0.267 0.133 0.667 0.133 0.933 0.267 1.067 0.533 2.133 1.2 3.067 2 0.933 0.933 1.6 1.867 2 3.067 0.133 0.267 0.267 0.533 0.267 0.933h-6.267v-6.267z"></path>
<path fill="#f0f1f5" d="M13.333 4.133c-2.667 0.267-5.2 1.467-7.2 3.333-2.267 2.267-3.467 5.333-3.467 8.533s1.2 6.267 3.467 8.533c2 2 4.4 3.2 7.2 3.467 0.667 0.133 1.333-0.533 1.333-1.2v-21.467c0-0.8-0.533-1.333-1.333-1.2zM12 24.933c-1.467-0.4-2.8-1.2-3.867-2.4-1.867-1.733-2.8-4-2.8-6.533s0.933-4.8 2.8-6.667c1.067-1.067 2.4-1.867 3.867-2.267v17.867z"></path>
</svg>
