<!-- Generated by IcoMoon.io -->
<svg version="1.1" xmlns="http://www.w3.org/2000/svg" width="32" height="32" viewBox="0 0 32 32">
<title>pie-03</title>
<path fill="#f0f1f5" d="M29.333 16.133c-0.133-2-0.933-3.867-2-5.467s-2.533-2.933-4.267-3.867c-1.333-0.667-2.8-1.2-4.267-1.333-0.933-0.133-1.467 0.4-1.467 1.2v10.133c0 0.4-0.133 0.667-0.4 0.933l-7.2 7.2c-0.533 0.533-0.533 1.333 0 1.867 1.2 0.933 2.533 1.6 4 2.133 1.867 0.533 3.867 0.667 5.867 0.267s3.733-1.2 5.333-2.533 2.667-2.8 3.467-4.667c0.8-1.867 1.067-3.867 0.933-5.867zM26 20.933c-0.533 1.467-1.467 2.667-2.667 3.6s-2.533 1.6-4.133 2c-1.467 0.267-3.067 0.267-4.533-0.267-0.667-0.133-1.2-0.4-1.733-0.667l6-6c0.8-0.8 1.2-1.733 1.2-2.8v-8.4c0.533 0.133 1.2 0.4 1.733 0.667 1.333 0.667 2.533 1.733 3.333 3.067s1.333 2.8 1.467 4.267c0.133 1.6-0.133 3.067-0.667 4.533z"></path>
<path fill="#f0f1f5" d="M14.667 15.467v-10.133c0-0.8-0.533-1.333-1.333-1.2-1.867 0.133-3.733 0.8-5.333 1.867-2 1.333-3.467 3.2-4.4 5.333-0.933 2.267-1.2 4.667-0.667 7.067 0.4 1.867 1.2 3.6 2.4 5.2 0.4 0.533 1.333 0.533 1.867 0l7.2-7.2c0.133-0.267 0.267-0.667 0.267-0.933zM12 14.933l-5.6 5.6c-0.4-0.8-0.8-1.733-0.933-2.667-0.267-1.867-0.133-3.733 0.533-5.467 0.8-1.733 2-3.2 3.467-4.133 0.8-0.533 1.6-0.933 2.533-1.2v7.867z"></path>
</svg>
