<!-- Generated by IcoMoon.io -->
<svg version="1.1" xmlns="http://www.w3.org/2000/svg" width="32" height="32" viewBox="0 0 32 32">
<title>pill</title>
<path fill="#f0f1f5" d="M26.667 5.333c-2.933-2.933-7.733-2.933-10.667 0l-5.333 5.333c0 0 0 0 0 0s0 0 0 0l-5.333 5.333c-2.933 2.933-2.933 7.733 0 10.667s7.733 2.933 10.667 0l10.667-10.667c2.933-2.933 2.933-7.733 0-10.667zM14.133 24.8c-1.867 1.867-4.933 1.867-6.933 0-1.867-1.867-1.867-4.933 0-6.933l4.4-4.4 6.933 6.933-4.4 4.4zM24.8 14.133l-4.4 4.4-6.933-6.933 4.4-4.4c1.867-1.867 4.933-1.867 6.933 0 1.867 1.867 1.867 5.067 0 6.933z"></path>
</svg>
