<!-- Generated by IcoMoon.io -->
<svg version="1.1" xmlns="http://www.w3.org/2000/svg" width="32" height="32" viewBox="0 0 32 32">
<title>pinterest</title>
<path fill="#f0f1f5" d="M16 2.667c-7.333 0-13.333 6-13.333 13.333s6 13.333 13.333 13.333 13.333-6 13.333-13.333-6-13.333-13.333-13.333zM16 26.667c-0.667 0-1.333-0.133-1.867-0.133l1.067-3.867c2.267 0.533 4.267 0.133 5.867-0.8 1.733-1.2 2.8-3.2 2.933-5.2 0.267-2-0.267-4.133-1.467-5.733-1.333-1.733-3.2-2.933-5.867-2.933-3.467 0-5.867 1.6-7.2 3.867-1.2 2.267-1.2 5.067 0 7.467 0.267 0.667 1.067 0.933 1.733 0.533s0.933-1.067 0.533-1.733c-0.8-1.6-0.8-3.467 0-4.933 0.8-1.333 2.267-2.533 4.8-2.533 1.733 0 2.933 0.8 3.6 1.733 0.8 1.067 1.067 2.533 0.933 4-0.133 1.333-0.8 2.533-1.733 3.2-0.8 0.533-2 0.8-3.6 0.4l1.467-5.067c0.133-0.667-0.267-1.467-0.933-1.6s-1.467 0.267-1.6 0.933l-1.733 6.267c0 0 0 0 0 0l-1.333 5.067c-3.733-1.6-6.267-5.333-6.267-9.6 0-5.867 4.8-10.667 10.667-10.667s10.667 4.8 10.667 10.667-4.8 10.667-10.667 10.667z"></path>
</svg>
