<!-- Generated by IcoMoon.io -->
<svg version="1.1" xmlns="http://www.w3.org/2000/svg" width="32" height="32" viewBox="0 0 32 32">
<title>pizza-slice</title>
<path fill="#f0f1f5" d="M28.267 20.933l-8.8-15.867c-1.467-2.8-5.467-2.8-7.067 0l-8.667 15.867c-1.467 2.533-0.8 5.733 2 6.8 2.267 0.8 5.6 1.6 10.267 1.6s8-0.8 10.267-1.6c2.8-1.067 3.467-4.133 2-6.8zM14.8 6.267c0.533-0.933 1.867-0.933 2.4 0l1.333 2.533c0 0 0 0 0 0l1.333 2.4c0 0 0 0 0 0l2.533 4.667c0 0 0 0 0 0l1.333 2.4c0 0 0 0 0 0l0.933 1.867c-0.133 0-0.267 0.133-0.4 0.133-1.333 0.533-3.733 1.2-8.267 1.2s-7.067-0.667-8.267-1.2c-0.133-0.267-0.267-0.267-0.4-0.267l7.467-13.733zM26.267 24.267c-0.133 0.4-0.4 0.8-0.933 0.933-2 0.8-5.067 1.467-9.333 1.467s-7.333-0.667-9.333-1.467c-0.533-0.133-0.8-0.533-0.933-0.933-0.133-0.533-0.133-1.2 0.4-2 0.133 0.133 0.4 0.133 0.533 0.267 1.733 0.8 4.533 1.467 9.333 1.467s7.6-0.667 9.333-1.467c0.267-0.133 0.4-0.133 0.533-0.267 0.533 0.8 0.533 1.467 0.4 2z"></path>
<path fill="#f0f1f5" d="M16.267 11.733c-0.4 1.333-0.267 2.8 0.4 4s1.867 2.133 3.2 2.533c1.333 0.4 2.667 0.267 3.867-0.267l-1.333-2.4c-0.533 0.267-1.2 0.267-1.867 0.133-0.667-0.267-1.2-0.667-1.6-1.333-0.267-0.667-0.4-1.333-0.133-2 0.133-0.533 0.533-1.067 1.067-1.467l-1.333-2.4c-1.067 0.933-1.867 2-2.267 3.2z"></path>
<path fill="#f0f1f5" d="M14.667 17.333c0 0.736-0.597 1.333-1.333 1.333s-1.333-0.597-1.333-1.333c0-0.736 0.597-1.333 1.333-1.333s1.333 0.597 1.333 1.333z"></path>
</svg>
