<!-- Generated by IcoMoon.io -->
<svg version="1.1" xmlns="http://www.w3.org/2000/svg" width="32" height="32" viewBox="0 0 32 32">
<title>platch</title>
<path fill="#f0f1f5" d="M26.667 5.333c-2.933-2.933-7.733-2.933-10.667 0l-10.667 10.667c-2.933 2.933-2.933 7.733 0 10.667s7.733 2.933 10.667 0l10.667-10.667c2.933-2.933 2.933-7.733 0-10.667zM7.2 24.8c-1.867-1.867-1.867-4.667-0.267-6.667l6.933 6.933c-2 1.6-4.8 1.467-6.667-0.267zM15.733 23.2l-6.933-6.933 7.467-7.467 6.933 6.933-7.467 7.467zM25.067 13.867l-6.933-6.933c1.867-1.6 4.8-1.6 6.667 0.267 1.733 1.867 1.867 4.667 0.267 6.667z"></path>
<path fill="#f0f1f5" d="M17.333 13.333c0 0.736-0.597 1.333-1.333 1.333s-1.333-0.597-1.333-1.333c0-0.736 0.597-1.333 1.333-1.333s1.333 0.597 1.333 1.333z"></path>
<path fill="#f0f1f5" d="M17.333 18.667c0 0.736-0.597 1.333-1.333 1.333s-1.333-0.597-1.333-1.333c0-0.736 0.597-1.333 1.333-1.333s1.333 0.597 1.333 1.333z"></path>
<path fill="#f0f1f5" d="M14.667 16c0 0.736-0.597 1.333-1.333 1.333s-1.333-0.597-1.333-1.333c0-0.736 0.597-1.333 1.333-1.333s1.333 0.597 1.333 1.333z"></path>
<path fill="#f0f1f5" d="M20 16c0 0.736-0.597 1.333-1.333 1.333s-1.333-0.597-1.333-1.333c0-0.736 0.597-1.333 1.333-1.333s1.333 0.597 1.333 1.333z"></path>
</svg>
