<!-- Generated by IcoMoon.io -->
<svg version="1.1" xmlns="http://www.w3.org/2000/svg" width="32" height="32" viewBox="0 0 32 32">
<title>ppt</title>
<path fill="#f0f1f5" d="M16.133 1.467c-0.133 0-0.4 0-0.533 0l-11.2 2.267c-1.467 0.267-2.667 1.6-2.667 3.2v18.133c0 1.6 1.067 2.933 2.667 3.2l11.067 2.267c1.467 0.267 2.667-0.667 2.933-2.133h7.733c2.267 0 4-1.867 4-4v-16.133c0-2.267-1.867-4-4-4h-7.733v-0.267c0.133-1.467-0.933-2.533-2.267-2.533zM15.867 3.6c0.267 0 0.4 0.133 0.4 0.4v24c0 0.267-0.133 0.4-0.4 0.4 0 0 0 0 0 0l-11.067-2.267c0 0 0 0 0 0-0.533-0.133-0.8-0.533-0.8-1.067v-18.133c0-0.533 0.4-0.933 0.933-1.067l10.933-2.267zM18.533 6.533h7.733c1.067 0 1.867 0.8 1.867 1.867v16.133c0 1.067-0.8 1.867-1.867 1.867h-7.733v-2.933h6.267c0.133 0 0.267 0 0.4-0.133 0.133 0 0.267-0.133 0.4-0.267s0.133-0.267 0.267-0.4c0-0.133 0.133-0.267 0.133-0.4s0-0.267-0.133-0.4c0-0.133-0.133-0.267-0.267-0.4s-0.267-0.133-0.4-0.267c-0.133 0-0.267-0.133-0.4-0.133h-6.267v-3.733c0.667 0.533 1.333 0.8 2.133 0.8 2 0 3.6-1.6 3.6-3.6h-3.6v-3.6c-0.8 0-1.6 0.267-2.133 0.8v-5.2zM22.267 9.467v3.6h3.6c0-0.933-0.4-1.867-1.067-2.533s-1.6-1.067-2.533-1.067zM8 10.933c-0.267 0-0.533 0.133-0.8 0.267s-0.267 0.533-0.267 0.8v4.933c0 0.133 0 0.267 0 0.4v3.467c0 0.133 0 0.267 0.133 0.4 0 0.133 0.133 0.267 0.267 0.4s0.267 0.133 0.4 0.267c0.133 0 0.267 0.133 0.4 0.133s0.267 0 0.4-0.133c0.133 0 0.267-0.133 0.4-0.267s0.133-0.267 0.267-0.4c0-0.133 0.133-0.267 0.133-0.4v-2.533h1.467c2 0 3.6-1.6 3.6-3.6s-1.6-3.6-3.6-3.6h-2.8zM9.067 13.067h1.467c0.8 0 1.467 0.667 1.467 1.467s-0.667 1.467-1.467 1.467h-1.467v-2.933z"></path>
</svg>
