<!-- Generated by IcoMoon.io -->
<svg version="1.1" xmlns="http://www.w3.org/2000/svg" width="32" height="32" viewBox="0 0 32 32">
<title>previous</title>
<path fill="#f0f1f5" d="M24.267 4.8l-10.667 8c-2.133 1.6-2.133 4.8 0 6.4l10.667 8c2.667 2 6.4 0.133 6.4-3.2v-16c0-3.333-3.733-5.2-6.4-3.2zM28 24c0 1.067-1.2 1.733-2.133 1.067l-10.667-8c-0.667-0.533-0.667-1.6 0-2.133l10.667-8c0.933-0.667 2.133 0 2.133 1.067v16z"></path>
<path fill="#f0f1f5" d="M5.333 4c-2.267 0-4 1.733-4 4v16c0 2.267 1.733 4 4 4s4-1.733 4-4v-16c0-2.267-1.733-4-4-4zM6.667 24c0 0.8-0.533 1.333-1.333 1.333s-1.333-0.533-1.333-1.333v-16c0-0.8 0.533-1.333 1.333-1.333s1.333 0.533 1.333 1.333v16z"></path>
</svg>
