<!-- Generated by IcoMoon.io -->
<svg version="1.1" xmlns="http://www.w3.org/2000/svg" width="32" height="32" viewBox="0 0 32 32">
<title>printer</title>
<path fill="#f0f1f5" d="M25.333 13.333h-1.333v-6.667c0-2.267-1.733-4-4-4h-8c-2.267 0-4 1.733-4 4v6.667h-1.333c-2.267 0-4 1.733-4 4v4c0 2.267 1.733 4 4 4h1.333c0 2.267 1.733 4 4 4h8c2.267 0 4-1.733 4-4h1.333c2.267 0 4-1.733 4-4v-4c0-2.267-1.733-4-4-4zM10.667 6.667c0-0.8 0.533-1.333 1.333-1.333h8c0.8 0 1.333 0.533 1.333 1.333v6.667h-10.667v-6.667zM21.333 25.333c0 0.8-0.533 1.333-1.333 1.333h-8c-0.8 0-1.333-0.533-1.333-1.333v-2.667h10.667v2.667zM26.667 21.333c0 0.8-0.533 1.333-1.333 1.333h-1.333v-2.667h-16v2.667h-1.333c-0.8 0-1.333-0.533-1.333-1.333v-4c0-0.8 0.533-1.333 1.333-1.333h18.667c0.8 0 1.333 0.533 1.333 1.333v4z"></path>
</svg>
