<!-- Generated by IcoMoon.io -->
<svg version="1.1" xmlns="http://www.w3.org/2000/svg" width="32" height="32" viewBox="0 0 32 32">
<title>ps</title>
<path fill="#f0f1f5" d="M16.933 12.4c-0.133-0.533-0.4-0.933-0.8-1.333s-0.933-0.8-1.467-0.933c-0.667-0.267-1.467-0.4-2.4-0.4-0.4 0-0.667 0-1.067 0-0.267 0-0.667 0-0.933 0-0.4 0-0.667 0-0.933 0s-0.533 0-0.667 0-0.133 0-0.133 0.133v11.6c0 0.133 0 0.133 0.133 0.133h2.133c0.133 0 0.133 0 0.133-0.133v-3.6c0.267 0 0.4 0 0.533 0s0.267 0 0.533 0c0.933 0 1.733-0.133 2.533-0.4s1.467-0.667 1.867-1.333c0.533-0.667 0.667-1.467 0.8-2.267 0-0.533-0.133-0.933-0.267-1.467zM14.267 14.8c-0.267 0.4-0.533 0.533-0.933 0.667s-0.933 0.267-1.333 0.267h-0.667c-0.133 0-0.267 0-0.4 0v-3.867c0.133 0 0.267 0 0.533 0s0.533 0 0.8 0c0.4 0 0.933 0.133 1.333 0.267 0.267 0.133 0.533 0.267 0.8 0.4 0.133 0.4 0.267 0.667 0.267 1.067 0 0.533-0.133 0.933-0.4 1.2z"></path>
<path fill="#f0f1f5" d="M24.533 20.533c-0.267 0.4-0.8 0.8-1.333 1.067s-1.2 0.4-2 0.4c-0.533 0-1.067 0-1.6-0.133-0.4-0.133-0.8-0.133-1.2-0.4-0.133 0-0.133-0.133-0.133-0.267v-2.133h0.133c0.4 0.267 0.933 0.4 1.467 0.533 0.4 0.133 0.933 0.133 1.333 0.133s0.8 0 0.933-0.133 0.267-0.267 0.267-0.533c0-0.133-0.133-0.267-0.267-0.4s-0.533-0.267-1.067-0.533c-0.533-0.267-1.067-0.533-1.6-0.8-0.4-0.267-0.667-0.533-0.933-0.933-0.133-0.4-0.267-0.8-0.267-1.2 0-0.533 0.133-0.933 0.4-1.333s0.667-0.8 1.2-1.067 1.2-0.4 2-0.4c0.533 0 0.933 0 1.467 0.133 0.4 0 0.667 0.133 0.933 0.267 0 0 0.133 0 0.133 0.133v2.133c-0.133 0-0.133 0-0.267 0-0.4-0.133-0.667-0.267-1.067-0.4s-0.8-0.133-1.333-0.133c-0.267 0-0.533 0-0.667 0.133-0.133 0-0.267 0.133-0.4 0.267 0 0.133-0.133 0.267-0.133 0.267 0 0.133 0 0.267 0.133 0.267 0.133 0.133 0.267 0.267 0.4 0.267 0.267 0.133 0.533 0.267 0.8 0.4 0.667 0.267 1.2 0.533 1.733 0.8 0.4 0.267 0.667 0.533 0.933 0.933 0.133 0.4 0.267 0.8 0.267 1.2 0.133 0.533 0 1.067-0.267 1.467z"></path>
<path fill="#f0f1f5" d="M24.933 30.667h-17.733c-3.333 0-6.133-2.8-6.133-6.133v-16.933c0-3.333 2.8-6.133 6.133-6.133h17.6c3.333 0 6.267 2.933 6.267 6.267v16.8c0 3.333-2.8 6.133-6.133 6.133zM7.2 4.133c-2 0-3.467 1.467-3.467 3.467v16.933c0 2 1.467 3.467 3.467 3.467h17.733c2 0 3.467-1.467 3.467-3.467v-16.8c0-1.867-1.733-3.6-3.6-3.6h-17.6z"></path>
</svg>
