<!-- Generated by IcoMoon.io -->
<svg version="1.1" xmlns="http://www.w3.org/2000/svg" width="32" height="32" viewBox="0 0 32 32">
<title>qrcode</title>
<path fill="#f0f1f5" d="M23.467 29.2h2.8v2.8h-2.8v-2.8z"></path>
<path fill="#f0f1f5" d="M29.2 29.2h2.8v2.8h-2.8v-2.8z"></path>
<path fill="#f0f1f5" d="M29.2 20.667h-2.8v-3.067h-8.533v14.4h2.8v-8.533h2.8v2.8h8.533v-8.533h-2.8v2.933z"></path>
<path fill="#f0f1f5" d="M17.6 0v14.4h14.4v-12.533c0-1.067-0.8-1.867-1.867-1.867h-12.533zM29.2 11.6h-8.533v-8.533h8c0.267 0 0.533 0.267 0.533 0.533v8z"></path>
<path fill="#f0f1f5" d="M23.467 5.867h2.8v2.8h-2.8v-2.8z"></path>
<path fill="#f0f1f5" d="M14.4 0v14.4h-14.4v-12.533c0-1.067 0.8-1.867 1.867-1.867h12.533zM2.8 11.6h8.533v-8.533h-8c-0.267 0-0.533 0.267-0.533 0.533v8z"></path>
<path fill="#f0f1f5" d="M8.667 5.867h-2.8v2.8h2.8v-2.8z"></path>
<path fill="#f0f1f5" d="M14.4 32v-14.4h-14.4v12.533c0 1.067 0.8 1.867 1.867 1.867h12.533zM2.8 20.4h8.533v8.533h-8c-0.267 0-0.533-0.267-0.533-0.533v-8z"></path>
<path fill="#f0f1f5" d="M8.667 26.267h-2.8v-2.8h2.8v2.8z"></path>
</svg>
