<!-- Generated by IcoMoon.io -->
<svg version="1.1" xmlns="http://www.w3.org/2000/svg" width="32" height="32" viewBox="0 0 32 32">
<title>question</title>
<path fill="#f0f1f5" d="M16 2.667c-7.333 0-13.333 6-13.333 13.333s6 13.333 13.333 13.333 13.333-6 13.333-13.333-6-13.333-13.333-13.333zM16 26.667c-5.867 0-10.667-4.8-10.667-10.667s4.8-10.667 10.667-10.667 10.667 4.8 10.667 10.667-4.8 10.667-10.667 10.667z"></path>
<path fill="#f0f1f5" d="M16 9.333c-1.467 0-2.8 0.8-3.467 2-0.4 0.667-0.133 1.467 0.533 1.867s1.467 0.133 1.867-0.533c1.333-1.867 3.733 0.667 1.733 1.867-0.4 0.267-0.8 0.533-1.2 1.067-0.4 0.4-0.667 0.933-0.667 1.733 0 0 0 0.133 0 0.133 0 0.8 0.533 1.333 1.333 1.333 1.733 0 1.067-1.467 2-2 0.933-0.8 1.867-2 1.867-3.467 0-2.267-1.733-4-4-4z"></path>
<path fill="#f0f1f5" d="M17.333 21.333c0 0.736-0.597 1.333-1.333 1.333s-1.333-0.597-1.333-1.333c0-0.736 0.597-1.333 1.333-1.333s1.333 0.597 1.333 1.333z"></path>
</svg>
