<!-- Generated by IcoMoon.io -->
<svg version="1.1" xmlns="http://www.w3.org/2000/svg" width="32" height="32" viewBox="0 0 32 32">
<title>react</title>
<path fill="#f0f1f5" d="M17.333 13.733c-1.333-0.8-2.933-0.267-3.6 0.933-0.8 1.333-0.267 2.933 0.933 3.6 1.333 0.8 2.933 0.267 3.6-0.933 0.8-1.333 0.4-2.933-0.933-3.6z"></path>
<path fill="#f0f1f5" d="M31.6 16c0-2.267-2.133-4.267-6-5.467 0.133-0.4 0.133-0.8 0.267-1.067 0.533-3.467-0.133-5.867-1.867-6.933-2-1.067-4.8-0.267-7.733 2.533-2.933-2.533-5.733-3.733-8-2.4-1.867 1.067-2.533 4-1.6 7.867-3.6 1.2-6.133 2.933-6.133 5.467 0 2.267 2.267 4.267 6.133 5.467-0.8 4-0.267 6.8 1.733 8 0.533 0.267 1.2 0.533 1.867 0.533 1.733 0 3.733-1.067 5.867-2.933 2 1.867 4 3.067 5.867 3.067 0.667 0 1.333-0.133 1.867-0.533 2-1.067 2.533-4 1.733-8 3.467-1.2 6-3.067 6-5.6zM16.133 20.133c-0.8 0-1.6 0-2.4-0.133-0.4-0.667-0.8-1.2-1.2-2-0.4-0.667-0.8-1.333-1.067-2 0.4-0.667 0.667-1.333 1.067-2s0.8-1.333 1.2-2c0.8 0 1.467-0.133 2.267-0.133s1.6 0 2.4 0.133c0.4 0.667 0.8 1.2 1.2 2 0.4 0.667 0.8 1.333 1.067 2-0.4 0.667-0.667 1.333-1.067 2s-0.8 1.333-1.2 2c-0.8 0.133-1.467 0.133-2.267 0.133zM22.533 4.933c0.533 0.267 1.067 1.6 0.667 4.133-0.133 1.2-0.533 2.533-1.067 3.867 0-0.133-0.133-0.133-0.133-0.267-1.2-2-2.533-4-4-5.6 2.133-2 3.867-2.533 4.533-2.133zM9.6 4.933c1.067-0.667 3.733 0.933 6.667 4.4-2.4 0-4.933 0.267-7.2 0.667-0.533-2.933-0.133-4.667 0.533-5.067zM3.2 16c0-1.2 2.667-2.8 7.067-3.6 0 0.133-0.133 0.133-0.133 0.267-1.2 2.133-2.133 4.267-2.8 6.267-2.8-0.933-4.133-2.133-4.133-2.933zM9.6 27.2c-0.8-0.4-1.2-2.533-0.133-6.267v0c0.133-0.533 0.4-1.2 0.533-1.733 0 0.133 0.133 0.133 0.133 0.267 1.2 2 2.533 4 4 5.6-2.133 2-3.733 2.533-4.533 2.133zM22.533 27.2c-1.067 0.667-3.733-0.933-6.667-4.4 0.133 0 0.133 0 0.267 0 2.4 0 4.667-0.267 6.933-0.667 0.533 2.933 0.133 4.667-0.533 5.067zM21.733 19.6c0-0.133 0.133-0.133 0.133-0.267 1.2-2.133 2.133-4.267 2.933-6.267 2.8 0.933 4.133 2.133 4.133 2.933 0 1.2-2.667 2.933-7.2 3.6z"></path>
</svg>
