<!-- Generated by IcoMoon.io -->
<svg version="1.1" xmlns="http://www.w3.org/2000/svg" width="32" height="32" viewBox="0 0 32 32">
<title>receipt</title>
<path fill="#f0f1f5" d="M28 2.667h-24c-0.8 0-1.333 0.533-1.333 1.333s0.533 1.333 1.333 1.333h1.333v22.933c0 0.533 0.533 0.8 0.933 0.533l3.733-1.867c0.4-0.133 0.8-0.133 1.2 0l2.933 1.467c1.067 0.533 2.4 0.533 3.6 0l2.933-1.467c0.4-0.133 0.8-0.133 1.2 0l3.733 1.867c0.4 0.267 0.933-0.133 0.933-0.533v-22.933h1.333c0.8 0 1.333-0.533 1.333-1.333s-0.4-1.333-1.2-1.333zM24 24c0 0.4-0.533 0.8-0.933 0.533-1.067-0.533-2.4-0.533-3.6 0l-2.933 1.467c-0.4 0.133-0.8 0.133-1.2 0l-2.933-1.467c-1.067-0.533-2.4-0.533-3.6 0-0.267 0.267-0.8 0-0.8-0.533v-18c0-0.4 0.267-0.667 0.667-0.667h14.667c0.4 0 0.667 0.267 0.667 0.667v18z"></path>
<path fill="#f0f1f5" d="M14.667 8h-2.667c-0.8 0-1.333 0.533-1.333 1.333s0.533 1.333 1.333 1.333h2.667c0.8 0 1.333-0.533 1.333-1.333s-0.533-1.333-1.333-1.333z"></path>
<path fill="#f0f1f5" d="M21.333 9.333c0 0.736-0.597 1.333-1.333 1.333s-1.333-0.597-1.333-1.333c0-0.736 0.597-1.333 1.333-1.333s1.333 0.597 1.333 1.333z"></path>
<path fill="#f0f1f5" d="M14.667 13.333h-2.667c-0.8 0-1.333 0.533-1.333 1.333s0.533 1.333 1.333 1.333h2.667c0.8 0 1.333-0.533 1.333-1.333s-0.533-1.333-1.333-1.333z"></path>
<path fill="#f0f1f5" d="M21.333 14.667c0 0.736-0.597 1.333-1.333 1.333s-1.333-0.597-1.333-1.333c0-0.736 0.597-1.333 1.333-1.333s1.333 0.597 1.333 1.333z"></path>
<path fill="#f0f1f5" d="M14.667 18.667h-2.667c-0.8 0-1.333 0.533-1.333 1.333s0.533 1.333 1.333 1.333h2.667c0.8 0 1.333-0.533 1.333-1.333s-0.533-1.333-1.333-1.333z"></path>
<path fill="#f0f1f5" d="M21.333 20c0 0.736-0.597 1.333-1.333 1.333s-1.333-0.597-1.333-1.333c0-0.736 0.597-1.333 1.333-1.333s1.333 0.597 1.333 1.333z"></path>
</svg>
