<!-- Generated by IcoMoon.io -->
<svg version="1.1" xmlns="http://www.w3.org/2000/svg" width="32" height="32" viewBox="0 0 32 32">
<title>route</title>
<path fill="#f0f1f5" d="M25.333 21.333c-2.267 0-4 1.733-4 4s1.733 4 4 4 4-1.733 4-4-1.733-4-4-4zM25.333 26.667c-0.8 0-1.333-0.533-1.333-1.333s0.533-1.333 1.333-1.333 1.333 0.533 1.333 1.333-0.533 1.333-1.333 1.333z"></path>
<path fill="#f0f1f5" d="M24 8.667v8.667c0 0.8 0.533 1.333 1.333 1.333s1.333-0.533 1.333-1.333v-8.667c0-3.333-2.667-6-6-6s-6 2.667-6 6v14.667c0 1.867-1.467 3.333-3.333 3.333s-3.333-1.467-3.333-3.333v-10c0-0.8-0.533-1.333-1.333-1.333s-1.333 0.533-1.333 1.333v10c0 3.333 2.667 6 6 6s6-2.667 6-6v-14.667c0-1.867 1.467-3.333 3.333-3.333s3.333 1.467 3.333 3.333z"></path>
<path fill="#f0f1f5" d="M10.133 7.333l-2.4-4c-0.533-0.933-1.733-0.933-2.267 0l-2.4 4c-0.4 0.933 0.267 2 1.2 2h4.667c1.067 0 1.733-1.067 1.2-2z"></path>
</svg>
