<!-- Generated by IcoMoon.io -->
<svg version="1.1" xmlns="http://www.w3.org/2000/svg" width="32" height="32" viewBox="0 0 32 32">
<title>safe</title>
<path fill="#f0f1f5" d="M24 2.667h-16c-2.933 0-5.333 2.4-5.333 5.333v13.333c0 2.533 1.733 4.533 4 5.2v1.467c0 0.8 0.533 1.333 1.333 1.333s1.333-0.533 1.333-1.333v-1.333h13.333v1.333c0 0.8 0.533 1.333 1.333 1.333s1.333-0.533 1.333-1.333v-1.467c2.267-0.533 4-2.667 4-5.2v-13.333c0-2.933-2.4-5.333-5.333-5.333zM26.667 21.333c0 1.467-1.2 2.667-2.667 2.667h-16c-1.467 0-2.667-1.2-2.667-2.667v-13.333c0-1.467 1.2-2.667 2.667-2.667h16c1.467 0 2.667 1.2 2.667 2.667v13.333z"></path>
<path fill="#f0f1f5" d="M21.333 13.333h-1.6c-0.4-1.2-1.333-2-2.4-2.4v-1.6c0-0.8-0.533-1.333-1.333-1.333s-1.333 0.533-1.333 1.333v1.6c-1.2 0.4-2 1.333-2.4 2.4h-1.6c-0.8 0-1.333 0.533-1.333 1.333s0.533 1.333 1.333 1.333h1.6c0.4 1.2 1.333 2 2.4 2.4v1.6c0 0.8 0.533 1.333 1.333 1.333s1.333-0.533 1.333-1.333v-1.6c1.2-0.4 2-1.333 2.4-2.4h1.6c0.8 0 1.333-0.533 1.333-1.333s-0.533-1.333-1.333-1.333zM16 16c-0.8 0-1.333-0.533-1.333-1.333s0.533-1.333 1.333-1.333 1.333 0.533 1.333 1.333-0.533 1.333-1.333 1.333z"></path>
</svg>
