<!-- Generated by IcoMoon.io -->
<svg version="1.1" xmlns="http://www.w3.org/2000/svg" width="32" height="32" viewBox="0 0 32 32">
<title>salt-shaker</title>
<path fill="#f0f1f5" d="M5.333 22.667c0 0.736-0.597 1.333-1.333 1.333s-1.333-0.597-1.333-1.333c0-0.736 0.597-1.333 1.333-1.333s1.333 0.597 1.333 1.333z"></path>
<path fill="#f0f1f5" d="M5.333 28c0 0.736-0.597 1.333-1.333 1.333s-1.333-0.597-1.333-1.333c0-0.736 0.597-1.333 1.333-1.333s1.333 0.597 1.333 1.333z"></path>
<path fill="#f0f1f5" d="M10.667 26.667c0 0.736-0.597 1.333-1.333 1.333s-1.333-0.597-1.333-1.333c0-0.736 0.597-1.333 1.333-1.333s1.333 0.597 1.333 1.333z"></path>
<path fill="#f0f1f5" d="M27.867 7.867l-3.733-3.733c-1.6-1.6-4.133-1.6-5.6 0l-10.4 10.4c-1.6 1.6-1.6 4.133 0 5.6l3.733 3.733c1.6 1.6 4.133 1.6 5.6 0l10.4-10.4c1.6-1.6 1.6-4.133 0-5.6zM15.6 22c-0.533 0.533-1.333 0.533-1.867 0l-3.733-3.733c-0.533-0.533-0.533-1.333 0-1.867l1.867-1.867 5.6 5.6-1.867 1.867zM26 11.6l-6.533 6.533-5.6-5.6 6.533-6.533c0.533-0.533 1.333-0.533 1.867 0l3.733 3.733c0.533 0.533 0.533 1.333 0 1.867z"></path>
</svg>
