<!-- Generated by IcoMoon.io -->
<svg version="1.1" xmlns="http://www.w3.org/2000/svg" width="32" height="32" viewBox="0 0 32 32">
<title>sass</title>
<path fill="#f0f1f5" d="M28.667 4.8c-0.267-1.2-1.2-2.267-2.533-3.067-2.533-1.333-6.533-1.467-10.267-0.133-2.133 0.8-6.267 2.533-9.333 5.333-2.933 2.8-3.733 5.333-3.467 6.8 0.533 2.933 3.467 4.933 5.867 6.533 0.4 0.267 0.8 0.533 1.067 0.8-1.6 0.8-4.4 2.667-5.333 4.533-0.8 1.733-0.4 3.067-0.133 3.733 0.4 0.8 0.933 1.333 1.467 1.467s1.067 0.267 1.6 0.267c2.133 0 4.267-1.2 5.6-3.2 1.2-1.867 1.333-4.133 0.933-5.733 0.667-0.133 1.333-0.133 2 0 1.733 0.133 2.533 0.8 2.933 1.333s0.533 1.067 0.4 1.333c-0.133 0.533-0.533 0.933-0.8 1.067s-0.667 0.4-0.533 0.933c0 0.133 0.267 0.8 1.067 0.667 0.533-0.133 2.267-1.067 2.4-2.933 0-1.2-0.4-2.267-1.333-3.2-1.2-1.2-2.8-1.867-4.8-1.733-1.2 0-2.133 0.133-2.8 0.267-0.667-0.667-1.467-1.333-2.267-2-1.733-1.333-3.467-2.667-3.333-4.533 0.4-2.267 2.933-4.667 7.6-6.933 4.267-2.133 7.6-2.133 9.333-1.6 0.667 0.267 1.2 0.533 1.333 0.933 0.267 0.667 0.133 1.6-0.4 2.533-1.067 1.867-3.733 4.133-7.733 4.533-2.4 0.267-3.333-0.8-3.333-0.8-0.267-0.267-0.667-0.8-1.333-0.4-0.4 0.133-0.667 0.533-0.267 1.467 0.267 0.667 1.2 1.733 2.667 2.133 1.2 0.4 4.133 0.667 7.733-0.667 3.6-1.6 7.067-5.733 6-9.733zM9.067 25.467c0.8-0.933 1.867-1.6 2.533-2 0 0.533 0 1.067-0.133 1.6 0 0.133 0 0.133-0.133 0.267 0 0.133-0.133 0.133-0.133 0.267-0.133 0.4-0.4 0.8-0.8 1.2-1.067 1.067-2.267 1.333-2.533 1.2 0-0.267 0.133-1.467 1.2-2.533z"></path>
</svg>
