<!-- Generated by IcoMoon.io -->
<svg version="1.1" xmlns="http://www.w3.org/2000/svg" width="32" height="32" viewBox="0 0 32 32">
<title>scoreboard</title>
<path fill="#f0f1f5" d="M26.667 5.333h-21.333c-2.933 0-5.333 2.4-5.333 5.333v10.667c0 2.933 2.4 5.333 5.333 5.333h21.333c2.933 0 5.333-2.4 5.333-5.333v-10.667c0-2.933-2.4-5.333-5.333-5.333zM29.333 21.333c0 1.467-1.2 2.667-2.667 2.667h-21.333c-1.467 0-2.667-1.2-2.667-2.667v-10.667c0-1.467 1.2-2.667 2.667-2.667h21.333c1.467 0 2.667 1.2 2.667 2.667v10.667z"></path>
<path fill="#f0f1f5" d="M24.667 10.667h-3.333c-0.8 0-1.333 0.533-1.333 1.333s0.533 1.333 1.333 1.333h2.667v1.333h-2c-1.067 0-2 0.933-2 2v2.667c0 1.067 0.933 2 2 2h3.333c0.8 0 1.333-0.533 1.333-1.333s-0.533-1.333-1.333-1.333h-2.667v-1.333h2c1.067 0 2-0.933 2-2v-2.667c0-1.067-0.933-2-2-2z"></path>
<path fill="#f0f1f5" d="M17.333 13.333c0 0.736-0.597 1.333-1.333 1.333s-1.333-0.597-1.333-1.333c0-0.736 0.597-1.333 1.333-1.333s1.333 0.597 1.333 1.333z"></path>
<path fill="#f0f1f5" d="M17.333 18.667c0 0.736-0.597 1.333-1.333 1.333s-1.333-0.597-1.333-1.333c0-0.736 0.597-1.333 1.333-1.333s1.333 0.597 1.333 1.333z"></path>
<path fill="#f0f1f5" d="M10.667 18.667v-6.667c0-0.8-0.533-1.333-1.333-1.333h-1.333c-0.8 0-1.333 0.533-1.333 1.333s0.533 1.333 1.333 1.333v5.333c-0.8 0-1.333 0.533-1.333 1.333s0.533 1.333 1.333 1.333h2.667c0.8 0 1.333-0.533 1.333-1.333s-0.533-1.333-1.333-1.333z"></path>
</svg>
