<!-- Generated by IcoMoon.io -->
<svg version="1.1" xmlns="http://www.w3.org/2000/svg" width="32" height="32" viewBox="0 0 32 32">
<title>serving-plate</title>
<path fill="#f0f1f5" d="M28 21.733v-1.733c0-5.333-3.6-10-8.4-11.467 0.267-0.533 0.4-1.2 0.4-1.867 0-2.267-1.733-4-4-4s-4 1.733-4 4c0 0.667 0.133 1.333 0.4 1.867-4.8 1.467-8.4 6.133-8.4 11.467v1.733c-0.8 0.4-1.333 1.333-1.333 2.267 0 2.933 2.4 5.333 5.333 5.333h16c2.933 0 5.333-2.4 5.333-5.333 0-0.933-0.533-1.867-1.333-2.267zM16 5.333c0.8 0 1.333 0.533 1.333 1.333s-0.533 1.333-1.333 1.333-1.333-0.533-1.333-1.333 0.533-1.333 1.333-1.333zM6.667 20c0-5.2 4.133-9.333 9.333-9.333s9.333 4.133 9.333 9.333v1.333h-18.667v-1.333zM24 26.667h-16c-1.467 0-2.667-1.2-2.667-2.667h21.333c0 1.467-1.2 2.667-2.667 2.667z"></path>
</svg>
