<!-- Generated by IcoMoon.io -->
<svg version="1.1" xmlns="http://www.w3.org/2000/svg" width="32" height="32" viewBox="0 0 32 32">
<title>settings-02</title>
<path fill="#f0f1f5" d="M8.667 14.667h14.667c3.333 0 6-2.667 6-6s-2.667-6-6-6h-14.667c-3.333 0-6 2.667-6 6s2.667 6 6 6zM8.667 5.333h14.667c1.867 0 3.333 1.467 3.333 3.333s-1.467 3.333-3.333 3.333h-14.667c-1.867 0-3.333-1.467-3.333-3.333s1.467-3.333 3.333-3.333z"></path>
<path fill="#f0f1f5" d="M25.333 8.667c0 1.105-0.895 2-2 2s-2-0.895-2-2c0-1.105 0.895-2 2-2s2 0.895 2 2z"></path>
<path fill="#f0f1f5" d="M23.333 17.333h-14.667c-3.333 0-6 2.667-6 6s2.667 6 6 6h14.667c3.333 0 6-2.667 6-6s-2.667-6-6-6zM23.333 26.667h-14.667c-1.867 0-3.333-1.467-3.333-3.333s1.467-3.333 3.333-3.333h14.667c1.867 0 3.333 1.467 3.333 3.333s-1.467 3.333-3.333 3.333z"></path>
<path fill="#f0f1f5" d="M10.667 23.333c0 1.105-0.895 2-2 2s-2-0.895-2-2c0-1.105 0.895-2 2-2s2 0.895 2 2z"></path>
</svg>
