<!-- Generated by IcoMoon.io -->
<svg version="1.1" xmlns="http://www.w3.org/2000/svg" width="32" height="32" viewBox="0 0 32 32">
<title>settings</title>
<path fill="#f0f1f5" d="M26.667 6.933v-2.933c0-0.8-0.533-1.333-1.333-1.333s-1.333 0.533-1.333 1.333v2.933c-1.6 0.533-2.667 2-2.667 3.733s1.067 3.2 2.667 3.733v13.6c0 0.8 0.533 1.333 1.333 1.333s1.333-0.533 1.333-1.333v-13.6c1.6-0.533 2.667-2 2.667-3.733s-1.067-3.2-2.667-3.733zM25.333 12c-0.8 0-1.333-0.533-1.333-1.333s0.533-1.333 1.333-1.333 1.333 0.533 1.333 1.333-0.533 1.333-1.333 1.333z"></path>
<path fill="#f0f1f5" d="M17.333 17.6v-13.6c0-0.8-0.533-1.333-1.333-1.333s-1.333 0.533-1.333 1.333v13.6c-1.6 0.533-2.667 2-2.667 3.733s1.067 3.2 2.667 3.733v2.933c0 0.8 0.533 1.333 1.333 1.333s1.333-0.533 1.333-1.333v-2.933c1.6-0.533 2.667-2 2.667-3.733s-1.067-3.2-2.667-3.733zM16 22.667c-0.8 0-1.333-0.533-1.333-1.333s0.533-1.333 1.333-1.333 1.333 0.533 1.333 1.333-0.533 1.333-1.333 1.333z"></path>
<path fill="#f0f1f5" d="M8 12.267v-8.267c0-0.8-0.533-1.333-1.333-1.333s-1.333 0.533-1.333 1.333v8.267c-1.6 0.533-2.667 2-2.667 3.733s1.067 3.2 2.667 3.733v8.267c0 0.8 0.533 1.333 1.333 1.333s1.333-0.533 1.333-1.333v-8.267c1.6-0.533 2.667-2 2.667-3.733s-1.067-3.2-2.667-3.733zM6.667 17.333c-0.8 0-1.333-0.533-1.333-1.333s0.533-1.333 1.333-1.333 1.333 0.533 1.333 1.333-0.533 1.333-1.333 1.333z"></path>
</svg>
