<!-- Generated by IcoMoon.io -->
<svg version="1.1" xmlns="http://www.w3.org/2000/svg" width="32" height="32" viewBox="0 0 32 32">
<title>settings-01</title>
<path fill="#f0f1f5" d="M29.333 21.333h-2.8c-0.533-2.267-2.667-4-5.2-4s-4.533 1.733-5.2 4h-13.467c-0.8 0-1.333 0.533-1.333 1.333s0.533 1.333 1.333 1.333h13.467c0.533 2.267 2.667 4 5.2 4s4.533-1.733 5.2-4h2.8c0.8 0 1.333-0.533 1.333-1.333s-0.533-1.333-1.333-1.333zM21.333 25.333c-1.467 0-2.667-1.2-2.667-2.667s1.2-2.667 2.667-2.667 2.667 1.2 2.667 2.667-1.2 2.667-2.667 2.667z"></path>
<path fill="#f0f1f5" d="M2.667 10.667h2.8c0.533 2.267 2.667 4 5.2 4s4.533-1.733 5.2-4h13.467c0.8 0 1.333-0.533 1.333-1.333s-0.533-1.333-1.333-1.333h-13.467c-0.533-2.267-2.667-4-5.2-4s-4.533 1.733-5.2 4h-2.8c-0.8 0-1.333 0.533-1.333 1.333s0.533 1.333 1.333 1.333zM10.667 6.667c1.467 0 2.667 1.2 2.667 2.667s-1.2 2.667-2.667 2.667-2.667-1.2-2.667-2.667 1.2-2.667 2.667-2.667z"></path>
</svg>
