<!-- Generated by IcoMoon.io -->
<svg version="1.1" xmlns="http://www.w3.org/2000/svg" width="32" height="32" viewBox="0 0 32 32">
<title>share-square</title>
<path fill="#f0f1f5" d="M11.998 13.387c0.039 0.735-0.525 1.363-1.26 1.403-1.004 0.053-1.798 0.119-2.42 0.184-0.834 0.088-1.341 0.6-1.425 1.337-0.121 1.058-0.226 2.66-0.226 5.023s0.105 3.964 0.226 5.023c0.084 0.738 0.59 1.249 1.423 1.337 1.459 0.154 3.87 0.307 7.684 0.307s6.226-0.153 7.684-0.307c0.833-0.088 1.339-0.599 1.423-1.337 0.121-1.058 0.226-2.66 0.226-5.023s-0.105-3.964-0.226-5.023c-0.084-0.737-0.591-1.249-1.425-1.337-0.621-0.065-1.416-0.131-2.42-0.184-0.735-0.039-1.3-0.667-1.261-1.403s0.667-1.3 1.402-1.26c1.044 0.056 1.885 0.124 2.557 0.195 1.979 0.209 3.558 1.613 3.795 3.687 0.135 1.182 0.243 2.887 0.243 5.325s-0.108 4.144-0.243 5.325c-0.237 2.072-1.812 3.477-3.792 3.686-1.575 0.166-4.083 0.322-7.964 0.322s-6.389-0.155-7.964-0.322c-1.98-0.209-3.556-1.614-3.792-3.686-0.135-1.182-0.243-2.887-0.243-5.325s0.108-4.144 0.243-5.325c0.237-2.074 1.816-3.478 3.795-3.687 0.672-0.071 1.514-0.14 2.557-0.195 0.735-0.039 1.363 0.525 1.402 1.26z"></path>
<path fill="#f0f1f5" d="M12.276 8.276c-0.521 0.521-1.365 0.521-1.886 0s-0.521-1.365 0-1.886l4.667-4.667c0.521-0.521 1.365-0.521 1.886 0l4.667 4.667c0.521 0.521 0.521 1.365 0 1.886s-1.365 0.521-1.886 0l-2.391-2.391v12.781c0 0.736-0.597 1.333-1.333 1.333s-1.333-0.597-1.333-1.333v-12.781l-2.391 2.391z"></path>
</svg>
