<!-- Generated by IcoMoon.io -->
<svg version="1.1" xmlns="http://www.w3.org/2000/svg" width="32" height="32" viewBox="0 0 32 32">
<title>shethoscope</title>
<path fill="#f0f1f5" d="M25.333 12c-2.267 0-4 1.733-4 4 0 1.733 1.067 3.2 2.667 3.733v0.933c0 3.333-2.667 6-6 6s-6-2.667-6-6v-2.133c3.733-0.667 6.667-3.867 6.667-7.867v-4.4c0-2-1.6-3.6-3.6-3.6h-0.4c-0.8 0-1.333 0.533-1.333 1.333s0.533 1.333 1.333 1.333h0.4c0.533 0 0.933 0.4 0.933 0.933v4.4c0 2.933-2.4 5.333-5.333 5.333s-5.333-2.4-5.333-5.333v-4.4c0-0.533 0.4-0.933 0.933-0.933h0.4c0.8 0 1.333-0.533 1.333-1.333s-0.533-1.333-1.333-1.333h-0.4c-2 0-3.6 1.6-3.6 3.6v4.4c0 4 2.933 7.2 6.667 7.867v2.133c0 4.8 3.867 8.667 8.667 8.667s8.667-3.867 8.667-8.667v-0.933c1.6-0.533 2.667-2 2.667-3.733 0-2.267-1.733-4-4-4zM25.333 17.333c-0.8 0-1.333-0.533-1.333-1.333s0.533-1.333 1.333-1.333 1.333 0.533 1.333 1.333-0.533 1.333-1.333 1.333z"></path>
</svg>
