<!-- Generated by IcoMoon.io -->
<svg version="1.1" xmlns="http://www.w3.org/2000/svg" width="32" height="32" viewBox="0 0 32 32">
<title>shopping-cart</title>
<path fill="#f0f1f5" d="M9.333 22.667c-2.267 0-4 1.733-4 4s1.733 4 4 4 4-1.733 4-4-1.733-4-4-4zM9.333 28c-0.8 0-1.333-0.533-1.333-1.333s0.533-1.333 1.333-1.333 1.333 0.533 1.333 1.333-0.533 1.333-1.333 1.333z"></path>
<path fill="#f0f1f5" d="M22.667 22.667c-2.267 0-4 1.733-4 4s1.733 4 4 4 4-1.733 4-4-1.733-4-4-4zM22.667 28c-0.8 0-1.333-0.533-1.333-1.333s0.533-1.333 1.333-1.333 1.333 0.533 1.333 1.333-0.533 1.333-1.333 1.333z"></path>
<path fill="#f0f1f5" d="M26.4 8h-17.6c-0.267 0-0.533-0.267-0.667-0.667v-0.667c-0.133-1.333-0.933-2.533-2.267-3.2l-1.333-0.667c-0.533-0.267-1.333 0-1.733 0.667-0.267 0.533 0 1.333 0.667 1.733l1.333 0.667c0.4 0.267 0.667 0.667 0.667 1.067l0.933 10.8c0.267 2 1.867 3.6 4 3.6h13.067c1.733 0 3.2-1.067 3.6-2.533l2.4-6.267c0.933-2.267-0.8-4.533-3.067-4.533zM27.067 11.467l-2.4 6.267c-0.133 0.4-0.667 0.8-1.2 0.8h-13.067c-0.667 0-1.333-0.533-1.333-1.2l-0.533-6c0-0.267 0.267-0.667 0.667-0.667h17.2c0.533 0 0.8 0.4 0.667 0.8z"></path>
</svg>
