<!-- Generated by IcoMoon.io -->
<svg version="1.1" xmlns="http://www.w3.org/2000/svg" width="32" height="32" viewBox="0 0 32 32">
<title>shopping-bag</title>
<path fill="#f0f1f5" d="M23.6 8h-1.067c-0.667-3.067-3.333-5.333-6.533-5.333s-5.867 2.267-6.533 5.333h-1.067c-3.067 0-5.467 2.533-5.333 5.6l0.667 10.667c0.133 2.8 2.533 5.067 5.333 5.067h14c2.8 0 5.2-2.133 5.333-5.067l0.667-10.667c0.133-3.067-2.4-5.6-5.467-5.6zM16 5.333c1.733 0 3.2 1.067 3.733 2.667h-7.467c0.533-1.6 2-2.667 3.733-2.667zM25.6 24.133c-0.133 1.467-1.2 2.533-2.667 2.533h-13.867c-1.467 0-2.533-1.067-2.667-2.533l-0.667-10.667c-0.133-1.467 1.067-2.8 2.667-2.8h0.933v1.333c0 0.8 0.533 1.333 1.333 1.333s1.333-0.533 1.333-1.333v-1.333h8v1.333c0 0.8 0.533 1.333 1.333 1.333s1.333-0.533 1.333-1.333v-1.333h0.933c1.6 0 2.8 1.333 2.667 2.8l-0.667 10.667z"></path>
</svg>
