<!-- Generated by IcoMoon.io -->
<svg version="1.1" xmlns="http://www.w3.org/2000/svg" width="32" height="32" viewBox="0 0 32 32">
<title>shop</title>
<path fill="#f0f1f5" d="M29.067 9.2c-0.133-0.4-0.267-0.8-0.533-1.2-0.4-0.8-0.8-1.467-1.2-2.133-1.067-2.133-3.333-3.2-5.467-3.2h-11.733c-2.133 0-4.4 1.067-5.6 3.2-0.4 0.533-0.8 1.333-1.067 2.133-0.267 0.4-0.4 0.8-0.533 1.2-0.133 0.267-0.267 0.8-0.267 1.467 0 1.067 0.267 2.4 1.2 3.6l0.133 0.133v9.6c0 2.933 2.4 5.333 5.333 5.333h13.333c2.933 0 5.333-2.4 5.333-5.333v-9.733l0.133-0.133c0.933-1.067 1.2-2.4 1.2-3.467 0-0.667-0.133-1.2-0.267-1.467zM17.333 26.667h-2.667v-4c0-0.8 0.533-1.333 1.333-1.333s1.333 0.533 1.333 1.333v4zM25.6 24h-0.267c0 1.467-1.2 2.667-2.667 2.667h-2.667v-4c0-2.267-1.733-4-4-4s-4 1.733-4 4v4h-2.667c-1.467 0-2.667-1.2-2.667-2.667v-8.133c0.4 0.133 0.933 0.133 1.333 0.133 1.6 0 2.8-0.667 3.6-1.333 0.267-0.267 0.667-0.267 0.933 0 0.8 0.667 2 1.333 3.6 1.333s2.8-0.667 3.6-1.333c0.267-0.267 0.667-0.267 0.933 0 0.8 0.667 2 1.333 3.6 1.333 0.4 0 0.933 0 1.333-0.133v8.133zM24 13.333c-1.467 0-2.533-1.333-2.933-2.133-0.267-0.267-0.667-0.533-1.067-0.533s-0.8 0.267-1.067 0.533c-0.4 0.8-1.467 2.133-2.933 2.133s-2.533-1.333-2.933-2.133c-0.267-0.267-0.667-0.533-1.067-0.533s-0.8 0.267-1.067 0.533c-0.4 0.8-1.467 2.133-2.933 2.133-2 0-2.667-1.333-2.667-2.667 0-0.8 0.8-2.267 1.6-3.467 0.667-1.2 1.867-1.867 3.2-1.867h11.733c1.333 0 2.533 0.667 3.333 1.867 0.667 1.2 1.467 2.667 1.467 3.467 0 1.333-0.667 2.667-2.667 2.667z"></path>
</svg>
