<!-- Generated by IcoMoon.io -->
<svg version="1.1" xmlns="http://www.w3.org/2000/svg" width="32" height="32" viewBox="0 0 32 32">
<title>shopping-basket</title>
<path fill="#f0f1f5" d="M25.333 8h-0.8l-4.933-4.933c-0.533-0.533-1.333-0.533-1.867 0s-0.533 1.333 0 1.867l3.067 3.067h-9.6l3.067-3.067c0.533-0.533 0.533-1.333 0-1.867s-1.333-0.533-1.867 0l-4.933 4.933h-0.8c-2.267 0-4 1.733-4 4 0 1.333 0.667 2.533 1.6 3.2l1.6 9.6c0.4 2.533 2.667 4.4 5.2 4.4h9.6c2.667 0 4.8-1.867 5.2-4.4l1.6-9.6c1.2-0.667 1.867-1.867 1.867-3.2 0-2.267-1.733-4-4-4zM23.467 24.4c-0.267 1.333-1.333 2.267-2.667 2.267h-9.6c-1.333 0-2.4-0.933-2.667-2.267l-1.333-7.6c0-0.4 0.267-0.8 0.8-0.8h16c0.4 0 0.667 0.4 0.667 0.8l-1.2 7.6zM25.333 13.333h-18.667c-0.8 0-1.333-0.533-1.333-1.333s0.533-1.333 1.333-1.333h18.667c0.8 0 1.333 0.533 1.333 1.333s-0.533 1.333-1.333 1.333z"></path>
<path fill="#f0f1f5" d="M13.333 18.667c-0.8 0-1.333 0.533-1.333 1.333v2.667c0 0.8 0.533 1.333 1.333 1.333s1.333-0.533 1.333-1.333v-2.667c0-0.8-0.533-1.333-1.333-1.333z"></path>
<path fill="#f0f1f5" d="M18.667 18.667c-0.8 0-1.333 0.533-1.333 1.333v2.667c0 0.8 0.533 1.333 1.333 1.333s1.333-0.533 1.333-1.333v-2.667c0-0.8-0.533-1.333-1.333-1.333z"></path>
</svg>
