<!-- Generated by IcoMoon.io -->
<svg version="1.1" xmlns="http://www.w3.org/2000/svg" width="32" height="32" viewBox="0 0 32 32">
<title>shopping-tag</title>
<path fill="#f0f1f5" d="M25.333 2.667h-7.733c-1.467 0-2.8 0.533-3.733 1.6l-10.267 10.267c-1.6 1.6-1.6 4.133 0 5.6l8.267 8.267c1.6 1.6 4.133 1.6 5.6 0l10.267-10.267c1.067-1.067 1.6-2.4 1.6-3.733v-7.733c0-2.267-1.733-4-4-4zM15.6 26.533c-0.533 0.533-1.333 0.533-1.867 0l-8.267-8.267c-0.533-0.533-0.533-1.333 0-1.867l1.2-1.2 10.133 10.133-1.2 1.2zM26.667 14.4c0 0.667-0.267 1.333-0.8 1.867l-7.2 7.2-10.133-10.133 7.2-7.2c0.533-0.533 1.2-0.8 1.867-0.8h7.733c0.8 0 1.333 0.533 1.333 1.333v7.733z"></path>
<path fill="#f0f1f5" d="M20 8c-2.267 0-4 1.733-4 4s1.733 4 4 4 4-1.733 4-4c0-2.267-1.733-4-4-4zM20 13.333c-0.8 0-1.333-0.533-1.333-1.333s0.533-1.333 1.333-1.333 1.333 0.533 1.333 1.333-0.533 1.333-1.333 1.333z"></path>
</svg>
