<!-- Generated by IcoMoon.io -->
<svg version="1.1" xmlns="http://www.w3.org/2000/svg" width="32" height="32" viewBox="0 0 32 32">
<title>shorts</title>
<path fill="#f0f1f5" d="M29.6 9.067c-0.267-2.933-2.533-5.067-5.333-5.067h-16.533c-2.8 0-5.067 2.133-5.333 5.067l-0.133 1.6-0.133 2.667-0.533 9.067c-0.133 3.067 2.267 5.6 5.333 5.6h3.067c2.667 0 4.8-1.867 5.2-4.4l0.533-3.333c0-0.133 0.133-0.267 0.267-0.267s0.267 0.133 0.267 0.267l0.533 3.333c0.4 2.533 2.667 4.4 5.2 4.4h3.067c3.067 0 5.467-2.533 5.333-5.6l-0.8-13.333zM5.067 9.2c0.133-1.467 1.333-2.533 2.667-2.533h16.533c1.467 0 2.533 1.067 2.667 2.533v1.467h-21.867v-1.467zM25.067 25.333h-3.067c-1.333 0-2.4-0.933-2.667-2.267l-0.533-3.333c-0.133-1.333-1.333-2.4-2.8-2.4s-2.667 1.067-2.933 2.4l-0.533 3.333c-0.267 1.333-1.333 2.267-2.667 2.267h-2.933c-1.6 0-2.8-1.333-2.667-2.8l0.533-9.2h22.267l0.533 9.2c0.267 1.467-0.933 2.8-2.533 2.8z"></path>
</svg>
