<!-- Generated by IcoMoon.io -->
<svg version="1.1" xmlns="http://www.w3.org/2000/svg" width="32" height="32" viewBox="0 0 32 32">
<title>sign-out</title>
<path fill="#f0f1f5" d="M14.706 20.001c0.736-0.028 1.355 0.546 1.383 1.282 0.063 1.659 0.151 2.87 0.237 3.738 0.085 0.855 0.601 1.369 1.321 1.457 0.848 0.104 2.045 0.189 3.687 0.189s2.839-0.085 3.687-0.189c0.719-0.088 1.235-0.603 1.321-1.458 0.161-1.611 0.325-4.395 0.325-9.020s-0.165-7.409-0.325-9.020c-0.085-0.855-0.601-1.37-1.321-1.458-0.848-0.104-2.045-0.189-3.687-0.189s-2.839 0.085-3.687 0.189c-0.719 0.088-1.235 0.602-1.321 1.457-0.087 0.868-0.174 2.079-0.237 3.738-0.028 0.736-0.647 1.31-1.383 1.282s-1.31-0.647-1.282-1.383c0.064-1.703 0.155-2.969 0.248-3.902 0.195-1.96 1.562-3.585 3.651-3.84 0.972-0.119 2.279-0.208 4.011-0.208s3.039 0.089 4.011 0.208c2.089 0.255 3.455 1.88 3.651 3.84 0.172 1.726 0.339 4.603 0.339 9.285s-0.167 7.559-0.339 9.285c-0.195 1.96-1.562 3.585-3.651 3.84-0.972 0.119-2.279 0.208-4.011 0.208s-3.039-0.089-4.011-0.208c-2.089-0.255-3.455-1.88-3.651-3.84-0.093-0.932-0.184-2.199-0.248-3.902-0.028-0.736 0.546-1.355 1.282-1.383z"></path>
<path fill="#f0f1f5" d="M9.609 19.724c0.521 0.521 0.521 1.365 0 1.886s-1.365 0.521-1.886 0l-4.667-4.667c-0.521-0.521-0.521-1.365 0-1.886l4.667-4.667c0.521-0.521 1.365-0.521 1.886 0s0.521 1.365 0 1.886l-2.391 2.391h12.781c0.736 0 1.333 0.597 1.333 1.333s-0.597 1.333-1.333 1.333h-12.781l2.391 2.391z"></path>
</svg>
