<!-- Generated by IcoMoon.io -->
<svg version="1.1" xmlns="http://www.w3.org/2000/svg" width="32" height="32" viewBox="0 0 32 32">
<title>signal</title>
<path fill="#f0f1f5" d="M22.667 9.333c-0.736 0-1.333 0.597-1.333 1.333v16c0 0.736 0.597 1.333 1.333 1.333s1.333-0.597 1.333-1.333v-16c0-0.736-0.597-1.333-1.333-1.333z"></path>
<path fill="#f0f1f5" d="M16 14.667c-0.736 0-1.333 0.597-1.333 1.333v10.667c0 0.736 0.597 1.333 1.333 1.333s1.333-0.597 1.333-1.333v-10.667c0-0.736-0.597-1.333-1.333-1.333z"></path>
<path fill="#f0f1f5" d="M8 21.333c0-0.736 0.597-1.333 1.333-1.333s1.333 0.597 1.333 1.333v5.333c0 0.736-0.597 1.333-1.333 1.333s-1.333-0.597-1.333-1.333v-5.333z"></path>
<path fill="#f0f1f5" d="M2.667 25.333c-0.736 0-1.333 0.597-1.333 1.333s0.597 1.333 1.333 1.333c0.736 0 1.333-0.597 1.333-1.333s-0.597-1.333-1.333-1.333z"></path>
<path fill="#f0f1f5" d="M28 5.333c0-0.736 0.597-1.333 1.333-1.333s1.333 0.597 1.333 1.333v21.333c0 0.736-0.597 1.333-1.333 1.333s-1.333-0.597-1.333-1.333v-21.333z"></path>
</svg>
