<!-- Generated by IcoMoon.io -->
<svg version="1.1" xmlns="http://www.w3.org/2000/svg" width="32" height="32" viewBox="0 0 32 32">
<title>sketch</title>
<path fill="#f0f1f5" d="M16.133 2.533l8 0.933c0.133 0 0.267 0.133 0.4 0.267l6 8.133c0.133 0.133 0.133 0.533 0 0.667l-14.267 16.8c-0.133 0.133-0.267 0.133-0.4 0 0 0 0 0 0 0l-14.4-16.8c-0.133-0.133-0.133-0.533 0-0.667l6-8.133c0.133-0.133 0.267-0.267 0.4-0.267l8-0.933c0.133 0 0.133 0 0.267 0zM17.733 4.267c0 0-0.133 0-0.133 0s0 0.133 0 0.133v0l4.533 5.6c0 0 0.133 0.133 0.133 0.133 0 0.133-0.133 0.267-0.267 0.267v0h-11.867c0 0.267-0.133 0.267-0.133 0.133-0.133-0.133-0.133-0.267 0-0.4v0l4.533-5.6c0 0 0-0.133 0-0.133s-0.133 0-0.133 0v0l-6.267 6.133c0 0-0.133 0.133-0.133 0.133-0.133 0-0.267-0.133-0.267-0.267v0l0.267-4.533c0 0 0-0.133-0.133-0.133 0 0-0.133 0-0.133 0.133v0l-1.2 5.067c0 0.133-0.133 0.267-0.4 0.4v0l-2.933 0.667c0 0-0.133 0-0.133 0.133 0 0 0 0.133 0.133 0.133v0h2.933c0.133 0 0.267 0.133 0.4 0.267v0l6.933 12.267c0 0.133 0.133 0.133 0.267 0.133s0.133-0.133 0.133-0.267v0l-5.6-12c0 0 0-0.133 0-0.133 0-0.133 0.133-0.4 0.4-0.4v0h14.933c0 0 0.133 0 0.133 0 0.133 0.133 0.267 0.267 0.133 0.533v0l-5.6 11.867c0 0.133 0 0.133 0.133 0.267 0.133 0 0.133 0 0.267 0v0l6.933-12.267c0.133-0.133 0.267-0.267 0.4-0.267v0h2.933c0 0 0.133 0 0.133-0.133 0 0 0-0.133-0.133-0.133v0l-2.933-0.667c-0.133 0-0.267-0.133-0.4-0.4v0l-1.2-5.2c0 0 0-0.133-0.133-0.133 0 0-0.133 0-0.133 0.133v0l0.267 4.533c0 0.133 0 0.133-0.133 0.133-0.133 0.133-0.267 0.133-0.267 0v0l-6.267-6.133z"></path>
</svg>
