<!-- Generated by IcoMoon.io -->
<svg version="1.1" xmlns="http://www.w3.org/2000/svg" width="32" height="32" viewBox="0 0 32 32">
<title>slice-tool</title>
<path fill="#f0f1f5" d="M28 4c-1.867-1.867-4.8-1.867-6.667 0l-18.267 18.267c-2.133 2.133-0.667 5.733 2.267 5.733h8c2.267 0 4-1.733 4-4v-2.667l10.667-10.667c1.867-1.867 1.867-4.8 0-6.667zM14.667 24c0 0.8-0.533 1.333-1.333 1.333h-8c-0.533 0-0.933-0.667-0.533-1.2l6.267-6.267 3.6 3.467v2.667zM26.133 8.8l-10 10-2.933-2.933 10-10c0.8-0.8 2.133-0.8 2.933 0s0.8 2.133 0 2.933z"></path>
</svg>
