<!-- Generated by IcoMoon.io -->
<svg version="1.1" xmlns="http://www.w3.org/2000/svg" width="32" height="32" viewBox="0 0 32 32">
<title>smart-watch</title>
<path fill="#f0f1f5" d="M26.667 13.333v-2.667c0-2.533-1.733-4.533-4-5.2v-1.467c0-2.267-1.733-4-4-4h-5.333c-2.267 0-4 1.733-4 4v1.467c-2.267 0.667-4 2.667-4 5.2v10.667c0 2.533 1.733 4.533 4 5.2v1.467c0 2.267 1.733 4 4 4h5.333c2.267 0 4-1.733 4-4v-1.467c2.267-0.533 4-2.667 4-5.2v-2.667c0.8 0 1.333-0.533 1.333-1.333v-2.667c0-0.8-0.533-1.333-1.333-1.333zM12 4c0-0.8 0.533-1.333 1.333-1.333h5.333c0.8 0 1.333 0.533 1.333 1.333v1.333h-8v-1.333zM20 28c0 0.8-0.533 1.333-1.333 1.333h-5.333c-0.8 0-1.333-0.533-1.333-1.333v-1.333h8v1.333zM24 21.333c0 1.467-1.2 2.667-2.667 2.667h-10.667c-1.467 0-2.667-1.2-2.667-2.667v-10.667c0-1.467 1.2-2.667 2.667-2.667h10.667c1.467 0 2.667 1.2 2.667 2.667v10.667z"></path>
</svg>
