<!-- Generated by IcoMoon.io -->
<svg version="1.1" xmlns="http://www.w3.org/2000/svg" width="32" height="32" viewBox="0 0 32 32">
<title>smile</title>
<path fill="#f0f1f5" d="M16 2.667c-7.333 0-13.333 6-13.333 13.333s6 13.333 13.333 13.333 13.333-6 13.333-13.333-6-13.333-13.333-13.333zM16 26.667c-5.867 0-10.667-4.8-10.667-10.667s4.8-10.667 10.667-10.667 10.667 4.8 10.667 10.667-4.8 10.667-10.667 10.667z"></path>
<path fill="#f0f1f5" d="M21.6 17.333c-0.667-0.133-1.467 0.267-1.6 0.933-0.133 0.8-0.667 1.6-1.467 2.133-0.667 0.533-1.6 0.8-2.667 0.8s-1.867-0.267-2.667-0.8c-0.667-0.533-1.2-1.333-1.467-2.133-0.133-0.667-0.933-1.2-1.6-0.933-0.667 0.133-1.2 0.933-0.933 1.6 0.4 1.467 1.2 2.667 2.4 3.6s2.667 1.333 4.267 1.333 3.067-0.533 4.267-1.333c1.2-0.933 2.133-2.133 2.4-3.6 0.267-0.667-0.133-1.333-0.933-1.6z"></path>
<path fill="#f0f1f5" d="M10.4 14.667c0.667 0.133 1.467-0.4 1.6-1.067 0 0 0 0 0-0.133 0 0 0 0 0 0.133 0.133 0.667 0.8 1.2 1.6 1.067 0.667-0.133 1.2-0.8 1.067-1.6-0.133-0.667-0.4-1.2-0.8-1.6-0.533-0.533-1.2-0.8-1.867-0.8s-1.333 0.267-1.733 0.8c-0.533 0.4-0.8 1.067-0.933 1.6-0.133 0.8 0.4 1.467 1.067 1.6z"></path>
<path fill="#f0f1f5" d="M18.4 14.667c0.667 0.133 1.467-0.4 1.6-1.067 0 0 0 0 0-0.133 0 0 0 0 0 0.133 0.133 0.667 0.8 1.2 1.6 1.067 0.667-0.133 1.2-0.8 1.067-1.6-0.133-0.667-0.4-1.2-0.8-1.6-0.533-0.533-1.2-0.8-1.867-0.8s-1.333 0.267-1.733 0.8c-0.4 0.4-0.8 1.067-0.8 1.6-0.267 0.8 0.267 1.467 0.933 1.6z"></path>
</svg>
