<!-- Generated by IcoMoon.io -->
<svg version="1.1" xmlns="http://www.w3.org/2000/svg" width="32" height="32" viewBox="0 0 32 32">
<title>soccer-field</title>
<path fill="#f0f1f5" d="M26.667 5.333h-21.333c-2.933 0-5.333 2.4-5.333 5.333v10.667c0 2.933 2.4 5.333 5.333 5.333h21.333c2.933 0 5.333-2.4 5.333-5.333v-10.667c0-2.933-2.4-5.333-5.333-5.333zM2.667 13.333h1.333c0.8 0 1.333 0.533 1.333 1.333v2.667c0 0.8-0.533 1.333-1.333 1.333h-1.333v-5.333zM14.667 24h-9.333c-1.467 0-2.667-1.2-2.667-2.667h1.333c2.267 0 4-1.733 4-4v-2.667c0-2.267-1.733-4-4-4h-1.333c0-1.467 1.2-2.667 2.667-2.667h9.333v2.8c-2.267 0.533-4 2.667-4 5.2s1.733 4.533 4 5.2v2.8zM16 18.667c-1.467 0-2.667-1.2-2.667-2.667s1.2-2.667 2.667-2.667 2.667 1.2 2.667 2.667-1.2 2.667-2.667 2.667zM29.333 18.667h-1.333c-0.8 0-1.333-0.533-1.333-1.333v-2.667c0-0.8 0.533-1.333 1.333-1.333h1.333v5.333zM28 10.667c-2.267 0-4 1.733-4 4v2.667c0 2.267 1.733 4 4 4h1.333c0 1.467-1.2 2.667-2.667 2.667h-9.333v-2.8c2.267-0.533 4-2.667 4-5.2s-1.733-4.533-4-5.2v-2.8h9.333c1.467 0 2.667 1.2 2.667 2.667h-1.333z"></path>
</svg>
