<!-- Generated by IcoMoon.io -->
<svg version="1.1" xmlns="http://www.w3.org/2000/svg" width="32" height="32" viewBox="0 0 32 32">
<title>soundcloud</title>
<path fill="#f0f1f5" d="M26.533 11.067c-0.8-3.333-3.733-5.733-7.2-5.733-1.867 0-3.333 1.467-3.333 3.333v14c0 2.267 1.733 4 4 4h4c4.4 0 8-3.6 8-8 0-3.6-2.267-6.533-5.467-7.6zM24 24h-4c-0.8 0-1.333-0.533-1.333-1.333v-14c0-0.4 0.267-0.667 0.667-0.667 2.267 0 4.133 1.6 4.533 3.6l0.4 1.467 1.467 0.533c2.133 0.667 3.733 2.667 3.733 5.067-0.133 2.933-2.533 5.333-5.467 5.333z"></path>
<path fill="#f0f1f5" d="M12 10.667c-0.8 0-1.333 0.533-1.333 1.333v13.333c0 0.8 0.533 1.333 1.333 1.333s1.333-0.533 1.333-1.333v-13.333c0-0.8-0.533-1.333-1.333-1.333z"></path>
<path fill="#f0f1f5" d="M6.667 14.667c-0.8 0-1.333 0.533-1.333 1.333v9.333c0 0.8 0.533 1.333 1.333 1.333s1.333-0.533 1.333-1.333v-9.333c0-0.8-0.533-1.333-1.333-1.333z"></path>
<path fill="#f0f1f5" d="M1.333 18.667c-0.8 0-1.333 0.533-1.333 1.333v5.333c0 0.8 0.533 1.333 1.333 1.333s1.333-0.533 1.333-1.333v-5.333c0-0.8-0.533-1.333-1.333-1.333z"></path>
</svg>
