<!-- Generated by IcoMoon.io -->
<svg version="1.1" xmlns="http://www.w3.org/2000/svg" width="32" height="32" viewBox="0 0 32 32">
<title>soup</title>
<path fill="#f0f1f5" d="M25.333 13.333h-18.667c-2.267 0-4 1.733-4 4 0 6.667 5.333 12 12 12h2.667c6.667 0 12-5.333 12-12 0-2.267-1.733-4-4-4zM17.333 26.667h-2.667c-3.733 0-6.933-2.133-8.4-5.333h19.6c-1.6 3.2-4.8 5.333-8.533 5.333zM26.533 18.667h-21.067c-0.133-0.4-0.133-0.933-0.133-1.333 0-0.8 0.533-1.333 1.333-1.333h18.667c0.8 0 1.333 0.533 1.333 1.333 0 0.4 0 0.933-0.133 1.333z"></path>
<path fill="#f0f1f5" d="M10.667 10.667c0.8 0 1.333-0.533 1.333-1.333 0-1.067 0.267-1.467 0.533-2v0c0.4-0.8 0.8-1.733 0.8-3.333 0-0.8-0.533-1.333-1.333-1.333s-1.333 0.533-1.333 1.333c0 1.067-0.267 1.467-0.533 2v0c-0.4 0.8-0.8 1.733-0.8 3.333 0 0.8 0.533 1.333 1.333 1.333z"></path>
<path fill="#f0f1f5" d="M16 10.667c0.8 0 1.333-0.533 1.333-1.333 0-1.067 0.267-1.467 0.533-2v0c0.4-0.8 0.8-1.733 0.8-3.333 0-0.8-0.533-1.333-1.333-1.333s-1.333 0.533-1.333 1.333c0 1.067-0.267 1.467-0.533 2v0c-0.4 0.8-0.8 1.733-0.8 3.333 0 0.8 0.533 1.333 1.333 1.333z"></path>
<path fill="#f0f1f5" d="M21.333 10.667c0.8 0 1.333-0.533 1.333-1.333 0-1.067 0.267-1.467 0.533-2v0c0.4-0.8 0.8-1.733 0.8-3.333 0-0.8-0.533-1.333-1.333-1.333s-1.333 0.533-1.333 1.333c0 1.067-0.267 1.467-0.533 2v0c-0.4 0.8-0.8 1.733-0.8 3.333 0 0.8 0.533 1.333 1.333 1.333z"></path>
</svg>
