<!-- Generated by IcoMoon.io -->
<svg version="1.1" xmlns="http://www.w3.org/2000/svg" width="32" height="32" viewBox="0 0 32 32">
<title>speakers</title>
<path fill="#f0f1f5" d="M21.333 0h-10.667c-2.933 0-5.333 2.4-5.333 5.333v21.333c0 2.933 2.4 5.333 5.333 5.333h10.667c2.933 0 5.333-2.4 5.333-5.333v-21.333c0-2.933-2.4-5.333-5.333-5.333zM24 26.667c0 1.467-1.2 2.667-2.667 2.667h-10.667c-1.467 0-2.667-1.2-2.667-2.667v-21.333c0-1.467 1.2-2.667 2.667-2.667h10.667c1.467 0 2.667 1.2 2.667 2.667v21.333z"></path>
<path fill="#f0f1f5" d="M16 16c-2.933 0-5.333 2.4-5.333 5.333s2.4 5.333 5.333 5.333c2.933 0 5.333-2.4 5.333-5.333s-2.4-5.333-5.333-5.333zM16 24c-1.467 0-2.667-1.2-2.667-2.667s1.2-2.667 2.667-2.667 2.667 1.2 2.667 2.667-1.2 2.667-2.667 2.667z"></path>
<path fill="#f0f1f5" d="M16 13.333c2.267 0 4-1.733 4-4s-1.733-4-4-4-4 1.733-4 4 1.733 4 4 4zM16 8c0.8 0 1.333 0.533 1.333 1.333s-0.533 1.333-1.333 1.333-1.333-0.533-1.333-1.333 0.533-1.333 1.333-1.333z"></path>
</svg>
