<!-- Generated by IcoMoon.io -->
<svg version="1.1" xmlns="http://www.w3.org/2000/svg" width="32" height="32" viewBox="0 0 32 32">
<title>sports-flag</title>
<path fill="#f0f1f5" d="M24 13.333l2.133-4.133c0.8-1.733-0.4-3.867-2.4-3.867h-6.533c-0.533-1.6-2-2.667-3.733-2.667h-5.467v-1.333c0-0.8-0.533-1.333-1.333-1.333s-1.333 0.533-1.333 1.333v29.333c0 0.8 0.533 1.333 1.333 1.333s1.333-0.533 1.333-1.333v-12h6.933c0.533 1.6 2 2.667 3.733 2.667h5.067c2 0 3.333-2.133 2.4-3.867l-2.133-4.133zM14.667 16h-6.667v-10.667h5.333c0.8 0 1.333 0.533 1.333 1.333v9.333zM23.733 18.667h-5.067c-0.8 0-1.333-0.533-1.333-1.333v-9.333h6.4l-2.667 5.333 2.667 5.333z"></path>
</svg>
