<!-- Generated by IcoMoon.io -->
<svg version="1.1" xmlns="http://www.w3.org/2000/svg" width="32" height="32" viewBox="0 0 32 32">
<title>stacked-area-up</title>
<path fill="#f0f1f5" d="M22.8 4l-2.667 2.267c-0.267 0.267-0.667 0.4-1.067 0.267l-5.867-1.067c-0.933-0.133-2 0.133-2.8 0.667l-6 4c-1.067 0.667-1.733 2-1.733 3.333v11.867c0 2.267 1.733 4 4 4h18.667c2.267 0 4-1.733 4-4v-18.267c0-3.467-4-5.333-6.533-3.067zM26.667 25.333c0 0.8-0.533 1.333-1.333 1.333h-18.667c-0.8 0-1.333-0.533-1.333-1.333v-3.2l6.533-3.2c0.267-0.133 0.533-0.133 0.8-0.133l6.267 1.067c0.8 0.133 1.733 0 2.4-0.4l5.333-2.667v8.533zM26.667 13.867l-6.533 3.2c-0.267 0.133-0.533 0.133-0.8 0.133l-6.267-1.067c-0.8-0.133-1.733 0-2.4 0.4l-5.333 2.667v-5.733c0-0.4 0.267-0.8 0.533-1.067l6-4c0.267-0.133 0.667-0.267 0.933-0.267l5.733 0.933c1.2 0.133 2.267-0.133 3.2-0.933l2.667-2.267c0.933-0.533 2.267 0 2.267 1.2v6.8z"></path>
</svg>
