<!-- Generated by IcoMoon.io -->
<svg version="1.1" xmlns="http://www.w3.org/2000/svg" width="32" height="32" viewBox="0 0 32 32">
<title>stacked-area-down</title>
<path fill="#f0f1f5" d="M27.6 10.133l-6-4c-0.8-0.533-1.867-0.8-2.933-0.667l-5.733 1.067c-0.4 0-0.8 0-1.067-0.267l-2.667-2.267c-2.533-2.267-6.533-0.4-6.533 3.067v18.267c0 2.267 1.733 4 4 4h18.667c2.267 0 4-1.733 4-4v-11.867c0-1.333-0.667-2.667-1.733-3.333zM26.667 25.333c0 0.8-0.533 1.333-1.333 1.333h-18.667c-0.8 0-1.333-0.533-1.333-1.333v-8.533l5.333 2.667c0.8 0.4 1.6 0.533 2.4 0.4l6.267-1.067c0.267 0 0.533 0 0.8 0.133l6.533 3.2v3.2zM26.667 19.2l-5.333-2.667c-0.8-0.4-1.6-0.533-2.4-0.4l-6.267 1.067c-0.267 0-0.533 0-0.8-0.133l-6.533-3.2v-6.8c0-1.2 1.333-1.733 2.133-1.067l2.667 2.267c0.933 0.667 2.133 1.067 3.333 0.8l5.733-0.933c0.4 0 0.667 0 0.933 0.267l6 4c0.4 0.267 0.533 0.667 0.533 1.067v5.733z"></path>
</svg>
