<!-- Generated by IcoMoon.io -->
<svg version="1.1" xmlns="http://www.w3.org/2000/svg" width="32" height="32" viewBox="0 0 32 32">
<title>stacked-column-01-up</title>
<path fill="#f0f1f5" d="M28 14.667c-0.736 0-1.333 0.597-1.333 1.333v12c0 0.736 0.597 1.333 1.333 1.333s1.333-0.597 1.333-1.333v-12c0-0.736-0.597-1.333-1.333-1.333z"></path>
<path fill="#f0f1f5" d="M18.667 18.667c0-0.736 0.597-1.333 1.333-1.333s1.333 0.597 1.333 1.333v9.333c0 0.736-0.597 1.333-1.333 1.333s-1.333-0.597-1.333-1.333v-9.333z"></path>
<path fill="#f0f1f5" d="M12 20c-0.736 0-1.333 0.597-1.333 1.333v6.667c0 0.736 0.597 1.333 1.333 1.333s1.333-0.597 1.333-1.333v-6.667c0-0.736-0.597-1.333-1.333-1.333z"></path>
<path fill="#f0f1f5" d="M4 22.667c-0.736 0-1.333 0.597-1.333 1.333v4c0 0.736 0.597 1.333 1.333 1.333s1.333-0.597 1.333-1.333v-4c0-0.736-0.597-1.333-1.333-1.333z"></path>
<path fill="#f0f1f5" d="M4 2.667c-0.736 0-1.333 0.597-1.333 1.333v14.667c0 0.736 0.597 1.333 1.333 1.333s1.333-0.597 1.333-1.333v-14.667c0-0.736-0.597-1.333-1.333-1.333z"></path>
<path fill="#f0f1f5" d="M12 2.667c-0.736 0-1.333 0.597-1.333 1.333v12c0 0.736 0.597 1.333 1.333 1.333s1.333-0.597 1.333-1.333v-12c0-0.736-0.597-1.333-1.333-1.333z"></path>
<path fill="#f0f1f5" d="M18.667 4c0-0.736 0.597-1.333 1.333-1.333s1.333 0.597 1.333 1.333v9.333c0 0.736-0.597 1.333-1.333 1.333s-1.333-0.597-1.333-1.333v-9.333z"></path>
<path fill="#f0f1f5" d="M28 2.667c-0.736 0-1.333 0.597-1.333 1.333v6.667c0 0.736 0.597 1.333 1.333 1.333s1.333-0.597 1.333-1.333v-6.667c0-0.736-0.597-1.333-1.333-1.333z"></path>
</svg>
