<!-- Generated by IcoMoon.io -->
<svg version="1.1" xmlns="http://www.w3.org/2000/svg" width="32" height="32" viewBox="0 0 32 32">
<title>stacked-column-01-average</title>
<path fill="#f0f1f5" d="M12 13.333c-0.736 0-1.333 0.597-1.333 1.333v13.333c0 0.736 0.597 1.333 1.333 1.333s1.333-0.597 1.333-1.333v-13.333c0-0.736-0.597-1.333-1.333-1.333z"></path>
<path fill="#f0f1f5" d="M4 16c-0.736 0-1.333 0.597-1.333 1.333v10.667c0 0.736 0.597 1.333 1.333 1.333s1.333-0.597 1.333-1.333v-10.667c0-0.736-0.597-1.333-1.333-1.333z"></path>
<path fill="#f0f1f5" d="M26.667 16c0-0.736 0.597-1.333 1.333-1.333s1.333 0.597 1.333 1.333v12c0 0.736-0.597 1.333-1.333 1.333s-1.333-0.597-1.333-1.333v-12z"></path>
<path fill="#f0f1f5" d="M20 17.333c-0.736 0-1.333 0.597-1.333 1.333v9.333c0 0.736 0.597 1.333 1.333 1.333s1.333-0.597 1.333-1.333v-9.333c0-0.736-0.597-1.333-1.333-1.333z"></path>
<path fill="#f0f1f5" d="M4 2.667c-0.736 0-1.333 0.597-1.333 1.333v8c0 0.736 0.597 1.333 1.333 1.333s1.333-0.597 1.333-1.333v-8c0-0.736-0.597-1.333-1.333-1.333z"></path>
<path fill="#f0f1f5" d="M12 2.667c-0.736 0-1.333 0.597-1.333 1.333v5.333c0 0.736 0.597 1.333 1.333 1.333s1.333-0.597 1.333-1.333v-5.333c0-0.736-0.597-1.333-1.333-1.333z"></path>
<path fill="#f0f1f5" d="M26.667 4c0-0.736 0.597-1.333 1.333-1.333s1.333 0.597 1.333 1.333v6.667c0 0.736-0.597 1.333-1.333 1.333s-1.333-0.597-1.333-1.333v-6.667z"></path>
<path fill="#f0f1f5" d="M20 2.667c-0.736 0-1.333 0.597-1.333 1.333v9.333c0 0.736 0.597 1.333 1.333 1.333s1.333-0.597 1.333-1.333v-9.333c0-0.736-0.597-1.333-1.333-1.333z"></path>
</svg>
