<!-- Generated by IcoMoon.io -->
<svg version="1.1" xmlns="http://www.w3.org/2000/svg" width="32" height="32" viewBox="0 0 32 32">
<title>standings</title>
<path fill="#f0f1f5" d="M26.667 10.667h-2.667c-2.267 0-4 1.733-4 4h-2.667v-2.667c0-2.267-1.733-4-4-4h-1.333c0-2.267-1.733-4-4-4h-2.667c-2.267 0-4 1.733-4 4v2.667c0 2.267 1.733 4 4 4h2.667c2.267 0 4-1.733 4-4h1.333c0.8 0 1.333 0.533 1.333 1.333v8c0 0.8-0.533 1.333-1.333 1.333h-1.333c0-2.267-1.733-4-4-4h-2.667c-2.267 0-4 1.733-4 4v2.667c0 2.267 1.733 4 4 4h2.667c2.267 0 4-1.733 4-4h1.333c2.267 0 4-1.733 4-4v-2.667h2.667c0 2.267 1.733 4 4 4h2.667c2.267 0 4-1.733 4-4v-2.667c0-2.267-1.733-4-4-4zM9.333 10.667c0 0.8-0.533 1.333-1.333 1.333h-2.667c-0.8 0-1.333-0.533-1.333-1.333v-2.667c0-0.8 0.533-1.333 1.333-1.333h2.667c0.8 0 1.333 0.533 1.333 1.333v2.667zM9.333 24c0 0.8-0.533 1.333-1.333 1.333h-2.667c-0.8 0-1.333-0.533-1.333-1.333v-2.667c0-0.8 0.533-1.333 1.333-1.333h2.667c0.8 0 1.333 0.533 1.333 1.333v2.667zM28 17.333c0 0.8-0.533 1.333-1.333 1.333h-2.667c-0.8 0-1.333-0.533-1.333-1.333v-2.667c0-0.8 0.533-1.333 1.333-1.333h2.667c0.8 0 1.333 0.533 1.333 1.333v2.667z"></path>
</svg>
