<!-- Generated by IcoMoon.io -->
<svg version="1.1" xmlns="http://www.w3.org/2000/svg" width="32" height="32" viewBox="0 0 32 32">
<title>star-2</title>
<path fill="#f0f1f5" d="M27.333 15.2c0.533-0.4 0.667-1.067 0.533-1.733-0.267-0.667-0.8-1.067-1.467-1.067l-6.4-0.533c-0.133 0-0.133-0.133-0.133-0.133l-2.4-5.867c-0.267-0.667-0.8-1.067-1.467-1.067s-1.333 0.4-1.467 1.067l-2.4 5.867c-0.133 0-0.133 0.133-0.267 0.133l-6.267 0.533c-0.667 0-1.2 0.4-1.467 1.067s0 1.333 0.533 1.733l4.933 4.133c0.133 0.133 0.133 0.133 0.133 0.267l-1.467 6.133c-0.267 0.667 0 1.333 0.533 1.733 0.267 0.267 0.667 0.4 1.067 0.4 0.267 0 0.533-0.133 0.8-0.267l5.467-3.333c0.133 0 0.267 0 0.267 0l5.467 3.333c0.533 0.267 1.067 0.267 1.6 0 0.533-0.4 0.8-1.067 0.667-1.733l-1.467-6.133c0-0.133 0-0.133 0.133-0.267l4.533-4.267z"></path>
</svg>
