<!-- Generated by IcoMoon.io -->
<svg version="1.1" xmlns="http://www.w3.org/2000/svg" width="32" height="32" viewBox="0 0 32 32">
<title>star</title>
<path fill="#f0f1f5" d="M26.667 10.267l-5.333-0.4-2-4.933c-1.2-2.933-5.467-2.933-6.667 0l-2 4.933-5.333 0.4c-3.2 0.267-4.533 4.267-2 6.267l4 3.467-1.2 5.067c-0.8 3.067 2.667 5.6 5.333 3.867l4.533-2.8 4.533 2.8c2.8 1.6 6.133-0.8 5.333-3.867l-1.2-5.067 4-3.467c2.4-2 1.2-6-2-6.267zM26.933 14.667l-4.8 4.133c-0.267 0.267-0.4 0.533-0.267 0.933l1.467 6.133c0.133 0.8-0.667 1.467-1.333 1.067l-5.467-3.333c-0.267-0.133-0.667-0.133-0.933 0l-5.467 3.333c-0.667 0.4-1.6-0.267-1.333-1.067l1.467-6.133c0.133-0.4 0-0.667-0.267-0.933l-4.933-4.133c-0.667-0.533-0.267-1.6 0.533-1.6l6.267-0.533c0.4 0 0.667-0.267 0.8-0.533l2.4-5.867c0.267-0.8 1.467-0.8 1.733 0l2.4 5.867c0.133 0.267 0.4 0.533 0.8 0.533l6.267 0.533c0.933 0 1.333 1.067 0.667 1.6z"></path>
</svg>
