<!-- Generated by IcoMoon.io -->
<svg version="1.1" xmlns="http://www.w3.org/2000/svg" width="32" height="32" viewBox="0 0 32 32">
<title>stichy-note</title>
<path fill="#f0f1f5" d="M24 2.667h-16c-2.933 0-5.333 2.4-5.333 5.333v16c0 2.933 2.4 5.333 5.333 5.333h11.067c1.467 0 2.8-0.533 3.733-1.6l4.933-4.933c1.067-1.067 1.6-2.4 1.6-3.733v-11.067c0-2.933-2.4-5.333-5.333-5.333zM25.867 21.067l-4.933 4.933c-0.267 0.267-0.667 0.533-1.067 0.667v-5.333c0-0.8 0.533-1.333 1.333-1.333h5.2c0 0.4-0.267 0.667-0.533 1.067zM26.667 17.333h-5.333c-2.267 0-4 1.733-4 4v5.333h-9.333c-1.467 0-2.667-1.2-2.667-2.667v-16c0-1.467 1.2-2.667 2.667-2.667h16c1.467 0 2.667 1.2 2.667 2.667v9.333z"></path>
</svg>
