<!-- Generated by IcoMoon.io -->
<svg version="1.1" xmlns="http://www.w3.org/2000/svg" width="32" height="32" viewBox="0 0 32 32">
<title>stopwatch</title>
<path fill="#f0f1f5" d="M16 6.667c-6.667 0-12 5.333-12 12s5.333 12 12 12 12-5.333 12-12-5.333-12-12-12zM16 28c-5.2 0-9.333-4.133-9.333-9.333s4.133-9.333 9.333-9.333c5.2 0 9.333 4.133 9.333 9.333s-4.133 9.333-9.333 9.333z"></path>
<path fill="#f0f1f5" d="M16 12c-0.8 0-1.333 0.533-1.333 1.333v5.333c0 0.8 0.533 1.333 1.333 1.333s1.333-0.533 1.333-1.333v-5.333c0-0.8-0.533-1.333-1.333-1.333z"></path>
<path fill="#f0f1f5" d="M13.333 4h5.333c0.8 0 1.333-0.533 1.333-1.333s-0.533-1.333-1.333-1.333h-5.333c-0.8 0-1.333 0.533-1.333 1.333s0.533 1.333 1.333 1.333z"></path>
<path fill="#f0f1f5" d="M28.933 7.067l-1.333-1.333c-0.533-0.533-1.333-0.533-1.867 0s-0.533 1.333 0 1.867l1.333 1.333c0.533 0.533 1.333 0.533 1.867 0s0.533-1.333 0-1.867z"></path>
</svg>
