<!-- Generated by IcoMoon.io -->
<svg version="1.1" xmlns="http://www.w3.org/2000/svg" width="32" height="32" viewBox="0 0 32 32">
<title>stretch-width</title>
<path fill="#f0f1f5" d="M25.333 2.667h-18.667c-2.267 0-4 1.733-4 4v18.667c0 2.267 1.733 4 4 4h18.667c2.267 0 4-1.733 4-4v-18.667c0-2.267-1.733-4-4-4zM26.667 25.333c0 0.8-0.533 1.333-1.333 1.333h-18.667c-0.8 0-1.333-0.533-1.333-1.333v-18.667c0-0.8 0.533-1.333 1.333-1.333h18.667c0.8 0 1.333 0.533 1.333 1.333v18.667z"></path>
<path fill="#f0f1f5" d="M20.933 12.4c-0.533-0.533-1.333-0.533-1.867 0s-0.533 1.333 0 1.867l0.4 0.4h-6.933l0.4-0.4c0.533-0.533 0.533-1.333 0-1.867s-1.333-0.533-1.867 0l-2.667 2.667c-0.533 0.533-0.533 1.333 0 1.867l2.667 2.667c0.533 0.533 1.333 0.533 1.867 0s0.533-1.333 0-1.867l-0.4-0.4h6.933l-0.4 0.4c-0.533 0.533-0.533 1.333 0 1.867s1.333 0.533 1.867 0l2.667-2.667c0.533-0.533 0.533-1.333 0-1.867l-2.667-2.667z"></path>
</svg>
