<!-- Generated by IcoMoon.io -->
<svg version="1.1" xmlns="http://www.w3.org/2000/svg" width="32" height="32" viewBox="0 0 32 32">
<title>subtitles</title>
<path fill="#f0f1f5" d="M26.667 4h-21.333c-2.267 0-4 1.733-4 4v16c0 2.267 1.733 4 4 4h21.333c2.267 0 4-1.733 4-4v-16c0-2.267-1.733-4-4-4zM28 24c0 0.8-0.533 1.333-1.333 1.333h-21.333c-0.8 0-1.333-0.533-1.333-1.333v-16c0-0.8 0.533-1.333 1.333-1.333h21.333c0.8 0 1.333 0.533 1.333 1.333v16z"></path>
<path fill="#f0f1f5" d="M24 14.667h-8c-0.8 0-1.333 0.533-1.333 1.333s0.533 1.333 1.333 1.333h8c0.8 0 1.333-0.533 1.333-1.333s-0.533-1.333-1.333-1.333z"></path>
<path fill="#f0f1f5" d="M16 20h-8c-0.8 0-1.333 0.533-1.333 1.333s0.533 1.333 1.333 1.333h8c0.8 0 1.333-0.533 1.333-1.333s-0.533-1.333-1.333-1.333z"></path>
<path fill="#f0f1f5" d="M24 20h-2.667c-0.8 0-1.333 0.533-1.333 1.333s0.533 1.333 1.333 1.333h2.667c0.8 0 1.333-0.533 1.333-1.333s-0.533-1.333-1.333-1.333z"></path>
<path fill="#f0f1f5" d="M8 17.333h2.667c0.8 0 1.333-0.533 1.333-1.333s-0.533-1.333-1.333-1.333h-2.667c-0.8 0-1.333 0.533-1.333 1.333s0.533 1.333 1.333 1.333z"></path>
</svg>
