<!-- Generated by IcoMoon.io -->
<svg version="1.1" xmlns="http://www.w3.org/2000/svg" width="32" height="32" viewBox="0 0 32 32">
<title>syringe</title>
<path fill="#f0f1f5" d="M27.067 10.267c0.533 0.533 1.333 0.533 1.867 0s0.533-1.333 0-1.867l-5.333-5.333c-0.533-0.533-1.333-0.533-1.867 0s-0.533 1.333 0 1.867l1.733 1.733-2.133 2.133-4.4-4.4c-0.533-0.533-1.333-0.533-1.867 0s-0.533 1.333 0 1.867l0.4 0.4-7.733 7.733c-1.6 1.6-2.267 3.867-1.867 6l0.667 3.2-3.467 3.467c-0.533 0.533-0.533 1.333 0 1.867s1.333 0.533 1.867 0l3.467-3.467 3.2 0.667c2.133 0.4 4.4-0.267 6-1.867l7.733-7.733 0.4 0.4c0.533 0.533 1.333 0.533 1.867 0s0.533-1.333 0-1.867l-4.4-4.4 2.133-2.133 1.733 1.733zM23.467 14.667l-2.133 2.133-1.733-1.733c-0.533-0.533-1.333-0.533-1.867 0s-0.533 1.333 0 1.867l1.733 1.733-2.133 2.133-1.733-1.733c-0.533-0.533-1.333-0.533-1.867 0s-0.533 1.333 0 1.867l1.733 1.733c-0.933 0.8-2.133 1.067-3.333 0.8l-2.933-0.533-0.533-2.933c-0.267-1.333 0.133-2.667 1.067-3.6l7.6-7.867 6.133 6.133z"></path>
</svg>
