<!-- Generated by IcoMoon.io -->
<svg version="1.1" xmlns="http://www.w3.org/2000/svg" width="32" height="32" viewBox="0 0 32 32">
<title>t-shirt</title>
<path fill="#f0f1f5" d="M28.133 13.333c-0.133-0.133-0.133-0.4-0.267-0.533-0.667-1.2-1.2-3.2-1.2-6.133 0-2.267-1.733-4-4-4h-3.333c-0.4 0-0.667 0.267-0.667 0.667v2c0 1.467-1.2 2.667-2.667 2.667s-2.667-1.2-2.667-2.667v-2c0-0.4-0.267-0.667-0.667-0.667h-3.333c-2.267 0-4 1.733-4 4 0 2.933-0.533 4.933-1.067 6.133-0.133 0.133-0.267 0.4-0.4 0.533-0.533 1.2-1.2 2.533-1.2 3.867v8.133c0 2.267 1.733 4 4 4h18.667c2.267 0 4-1.733 4-4v-8.133c0-1.333-0.667-2.667-1.2-3.867zM26.667 25.333c0 0.8-0.533 1.333-1.333 1.333h-18.667c-0.8 0-1.333-0.533-1.333-1.333v-8.133c0-0.533 0.267-1.2 0.933-2.533v0c0.133-0.133 0.133-0.4 0.267-0.533 0.8-1.6 1.333-4 1.333-7.333 0-0.8 0.533-1.333 1.333-1.333h0.667c0.533-0.133 0.8 0.133 0.8 0.533 0.4 2.667 2.667 4.667 5.333 4.667s4.933-2 5.333-4.667c0-0.4 0.267-0.667 0.667-0.667h0.667c0.8 0 1.333 0.533 1.333 1.333 0 3.333 0.533 5.6 1.333 7.333 0.133 0.267 0.267 0.4 0.267 0.533v0c0.667 1.333 0.933 2 0.933 2.533v8.267z"></path>
<path fill="#f0f1f5" d="M17.333 21.333v-6.667c0-0.8-0.533-1.333-1.333-1.333h-1.333c-0.8 0-1.333 0.533-1.333 1.333s0.533 1.333 1.333 1.333v5.333c-0.8 0-1.333 0.533-1.333 1.333s0.533 1.333 1.333 1.333h2.667c0.8 0 1.333-0.533 1.333-1.333s-0.533-1.333-1.333-1.333z"></path>
</svg>
