<!-- Generated by IcoMoon.io -->
<svg version="1.1" xmlns="http://www.w3.org/2000/svg" width="32" height="32" viewBox="0 0 32 32">
<title>table-tennis</title>
<path fill="#f0f1f5" d="M27.2 8.267c0.533-0.933 0.8-1.867 0.8-2.933 0-2.933-2.4-5.333-5.333-5.333-0.933 0-1.867 0.267-2.533 0.667 0 0 0 0 0 0-0.133 0-0.133 0.133-0.267 0.133 0.133 0 0.133-0.133 0.267-0.133-1.2-0.4-2.667-0.667-4-0.667-6.8 0-12.133 5.333-12.133 12 0 1.467 0.267 2.8 0.667 4v0.133c0.133 0.4 0.267 0.8 0.533 1.2 0 0 0 0 0 0.133 0.133 0.4 0.4 0.8 0.667 1.2 0 0 0 0.133 0.133 0.133 1.467 2.133 3.467 3.733 6 4.667v4.533c0 2.267 1.733 4 4 4s4-1.733 4-4v-4.667c2.4-0.933 4.533-2.533 6-4.667 0 0 0-0.133 0.133-0.133 0.267-0.4 0.4-0.8 0.667-1.2v-0.133c0.133-0.4 0.4-0.8 0.533-1.2v-0.133c0.4-1.2 0.667-2.533 0.667-4 0-1.333-0.267-2.667-0.667-3.867 0 0.133-0.133 0.133-0.133 0.267zM22.667 2.667c1.467 0 2.667 1.2 2.667 2.667s-1.2 2.667-2.667 2.667-2.667-1.2-2.667-2.667 1.2-2.667 2.667-2.667zM17.333 28c0 0.8-0.533 1.333-1.333 1.333s-1.333-0.533-1.333-1.333v-4.133c0.4 0 0.933 0.133 1.333 0.133s0.933 0 1.333-0.133v4.133zM16 21.333c-2.533 0-4.8-1.067-6.533-2.667h13.067c-1.733 1.6-4 2.667-6.533 2.667zM25.333 12c0 1.467-0.267 2.8-0.933 4h-16.8c-0.667-1.2-0.933-2.533-0.933-4 0-5.2 4.133-9.333 9.333-9.333 0.667 0 1.333 0.133 2 0.267 0.133-0.133 0.133-0.267 0.267-0.4-0.133 0.133-0.133 0.267-0.267 0.4 0 0 0 0 0 0-0.4 0.667-0.667 1.467-0.667 2.4 0 2.933 2.4 5.333 5.333 5.333 1.067 0 2-0.267 2.8-0.8-0.133 0.133-0.267 0.133-0.4 0.267 0.133 0.533 0.267 1.2 0.267 1.867z"></path>
</svg>
