<!-- Generated by IcoMoon.io -->
<svg version="1.1" xmlns="http://www.w3.org/2000/svg" width="32" height="32" viewBox="0 0 32 32">
<title>tablets</title>
<path fill="#f0f1f5" d="M20 10.667c-5.2 0-9.333 4.133-9.333 9.333s4.133 9.333 9.333 9.333 9.333-4.133 9.333-9.333-4.133-9.333-9.333-9.333zM13.333 20c0-3.733 2.933-6.667 6.667-6.667 1.333 0 2.667 0.4 3.733 1.067l-9.2 9.2c-0.8-0.933-1.2-2.267-1.2-3.6zM20 26.667c-1.333 0-2.667-0.4-3.733-1.067l9.2-9.2c0.8 0.933 1.2 2.267 1.2 3.6 0 3.733-2.933 6.667-6.667 6.667z"></path>
<path fill="#f0f1f5" d="M5.867 14.533c-0.533-1.2-0.667-2.533-0.4-3.867s0.933-2.533 1.867-3.467 2.133-1.467 3.333-1.733 2.667-0.133 3.867 0.4c0.933 0.4 1.733 0.933 2.4 1.733 0.533 0.533 1.333 0.533 1.867 0.133 0.533-0.533 0.533-1.333 0.133-1.867-0.933-1.067-2.133-1.867-3.333-2.4-1.733-0.8-3.6-0.933-5.467-0.667-1.733 0.4-3.467 1.333-4.667 2.667-1.333 1.333-2.133 2.933-2.533 4.8-0.4 1.733-0.267 3.6 0.4 5.333 0.533 1.333 1.333 2.4 2.4 3.333 0.533 0.533 1.333 0.4 1.867-0.133s0.4-1.333-0.133-1.867c-0.667-0.667-1.2-1.467-1.6-2.4z"></path>
</svg>
