<!-- Generated by IcoMoon.io -->
<svg version="1.1" xmlns="http://www.w3.org/2000/svg" width="32" height="32" viewBox="0 0 32 32">
<title>thermometer</title>
<path fill="#f0f1f5" d="M27.333 4.667c-2.533-2.533-6.8-2.533-9.333 0l-7.867 7.867c-0.533 0.533-0.933 1.2-1.067 1.867l-0.8 3.2c-0.133 0.667-0.533 1.333-1.067 1.867l-0.533 0.533c0 0 0 0 0 0s0 0 0 0l-2.667 2.667c-1.467 1.467-1.467 3.867 0 5.333s3.867 1.467 5.333 0l3.2-3.2c0.533-0.533 1.2-0.933 1.867-1.067l3.2-0.8c0.667-0.133 1.333-0.533 1.867-1.067l7.867-7.867c2.533-2.533 2.533-6.8 0-9.333zM7.467 26.133c-0.4 0.4-1.067 0.4-1.6 0-0.4-0.4-0.4-1.067 0-1.6l1.733-1.733 1.6 1.6-1.733 1.733zM25.467 12.133l-7.867 7.867c-0.133 0.133-0.4 0.267-0.667 0.4l-3.2 0.8c-0.933 0.267-1.867 0.667-2.667 1.333l-1.6-1.6c0.667-0.8 1.2-1.733 1.333-2.667l0.8-3.2c0-0.267 0.133-0.4 0.4-0.667l7.867-7.867c1.6-1.6 4-1.6 5.6 0 1.467 1.6 1.467 4 0 5.6z"></path>
<path fill="#f0f1f5" d="M20 9.333l-2.667 2.667c-0.8 0.8-0.8 1.867 0 2.667s1.867 0.8 2.667 0l2.667-2.667c0.8-0.8 0.8-1.867 0-2.667s-1.867-0.8-2.667 0z"></path>
</svg>
