<!-- Generated by IcoMoon.io -->
<svg version="1.1" xmlns="http://www.w3.org/2000/svg" width="32" height="32" viewBox="0 0 32 32">
<title>tie</title>
<path fill="#f0f1f5" d="M24.267 14l-6.533-3.733-0.133-0.533c0.267-0.267 0.533-0.533 0.8-0.933l1.6-2.667c0.8-1.333 0.8-2.933-0.133-4.267l-0.133-0.133c-0.667-1.067-1.867-1.733-3.2-1.733h-6.4c-1.333 0-2.533 0.667-3.333 1.733v0.133c-0.933 1.333-0.933 2.933-0.133 4.267l1.467 2.533c0.267 0.4 0.533 0.667 0.8 0.933l-3.067 13.333c-0.4 1.467 0.133 3.067 1.333 4l3.6 2.933c1.467 1.2 3.6 1.2 5.067 0l3.6-2.933c1.2-0.933 1.733-2.533 1.333-4l-0.8-3.467 1.333 0.667c1.867 0.933 4.133 0 4.8-2 0.4-1.6-0.267-3.333-1.867-4.133zM8.933 4.8c-0.267-0.4-0.267-0.933 0-1.467l0.133-0.133c0.267-0.267 0.667-0.533 1.067-0.533h6.4c0.4 0 0.8 0.267 1.067 0.533l0.133 0.133c0.267 0.4 0.267 0.933 0 1.467l-1.467 2.533c-0.267 0.4-0.667 0.667-1.2 0.667h-3.467c-0.533 0-0.933-0.267-1.2-0.667l-1.467-2.533zM17.733 24.8l-3.6 2.933c-0.533 0.4-1.2 0.4-1.733 0l-3.6-2.933c-0.4-0.267-0.533-0.8-0.4-1.333l3.067-12.8h3.733l2.933 12.933c0.133 0.4 0 0.933-0.4 1.2zM23.467 17.333c-0.133 0.4-0.667 0.667-1.067 0.4l-3.2-1.6c0 0 0 0 0 0l-0.533-2.4 4.4 2.667c0.4 0.133 0.533 0.533 0.4 0.933z"></path>
</svg>
