<!-- Generated by IcoMoon.io -->
<svg version="1.1" xmlns="http://www.w3.org/2000/svg" width="32" height="32" viewBox="0 0 32 32">
<title>tiktok</title>
<path fill="#f0f1f5" d="M24 2.667h-16c-2.933 0-5.333 2.4-5.333 5.333v16c0 2.933 2.4 5.333 5.333 5.333h16c2.933 0 5.333-2.4 5.333-5.333v-16c0-2.933-2.4-5.333-5.333-5.333zM26.667 24c0 1.467-1.2 2.667-2.667 2.667h-16c-1.467 0-2.667-1.2-2.667-2.667v-16c0-1.467 1.2-2.667 2.667-2.667h16c1.467 0 2.667 1.2 2.667 2.667v16z"></path>
<path fill="#f0f1f5" d="M21.333 12c-1.467 0-2.667-1.2-2.667-2.667 0-0.8-0.533-1.333-1.333-1.333s-1.333 0.533-1.333 1.333v10c0 1.067-0.933 2-2 2s-2-0.933-2-2c0-0.933 0.8-1.867 1.6-2 0.667-0.133 1.2-0.8 1.067-1.6-0.133-0.667-0.8-1.2-1.6-1.067-2.133 0.533-3.733 2.533-3.733 4.667 0 2.533 2.133 4.667 4.667 4.667s4.667-2.133 4.667-4.667v0-5.333c0.8 0.4 1.733 0.667 2.667 0.667 0.8 0 1.333-0.533 1.333-1.333s-0.533-1.333-1.333-1.333z"></path>
</svg>
