<!-- Generated by IcoMoon.io -->
<svg version="1.1" xmlns="http://www.w3.org/2000/svg" width="32" height="32" viewBox="0 0 32 32">
<title>toilet-paper</title>
<path fill="#f0f1f5" d="M27.467 5.467c-1.2-1.6-2.933-2.8-4.8-2.8h-13.333c-3.733 0-6.667 4.133-6.667 9.333s2.933 9.333 6.667 9.333h4v4c0 2.267 1.733 4 4 4h8c2.267 0 4-1.733 4-4v-13.333c0-2.533-0.8-4.8-1.867-6.533zM11.867 17.067c-0.8 1.2-1.733 1.6-2.533 1.6s-1.733-0.4-2.533-1.6c-0.8-1.2-1.467-2.933-1.467-5.067s0.667-3.867 1.467-5.067c0.8-1.2 1.733-1.6 2.533-1.6 0 0 0 0 0 0 0.8 0 1.733 0.533 2.533 1.733 0.4 0.533 0.8 1.333 1.067 2.133s0.4 1.733 0.4 2.8c0 2.133-0.667 3.867-1.467 5.067zM26.667 18.667c0 0 0 0 0 0-0.8 0-1.333 0.533-1.333 1.333s0.533 1.333 1.333 1.333c0 0 0 0 0 0v4c0 0.8-0.533 1.333-1.333 1.333h-8c-0.8 0-1.333-0.533-1.333-1.333v-4c0.8 0 1.333-0.533 1.333-1.333s-0.533-1.333-1.333-1.333v-6.667c0 0 0 0 0 0 0-0.667 0-1.2-0.133-1.867 0 0 0 0 0 0-0.133-0.533-0.267-1.2-0.4-1.733 0 0 0 0 0 0-0.267-1.2-0.8-2.267-1.467-3.067h8.667c0.8 0 1.733 0.533 2.533 1.733 0.933 1.067 1.467 2.8 1.467 4.933v6.667z"></path>
<path fill="#f0f1f5" d="M10.667 12c0 1.473-0.597 2.667-1.333 2.667s-1.333-1.194-1.333-2.667c0-1.473 0.597-2.667 1.333-2.667s1.333 1.194 1.333 2.667z"></path>
<path fill="#f0f1f5" d="M22.667 20c0 0.736-0.597 1.333-1.333 1.333s-1.333-0.597-1.333-1.333c0-0.736 0.597-1.333 1.333-1.333s1.333 0.597 1.333 1.333z"></path>
</svg>
