<!-- Generated by IcoMoon.io -->
<svg version="1.1" xmlns="http://www.w3.org/2000/svg" width="32" height="32" viewBox="0 0 32 32">
<title>toothbrush</title>
<path fill="#f0f1f5" d="M26.933 6.4c-1.067-1.067-2.4-1.467-3.733-1.067l-3.6-3.6c-0.533-0.533-1.333-0.533-1.867 0s-0.533 1.333 0 1.867l3.067 3.067-1.467 1.467-2.4-2.4c-0.533-0.533-1.333-0.533-1.867 0s-0.533 1.333 0 1.867l2.4 2.4-1.467 1.467-3.067-3.067c-0.533-0.533-1.333-0.533-1.867 0s-0.533 1.333 0 1.867l3.067 3.067-9.067 9.067c-1.6 1.6-1.6 4.267 0 5.867s4.267 1.6 5.867 0l16-16c1.6-1.6 1.6-4.267 0-5.867zM25.067 10.4l-16 16c-0.533 0.533-1.467 0.533-2.133 0-0.533-0.533-0.533-1.467 0-2.133l16-16c0.533-0.533 1.467-0.533 2.133 0 0.533 0.533 0.533 1.6 0 2.133z"></path>
</svg>
