<!-- Generated by IcoMoon.io -->
<svg version="1.1" xmlns="http://www.w3.org/2000/svg" width="32" height="32" viewBox="0 0 32 32">
<title>triangle-ruler</title>
<path fill="#f0f1f5" d="M27.867 22.533l-18.4-18.4c-2.533-2.533-6.8-0.667-6.8 2.8v18.4c0 2.267 1.733 4 4 4h5.333c0 0 0 0 0 0s0 0 0 0h8c0 0 0 0 0 0s0 0 0 0h5.067c3.467 0 5.333-4.267 2.8-6.8zM25.067 26.667h-3.733v-1.333c0-0.8-0.533-1.333-1.333-1.333s-1.333 0.533-1.333 1.333v1.333h-5.333v-1.333c0-0.8-0.533-1.333-1.333-1.333s-1.333 0.533-1.333 1.333v1.333h-4c-0.8 0-1.333-0.533-1.333-1.333v-4h1.333c0.8 0 1.333-0.533 1.333-1.333s-0.533-1.333-1.333-1.333h-1.333v-5.333h1.333c0.8 0 1.333-0.533 1.333-1.333s-0.533-1.333-1.333-1.333h-1.333v-3.733c0-1.2 1.467-1.733 2.267-0.933l18.4 18.4c0.8 0.8 0.133 2.267-0.933 2.267z"></path>
<path fill="#f0f1f5" d="M12.933 16.933c-0.8-0.8-2.267-0.267-2.267 0.933v2.133c0 0.8 0.533 1.333 1.333 1.333h2.133c1.2 0 1.733-1.467 0.933-2.267l-2.133-2.133z"></path>
</svg>
