<!-- Generated by IcoMoon.io -->
<svg version="1.1" xmlns="http://www.w3.org/2000/svg" width="32" height="32" viewBox="0 0 32 32">
<title>twitter</title>
<path fill="#f0f1f5" d="M27.2 4.8l-2 0.4c-0.533-0.267-1.067-0.533-1.6-0.667-0.8-0.267-1.867-0.533-2.933-0.533-1.867 0-3.467 0.533-4.667 1.467s-2 2.133-2.267 3.333c-0.133 0.533-0.267 1.067-0.4 1.467-0.667-0.267-1.467-0.533-2.133-0.933-1.6-0.8-2.933-1.867-3.6-2.8-1.333-1.6-3.867-1.467-4.8 0.533-1.333 2.8-0.933 6.267 0.267 8.933 0.4 0.933 0.933 1.867 1.467 2.667-0.133 0-0.267 0-0.267 0-2.267 0-3.6 2.533-2.267 4.4 2 2.667 5.467 4.933 11.333 4.933 9.067 0 16.4-7.467 15.467-16.267l1.467-3.067c1.067-2-0.8-4.4-3.067-3.867zM13.333 25.333c-5.2 0-7.867-1.867-9.2-3.733 0-0.133 0-0.267 0.133-0.267 1.467 0 4.267-0.133 6.133-1.2 0.133 0 0.133-0.267 0-0.267-4.4-1.467-6.933-7.733-5.2-11.733 0-0.133 0.133-0.133 0.267 0 2 2.667 6.533 5.067 10.4 5.2 0.133 0 0.133-0.133 0.133-0.133-0.133-1.067-0.8-6.533 4.667-6.533 1.333 0 3.2 0.667 4 1.333 0 0 0.133 0 0.133 0l2.933-0.533c0.133 0 0.133 0.133 0.133 0.133l-1.867 3.733c0 0 0 0 0 0.133 1.333 7.2-4.667 13.867-12.667 13.867z"></path>
</svg>
