<!-- Generated by IcoMoon.io -->
<svg version="1.1" xmlns="http://www.w3.org/2000/svg" width="32" height="32" viewBox="0 0 32 32">
<title>umbrella</title>
<path fill="#f0f1f5" d="M29.067 17.2c-0.933-6.267-5.467-11.2-11.733-11.867 0 0 0 0 0 0v-1.333c0-0.8-0.533-1.333-1.333-1.333s-1.333 0.533-1.333 1.333v1.333c0 0 0 0 0 0-6.267 0.667-10.8 5.467-11.733 11.733-0.267 1.467 1.067 2.533 2.4 2 0.8-0.267 1.733-0.267 2.533 0l1.6 0.533c0.667 0.267 1.467 0.267 2.267 0.133l2.933-0.667v6.267c0 2.267 1.733 4 4 4s4-1.733 4-4c0-0.8-0.533-1.333-1.333-1.333s-1.333 0.533-1.333 1.333-0.533 1.333-1.333 1.333-1.333-0.533-1.333-1.333v-6.4l2.933 0.667c0.8 0.133 1.467 0.133 2.267-0.133l1.6-0.533c0.8-0.267 1.733-0.267 2.533 0 1.333 0.667 2.667-0.4 2.4-1.733zM25.2 16.267c-0.667 0-1.333 0.133-2 0.4l-1.6 0.533c-0.267 0.133-0.533 0.133-0.8 0l-3.2-0.8c-1.067-0.267-2.133-0.267-3.2 0l-3.2 0.8c-0.267 0-0.533 0-0.8 0l-1.6-0.533c-0.667-0.267-1.333-0.267-2-0.4-0.533 0-0.8-0.4-0.667-0.933 1.467-4.4 5.2-7.333 9.867-7.333s8.4 2.933 9.867 7.333c0.133 0.4-0.133 0.933-0.667 0.933z"></path>
</svg>
