<!-- Generated by IcoMoon.io -->
<svg version="1.1" xmlns="http://www.w3.org/2000/svg" width="32" height="32" viewBox="0 0 32 32">
<title>user</title>
<path fill="#f0f1f5" d="M20.8 15.733c2-1.467 3.2-3.867 3.2-6.4 0-4.4-3.6-8-8-8s-8 3.6-8 8c0 2.533 1.2 4.933 3.2 6.4-4.267 1.867-7.2 6-7.2 10.933v2.667c0 0.8 0.533 1.333 1.333 1.333s1.333-0.533 1.333-1.333v-2.667c0-5.2 4.133-9.333 9.333-9.333s9.333 4.133 9.333 9.333v2.667c0 0.8 0.533 1.333 1.333 1.333s1.333-0.533 1.333-1.333v-2.667c0-4.933-2.933-9.067-7.2-10.933zM16 14.667c-2.933 0-5.333-2.4-5.333-5.333s2.4-5.333 5.333-5.333c2.933 0 5.333 2.4 5.333 5.333s-2.4 5.333-5.333 5.333z"></path>
</svg>
