<!-- Generated by IcoMoon.io -->
<svg version="1.1" xmlns="http://www.w3.org/2000/svg" width="32" height="32" viewBox="0 0 32 32">
<title>vector-edit</title>
<path fill="#f0f1f5" d="M27.333 20.133l-1.333-8.533c1.2-0.8 2-2.133 2-3.6 0-2.267-1.733-4-4-4-1.733 0-3.2 1.067-3.733 2.667h-8.533c-0.533-1.6-2-2.667-3.733-2.667-2.267 0-4 1.733-4 4 0 1.467 0.8 2.8 2 3.467l-1.333 8.533c-1.867 0.4-3.333 2-3.333 4 0 2.267 1.733 4 4 4 1.733 0 3.2-1.067 3.733-2.667h13.867c0.533 1.6 2 2.667 3.733 2.667 2.267 0 4-1.733 4-4 0-2-1.467-3.6-3.333-3.867zM6.667 24c0 0.8-0.533 1.333-1.333 1.333s-1.333-0.533-1.333-1.333 0.533-1.333 1.333-1.333c0.8 0 1.333 0.533 1.333 1.333 0 0 0 0 0 0s0 0 0 0zM6.667 8c0-0.8 0.533-1.333 1.333-1.333s1.333 0.533 1.333 1.333c0 0 0 0 0 0s0 0 0 0c0 0.8-0.533 1.333-1.333 1.333s-1.333-0.533-1.333-1.333zM22.933 22.667h-13.867c-0.267-0.933-0.933-1.733-1.867-2.133l1.333-8.533c1.6-0.267 2.8-1.333 3.2-2.667h8.533c0.533 1.333 1.6 2.4 3.067 2.533l1.333 8.533c-0.8 0.533-1.467 1.333-1.733 2.267zM24 9.333c-0.8 0-1.333-0.533-1.333-1.333s0.533-1.333 1.333-1.333 1.333 0.533 1.333 1.333-0.533 1.333-1.333 1.333zM26.667 25.333c-0.8 0-1.333-0.533-1.333-1.333s0.533-1.333 1.333-1.333 1.333 0.533 1.333 1.333-0.533 1.333-1.333 1.333z"></path>
</svg>
