<!-- Generated by IcoMoon.io -->
<svg version="1.1" xmlns="http://www.w3.org/2000/svg" width="32" height="32" viewBox="0 0 32 32">
<title>video</title>
<path fill="#f0f1f5" d="M30.267 10c-0.4-2.933-2.667-5.2-5.6-5.467-2.267-0.267-5.2-0.533-8.667-0.533s-6.4 0.267-8.667 0.533c-2.933 0.4-5.2 2.533-5.6 5.467-0.133 1.867-0.4 3.867-0.4 6s0.267 4.133 0.4 6c0.4 2.933 2.667 5.2 5.6 5.467 2.267 0.267 5.2 0.533 8.667 0.533s6.4-0.267 8.667-0.533c2.933-0.4 5.2-2.533 5.6-5.467 0.267-1.733 0.4-3.867 0.4-6s-0.267-4.133-0.4-6zM27.6 21.6c-0.267 1.733-1.6 3.067-3.333 3.2-2.133 0.267-4.933 0.533-8.267 0.533s-6.133-0.267-8.267-0.533c-1.733-0.267-3.067-1.467-3.333-3.2s-0.4-3.733-0.4-5.6 0.133-3.867 0.4-5.6c0.267-1.733 1.6-3.067 3.333-3.2 2.133-0.267 4.933-0.533 8.267-0.533s6.133 0.267 8.267 0.533c1.733 0.267 3.067 1.467 3.333 3.2s0.4 3.733 0.4 5.6-0.133 3.867-0.4 5.6z"></path>
<path fill="#f0f1f5" d="M20.8 14.933l-6.8-4.267c-0.8-0.667-2 0-2 1.067v8.533c0 1.067 1.2 1.733 2 1.067l6.8-4.267c0.933-0.4 0.933-1.733 0-2.133z"></path>
</svg>
