<!-- Generated by IcoMoon.io -->
<svg version="1.1" xmlns="http://www.w3.org/2000/svg" width="32" height="32" viewBox="0 0 32 32">
<title>virus</title>
<path fill="#f0f1f5" d="M29.333 12c-0.8 0-1.333 0.533-1.333 1.333v1.333h-2.8c-0.267-1.6-0.8-3.067-1.733-4.267l2-2 0.933 0.933c0.533 0.533 1.333 0.533 1.867 0s0.533-1.333 0-1.867l-3.733-3.733c-0.533-0.533-1.333-0.533-1.867 0s-0.533 1.333 0 1.867l0.933 0.933-2 2c-1.2-0.933-2.667-1.6-4.267-1.733v-2.8h1.333c0.8 0 1.333-0.533 1.333-1.333s-0.533-1.333-1.333-1.333h-5.333c-0.8 0-1.333 0.533-1.333 1.333s0.533 1.333 1.333 1.333h1.333v2.8c-1.6 0.133-3.067 0.8-4.267 1.733l-2-2 0.933-0.933c0.533-0.533 0.533-1.333 0-1.867s-1.333-0.533-1.867 0l-3.733 3.733c-0.533 0.533-0.533 1.333 0 1.867s1.333 0.533 1.867 0l0.933-0.933 2 2c-0.933 1.2-1.6 2.667-1.733 4.267h-2.8v-1.333c0-0.8-0.533-1.333-1.333-1.333s-1.333 0.533-1.333 1.333v5.333c0 0.8 0.533 1.333 1.333 1.333s1.333-0.533 1.333-1.333v-1.333h2.8c0.267 1.6 0.8 3.067 1.733 4.267l-2 2-0.933-0.933c-0.533-0.533-1.333-0.533-1.867 0s-0.533 1.333 0 1.867l3.733 3.733c0.533 0.533 1.333 0.533 1.867 0s0.533-1.333 0-1.867l-0.933-0.933 2-2c1.2 0.933 2.667 1.6 4.267 1.733v2.8h-1.333c-0.8 0-1.333 0.533-1.333 1.333s0.533 1.333 1.333 1.333h5.333c0.8 0 1.333-0.533 1.333-1.333s-0.533-1.333-1.333-1.333h-1.333v-2.8c1.6-0.267 3.067-0.8 4.267-1.733l2 2-0.933 0.933c-0.533 0.533-0.533 1.333 0 1.867s1.333 0.533 1.867 0l3.733-3.733c0.533-0.533 0.533-1.333 0-1.867s-1.333-0.533-1.867 0l-0.933 0.933-2-2c0.933-1.2 1.6-2.667 1.733-4.267h2.8v1.333c0 0.8 0.533 1.333 1.333 1.333s1.333-0.533 1.333-1.333v-5.333c0-0.8-0.533-1.333-1.333-1.333zM16 22.667c-3.733 0-6.667-2.933-6.667-6.667s2.933-6.667 6.667-6.667 6.667 2.933 6.667 6.667-2.933 6.667-6.667 6.667z"></path>
</svg>
