<!-- Generated by IcoMoon.io -->
<svg version="1.1" xmlns="http://www.w3.org/2000/svg" width="32" height="32" viewBox="0 0 32 32">
<title>volume-up</title>
<path fill="#f0f1f5" d="M30.667 14.667h-2.667v-2.667c0-0.8-0.533-1.333-1.333-1.333s-1.333 0.533-1.333 1.333v2.667h-2.667c-0.8 0-1.333 0.533-1.333 1.333s0.533 1.333 1.333 1.333h2.667v2.667c0 0.8 0.533 1.333 1.333 1.333s1.333-0.533 1.333-1.333v-2.667h2.667c0.8 0 1.333-0.533 1.333-1.333s-0.533-1.333-1.333-1.333z"></path>
<path fill="#f0f1f5" d="M10.533 6.8l-3.867 3.867h-2.667c-2.267 0-4 1.733-4 4v2.667c0 2.267 1.733 4 4 4h2.667l3.867 3.867c2.533 2.533 6.8 0.8 6.8-2.8v-12.8c0-3.467-4.267-5.333-6.8-2.8zM14.667 22.4c0 1.2-1.467 1.733-2.267 0.933l-4.667-4.667h-3.733c-0.8 0-1.333-0.533-1.333-1.333v-2.667c0-0.8 0.533-1.333 1.333-1.333h3.733l4.667-4.667c0.8-0.8 2.267-0.133 2.267 0.933v12.8z"></path>
</svg>
