<!-- Generated by IcoMoon.io -->
<svg version="1.1" xmlns="http://www.w3.org/2000/svg" width="32" height="32" viewBox="0 0 32 32">
<title>wallet</title>
<path fill="#f0f1f5" d="M25.333 4h-18.667c-2.933 0-5.333 2.4-5.333 5.333v13.333c0 2.933 2.4 5.333 5.333 5.333h18.667c2.933 0 5.333-2.4 5.333-5.333v-13.333c0-2.933-2.4-5.333-5.333-5.333zM28 20h-4c-2.267 0-4-1.733-4-4s1.733-4 4-4h4v8zM24 9.333c-3.733 0-6.667 2.933-6.667 6.667s2.933 6.667 6.667 6.667h4c0 1.467-1.2 2.667-2.667 2.667h-18.667c-1.467 0-2.667-1.2-2.667-2.667v-13.333c0-1.467 1.2-2.667 2.667-2.667h18.667c1.467 0 2.667 1.2 2.667 2.667h-4z"></path>
<path fill="#f0f1f5" d="M25.333 16c0 0.736-0.597 1.333-1.333 1.333s-1.333-0.597-1.333-1.333c0-0.736 0.597-1.333 1.333-1.333s1.333 0.597 1.333 1.333z"></path>
</svg>
