<!-- Generated by IcoMoon.io -->
<svg version="1.1" xmlns="http://www.w3.org/2000/svg" width="32" height="32" viewBox="0 0 32 32">
<title>weight</title>
<path fill="#f0f1f5" d="M24 11.067l0.933-2c1.867-3.6-0.8-7.733-4.8-7.733h-8.267c-4 0-6.533 4.133-4.8 7.733l0.933 2c-2.533 2.133-4 5.333-4 8.933 0 6.667 5.333 12 12 12s12-5.333 12-12c0-3.6-1.6-6.8-4-8.933zM11.867 4h8.4c2 0 3.333 2.133 2.4 3.867l-0.8 1.6c-1.867-0.933-3.733-1.467-5.867-1.467s-4 0.533-5.733 1.467l-0.8-1.6c-0.933-1.733 0.4-3.867 2.4-3.867zM16 29.333c-5.2 0-9.333-4.133-9.333-9.333s4.133-9.333 9.333-9.333c5.2 0 9.333 4.133 9.333 9.333s-4.133 9.333-9.333 9.333z"></path>
</svg>
