<!-- Generated by IcoMoon.io -->
<svg version="1.1" xmlns="http://www.w3.org/2000/svg" width="32" height="32" viewBox="0 0 32 32">
<title>whistle</title>
<path fill="#f0f1f5" d="M28 5.333h-6c-0.4 0-0.667 0.267-0.8 0.667-0.267 1.2-1.333 2-2.533 2s-2.267-0.8-2.533-2c-0.133-0.4-0.4-0.667-0.8-0.667h-4.667c-5.867 0-10.667 4.8-10.667 10.667s4.8 10.667 10.667 10.667c5.467 0 9.867-4 10.533-9.333l7.2-0.933c2-0.267 3.467-2 3.467-4v-3.067c0.133-2.267-1.6-4-3.867-4zM29.333 12.533c0 0.667-0.533 1.2-1.2 1.333l-9.333 1.2-0.133 2c-0.533 4-3.867 6.933-8 6.933-4.4 0-8-3.6-8-8s3.6-8 8-8h3.333c0.933 1.6 2.667 2.667 4.667 2.667s3.733-1.067 4.667-2.667h4.667c0.8 0 1.333 0.533 1.333 1.333v3.2z"></path>
<path fill="#f0f1f5" d="M10.667 12c-2.267 0-4 1.733-4 4s1.733 4 4 4 4-1.733 4-4-1.733-4-4-4zM10.667 17.333c-0.8 0-1.333-0.533-1.333-1.333s0.533-1.333 1.333-1.333 1.333 0.533 1.333 1.333-0.533 1.333-1.333 1.333z"></path>
</svg>
