<!-- Generated by IcoMoon.io -->
<svg version="1.1" xmlns="http://www.w3.org/2000/svg" width="32" height="32" viewBox="0 0 32 32">
<title>wifi</title>
<path fill="#f0f1f5" d="M18.667 26.667c0 1.473-1.194 2.667-2.667 2.667s-2.667-1.194-2.667-2.667c0-1.473 1.194-2.667 2.667-2.667s2.667 1.194 2.667 2.667z"></path>
<path fill="#f0f1f5" d="M1.589 10.454c-0.433-0.595-0.302-1.429 0.294-1.863 1.526-1.11 3.182-2.039 4.933-2.765 2.912-1.206 6.033-1.827 9.184-1.827s6.273 0.621 9.184 1.827c1.752 0.726 3.407 1.654 4.933 2.765 0.595 0.433 0.727 1.267 0.294 1.863s-1.267 0.727-1.863 0.294c-1.357-0.987-2.828-1.812-4.385-2.457-2.588-1.072-5.362-1.624-8.164-1.624s-5.576 0.552-8.164 1.624c-1.557 0.645-3.029 1.471-4.385 2.457-0.595 0.433-1.429 0.302-1.863-0.294z"></path>
<path fill="#f0f1f5" d="M9.367 11.986c2.103-0.871 4.357-1.319 6.633-1.319s4.53 0.448 6.633 1.319c1.233 0.511 2.399 1.161 3.478 1.935 0.598 0.43 0.735 1.263 0.305 1.861s-1.263 0.735-1.861 0.305c-0.913-0.655-1.9-1.205-2.943-1.637-1.779-0.737-3.687-1.117-5.613-1.117s-3.833 0.379-5.613 1.116c-1.043 0.432-2.030 0.982-2.943 1.637-0.598 0.43-1.431 0.293-1.861-0.305s-0.293-1.431 0.305-1.861c1.079-0.775 2.245-1.425 3.478-1.935z"></path>
<path fill="#f0f1f5" d="M9.402 19.619c-0.579 0.455-0.678 1.294-0.223 1.872s1.294 0.678 1.872 0.223c0.574-0.452 1.209-0.824 1.887-1.105 0.971-0.402 2.011-0.609 3.062-0.609s2.091 0.207 3.061 0.609c0.678 0.281 1.313 0.653 1.887 1.105 0.579 0.456 1.417 0.356 1.872-0.223s0.356-1.417-0.223-1.872c-0.766-0.603-1.612-1.099-2.516-1.474-1.294-0.536-2.681-0.812-4.082-0.812s-2.788 0.276-4.082 0.812c-0.904 0.374-1.75 0.871-2.516 1.474z"></path>
</svg>
