<!-- Generated by IcoMoon.io -->
<svg version="1.1" xmlns="http://www.w3.org/2000/svg" width="32" height="32" viewBox="0 0 32 32">
<title>windows</title>
<path fill="#f0f1f5" d="M24.8 3.333l-18.667 2.8c-2 0.267-3.467 2-3.467 4v11.733c0 2 1.467 3.6 3.467 4l18.667 2.8c2.4 0.4 4.533-1.467 4.533-4v-17.333c0-2.533-2.133-4.4-4.533-4zM13.333 24.267l-6.8-1.067c-0.667-0.133-1.2-0.667-1.2-1.333v-4.533h8v6.933zM13.333 14.667h-8v-4.533c0-0.667 0.533-1.2 1.2-1.333l6.8-1.067v6.933zM26.667 24.667c0 0.8-0.667 1.467-1.467 1.333l-9.2-1.333v-7.333h10.667v7.333zM26.667 14.667h-10.667v-7.333l9.2-1.333c0.8-0.133 1.467 0.533 1.467 1.333v7.333z"></path>
</svg>
