<!-- Generated by IcoMoon.io -->
<svg version="1.1" xmlns="http://www.w3.org/2000/svg" width="32" height="32" viewBox="0 0 32 32">
<title>wine-glass</title>
<path fill="#f0f1f5" d="M23.6 2.4c-0.533-1.467-2-2.4-3.6-2.4h-8c-1.6 0-3.067 0.933-3.6 2.4-1.867 5.467-4.8 18 6.267 18.933v8h-2.667c-0.8 0-1.333 0.533-1.333 1.333s0.533 1.333 1.333 1.333h8c0.8 0 1.333-0.533 1.333-1.333s-0.533-1.333-1.333-1.333h-2.667v-8c11.067-0.933 8.133-13.467 6.267-18.933zM16 18.667c-2.667 0-4.133-0.667-4.933-1.467s-1.333-2-1.6-3.6c-0.533-3.333 0.533-7.6 1.467-10.267 0.133-0.4 0.4-0.667 1.067-0.667h8c0.533 0 0.933 0.267 1.067 0.667 0.933 2.8 2 6.933 1.6 10.267-0.267 1.6-0.8 2.8-1.6 3.6-0.933 0.8-2.4 1.467-5.067 1.467z"></path>
</svg>
