<!-- Generated by IcoMoon.io -->
<svg version="1.1" xmlns="http://www.w3.org/2000/svg" width="32" height="32" viewBox="0 0 32 32">
<title>wordpress</title>
<path fill="#f0f1f5" d="M16.4 0.933c-8.4 0-15.2 6.8-15.2 15.067 0 8.4 6.8 15.067 15.067 15.067s15.2-6.667 15.2-15.067c0-8.267-6.8-15.067-15.067-15.067zM16.4 28.533c-6.933 0-12.4-5.6-12.4-12.4s5.6-12.4 12.4-12.4c6.933 0 12.4 5.6 12.4 12.4s-5.6 12.4-12.4 12.4z"></path>
<path fill="#f0f1f5" d="M25.2 8.267c-0.533-0.533-1.467-0.8-2.267-0.667s-1.467 0.667-1.733 1.467c-0.4 0.933-0.267 1.867 0.533 2.667 1.067 1.067 1.467 2.667 1.067 4.133l-1.867 5.733-3.6-10.533c-0.267-0.667-0.933-1.067-1.733-0.8-0.667 0.267-1.067 0.933-0.8 1.733l0.667 1.867c0 0 0 0 0 0l-2.667 7.867-3.6-10.667c-0.267-0.8-1.067-1.2-1.733-0.933s-1.067 0.933-0.933 1.733l4.8 14.4c0.133 0.533 0.8 0.933 1.2 0.933 0.533 0 1.067-0.4 1.2-0.933l2.8-8.267 2.8 8.267c0.133 0.533 0.667 0.933 1.2 0.933s1.067-0.4 1.2-0.933l2.933-8.667c0 0 0 0 0 0l1.467-4.267c0.8-1.867 0.267-3.733-0.933-5.067z"></path>
</svg>
