<!-- Generated by IcoMoon.io -->
<svg version="1.1" xmlns="http://www.w3.org/2000/svg" width="32" height="32" viewBox="0 0 32 32">
<title>xd</title>
<path fill="#f0f1f5" d="M24.933 30.533h-17.733c-3.333 0-6.133-2.8-6.133-6.133v-16.933c0-3.333 2.8-6.133 6.133-6.133h17.6c3.467 0 6.267 2.8 6.267 6.133v16.933c0 3.333-2.8 6.133-6.133 6.133zM7.2 4c-2 0-3.467 1.467-3.467 3.467v16.933c0 2 1.467 3.467 3.467 3.467h17.733c2 0 3.467-1.467 3.467-3.467v-16.933c0-1.867-1.6-3.467-3.6-3.467h-17.6z"></path>
<path fill="#f0f1f5" d="M16.8 9.733c0-0.133 0-0.133 0 0 0-0.267-0.133-0.267-0.133-0.267h-2.533c-0.133 0-0.133 0.133-0.133 0.133-0.267 0.533-0.533 0.933-0.8 1.467s-0.533 0.933-0.8 1.467c-0.133 0.533-0.4 0.933-0.667 1.467-0.267-0.533-0.533-0.933-0.8-1.467s-0.533-0.933-0.8-1.467c-0.267-0.4-0.533-0.933-0.8-1.467 0-0.133-0.133-0.133-0.133-0.133h-2.8v0.133l3.467 5.867-3.6 5.867v0.133h2.533c0.133 0 0.267 0 0.267-0.133 0.267-0.533 0.533-0.933 0.8-1.467s0.533-0.933 0.8-1.467c0.267-0.533 0.533-0.933 0.8-1.467 0.267 0.533 0.533 0.933 0.8 1.467s0.533 0.933 0.8 1.467c0.133 0.533 0.4 0.933 0.667 1.467 0.133 0.133 0.267 0.133 0.4 0.133h2.8c0-0.133 0-0.133 0-0.133l-3.6-6 3.467-5.6z"></path>
<path fill="#f0f1f5" d="M25.733 8.533h-2.267c-0.133 0-0.133 0-0.133 0.133v3.333c-0.133 0-0.267 0-0.4 0s-0.267 0-0.267 0c-1.2 0-2.133 0.267-2.933 0.667s-1.467 0.933-1.867 1.733c-0.4 0.667-0.667 1.6-0.667 2.4 0 1.067 0.267 2 0.667 2.667s1.067 1.333 1.733 1.6c0.667 0.4 1.6 0.533 2.4 0.533 0.533 0 1.2 0 1.733-0.133 0.667-0.133 1.333-0.267 1.867-0.533 0.133 0 0.133 0 0.267-0.133 0-0.133 0-0.4 0-0.667s0-0.4 0-0.667v-10.8c0-0.133-0.133-0.133-0.133-0.133zM23.067 19.333c-0.133 0-0.267 0-0.4 0-0.267 0-0.4 0-0.533 0-0.267 0-0.667 0-0.933-0.133-0.267 0-0.533-0.133-0.8-0.4s-0.4-0.533-0.533-0.8c-0.133-0.4-0.133-0.8-0.133-1.2 0-0.667 0.133-1.067 0.4-1.467 0.267-0.267 0.533-0.667 0.933-0.8s0.933-0.267 1.333-0.267c0.133 0 0.267 0.133 0.4 0 0 0 0.133 0 0.267 0v5.067z"></path>
</svg>
