<!-- Generated by IcoMoon.io -->
<svg version="1.1" xmlns="http://www.w3.org/2000/svg" width="32" height="32" viewBox="0 0 32 32">
<title>youtube</title>
<path fill="#f0f1f5" d="M31.733 10.267c-0.133-2.533-2.133-4.4-4.667-4.533-2.667-0.267-6.4-0.4-11.067-0.4s-8.4 0.133-11.067 0.267c-2.533 0.267-4.4 2.133-4.667 4.667-0.133 1.867-0.267 4-0.267 5.733s0.133 3.867 0.267 5.733c0.133 2.533 2.133 4.4 4.667 4.533 2.667 0.133 6.4 0.267 11.067 0.267s8.4-0.133 11.067-0.267c2.533-0.133 4.4-2.133 4.667-4.533 0.133-1.867 0.267-4 0.267-5.733s-0.133-3.867-0.267-5.733zM29.067 21.6c-0.133 1.2-0.933 2-2.133 2.133-2.667 0.133-6.4 0.267-10.933 0.267s-8.267-0.133-10.933-0.267c-1.2-0.133-2-0.933-2.133-2.133-0.133-1.867-0.267-4-0.267-5.6s0.133-3.733 0.267-5.6c0.133-1.067 0.933-2 2.133-2.133 2.667-0.133 6.4-0.267 10.933-0.267s8.267 0.133 10.933 0.267c1.2 0.133 2 0.933 2.133 2.133 0.133 1.867 0.267 4 0.267 5.6s-0.133 3.733-0.267 5.6z"></path>
<path fill="#f0f1f5" d="M15.467 12c-0.933-0.533-2.133 0-2.133 1.067v5.733c0 1.067 1.2 1.733 2.133 1.067l4.267-2.8c0.8-0.533 0.8-1.733 0-2.267l-4.267-2.8z"></path>
</svg>
