<!-- Generated by IcoMoon.io -->
<svg version="1.1" xmlns="http://www.w3.org/2000/svg" width="32" height="32" viewBox="0 0 32 32">
<title>zoom-out</title>
<path fill="#f0f1f5" d="M28.933 27.067l-7.2-7.2c1.467-1.867 2.267-4.133 2.267-6.533 0-5.867-4.8-10.667-10.667-10.667s-10.667 4.8-10.667 10.667 4.8 10.667 10.667 10.667c2.4 0 4.8-0.8 6.533-2.267l7.2 7.2c0.533 0.533 1.333 0.533 1.867 0s0.533-1.333 0-1.867zM13.333 21.333c-4.4 0-8-3.6-8-8s3.6-8 8-8 8 3.6 8 8-3.6 8-8 8z"></path>
<path fill="#f0f1f5" d="M17.333 12h-8c-0.8 0-1.333 0.533-1.333 1.333s0.533 1.333 1.333 1.333h8c0.8 0 1.333-0.533 1.333-1.333s-0.533-1.333-1.333-1.333z"></path>
</svg>
